<svg width="671" height="698" viewBox="0 0 671 698" fill="none" xmlns="http://www.w3.org/2000/svg">
<path d="M211.973 253.554C240.497 253.554 263.621 230.43 263.621 201.905C263.621 173.381 240.497 150.257 211.973 150.257C183.448 150.257 160.324 173.381 160.324 201.905C160.324 230.43 183.448 253.554 211.973 253.554Z" fill="url(#paint0_linear_997_690)" stroke="url(#paint1_linear_997_690)" stroke-width="0.5" stroke-miterlimit="10"/>
<path d="M222.187 201.719C227.947 198.282 231.848 191.966 231.848 184.813C231.848 173.852 222.93 165.027 212.062 165.027C201.194 165.027 192.183 173.852 192.183 184.813C192.183 192.059 196.084 198.282 201.844 201.719C190.882 204.506 182.801 214.26 182.801 226.057V235.997H241.23V226.057C241.23 214.353 233.056 204.506 222.187 201.719Z" fill="white" fill-opacity="0.8"/>
<path d="M223.861 186.485V182.584L220.795 181.562C220.702 181.19 220.516 180.726 220.331 180.354L221.817 177.474L219.03 174.688L216.151 176.174C215.779 175.988 215.407 175.802 214.943 175.71L213.921 172.644H210.02L208.998 175.71C208.626 175.802 208.162 175.988 207.79 176.174L204.911 174.688L202.124 177.474L203.61 180.354C203.424 180.726 203.238 181.097 203.146 181.562L200.08 182.584V186.485L203.146 187.507C203.238 187.878 203.424 188.343 203.61 188.714L202.124 191.594L204.911 194.381L207.79 192.895C208.162 193.08 208.533 193.266 208.998 193.359L210.02 196.425H213.921L214.943 193.359C215.314 193.266 215.779 193.08 216.151 192.895L219.03 194.381L221.817 191.594L220.331 188.714C220.516 188.343 220.702 187.971 220.795 187.507L223.861 186.485ZM211.97 190.572C208.626 190.572 205.932 187.878 205.932 184.534C205.932 181.19 208.626 178.496 211.97 178.496C215.314 178.496 218.008 181.19 218.008 184.534C218.008 187.878 215.314 190.572 211.97 190.572Z" fill="#3C6BAF"/>
<path d="M219.584 410.294L227.391 417.82L258.679 414.065L256.073 445.47L263.88 452.995" stroke="white" stroke-width="0.5" stroke-miterlimit="10"/>
<path d="M236.531 392.714L244.337 400.24L241.732 431.645L273.02 427.89L280.826 435.416" stroke="white" stroke-width="0.5" stroke-miterlimit="10"/>
<path d="M265.789 454.835C266.682 453.909 266.655 452.434 265.729 451.541C264.802 450.649 263.328 450.676 262.435 451.602C261.542 452.528 261.569 454.002 262.495 454.895C263.422 455.788 264.896 455.761 265.789 454.835Z" fill="white"/>
<path d="M282.734 437.256C283.627 436.329 283.6 434.855 282.674 433.962C281.748 433.069 280.273 433.096 279.38 434.022C278.487 434.948 278.514 436.423 279.441 437.316C280.367 438.209 281.841 438.182 282.734 437.256Z" fill="white"/>
<path d="M221.26 411.91C222.153 410.984 222.125 409.51 221.199 408.617C220.273 407.724 218.799 407.751 217.906 408.677C217.013 409.603 217.04 411.078 217.966 411.971C218.892 412.864 220.367 412.837 221.26 411.91Z" fill="white"/>
<path d="M243.41 433.261C244.303 432.335 244.276 430.86 243.35 429.967C242.424 429.075 240.949 429.102 240.056 430.028C239.163 430.954 239.19 432.429 240.116 433.321C241.043 434.214 242.517 434.187 243.41 433.261Z" fill="white"/>
<path d="M260.357 415.682C261.25 414.755 261.223 413.281 260.297 412.388C259.371 411.495 257.896 411.522 257.003 412.448C256.111 413.374 256.138 414.849 257.064 415.742C257.99 416.635 259.464 416.608 260.357 415.682Z" fill="white"/>
<path d="M238.207 394.331C239.1 393.405 239.073 391.93 238.147 391.037C237.22 390.144 235.746 390.171 234.853 391.098C233.96 392.024 233.987 393.498 234.913 394.391C235.839 395.284 237.314 395.257 238.207 394.331Z" fill="white"/>
<path d="M423.779 269.861L425.172 277.855L445.731 289.405L430.288 307.226L431.68 315.22" stroke="white" stroke-width="0.5" stroke-miterlimit="10"/>
<path d="M441.781 266.725L443.174 274.719L427.73 292.541L448.289 304.091L449.682 312.085" stroke="white" stroke-width="0.5" stroke-miterlimit="10"/>
<path d="M432.023 317.174C432.971 317.009 433.606 316.107 433.441 315.158C433.276 314.21 432.373 313.575 431.424 313.74C430.476 313.905 429.841 314.808 430.006 315.756C430.171 316.705 431.074 317.34 432.023 317.174Z" fill="white"/>
<path d="M450.023 314.038C450.971 313.873 451.606 312.97 451.441 312.022C451.276 311.074 450.373 310.439 449.424 310.604C448.476 310.769 447.841 311.672 448.006 312.62C448.171 313.569 449.074 314.204 450.023 314.038Z" fill="white"/>
<path d="M424.077 271.577C425.026 271.412 425.661 270.509 425.495 269.561C425.33 268.612 424.427 267.977 423.479 268.143C422.531 268.308 421.896 269.211 422.061 270.159C422.226 271.107 423.129 271.742 424.077 271.577Z" fill="white"/>
<path d="M428.03 294.258C428.979 294.093 429.614 293.191 429.449 292.242C429.283 291.294 428.381 290.659 427.432 290.824C426.484 290.989 425.849 291.892 426.014 292.84C426.179 293.789 427.082 294.424 428.03 294.258Z" fill="white"/>
<path d="M446.032 291.122C446.981 290.957 447.616 290.054 447.45 289.106C447.285 288.158 446.382 287.523 445.434 287.688C444.486 287.853 443.851 288.756 444.016 289.704C444.181 290.653 445.084 291.288 446.032 291.122Z" fill="white"/>
<path d="M442.079 268.441C443.028 268.276 443.663 267.373 443.497 266.425C443.332 265.476 442.429 264.841 441.481 265.007C440.533 265.172 439.898 266.075 440.063 267.023C440.228 267.971 441.131 268.606 442.079 268.441Z" fill="white"/>
<path d="M330.906 239.257L340.349 235.532L349.309 207.425L375.044 221.846L384.487 218.121" stroke="white" stroke-width="0.5" stroke-miterlimit="10"/>
<path d="M322.518 217.993L331.961 214.268L357.697 228.689L366.656 200.582L376.099 196.857" stroke="white" stroke-width="0.5" stroke-miterlimit="10"/>
<path d="M386.798 217.21C386.356 216.09 385.089 215.54 383.969 215.982C382.849 216.424 382.299 217.691 382.741 218.811C383.183 219.931 384.449 220.481 385.57 220.039C386.69 219.597 387.24 218.331 386.798 217.21Z" fill="white"/>
<path d="M378.407 195.946C377.965 194.826 376.699 194.276 375.579 194.718C374.458 195.16 373.908 196.426 374.35 197.547C374.792 198.667 376.059 199.217 377.179 198.775C378.299 198.333 378.849 197.067 378.407 195.946Z" fill="white"/>
<path d="M332.935 238.458C332.493 237.338 331.226 236.788 330.106 237.23C328.986 237.672 328.436 238.938 328.878 240.059C329.319 241.179 330.586 241.729 331.706 241.287C332.827 240.845 333.377 239.579 332.935 238.458Z" fill="white"/>
<path d="M359.73 227.887C359.288 226.767 358.021 226.217 356.901 226.659C355.78 227.101 355.231 228.367 355.672 229.488C356.114 230.608 357.381 231.158 358.501 230.716C359.622 230.274 360.171 229.007 359.73 227.887Z" fill="white"/>
<path d="M351.339 206.624C350.897 205.503 349.63 204.954 348.51 205.395C347.39 205.837 346.84 207.104 347.282 208.224C347.724 209.344 348.99 209.894 350.111 209.452C351.231 209.011 351.781 207.744 351.339 206.624Z" fill="white"/>
<path d="M324.548 217.194C324.106 216.074 322.839 215.524 321.719 215.966C320.599 216.408 320.049 217.674 320.491 218.795C320.933 219.915 322.199 220.465 323.32 220.023C324.44 219.581 324.99 218.314 324.548 217.194Z" fill="white"/>
<path d="M494.926 234.305L477.978 241.603L479.334 221.424L494.926 234.305Z" stroke="white" stroke-width="0.5" stroke-miterlimit="10"/>
<path d="M479.868 222.663C480.704 222.304 481.097 221.351 480.746 220.536C480.395 219.721 479.433 219.352 478.597 219.712C477.762 220.072 477.369 221.024 477.72 221.839C478.071 222.654 479.033 223.023 479.868 222.663Z" fill="white"/>
<path d="M495.562 235.781C496.398 235.421 496.79 234.468 496.439 233.653C496.088 232.838 495.126 232.469 494.291 232.829C493.455 233.189 493.062 234.141 493.413 234.956C493.764 235.771 494.726 236.14 495.562 235.781Z" fill="white"/>
<path d="M478.614 243.079C479.45 242.719 479.843 241.767 479.492 240.951C479.141 240.136 478.179 239.767 477.343 240.127C476.508 240.487 476.115 241.44 476.466 242.255C476.817 243.07 477.779 243.439 478.614 243.079Z" fill="white"/>
<path d="M480.511 200.831L463.562 208.129L479.155 221.01L480.511 200.831Z" stroke="white" stroke-width="0.5" stroke-miterlimit="10"/>
<path d="M479.866 222.663C480.702 222.303 481.095 221.351 480.744 220.536C480.393 219.721 479.431 219.352 478.595 219.712C477.76 220.071 477.367 221.024 477.718 221.839C478.069 222.654 479.031 223.023 479.866 222.663Z" fill="white"/>
<path d="M481.148 202.307C481.983 201.947 482.376 200.994 482.025 200.179C481.674 199.364 480.712 198.995 479.877 199.355C479.041 199.715 478.648 200.667 478.999 201.483C479.35 202.298 480.312 202.667 481.148 202.307Z" fill="white"/>
<path d="M464.198 209.605C465.034 209.245 465.427 208.293 465.076 207.478C464.725 206.663 463.763 206.294 462.927 206.654C462.092 207.013 461.699 207.966 462.05 208.781C462.401 209.596 463.363 209.965 464.198 209.605Z" fill="white"/>
<path d="M294.437 459.348L303.257 485.577L273.266 481.065L294.437 459.348Z" stroke="white" stroke-width="0.5" stroke-miterlimit="10"/>
<path d="M275.185 480.42C274.75 479.127 273.375 478.422 272.113 478.846C270.852 479.27 270.182 480.663 270.617 481.956C271.052 483.249 272.427 483.954 273.688 483.53C274.95 483.106 275.62 481.713 275.185 480.42Z" fill="white"/>
<path d="M296.722 458.58C296.287 457.287 294.912 456.582 293.65 457.006C292.389 457.43 291.719 458.823 292.154 460.116C292.589 461.41 293.964 462.114 295.225 461.69C296.487 461.266 297.157 459.873 296.722 458.58Z" fill="white"/>
<path d="M305.542 484.809C305.107 483.516 303.732 482.811 302.471 483.236C301.209 483.66 300.539 485.052 300.974 486.345C301.409 487.639 302.784 488.344 304.046 487.919C305.307 487.495 305.977 486.103 305.542 484.809Z" fill="white"/>
<path d="M242.635 476.768L251.455 502.997L272.627 481.28L242.635 476.768Z" stroke="white" stroke-width="0.5" stroke-miterlimit="10"/>
<path d="M275.185 480.42C274.75 479.126 273.375 478.422 272.113 478.846C270.852 479.27 270.182 480.663 270.617 481.956C271.052 483.249 272.427 483.954 273.688 483.53C274.95 483.106 275.62 481.713 275.185 480.42Z" fill="white"/>
<path d="M244.919 476C244.484 474.706 243.109 474.002 241.848 474.426C240.586 474.85 239.916 476.242 240.351 477.536C240.786 478.829 242.161 479.534 243.423 479.11C244.684 478.685 245.354 477.293 244.919 476Z" fill="white"/>
<path d="M253.74 502.229C253.305 500.936 251.929 500.231 250.668 500.655C249.407 501.079 248.737 502.472 249.171 503.765C249.606 505.059 250.982 505.763 252.243 505.339C253.505 504.915 254.175 503.522 253.74 502.229Z" fill="white"/>
<path d="M295.651 219.847L279.261 185.869L321.434 186.468L295.651 219.847Z" stroke="white" stroke-width="0.5" stroke-miterlimit="10"/>
<path d="M318.763 187.756C319.571 189.431 321.585 190.134 323.26 189.326C324.936 188.518 325.639 186.504 324.831 184.829C324.022 183.153 322.009 182.45 320.333 183.258C318.658 184.067 317.955 186.08 318.763 187.756Z" fill="white"/>
<path d="M292.619 221.311C293.427 222.986 295.44 223.689 297.116 222.881C298.791 222.073 299.494 220.059 298.686 218.384C297.878 216.708 295.864 216.005 294.189 216.813C292.513 217.622 291.81 219.635 292.619 221.311Z" fill="white"/>
<path d="M276.224 187.333C277.032 189.008 279.046 189.711 280.721 188.903C282.397 188.095 283.1 186.082 282.292 184.406C281.483 182.731 279.47 182.028 277.794 182.836C276.119 183.644 275.416 185.657 276.224 187.333Z" fill="white"/>
<path d="M400.89 426.267L373.205 438.994L374.321 404.945L400.89 426.267Z" stroke="white" stroke-width="0.5" stroke-miterlimit="10"/>
<path d="M375.321 407.121C376.686 406.493 377.284 404.878 376.656 403.513C376.029 402.148 374.413 401.55 373.048 402.177C371.683 402.805 371.085 404.42 371.712 405.785C372.34 407.151 373.955 407.749 375.321 407.121Z" fill="white"/>
<path d="M402.026 428.738C403.391 428.11 403.989 426.495 403.361 425.13C402.734 423.765 401.118 423.167 399.753 423.794C398.388 424.422 397.79 426.037 398.418 427.402C399.045 428.768 400.661 429.366 402.026 428.738Z" fill="white"/>
<path d="M374.34 441.467C375.705 440.84 376.303 439.224 375.676 437.859C375.048 436.494 373.433 435.896 372.068 436.523C370.702 437.151 370.104 438.767 370.732 440.132C371.36 441.497 372.975 442.095 374.34 441.467Z" fill="white"/>
<path d="M134.114 457.503L126.592 435.472L152.384 438.965L134.114 457.503Z" stroke="white" stroke-width="0.5" stroke-miterlimit="10"/>
<path d="M150.653 439.556C151.024 440.642 152.206 441.222 153.292 440.851C154.379 440.48 154.959 439.299 154.588 438.212C154.217 437.126 153.035 436.546 151.949 436.917C150.863 437.288 150.283 438.469 150.653 439.556Z" fill="white"/>
<path d="M132.15 458.176C132.521 459.262 133.702 459.842 134.788 459.471C135.875 459.1 136.455 457.919 136.084 456.833C135.713 455.746 134.531 455.166 133.445 455.537C132.359 455.908 131.779 457.089 132.15 458.176Z" fill="white"/>
<path d="M124.624 436.143C124.995 437.23 126.177 437.81 127.263 437.439C128.349 437.068 128.929 435.886 128.558 434.8C128.187 433.714 127.006 433.134 125.92 433.505C124.833 433.876 124.253 435.057 124.624 436.143Z" fill="white"/>
<path d="M360.078 350.449C389.245 350.449 412.89 326.804 412.89 297.637C412.89 268.469 389.245 244.824 360.078 244.824C330.91 244.824 307.266 268.469 307.266 297.637C307.266 326.804 330.91 350.449 360.078 350.449Z" fill="url(#paint2_linear_997_690)" stroke="url(#paint3_linear_997_690)" stroke-width="0.5" stroke-miterlimit="10"/>
<path d="M360.081 338.804C382.817 338.804 401.248 320.373 401.248 297.637C401.248 274.901 382.817 256.469 360.081 256.469C337.345 256.469 318.914 274.901 318.914 297.637C318.914 320.373 337.345 338.804 360.081 338.804Z" fill="url(#paint4_linear_997_690)" stroke="url(#paint5_linear_997_690)" stroke-width="0.5" stroke-miterlimit="10"/>
<path d="M360.075 268.115C343.772 268.115 330.553 281.333 330.553 297.637C330.553 313.94 343.772 327.159 360.075 327.159C376.378 327.159 389.597 313.94 389.597 297.637C389.597 281.333 376.378 268.115 360.075 268.115ZM345.471 297.637C345.471 292.979 346.038 288.572 347.108 284.67C350.885 283.662 355.102 283.096 359.634 283.096V312.24C355.165 312.177 350.885 311.611 347.108 310.667C346.101 306.701 345.471 302.295 345.471 297.637ZM346.038 310.352C337.351 307.834 331.497 303.113 331.497 297.637C331.497 292.223 337.351 287.439 346.038 284.921C345.093 288.824 344.527 293.104 344.527 297.637C344.527 302.169 345.093 306.449 346.038 310.352ZM360.578 269.122C365.803 269.437 370.335 275.228 372.79 283.6C369.076 282.655 364.922 282.152 360.578 282.089V269.122ZM359.571 282.089C355.228 282.152 351.073 282.655 347.359 283.6C349.814 275.165 354.347 269.437 359.571 269.122V282.089ZM359.571 313.184V326.151C354.347 325.837 349.814 320.046 347.359 311.674C351.073 312.618 355.228 313.121 359.571 313.184ZM360.578 313.184C364.922 313.121 369.076 312.618 372.79 311.674C370.335 320.109 365.803 325.837 360.578 326.151V313.184ZM360.578 312.24V283.033C365.048 283.096 369.328 283.662 373.042 284.607C374.049 288.509 374.678 292.916 374.678 297.574C374.678 302.232 374.112 306.638 373.042 310.541C369.265 311.611 365.048 312.177 360.578 312.24ZM375.623 297.637C375.623 293.104 375.056 288.824 374.112 284.921C382.798 287.439 388.653 292.16 388.653 297.637C388.653 303.05 382.798 307.834 374.112 310.352C375.056 306.512 375.623 302.169 375.623 297.637ZM388.212 292.916C385.82 289.013 380.595 285.74 373.86 283.851C371.972 277.053 368.698 271.828 364.796 269.437C376.756 271.514 386.198 280.956 388.212 292.916ZM355.354 269.499C351.451 271.891 348.178 277.116 346.289 283.851C339.554 285.74 334.33 289.013 331.938 292.916C333.952 280.956 343.394 271.514 355.354 269.499ZM331.938 302.358C334.33 306.26 339.554 309.534 346.289 311.422C348.178 318.22 351.451 323.445 355.354 325.837C343.394 323.759 333.952 314.317 331.938 302.358ZM364.796 325.774C368.698 323.382 371.972 318.157 373.86 311.359C380.658 309.471 385.883 306.197 388.212 302.295C386.198 314.317 376.756 323.759 364.796 325.774Z" fill="white"/>
<path d="M556.995 371.837C575.194 371.837 589.948 357.083 589.948 338.883C589.948 320.683 575.194 305.929 556.995 305.929C538.795 305.929 524.041 320.683 524.041 338.883C524.041 357.083 538.795 371.837 556.995 371.837Z" fill="url(#paint6_linear_997_690)" stroke="url(#paint7_linear_997_690)" stroke-width="0.5" stroke-miterlimit="10"/>
<path d="M556.995 349.673C562.954 349.673 567.785 344.842 567.785 338.883C567.785 332.923 562.954 328.093 556.995 328.093C551.036 328.093 546.205 332.923 546.205 338.883C546.205 344.842 551.036 349.673 556.995 349.673Z" stroke="url(#paint8_linear_997_690)" stroke-width="0.5" stroke-miterlimit="10"/>
<path d="M584.917 321.531C579.158 312.199 568.805 306.002 556.994 306.002V338.956L584.917 321.531Z" fill="url(#paint9_linear_997_690)" stroke="url(#paint10_linear_997_690)" stroke-width="0.5" stroke-miterlimit="10"/>
<path d="M313.691 373.396C317.912 357.645 308.565 341.456 292.814 337.235C277.063 333.015 260.874 342.362 256.653 358.113C252.433 373.863 261.78 390.053 277.531 394.273C293.281 398.494 309.471 389.146 313.691 373.396Z" fill="url(#paint11_linear_997_690)" stroke="url(#paint12_linear_997_690)" stroke-width="0.5" stroke-miterlimit="10"/>
<path d="M294.51 368.256C295.892 363.099 292.832 357.797 287.674 356.416C282.517 355.034 277.216 358.094 275.834 363.252C274.452 368.409 277.513 373.71 282.67 375.092C287.827 376.474 293.128 373.413 294.51 368.256Z" stroke="url(#paint13_linear_997_690)" stroke-width="0.5" stroke-miterlimit="10"/>
<path d="M276.625 337.565C267.214 340.386 259.45 347.908 256.711 358.13L285.23 365.771L276.625 337.565Z" fill="url(#paint14_linear_997_690)" stroke="url(#paint15_linear_997_690)" stroke-width="0.5" stroke-miterlimit="10"/>
<path d="M363.491 96C338.866 96 318.904 115.962 318.904 140.587C318.904 165.212 338.866 185.174 363.491 185.174C388.116 185.174 408.078 165.212 408.078 140.587C408.078 115.962 388.116 96 363.491 96Z" fill="url(#paint16_linear_997_690)" stroke="url(#paint17_linear_997_690)" stroke-width="0.5" stroke-miterlimit="10"/>
<path d="M363.489 125.988C355.426 125.988 348.889 132.525 348.889 140.588C348.889 148.651 355.426 155.187 363.489 155.187C371.552 155.187 378.088 148.651 378.088 140.588C378.088 132.525 371.552 125.988 363.489 125.988Z" stroke="url(#paint18_linear_997_690)" stroke-width="0.5" stroke-miterlimit="10"/>
<path d="M325.712 164.064C333.504 176.691 347.512 185.076 363.492 185.076L363.492 140.488L325.712 164.064Z" fill="url(#paint19_linear_997_690)" stroke="url(#paint20_linear_997_690)" stroke-width="0.5" stroke-miterlimit="10"/>
<path d="M290.026 556.607C304.61 556.607 316.433 544.784 316.433 530.2C316.433 515.616 304.61 503.793 290.026 503.793C275.442 503.793 263.619 515.616 263.619 530.2C263.619 544.784 275.442 556.607 290.026 556.607Z" fill="url(#paint21_linear_997_690)"/>
<path d="M290.025 538.847C294.801 538.847 298.672 534.975 298.672 530.2C298.672 525.425 294.801 521.554 290.025 521.554C285.25 521.554 281.379 525.425 281.379 530.2C281.379 534.975 285.25 538.847 290.025 538.847Z" stroke="url(#paint22_linear_997_690)" stroke-width="0.5" stroke-miterlimit="10"/>
<path d="M290.026 534.056C292.155 534.056 293.882 532.33 293.882 530.2C293.882 528.071 292.155 526.344 290.026 526.344C287.896 526.344 286.17 528.071 286.17 530.2C286.17 532.33 287.896 534.056 290.026 534.056Z" fill="white"/>
<path d="M290.027 521.554V503.852" stroke="white" stroke-width="0.5" stroke-miterlimit="10"/>
<path d="M283.951 524.124L271.391 511.564" stroke="white" stroke-width="0.5" stroke-miterlimit="10"/>
<path d="M281.38 530.2H263.678" stroke="white" stroke-width="0.5" stroke-miterlimit="10"/>
<path d="M283.951 536.334L271.391 548.895" stroke="white" stroke-width="0.5" stroke-miterlimit="10"/>
<path d="M290.027 538.847V556.607" stroke="white" stroke-width="0.5" stroke-miterlimit="10"/>
<path d="M296.16 536.334L308.721 548.895" stroke="white" stroke-width="0.5" stroke-miterlimit="10"/>
<path d="M298.674 530.2H316.434" stroke="white" stroke-width="0.5" stroke-miterlimit="10"/>
<path d="M296.16 524.124L308.721 511.564" stroke="white" stroke-width="0.5" stroke-miterlimit="10"/>
<path d="M290.026 556.607C304.61 556.607 316.433 544.784 316.433 530.2C316.433 515.616 304.61 503.793 290.026 503.793C275.442 503.793 263.619 515.616 263.619 530.2C263.619 544.784 275.442 556.607 290.026 556.607Z" stroke="url(#paint23_linear_997_690)" stroke-width="0.5" stroke-miterlimit="10"/>
<path d="M496.402 319.023C515.686 319.023 531.319 303.39 531.319 284.106C531.319 264.822 515.686 249.189 496.402 249.189C477.117 249.189 461.484 264.822 461.484 284.106C461.484 303.39 477.117 319.023 496.402 319.023Z" fill="url(#paint24_linear_997_690)"/>
<path d="M496.406 295.539C502.72 295.539 507.839 290.42 507.839 284.106C507.839 277.792 502.72 272.673 496.406 272.673C490.091 272.673 484.973 277.792 484.973 284.106C484.973 290.42 490.091 295.539 496.406 295.539Z" stroke="url(#paint25_linear_997_690)" stroke-width="0.5" stroke-miterlimit="10"/>
<path d="M496.399 289.205C499.215 289.205 501.498 286.922 501.498 284.106C501.498 281.29 499.215 279.008 496.399 279.008C493.583 279.008 491.301 281.29 491.301 284.106C491.301 286.922 493.583 289.205 496.399 289.205Z" fill="white"/>
<path d="M496.396 272.673V249.266" stroke="white" stroke-width="0.5" stroke-miterlimit="10"/>
<path d="M488.363 276.072L471.754 259.463" stroke="white" stroke-width="0.5" stroke-miterlimit="10"/>
<path d="M484.964 284.106H461.557" stroke="white" stroke-width="0.5" stroke-miterlimit="10"/>
<path d="M488.363 292.218L471.754 308.826" stroke="white" stroke-width="0.5" stroke-miterlimit="10"/>
<path d="M496.396 295.539V319.023" stroke="white" stroke-width="0.5" stroke-miterlimit="10"/>
<path d="M504.508 292.218L521.117 308.826" stroke="white" stroke-width="0.5" stroke-miterlimit="10"/>
<path d="M507.826 284.106H531.31" stroke="white" stroke-width="0.5" stroke-miterlimit="10"/>
<path d="M504.508 276.072L521.117 259.463" stroke="white" stroke-width="0.5" stroke-miterlimit="10"/>
<path d="M496.402 319.023C515.686 319.023 531.319 303.39 531.319 284.106C531.319 264.822 515.686 249.189 496.402 249.189C477.117 249.189 461.484 264.822 461.484 284.106C461.484 303.39 477.117 319.023 496.402 319.023Z" stroke="url(#paint26_linear_997_690)" stroke-width="0.5" stroke-miterlimit="10"/>
<path d="M350.911 438.25V429.668L344.199 427.467C343.869 426.587 343.539 425.707 343.099 424.826L346.29 418.444L340.238 412.393L333.856 415.584C332.976 415.143 332.095 414.813 331.215 414.483L329.014 407.771H320.432L318.231 414.483C317.351 414.813 316.471 415.143 315.59 415.584L309.208 412.393L303.157 418.444L306.348 424.826C305.907 425.707 305.577 426.587 305.247 427.467L298.535 429.668V438.25L305.247 440.451C305.577 441.331 305.907 442.212 306.348 443.092L303.157 449.474L309.208 455.526L315.59 452.335C316.471 452.775 317.351 453.105 318.231 453.435L320.432 460.147H329.014L331.215 453.435C332.095 453.105 332.976 452.775 333.856 452.335L340.238 455.526L346.29 449.474L343.099 443.092C343.539 442.212 343.869 441.331 344.199 440.451L350.911 438.25ZM324.723 447.383C317.351 447.383 311.299 441.331 311.299 433.959C311.299 426.587 317.351 420.535 324.723 420.535C332.095 420.535 338.147 426.587 338.147 433.959C338.147 441.331 332.095 447.383 324.723 447.383Z" fill="url(#paint27_linear_997_690)" stroke="url(#paint28_linear_997_690)" stroke-width="0.5" stroke-miterlimit="10"/>
<path d="M371.28 381.773V375.574L366.433 373.985C366.194 373.349 365.956 372.713 365.638 372.078L367.942 367.468L363.572 363.098L358.962 365.402C358.327 365.084 357.691 364.846 357.055 364.608L355.466 359.76H349.267L347.678 364.608C347.042 364.846 346.406 365.084 345.771 365.402L341.162 363.098L336.791 367.468L339.095 372.078C338.778 372.713 338.539 373.349 338.301 373.985L333.453 375.574V381.773L338.301 383.362C338.539 383.998 338.778 384.634 339.095 385.269L336.791 389.879L341.162 394.249L345.771 391.945C346.406 392.263 347.042 392.501 347.678 392.739L349.267 397.587H355.466L357.055 392.739C357.691 392.501 358.327 392.263 358.962 391.945L363.572 394.249L367.942 389.879L365.638 385.269C365.956 384.634 366.194 383.998 366.433 383.362L371.28 381.773ZM352.367 388.369C347.042 388.369 342.671 383.998 342.671 378.673C342.671 373.349 347.042 368.978 352.367 368.978C357.691 368.978 362.062 373.349 362.062 378.673C362.062 383.998 357.691 388.369 352.367 388.369Z" fill="url(#paint29_linear_997_690)" stroke="url(#paint30_linear_997_690)" stroke-width="0.5" stroke-miterlimit="10"/>
<path d="M155.956 237.846V229.979L149.804 227.962C149.501 227.155 149.199 226.348 148.795 225.541L151.72 219.691L146.173 214.143L140.323 217.068C139.516 216.665 138.709 216.362 137.902 216.06L135.885 209.907H128.017L126 216.06C125.193 216.362 124.386 216.665 123.579 217.068L117.729 214.143L112.182 219.691L115.107 225.541C114.703 226.348 114.401 227.155 114.098 227.962L107.945 229.979V237.846L114.098 239.864C114.401 240.671 114.703 241.477 115.107 242.284L112.182 248.134L117.729 253.682L123.579 250.757C124.386 251.16 125.193 251.463 126 251.766L128.017 257.918H135.885L137.902 251.766C138.709 251.463 139.516 251.16 140.323 250.757L146.173 253.682L151.72 248.134L148.795 242.284C149.199 241.477 149.501 240.671 149.804 239.864L155.956 237.846ZM131.951 246.218C125.193 246.218 119.646 240.671 119.646 233.913C119.646 227.155 125.193 221.607 131.951 221.607C138.709 221.607 144.256 227.155 144.256 233.913C144.256 240.671 138.709 246.218 131.951 246.218Z" fill="url(#paint31_linear_997_690)" stroke="url(#paint32_linear_997_690)" stroke-width="0.5" stroke-miterlimit="10"/>
<path d="M302.899 143.517V135.173L296.374 133.034C296.053 132.178 295.732 131.322 295.304 130.466L298.406 124.262L292.523 118.378L286.318 121.48C285.462 121.052 284.606 120.731 283.751 120.41L281.611 113.885H273.267L271.127 120.41C270.272 120.731 269.416 121.052 268.56 121.48L262.355 118.378L256.472 124.262L259.574 130.466C259.146 131.322 258.825 132.178 258.504 133.034L251.979 135.173V143.517L258.504 145.657C258.825 146.513 259.146 147.369 259.574 148.224L256.472 154.429L262.355 160.313L268.56 157.21C269.416 157.638 270.272 157.959 271.127 158.28L273.267 164.806H281.611L283.751 158.28C284.606 157.959 285.462 157.638 286.318 157.21L292.523 160.313L298.406 154.429L295.304 148.224C295.732 147.369 296.053 146.513 296.374 145.657L302.899 143.517ZM277.439 152.396C270.272 152.396 264.388 146.513 264.388 139.345C264.388 132.178 270.272 126.294 277.439 126.294C284.606 126.294 290.49 132.178 290.49 139.345C290.49 146.513 284.606 152.396 277.439 152.396Z" fill="url(#paint33_linear_997_690)" stroke="url(#paint34_linear_997_690)" stroke-width="0.5" stroke-miterlimit="10"/>
<path d="M228.702 473.513V462.785L220.312 460.034C219.9 458.934 219.487 457.833 218.937 456.733L222.925 448.756L215.361 441.191L207.383 445.18C206.283 444.629 205.183 444.217 204.082 443.804L201.331 435.414H190.603L187.852 443.804C186.752 444.217 185.652 444.629 184.551 445.18L176.574 441.191L169.009 448.756L172.998 456.733C172.448 457.833 172.035 458.934 171.622 460.034L163.232 462.785V473.513L171.622 476.264C172.035 477.364 172.448 478.465 172.998 479.565L169.009 487.542L176.574 495.107L184.551 491.118C185.652 491.669 186.752 492.081 187.852 492.494L190.603 500.884H201.331L204.082 492.494C205.183 492.081 206.283 491.669 207.383 491.118L215.361 495.107L222.925 487.542L218.937 479.565C219.487 478.465 219.9 477.364 220.312 476.264L228.702 473.513ZM195.967 484.929C186.752 484.929 179.187 477.364 179.187 468.149C179.187 458.934 186.752 451.369 195.967 451.369C205.183 451.369 212.747 458.934 212.747 468.149C212.747 477.364 205.183 484.929 195.967 484.929Z" fill="url(#paint35_linear_997_690)" stroke="url(#paint36_linear_997_690)" stroke-width="0.5" stroke-miterlimit="10"/>
<path d="M455.662 235.044V225.507L448.204 223.062C447.838 222.084 447.471 221.106 446.982 220.128L450.527 213.037L443.803 206.313L436.712 209.858C435.734 209.369 434.756 209.002 433.778 208.636L431.333 201.178H421.796L419.351 208.636C418.373 209.002 417.395 209.369 416.417 209.858L409.326 206.313L402.602 213.037L406.147 220.128C405.658 221.106 405.291 222.084 404.925 223.062L397.467 225.507V235.044L404.925 237.489C405.291 238.467 405.658 239.445 406.147 240.423L402.602 247.514L409.326 254.238L416.417 250.693C417.395 251.182 418.373 251.549 419.351 251.915L421.796 259.373H431.333L433.778 251.915C434.756 251.549 435.734 251.182 436.712 250.693L443.803 254.238L450.527 247.514L446.982 240.423C447.471 239.445 447.838 238.467 448.204 237.489L455.662 235.044ZM426.564 245.191C418.373 245.191 411.649 238.467 411.649 230.275C411.649 222.084 418.373 215.36 426.564 215.36C434.756 215.36 441.48 222.084 441.48 230.275C441.48 238.467 434.756 245.191 426.564 245.191Z" fill="url(#paint37_linear_997_690)" stroke="url(#paint38_linear_997_690)" stroke-width="0.5" stroke-miterlimit="10"/>
<path d="M177.319 298.157C152.233 289.993 125.261 303.892 117.479 329.217C109.9 353.917 124.632 381.16 149.434 388.427C163.101 392.415 177.138 389.962 188.233 382.752C193.161 379.636 199.319 379.108 204.836 380.904L213.684 383.783L227.913 340.066L219.065 337.186C213.549 335.391 208.848 331.443 206.698 326.023C201.831 313.388 191.371 302.731 177.319 298.157Z" fill="url(#paint39_linear_997_690)" stroke="url(#paint40_linear_997_690)" stroke-width="0.5" stroke-miterlimit="10"/>
<path d="M242.738 346.502L229.356 387.617C228.509 390.219 225.749 391.624 223.147 390.777C220.545 389.93 219.14 387.17 219.987 384.568L233.37 343.453C234.217 340.85 236.976 339.446 239.578 340.293C242.215 341.036 243.585 343.9 242.738 346.502Z" fill="white"/>
<path d="M184.806 275.501C183.973 275.23 183.002 275.029 182.17 274.758L181.118 263.134L159.088 261.144L156.017 272.347C154.219 272.567 152.316 272.754 150.588 273.112L144.632 263.116L123.917 270.878L125.937 282.356C124.352 283.337 122.87 284.351 121.389 285.366L111.616 278.961L96.1865 294.89L103.004 304.362C102.045 305.892 101.087 307.422 100.199 309.089L88.7636 307.44L81.8861 328.57L92.1717 334.105C91.908 335.976 91.7823 337.777 91.6566 339.578L80.5705 343.222L83.5644 365.147L95.2342 365.722C95.8346 367.414 96.4012 369.21 97.1397 370.832L88.7505 378.923L100.858 397.253L111.556 392.677C112.847 394.018 114.171 395.255 115.495 396.492L111.383 407.356L130.468 418.748L138.16 409.97C138.993 410.241 139.896 410.65 140.729 410.921C141.561 411.192 142.532 411.393 143.365 411.664L144.416 423.288L166.447 425.278L169.517 414.075C171.316 413.854 173.218 413.668 174.947 413.309L180.902 423.306L201.617 415.544L195.83 390.176C181.501 400.247 162.729 403.807 144.826 397.98C114.64 388.155 98.0364 355.698 107.895 325.408C117.754 295.118 150.177 278.619 180.467 288.478C198.37 294.305 211.484 308.128 217.106 324.808L236.716 307.707L224.539 289.239L213.84 293.815C212.55 292.474 211.226 291.237 209.902 290L214.013 279.136L195.032 267.778L187.34 276.556C186.437 276.147 185.638 275.772 184.806 275.501Z" stroke="url(#paint41_linear_997_690)" stroke-width="0.5" stroke-miterlimit="10"/>
<path d="M182.595 344.889L180.63 350.927L173.317 349.697L170.878 357.192L177.513 360.503L175.684 366.124L139.065 347.413L141.945 338.565L182.595 344.889ZM165.806 354.735L167.704 348.906L147.186 345.452L165.806 354.735Z" fill="white"/>
<path d="M144.928 329.406L146.893 323.368L185.51 335.938L183.545 341.975L144.928 329.406Z" fill="white"/>
<path d="M454.502 410.681C471.215 410.681 484.763 397.132 484.763 380.419C484.763 363.706 471.215 350.158 454.502 350.158C437.789 350.158 424.24 363.706 424.24 380.419C424.24 397.132 437.789 410.681 454.502 410.681Z" fill="white" fill-opacity="0.9"/>
<path d="M456.978 393.202H452.935L452.283 388.637H447.326L446.674 393.202H443.021L447.065 367.767H452.935L456.978 393.202ZM447.848 385.115H451.761L449.804 372.202L447.848 385.115Z" fill="#3C6BAF"/>
<path d="M458.805 367.767H462.848V393.202H458.805V367.767Z" fill="#3C6BAF"/>
<path d="M501.71 380.908C501.71 380.699 501.71 380.386 501.71 380.177L509.495 376.209L506.128 361.382L497.396 361.173C497.186 360.755 496.975 360.233 496.765 359.816L502.025 352.924L492.452 341.021L484.456 344.466C484.035 344.153 483.614 343.84 483.194 343.527L484.982 335.069L471.2 328.386L465.519 335.069C464.993 334.964 464.572 334.756 464.046 334.651L461.942 326.298H446.582L444.478 334.651C443.952 334.86 443.426 334.964 442.9 335.069L437.324 328.386L423.437 335.069L425.225 343.631C424.804 343.944 424.384 344.258 423.963 344.571L416.072 340.916L406.499 352.82L411.759 359.711C411.549 360.129 411.338 360.651 411.128 361.069L402.396 361.278L398.924 376.209L406.709 380.177C406.709 380.386 406.709 380.699 406.709 380.908C406.709 381.117 406.709 381.43 406.709 381.639L398.924 385.607L402.396 400.434L411.128 400.643C411.338 401.061 411.549 401.583 411.759 402L406.499 408.892L416.072 420.796L424.068 417.245C424.489 417.559 424.91 417.872 425.33 418.185L423.437 426.747L437.324 433.326L442.9 426.643C443.426 426.747 443.847 426.956 444.373 427.061L446.477 435.414H461.837L463.941 427.061C464.467 426.956 464.888 426.852 465.414 426.643L470.99 433.326L484.877 426.747L483.088 418.185C483.509 417.872 483.93 417.559 484.351 417.245L492.346 420.796L501.92 408.892L496.66 402C496.87 401.583 497.081 401.061 497.291 400.643L506.023 400.434L509.39 385.607L501.605 381.639C501.71 381.326 501.71 381.117 501.71 380.908ZM454.262 419.334C432.905 419.334 415.546 402.105 415.546 380.908C415.546 359.711 432.905 342.482 454.262 342.482C475.619 342.482 492.978 359.711 492.978 380.908C492.978 402.105 475.619 419.334 454.262 419.334Z" fill="url(#paint42_linear_997_690)" stroke="url(#paint43_linear_997_690)" stroke-width="0.5" stroke-miterlimit="10"/>
<path d="M460.789 175.436C473.268 175.436 483.384 165.32 483.384 152.841C483.384 140.362 473.268 130.245 460.789 130.245C448.31 130.245 438.193 140.362 438.193 152.841C438.193 165.32 448.31 175.436 460.789 175.436Z" fill="white" fill-opacity="0.8"/>
<path d="M462.638 162.385H459.619L459.132 158.977H455.431L454.944 162.385H452.217L455.236 143.394H459.619L462.638 162.385ZM455.82 156.347H458.742L457.281 146.705L455.82 156.347Z" fill="#3C6BAF"/>
<path d="M464.002 143.394H467.021V162.385H464.002V143.394Z" fill="#3C6BAF"/>
<path d="M496.038 153.206C496.038 153.05 496.038 152.816 496.038 152.66L501.851 149.697L499.337 138.626L492.817 138.47C492.66 138.158 492.503 137.769 492.346 137.457L496.273 132.311L489.125 123.423L483.155 125.996C482.841 125.762 482.527 125.528 482.212 125.294L483.548 118.979L473.257 113.989L469.015 118.979C468.623 118.901 468.308 118.745 467.916 118.667L466.345 112.43H454.876L453.305 118.667C452.912 118.823 452.519 118.901 452.126 118.979L447.963 113.989L437.594 118.979L438.929 125.372C438.615 125.606 438.301 125.84 437.987 126.074L432.095 123.345L424.947 132.233L428.875 137.379C428.717 137.691 428.56 138.08 428.403 138.392L421.883 138.548L419.291 149.697L425.104 152.66C425.104 152.816 425.104 153.05 425.104 153.206C425.104 153.362 425.104 153.595 425.104 153.751L419.291 156.714L421.883 167.785L428.403 167.941C428.56 168.253 428.717 168.643 428.875 168.955L424.947 174.1L432.095 182.988L438.065 180.337C438.38 180.571 438.694 180.805 439.008 181.039L437.594 187.432L447.963 192.344L452.126 187.354C452.519 187.432 452.833 187.588 453.226 187.666L454.797 193.903H466.266L467.837 187.666C468.23 187.588 468.544 187.51 468.937 187.354L473.1 192.344L483.469 187.432L482.134 181.039C482.448 180.805 482.762 180.571 483.076 180.337L489.047 182.988L496.195 174.1L492.267 168.955C492.424 168.643 492.581 168.253 492.739 167.941L499.259 167.785L501.772 156.714L495.959 153.751C496.038 153.518 496.038 153.362 496.038 153.206ZM460.61 181.897C444.664 181.897 431.702 169.033 431.702 153.206C431.702 137.379 444.664 124.515 460.61 124.515C476.557 124.515 489.518 137.379 489.518 153.206C489.518 169.033 476.557 181.897 460.61 181.897Z" fill="url(#paint44_linear_997_690)" stroke="url(#paint45_linear_997_690)" stroke-width="0.5" stroke-miterlimit="10"/>
<path d="M621.245 241.668L574.505 162.362C566.473 148.733 549.075 144.238 535.446 152.27L528.578 156.318C514.949 164.351 510.454 181.748 518.487 195.377C520.258 198.382 519.181 202.197 516.283 203.905L507.161 209.281C504.586 210.799 505.132 214.67 508.032 215.419L531.911 221.589C533.446 221.985 534.912 223.001 535.797 224.503L565.397 274.727C573.366 288.249 590.934 292.788 604.456 284.818L611.324 280.771C624.782 272.694 629.214 255.189 621.245 241.668Z" fill="url(#paint46_linear_997_690)" stroke="url(#paint47_linear_997_690)" stroke-width="0.5" stroke-miterlimit="10"/>
<path d="M560.137 171.841L605.991 249.645" stroke="white" stroke-width="0.5" stroke-miterlimit="10" stroke-linecap="round"/>
<path d="M549.086 178.356L594.94 256.159" stroke="white" stroke-width="0.5" stroke-miterlimit="10" stroke-linecap="round"/>
<path d="M537.924 184.933L553.925 212.084" stroke="white" stroke-width="0.5" stroke-miterlimit="10" stroke-linecap="round"/>
<path d="M276.263 242.645L245.436 274.932C240.138 280.48 240.339 289.191 245.888 294.489L248.684 297.159C254.232 302.457 262.944 302.255 268.242 296.707C269.41 295.484 271.332 295.482 272.512 296.608L276.225 300.154C277.274 301.155 279.008 300.389 278.974 298.937L278.698 286.98C278.68 286.211 278.96 285.393 279.544 284.782L299.067 264.335C304.323 258.83 304.12 250.033 298.615 244.777L295.819 242.107C290.272 236.895 281.519 237.14 276.263 242.645Z" fill="url(#paint48_linear_997_690)" stroke="url(#paint49_linear_997_690)" stroke-width="0.5" stroke-miterlimit="10"/>
<path d="M251.756 280.382L281.999 248.707" stroke="white" stroke-width="0.5" stroke-miterlimit="10" stroke-linecap="round"/>
<path d="M256.256 284.679L286.499 253.004" stroke="white" stroke-width="0.5" stroke-miterlimit="10" stroke-linecap="round"/>
<path d="M260.801 289.017L271.355 277.964" stroke="white" stroke-width="0.5" stroke-miterlimit="10" stroke-linecap="round"/>
<path d="M542.01 584.509C532.481 573.73 518.109 555.922 518.109 546.237C518.109 517.338 506.081 497.656 486.711 486.409C493.428 499.374 497.333 514.214 497.333 529.835C497.333 581.853 455.157 624.186 402.982 624.186C395.016 624.186 387.205 623.093 379.707 621.218C383.3 625.592 387.049 629.498 390.486 632.466C399.39 640.589 402.982 652.929 400.171 664.645L392.204 697.293H467.966V674.642C467.966 664.176 476.401 655.741 486.867 655.741H496.24C508.112 655.741 517.641 646.212 517.641 634.34V593.725H537.792C542.635 593.725 545.134 588.102 542.01 584.509Z" fill="url(#paint50_linear_997_690)" stroke="url(#paint51_linear_997_690)" stroke-width="0.5" stroke-miterlimit="10"/>
<path d="M403.14 608.253C446.449 608.253 481.558 573.144 481.558 529.835C481.558 486.527 446.449 451.418 403.14 451.418C359.831 451.418 324.723 486.527 324.723 529.835C324.723 573.144 359.831 608.253 403.14 608.253Z" stroke="url(#paint52_linear_997_690)" stroke-width="0.5" stroke-miterlimit="10"/>
<path d="M456.408 529.835C456.408 529.523 456.408 529.21 456.408 529.054L465.156 524.524L461.251 507.81L451.41 507.653C451.097 507.185 450.941 506.56 450.629 506.091L456.564 498.281L445.942 484.691L437.038 488.752C436.57 488.44 436.101 488.127 435.632 487.659L437.663 477.973L422.198 470.632L415.95 478.13C415.325 477.973 414.856 477.817 414.231 477.661L411.888 468.132H394.705L392.362 477.661C391.737 477.817 391.269 477.973 390.644 478.13L384.395 470.632L368.93 478.13L370.961 487.815C370.493 488.127 370.024 488.44 369.555 488.908L360.339 484.691L349.56 498.125L355.496 505.935C355.184 506.404 355.028 506.872 354.715 507.497L344.874 507.653L340.969 524.368L349.717 528.898C349.717 529.21 349.717 529.523 349.717 529.679C349.717 529.992 349.717 530.304 349.717 530.46L340.969 534.99L344.874 551.705L354.715 551.861C355.028 552.33 355.184 552.954 355.496 553.423L349.56 561.234L360.339 574.668L369.243 570.606C369.711 570.919 370.18 571.231 370.649 571.7L368.774 581.541L384.239 589.039L390.487 581.541C391.112 581.697 391.581 581.853 392.206 582.01L394.549 591.538H411.732L414.075 582.01C414.7 581.853 415.169 581.697 415.794 581.541L422.042 589.039L437.663 581.541L435.632 571.856C436.101 571.544 436.57 571.231 437.038 570.762L445.942 574.824L456.721 561.39L450.785 553.579C451.097 553.111 451.253 552.642 451.566 552.017L461.407 551.861L465.312 535.146L456.408 530.773C456.408 530.46 456.408 530.148 456.408 529.835ZM403.141 573.262C379.24 573.262 359.714 553.892 359.714 529.835C359.714 505.935 379.084 486.409 403.141 486.409C427.041 486.409 446.567 505.779 446.567 529.835C446.567 553.892 427.197 573.262 403.141 573.262Z" fill="white"/>
<circle cx="112" cy="179" r="4" fill="#D9D9D9" fill-opacity="0.8"/>
<circle cx="179" cy="113" r="4" fill="#D9D9D9" fill-opacity="0.6"/>
<circle cx="204" cy="73" r="4" fill="#D9D9D9" fill-opacity="0.8"/>
<circle cx="252.5" cy="93.5" r="4.5" fill="#D9D9D9" fill-opacity="0.6"/>
<circle cx="422" cy="76" r="6" fill="#D9D9D9" fill-opacity="0.35"/>
<circle cx="36" cy="371" r="4" fill="#D9D9D9" fill-opacity="0.35"/>
<circle cx="65.5" cy="326.5" r="4.5" fill="#D9D9D9" fill-opacity="0.6"/>
<circle cx="603" cy="307" r="6" fill="#D9D9D9" fill-opacity="0.35"/>
<circle cx="33.5" cy="304.5" r="1.5" fill="#D9D9D9" fill-opacity="0.6"/>
<circle cx="58.5" cy="223.5" r="1.5" fill="#D9D9D9" fill-opacity="0.8"/>
<circle cx="101.5" cy="117.5" r="1.5" fill="#D9D9D9" fill-opacity="0.8"/>
<circle cx="35.5" cy="105.5" r="1.5" fill="#D9D9D9" fill-opacity="0.8"/>
<circle cx="254.5" cy="54.5" r="1.5" fill="#D9D9D9" fill-opacity="0.8"/>
<circle cx="247.5" cy="15.5" r="1.5" fill="#D9D9D9" fill-opacity="0.6"/>
<circle cx="342.5" cy="64.5" r="1.5" fill="#D9D9D9" fill-opacity="0.6"/>
<circle cx="398.5" cy="82.5" r="1.5" fill="#D9D9D9" fill-opacity="0.8"/>
<circle cx="344.5" cy="1.5" r="1.5" fill="#D9D9D9" fill-opacity="0.6"/>
<circle cx="92.5" cy="261.5" r="2.5" fill="#D9D9D9" fill-opacity="0.8"/>
<circle cx="223" cy="123" r="3" fill="#D9D9D9" fill-opacity="0.8"/>
<circle cx="313.5" cy="75.5" r="2.5" fill="#D9D9D9" fill-opacity="0.6"/>
<circle cx="489" cy="79" r="2" fill="#D9D9D9" fill-opacity="0.8"/>
<circle cx="46" cy="334" r="2" fill="#D9D9D9" fill-opacity="0.8"/>
<circle cx="2" cy="351" r="2" fill="#D9D9D9" fill-opacity="0.6"/>
<circle cx="529.5" cy="120.5" r="4.5" fill="#D9D9D9" fill-opacity="0.35"/>
<circle cx="606.5" cy="161.5" r="4.5" fill="#D9D9D9" fill-opacity="0.8"/>
<circle cx="532.5" cy="80.5" r="2.5" fill="#D9D9D9" fill-opacity="0.8"/>
<circle cx="647" cy="277" r="3" fill="#D9D9D9" fill-opacity="0.35"/>
<circle cx="588" cy="148" r="2" fill="#D9D9D9" fill-opacity="0.6"/>
<circle cx="625" cy="118" r="2" fill="#D9D9D9" fill-opacity="0.8"/>
<circle cx="652" cy="229" r="2" fill="#D9D9D9" fill-opacity="0.6"/>
<circle cx="669" cy="236" r="2" fill="#D9D9D9" fill-opacity="0.8"/>
<circle cx="86.5" cy="217.5" r="3.5" fill="#D9D9D9" fill-opacity="0.6"/>
<circle cx="142" cy="163" r="3" fill="#D9D9D9" fill-opacity="0.8"/>
<circle cx="130" cy="93" r="3" fill="#D9D9D9" fill-opacity="0.8"/>
<circle cx="371.5" cy="57.5" r="3.5" fill="#D9D9D9" fill-opacity="0.8"/>
<circle cx="584" cy="53" r="3" fill="#D9D9D9" fill-opacity="0.6"/>
<circle cx="27" cy="209" r="4" fill="#D9D9D9" fill-opacity="0.35"/>
<circle cx="424" cy="24" r="3" fill="#D9D9D9" fill-opacity="0.6"/>
<circle cx="470.5" cy="34.5" r="3.5" fill="#D9D9D9" fill-opacity="0.35"/>
<circle cx="581" cy="113" r="2" fill="#D9D9D9" fill-opacity="0.8"/>
<circle cx="291" cy="50" r="4" fill="#D9D9D9" fill-opacity="0.35"/>
<defs>
<linearGradient id="paint0_linear_997_690" x1="160.297" y1="201.894" x2="263.626" y2="201.894" gradientUnits="userSpaceOnUse">
<stop stop-color="white" stop-opacity="0.1"/>
<stop offset="1" stop-color="white" stop-opacity="0.4"/>
</linearGradient>
<linearGradient id="paint1_linear_997_690" x1="159.581" y1="201.894" x2="264.342" y2="201.894" gradientUnits="userSpaceOnUse">
<stop stop-color="#C7F7FF"/>
<stop offset="0.2374" stop-color="white"/>
<stop offset="0.4246" stop-color="#C7F7FF"/>
<stop offset="0.6006" stop-color="white"/>
<stop offset="0.7374" stop-color="#C7F7FF"/>
<stop offset="0.8855" stop-color="white"/>
<stop offset="1" stop-color="#C7F7FF"/>
</linearGradient>
<linearGradient id="paint2_linear_997_690" x1="307.247" y1="297.637" x2="412.909" y2="297.637" gradientUnits="userSpaceOnUse">
<stop stop-color="white" stop-opacity="0.1"/>
<stop offset="1" stop-color="white" stop-opacity="0.4"/>
</linearGradient>
<linearGradient id="paint3_linear_997_690" x1="306.762" y1="297.637" x2="413.394" y2="297.637" gradientUnits="userSpaceOnUse">
<stop stop-color="#C7F7FF"/>
<stop offset="0.2374" stop-color="white"/>
<stop offset="0.4246" stop-color="#C7F7FF"/>
<stop offset="0.6006" stop-color="white"/>
<stop offset="0.7374" stop-color="#C7F7FF"/>
<stop offset="0.8855" stop-color="white"/>
<stop offset="1" stop-color="#C7F7FF"/>
</linearGradient>
<linearGradient id="paint4_linear_997_690" x1="318.896" y1="297.637" x2="401.267" y2="297.637" gradientUnits="userSpaceOnUse">
<stop stop-color="#278EF4" stop-opacity="0.4"/>
<stop offset="1" stop-color="#1D57CC" stop-opacity="0.2"/>
</linearGradient>
<linearGradient id="paint5_linear_997_690" x1="318.41" y1="297.637" x2="401.753" y2="297.637" gradientUnits="userSpaceOnUse">
<stop stop-color="#C7F7FF"/>
<stop offset="0.2374" stop-color="white"/>
<stop offset="0.4246" stop-color="#C7F7FF"/>
<stop offset="0.6006" stop-color="white"/>
<stop offset="0.7374" stop-color="#C7F7FF"/>
<stop offset="0.8855" stop-color="white"/>
<stop offset="1" stop-color="#C7F7FF"/>
</linearGradient>
<linearGradient id="paint6_linear_997_690" x1="524.093" y1="338.907" x2="589.945" y2="338.907" gradientUnits="userSpaceOnUse">
<stop stop-color="white" stop-opacity="0.1"/>
<stop offset="1" stop-color="white" stop-opacity="0.4"/>
</linearGradient>
<linearGradient id="paint7_linear_997_690" x1="523.531" y1="338.907" x2="590.507" y2="338.907" gradientUnits="userSpaceOnUse">
<stop stop-color="#C7F7FF"/>
<stop offset="0.2374" stop-color="white"/>
<stop offset="0.4246" stop-color="#C7F7FF"/>
<stop offset="0.6006" stop-color="white"/>
<stop offset="0.7374" stop-color="#C7F7FF"/>
<stop offset="0.8855" stop-color="white"/>
<stop offset="1" stop-color="#C7F7FF"/>
</linearGradient>
<linearGradient id="paint8_linear_997_690" x1="545.661" y1="338.907" x2="568.378" y2="338.907" gradientUnits="userSpaceOnUse">
<stop stop-color="#C7F7FF"/>
<stop offset="0.2374" stop-color="white"/>
<stop offset="0.4246" stop-color="#C7F7FF"/>
<stop offset="0.6006" stop-color="white"/>
<stop offset="0.7374" stop-color="#C7F7FF"/>
<stop offset="0.8855" stop-color="white"/>
<stop offset="1" stop-color="#C7F7FF"/>
</linearGradient>
<linearGradient id="paint9_linear_997_690" x1="557.018" y1="322.444" x2="584.953" y2="322.444" gradientUnits="userSpaceOnUse">
<stop stop-color="#278EF4" stop-opacity="0.4"/>
<stop offset="1" stop-color="#1D57CC" stop-opacity="0.2"/>
</linearGradient>
<linearGradient id="paint10_linear_997_690" x1="556.456" y1="322.669" x2="585.727" y2="322.669" gradientUnits="userSpaceOnUse">
<stop stop-color="#C7F7FF"/>
<stop offset="0.2374" stop-color="white"/>
<stop offset="0.4246" stop-color="#C7F7FF"/>
<stop offset="0.6006" stop-color="white"/>
<stop offset="0.7374" stop-color="#C7F7FF"/>
<stop offset="0.8855" stop-color="white"/>
<stop offset="1" stop-color="#C7F7FF"/>
</linearGradient>
<linearGradient id="paint11_linear_997_690" x1="277.564" y1="394.234" x2="292.834" y2="337.244" gradientUnits="userSpaceOnUse">
<stop stop-color="white" stop-opacity="0.1"/>
<stop offset="1" stop-color="white" stop-opacity="0.4"/>
</linearGradient>
<linearGradient id="paint12_linear_997_690" x1="277.433" y1="394.721" x2="292.965" y2="336.757" gradientUnits="userSpaceOnUse">
<stop stop-color="#C7F7FF"/>
<stop offset="0.2374" stop-color="white"/>
<stop offset="0.4246" stop-color="#C7F7FF"/>
<stop offset="0.6006" stop-color="white"/>
<stop offset="0.7374" stop-color="#C7F7FF"/>
<stop offset="0.8855" stop-color="white"/>
<stop offset="1" stop-color="#C7F7FF"/>
</linearGradient>
<linearGradient id="paint13_linear_997_690" x1="282.565" y1="375.568" x2="287.833" y2="355.909" gradientUnits="userSpaceOnUse">
<stop stop-color="#C7F7FF"/>
<stop offset="0.2374" stop-color="white"/>
<stop offset="0.4246" stop-color="#C7F7FF"/>
<stop offset="0.6006" stop-color="white"/>
<stop offset="0.7374" stop-color="#C7F7FF"/>
<stop offset="0.8855" stop-color="white"/>
<stop offset="1" stop-color="#C7F7FF"/>
</linearGradient>
<linearGradient id="paint14_linear_997_690" x1="270.946" y1="361.921" x2="277.423" y2="337.746" gradientUnits="userSpaceOnUse">
<stop stop-color="#278EF4" stop-opacity="0.4"/>
<stop offset="1" stop-color="#1D57CC" stop-opacity="0.2"/>
</linearGradient>
<linearGradient id="paint15_linear_997_690" x1="271.01" y1="362.46" x2="277.797" y2="337.128" gradientUnits="userSpaceOnUse">
<stop stop-color="#C7F7FF"/>
<stop offset="0.2374" stop-color="white"/>
<stop offset="0.4246" stop-color="#C7F7FF"/>
<stop offset="0.6006" stop-color="white"/>
<stop offset="0.7374" stop-color="#C7F7FF"/>
<stop offset="0.8855" stop-color="white"/>
<stop offset="1" stop-color="#C7F7FF"/>
</linearGradient>
<linearGradient id="paint16_linear_997_690" x1="408.008" y1="140.554" x2="318.908" y2="140.554" gradientUnits="userSpaceOnUse">
<stop stop-color="white" stop-opacity="0.1"/>
<stop offset="1" stop-color="white" stop-opacity="0.4"/>
</linearGradient>
<linearGradient id="paint17_linear_997_690" x1="408.769" y1="140.554" x2="318.148" y2="140.554" gradientUnits="userSpaceOnUse">
<stop stop-color="#C7F7FF"/>
<stop offset="0.2374" stop-color="white"/>
<stop offset="0.4246" stop-color="#C7F7FF"/>
<stop offset="0.6006" stop-color="white"/>
<stop offset="0.7374" stop-color="#C7F7FF"/>
<stop offset="0.8855" stop-color="white"/>
<stop offset="1" stop-color="#C7F7FF"/>
</linearGradient>
<linearGradient id="paint18_linear_997_690" x1="378.824" y1="140.555" x2="348.088" y2="140.555" gradientUnits="userSpaceOnUse">
<stop stop-color="#C7F7FF"/>
<stop offset="0.2374" stop-color="white"/>
<stop offset="0.4246" stop-color="#C7F7FF"/>
<stop offset="0.6006" stop-color="white"/>
<stop offset="0.7374" stop-color="#C7F7FF"/>
<stop offset="0.8855" stop-color="white"/>
<stop offset="1" stop-color="#C7F7FF"/>
</linearGradient>
<linearGradient id="paint19_linear_997_690" x1="363.46" y1="162.829" x2="325.664" y2="162.829" gradientUnits="userSpaceOnUse">
<stop stop-color="#278EF4" stop-opacity="0.4"/>
<stop offset="1" stop-color="#1D57CC" stop-opacity="0.2"/>
</linearGradient>
<linearGradient id="paint20_linear_997_690" x1="364.22" y1="162.525" x2="324.616" y2="162.525" gradientUnits="userSpaceOnUse">
<stop stop-color="#C7F7FF"/>
<stop offset="0.2374" stop-color="white"/>
<stop offset="0.4246" stop-color="#C7F7FF"/>
<stop offset="0.6006" stop-color="white"/>
<stop offset="0.7374" stop-color="#C7F7FF"/>
<stop offset="0.8855" stop-color="white"/>
<stop offset="1" stop-color="#C7F7FF"/>
</linearGradient>
<linearGradient id="paint21_linear_997_690" x1="263.661" y1="530.22" x2="316.43" y2="530.22" gradientUnits="userSpaceOnUse">
<stop stop-color="white" stop-opacity="0.1"/>
<stop offset="1" stop-color="white" stop-opacity="0.4"/>
</linearGradient>
<linearGradient id="paint22_linear_997_690" x1="280.943" y1="530.22" x2="299.146" y2="530.22" gradientUnits="userSpaceOnUse">
<stop stop-color="#C7F7FF"/>
<stop offset="0.2374" stop-color="white"/>
<stop offset="0.4246" stop-color="#C7F7FF"/>
<stop offset="0.6006" stop-color="white"/>
<stop offset="0.7374" stop-color="#C7F7FF"/>
<stop offset="0.8855" stop-color="white"/>
<stop offset="1" stop-color="#C7F7FF"/>
</linearGradient>
<linearGradient id="paint23_linear_997_690" x1="263.21" y1="530.22" x2="316.88" y2="530.22" gradientUnits="userSpaceOnUse">
<stop stop-color="#C7F7FF"/>
<stop offset="0.2374" stop-color="white"/>
<stop offset="0.4246" stop-color="#C7F7FF"/>
<stop offset="0.6006" stop-color="white"/>
<stop offset="0.7374" stop-color="#C7F7FF"/>
<stop offset="0.8855" stop-color="white"/>
<stop offset="1" stop-color="#C7F7FF"/>
</linearGradient>
<linearGradient id="paint24_linear_997_690" x1="461.539" y1="284.132" x2="531.315" y2="284.132" gradientUnits="userSpaceOnUse">
<stop stop-color="white" stop-opacity="0.1"/>
<stop offset="1" stop-color="white" stop-opacity="0.4"/>
</linearGradient>
<linearGradient id="paint25_linear_997_690" x1="484.396" y1="284.132" x2="508.466" y2="284.132" gradientUnits="userSpaceOnUse">
<stop stop-color="#C7F7FF"/>
<stop offset="0.2374" stop-color="white"/>
<stop offset="0.4246" stop-color="#C7F7FF"/>
<stop offset="0.6006" stop-color="white"/>
<stop offset="0.7374" stop-color="#C7F7FF"/>
<stop offset="0.8855" stop-color="white"/>
<stop offset="1" stop-color="#C7F7FF"/>
</linearGradient>
<linearGradient id="paint26_linear_997_690" x1="460.944" y1="284.132" x2="531.911" y2="284.132" gradientUnits="userSpaceOnUse">
<stop stop-color="#C7F7FF"/>
<stop offset="0.2374" stop-color="white"/>
<stop offset="0.4246" stop-color="#C7F7FF"/>
<stop offset="0.6006" stop-color="white"/>
<stop offset="0.7374" stop-color="#C7F7FF"/>
<stop offset="0.8855" stop-color="white"/>
<stop offset="1" stop-color="#C7F7FF"/>
</linearGradient>
<linearGradient id="paint27_linear_997_690" x1="298.494" y1="433.932" x2="350.897" y2="433.932" gradientUnits="userSpaceOnUse">
<stop stop-color="white" stop-opacity="0.1"/>
<stop offset="1" stop-color="white" stop-opacity="0.4"/>
</linearGradient>
<linearGradient id="paint28_linear_997_690" x1="297.985" y1="433.932" x2="351.406" y2="433.932" gradientUnits="userSpaceOnUse">
<stop stop-color="#C7F7FF"/>
<stop offset="0.2374" stop-color="white"/>
<stop offset="0.4246" stop-color="#C7F7FF"/>
<stop offset="0.6006" stop-color="white"/>
<stop offset="0.7374" stop-color="#C7F7FF"/>
<stop offset="0.8855" stop-color="white"/>
<stop offset="1" stop-color="#C7F7FF"/>
</linearGradient>
<linearGradient id="paint29_linear_997_690" x1="333.423" y1="378.654" x2="371.27" y2="378.654" gradientUnits="userSpaceOnUse">
<stop stop-color="white" stop-opacity="0.1"/>
<stop offset="1" stop-color="white" stop-opacity="0.4"/>
</linearGradient>
<linearGradient id="paint30_linear_997_690" x1="333.056" y1="378.654" x2="371.637" y2="378.654" gradientUnits="userSpaceOnUse">
<stop stop-color="#C7F7FF"/>
<stop offset="0.2374" stop-color="white"/>
<stop offset="0.4246" stop-color="#C7F7FF"/>
<stop offset="0.6006" stop-color="white"/>
<stop offset="0.7374" stop-color="#C7F7FF"/>
<stop offset="0.8855" stop-color="white"/>
<stop offset="1" stop-color="#C7F7FF"/>
</linearGradient>
<linearGradient id="paint31_linear_997_690" x1="107.907" y1="233.887" x2="155.943" y2="233.887" gradientUnits="userSpaceOnUse">
<stop stop-color="white" stop-opacity="0.1"/>
<stop offset="1" stop-color="white" stop-opacity="0.4"/>
</linearGradient>
<linearGradient id="paint32_linear_997_690" x1="107.441" y1="233.887" x2="156.41" y2="233.887" gradientUnits="userSpaceOnUse">
<stop stop-color="#C7F7FF"/>
<stop offset="0.2374" stop-color="white"/>
<stop offset="0.4246" stop-color="#C7F7FF"/>
<stop offset="0.6006" stop-color="white"/>
<stop offset="0.7374" stop-color="#C7F7FF"/>
<stop offset="0.8855" stop-color="white"/>
<stop offset="1" stop-color="#C7F7FF"/>
</linearGradient>
<linearGradient id="paint33_linear_997_690" x1="251.938" y1="139.318" x2="302.886" y2="139.318" gradientUnits="userSpaceOnUse">
<stop stop-color="white" stop-opacity="0.1"/>
<stop offset="1" stop-color="white" stop-opacity="0.4"/>
</linearGradient>
<linearGradient id="paint34_linear_997_690" x1="251.444" y1="139.318" x2="303.38" y2="139.318" gradientUnits="userSpaceOnUse">
<stop stop-color="#C7F7FF"/>
<stop offset="0.2374" stop-color="white"/>
<stop offset="0.4246" stop-color="#C7F7FF"/>
<stop offset="0.6006" stop-color="white"/>
<stop offset="0.7374" stop-color="#C7F7FF"/>
<stop offset="0.8855" stop-color="white"/>
<stop offset="1" stop-color="#C7F7FF"/>
</linearGradient>
<linearGradient id="paint35_linear_997_690" x1="163.181" y1="468.114" x2="228.684" y2="468.114" gradientUnits="userSpaceOnUse">
<stop stop-color="white" stop-opacity="0.1"/>
<stop offset="1" stop-color="white" stop-opacity="0.4"/>
</linearGradient>
<linearGradient id="paint36_linear_997_690" x1="162.545" y1="468.114" x2="229.32" y2="468.114" gradientUnits="userSpaceOnUse">
<stop stop-color="#C7F7FF"/>
<stop offset="0.2374" stop-color="white"/>
<stop offset="0.4246" stop-color="#C7F7FF"/>
<stop offset="0.6006" stop-color="white"/>
<stop offset="0.7374" stop-color="#C7F7FF"/>
<stop offset="0.8855" stop-color="white"/>
<stop offset="1" stop-color="#C7F7FF"/>
</linearGradient>
<linearGradient id="paint37_linear_997_690" x1="397.421" y1="230.245" x2="455.646" y2="230.245" gradientUnits="userSpaceOnUse">
<stop stop-color="white" stop-opacity="0.1"/>
<stop offset="1" stop-color="white" stop-opacity="0.4"/>
</linearGradient>
<linearGradient id="paint38_linear_997_690" x1="396.856" y1="230.245" x2="456.212" y2="230.245" gradientUnits="userSpaceOnUse">
<stop stop-color="#C7F7FF"/>
<stop offset="0.2374" stop-color="white"/>
<stop offset="0.4246" stop-color="#C7F7FF"/>
<stop offset="0.6006" stop-color="white"/>
<stop offset="0.7374" stop-color="#C7F7FF"/>
<stop offset="0.8855" stop-color="white"/>
<stop offset="1" stop-color="#C7F7FF"/>
</linearGradient>
<linearGradient id="paint39_linear_997_690" x1="154.648" y1="390.288" x2="183.921" y2="300.351" gradientUnits="userSpaceOnUse">
<stop stop-color="white" stop-opacity="0.1"/>
<stop offset="1" stop-color="white" stop-opacity="0.4"/>
</linearGradient>
<linearGradient id="paint40_linear_997_690" x1="154.387" y1="391.09" x2="184.183" y2="299.549" gradientUnits="userSpaceOnUse">
<stop stop-color="#C7F7FF"/>
<stop offset="0.2374" stop-color="white"/>
<stop offset="0.4246" stop-color="#C7F7FF"/>
<stop offset="0.6006" stop-color="white"/>
<stop offset="0.7374" stop-color="#C7F7FF"/>
<stop offset="0.8855" stop-color="white"/>
<stop offset="1" stop-color="#C7F7FF"/>
</linearGradient>
<linearGradient id="paint41_linear_997_690" x1="126.748" y1="418.573" x2="178.014" y2="261.066" gradientUnits="userSpaceOnUse">
<stop stop-color="#C7F7FF"/>
<stop offset="0.2374" stop-color="white"/>
<stop offset="0.4246" stop-color="#C7F7FF"/>
<stop offset="0.6006" stop-color="white"/>
<stop offset="0.7374" stop-color="#C7F7FF"/>
<stop offset="0.8855" stop-color="white"/>
<stop offset="1" stop-color="#C7F7FF"/>
</linearGradient>
<linearGradient id="paint42_linear_997_690" x1="398.932" y1="380.866" x2="509.52" y2="380.866" gradientUnits="userSpaceOnUse">
<stop stop-color="white" stop-opacity="0.1"/>
<stop offset="1" stop-color="white" stop-opacity="0.4"/>
</linearGradient>
<linearGradient id="paint43_linear_997_690" x1="398.187" y1="380.866" x2="510.265" y2="380.866" gradientUnits="userSpaceOnUse">
<stop stop-color="#C7F7FF"/>
<stop offset="0.2374" stop-color="white"/>
<stop offset="0.4246" stop-color="#C7F7FF"/>
<stop offset="0.6006" stop-color="white"/>
<stop offset="0.7374" stop-color="#C7F7FF"/>
<stop offset="0.8855" stop-color="white"/>
<stop offset="1" stop-color="#C7F7FF"/>
</linearGradient>
<linearGradient id="paint44_linear_997_690" x1="419.297" y1="153.174" x2="501.869" y2="153.174" gradientUnits="userSpaceOnUse">
<stop stop-color="white" stop-opacity="0.1"/>
<stop offset="1" stop-color="white" stop-opacity="0.4"/>
</linearGradient>
<linearGradient id="paint45_linear_997_690" x1="418.741" y1="153.174" x2="502.426" y2="153.174" gradientUnits="userSpaceOnUse">
<stop stop-color="#C7F7FF"/>
<stop offset="0.2374" stop-color="white"/>
<stop offset="0.4246" stop-color="#C7F7FF"/>
<stop offset="0.6006" stop-color="white"/>
<stop offset="0.7374" stop-color="#C7F7FF"/>
<stop offset="0.8855" stop-color="white"/>
<stop offset="1" stop-color="#C7F7FF"/>
</linearGradient>
<linearGradient id="paint46_linear_997_690" x1="523.298" y1="159.388" x2="599.024" y2="287.875" gradientUnits="userSpaceOnUse">
<stop stop-color="white" stop-opacity="0.1"/>
<stop offset="1" stop-color="white" stop-opacity="0.4"/>
</linearGradient>
<linearGradient id="paint47_linear_997_690" x1="522.811" y1="158.56" x2="599.511" y2="288.702" gradientUnits="userSpaceOnUse">
<stop stop-color="#C7F7FF"/>
<stop offset="0.2374" stop-color="white"/>
<stop offset="0.4246" stop-color="#C7F7FF"/>
<stop offset="0.6006" stop-color="white"/>
<stop offset="0.7374" stop-color="#C7F7FF"/>
<stop offset="0.8855" stop-color="white"/>
<stop offset="1" stop-color="#C7F7FF"/>
</linearGradient>
<linearGradient id="paint48_linear_997_690" x1="250.814" y1="299.217" x2="300.759" y2="246.908" gradientUnits="userSpaceOnUse">
<stop stop-color="white" stop-opacity="0.1"/>
<stop offset="1" stop-color="white" stop-opacity="0.4"/>
</linearGradient>
<linearGradient id="paint49_linear_997_690" x1="250.492" y1="299.554" x2="301.08" y2="246.571" gradientUnits="userSpaceOnUse">
<stop stop-color="#C7F7FF"/>
<stop offset="0.2374" stop-color="white"/>
<stop offset="0.4246" stop-color="#C7F7FF"/>
<stop offset="0.6006" stop-color="white"/>
<stop offset="0.7374" stop-color="#C7F7FF"/>
<stop offset="0.8855" stop-color="white"/>
<stop offset="1" stop-color="#C7F7FF"/>
</linearGradient>
<linearGradient id="paint50_linear_997_690" x1="379.916" y1="591.854" x2="543.408" y2="591.854" gradientUnits="userSpaceOnUse">
<stop stop-color="white" stop-opacity="0.1"/>
<stop offset="1" stop-color="white" stop-opacity="0.4"/>
</linearGradient>
<linearGradient id="paint51_linear_997_690" x1="377.28" y1="591.085" x2="544.371" y2="591.085" gradientUnits="userSpaceOnUse">
<stop stop-color="#C7F7FF"/>
<stop offset="0.2374" stop-color="white"/>
<stop offset="0.4246" stop-color="#C7F7FF"/>
<stop offset="0.6006" stop-color="white"/>
<stop offset="0.7374" stop-color="#C7F7FF"/>
<stop offset="0.8855" stop-color="white"/>
<stop offset="1" stop-color="#C7F7FF"/>
</linearGradient>
<linearGradient id="paint52_linear_997_690" x1="323.629" y1="529.876" x2="482.732" y2="529.876" gradientUnits="userSpaceOnUse">
<stop stop-color="#C7F7FF"/>
<stop offset="0.2374" stop-color="white"/>
<stop offset="0.4246" stop-color="#C7F7FF"/>
<stop offset="0.6006" stop-color="white"/>
<stop offset="0.7374" stop-color="#C7F7FF"/>
<stop offset="0.8855" stop-color="white"/>
<stop offset="1" stop-color="#C7F7FF"/>
</linearGradient>
</defs>
</svg>
