<svg width="206" height="27" viewBox="0 0 206 27" fill="none" xmlns="http://www.w3.org/2000/svg">
<path fill-rule="evenodd" clip-rule="evenodd" d="M17.0824 4.5476C16.2813 2.32568 14.0041 0.940426 11.5967 1.33114C9.77339 1.62713 8.29737 2.97291 7.66987 4.7094L0.0332556 25.8314C-0.0969812 26.1945 0.171383 26.5813 0.558147 26.5813H4.69021C4.927 26.5813 5.13617 26.4353 5.2151 26.2143L12.1216 7.10892C12.2163 6.8445 12.5912 6.8445 12.686 7.10892L19.5767 26.2143C19.6556 26.4353 19.8648 26.5852 20.1016 26.5852H24.2494C24.6362 26.5852 24.9045 26.2024 24.7743 25.8354L17.0824 4.5476ZM189.212 1.88367H191.292V18.8894L201.699 8.23369H204.134L196.197 16.2413L205.196 26.5773H202.725L194.891 17.5792L191.292 21.2495V26.5773H189.212V1.87972V1.88367ZM177.7 8.23369H179.78V12.2197H179.851C180.309 10.5622 182.037 8.02058 185.814 8.02058C186.236 8.02058 186.765 8.0561 187.156 8.19818V9.96229C186.734 9.89126 186.307 9.85573 185.85 9.85573C181.864 9.85573 179.78 12.6775 179.78 16.4189V26.5813H177.7V8.23369ZM173 17.4055C173 12.0421 169.755 9.64261 166.33 9.64261C162.904 9.64261 159.66 12.0421 159.66 17.4055C159.66 22.7689 162.904 25.1684 166.33 25.1684C169.755 25.1684 173 22.7689 173 17.4055ZM157.62 17.4055C157.62 10.9134 161.783 7.87851 166.334 7.87851C170.884 7.87851 175.012 10.9134 175.012 17.4055C175.012 23.8976 170.849 26.9325 166.334 26.9325C161.819 26.9325 157.62 23.8976 157.62 17.4055ZM130.969 8.23369H133.048L137.528 24.3554H137.67L143.033 8.23369H144.904L150.232 24.3554H150.374L154.889 8.23369H156.937L151.609 26.5813H149.21L143.953 10.9884L138.696 26.5813H136.332L130.969 8.23369ZM123.517 22.6623V9.99781H120.589V8.23369H123.517V3.6833H125.597V8.23369H129.268V9.99781H125.597V22.2045C125.597 24.3554 126.375 25.0619 128.384 25.0619C128.806 25.0619 129.126 25.0619 129.548 24.9908V26.6484C129.019 26.7549 128.419 26.826 127.748 26.826C125.313 26.826 123.514 25.8393 123.514 22.6623H123.517ZM117.988 16.4189C117.953 11.904 115.589 9.57553 111.954 9.57553C108.319 9.57553 105.849 11.7974 105.639 16.4189H117.988ZM103.595 17.4766C103.595 10.8424 107.337 7.87851 111.993 7.87851C116.65 7.87851 120.001 10.9489 120.001 16.8056C120.001 17.4055 119.966 17.7568 119.895 18.0764H105.639C105.782 22.8399 108.075 25.2395 112.203 25.2395C114.425 25.2395 116.824 24.533 117.811 21.6757H119.752C118.482 25.6973 115.376 26.9325 112.167 26.9325C107.017 26.9325 103.595 23.7911 103.595 17.4766ZM81.7549 1.88367H84.2965L98.3383 23.4043H98.4094V1.88367H100.56V26.5813H97.9832L84.0123 5.09617H83.9058V26.5813H81.7549V1.88367ZM60.617 21.9164C56.2127 21.9164 52.645 18.3448 52.645 13.9404C52.645 9.53606 56.2166 5.96442 60.617 5.96442C65.0175 5.96442 68.5931 9.53606 68.5931 13.9404C68.5931 18.3448 65.0214 21.9164 60.617 21.9164ZM60.617 0.94043C53.4382 0.94043 47.617 6.76162 47.617 13.9404C47.617 21.1192 53.4382 26.9404 60.617 26.9404C67.7959 26.9404 73.617 21.1192 73.617 13.9404C73.617 6.76162 67.7959 0.94043 60.617 0.94043ZM46.2634 9.47686C46.141 4.86727 42.2221 1.26405 37.6125 1.26405H26.862C26.5779 1.26405 26.345 1.4969 26.345 1.78105V26.0643C26.345 26.3484 26.5779 26.5813 26.862 26.5813H31.2546C31.5387 26.5813 31.7716 26.3484 31.7716 26.0643V6.22489C31.7716 6.08282 31.886 5.96836 32.032 5.96836H36.7995C38.7925 5.96836 40.533 7.472 40.6632 9.46107C40.8053 11.6396 39.0767 13.4511 36.9297 13.4511H36.539C36.3614 13.4511 36.2351 13.6287 36.2943 13.7984L40.7816 26.2379C40.8566 26.4432 41.05 26.5813 41.267 26.5813H45.5017C45.8608 26.5813 46.1095 26.2261 45.9871 25.8906L42.6483 16.6359C44.8939 15.0691 46.3423 12.4447 46.2634 9.48081V9.47686Z" fill="#00BF00"/>
</svg>
