<svg width="206" height="27" viewBox="0 0 206 27" fill="none" xmlns="http://www.w3.org/2000/svg">
<path fill-rule="evenodd" clip-rule="evenodd" d="M17.4516 4.5476C16.6504 2.32568 14.3732 0.940426 11.9658 1.33114C10.1425 1.62713 8.66651 2.97291 8.03901 4.7094L0.402396 25.8314C0.272159 26.1945 0.540524 26.5813 0.927288 26.5813H5.05935C5.29614 26.5813 5.50531 26.4353 5.58424 26.2143L12.4907 7.10892C12.5855 6.8445 12.9604 6.8445 13.0551 7.10892L19.9458 26.2143C20.0247 26.4353 20.2339 26.5852 20.4707 26.5852H24.6185C25.0053 26.5852 25.2737 26.2024 25.1434 25.8354L17.4516 4.5476ZM189.581 1.88367H191.661V18.8894L202.068 8.23369H204.503L196.567 16.2413L205.565 26.5773H203.094L195.26 17.5792L191.661 21.2495V26.5773H189.581V1.87972V1.88367ZM178.069 8.23369H180.149V12.2197H180.22C180.678 10.5622 182.406 8.02058 186.183 8.02058C186.605 8.02058 187.134 8.0561 187.525 8.19818V9.96229C187.103 9.89126 186.677 9.85573 186.219 9.85573C182.233 9.85573 180.149 12.6775 180.149 16.4189V26.5813H178.069V8.23369ZM173.369 17.4055C173.369 12.0421 170.125 9.64261 166.699 9.64261C163.273 9.64261 160.029 12.0421 160.029 17.4055C160.029 22.7689 163.273 25.1684 166.699 25.1684C170.125 25.1684 173.369 22.7689 173.369 17.4055ZM157.989 17.4055C157.989 10.9134 162.153 7.87851 166.703 7.87851C171.253 7.87851 175.381 10.9134 175.381 17.4055C175.381 23.8976 171.218 26.9325 166.703 26.9325C162.188 26.9325 157.989 23.8976 157.989 17.4055ZM131.338 8.23369H133.418L137.897 24.3554H138.039L143.402 8.23369H145.273L150.601 24.3554H150.743L155.258 8.23369H157.306L151.978 26.5813H149.579L144.322 10.9884L139.065 26.5813H136.701L131.338 8.23369ZM123.887 22.6624V9.99781H120.958V8.23369H123.887V3.6833H125.966V8.23369H129.637V9.99781H125.966V22.2045C125.966 24.3554 126.744 25.0619 128.753 25.0619C129.175 25.0619 129.495 25.0619 129.917 24.9908V26.6484C129.388 26.7549 128.788 26.826 128.117 26.826C125.682 26.826 123.883 25.8393 123.883 22.6624H123.887ZM118.357 16.4189C118.322 11.904 115.958 9.57553 112.323 9.57553C108.688 9.57553 106.218 11.7974 106.009 16.4189H118.357ZM103.964 17.4766C103.964 10.8424 107.706 7.87851 112.363 7.87851C117.02 7.87851 120.37 10.9489 120.37 16.8056C120.37 17.4055 120.335 17.7568 120.264 18.0764H106.009C106.151 22.8399 108.444 25.2395 112.572 25.2395C114.794 25.2395 117.193 24.533 118.18 21.6757H120.122C118.851 25.6973 115.745 26.9325 112.536 26.9325C107.386 26.9325 103.964 23.7911 103.964 17.4766ZM82.124 1.88367H84.6656L98.7075 23.4043H98.7785V1.88367H100.929V26.5813H98.3523L84.3814 5.09617H84.2749V26.5813H82.124V1.88367ZM60.9862 21.9164C56.5818 21.9164 53.0141 18.3448 53.0141 13.9404C53.0141 9.53606 56.5858 5.96442 60.9862 5.96442C65.3866 5.96442 68.9622 9.53606 68.9622 13.9404C68.9622 18.3448 65.3906 21.9164 60.9862 21.9164ZM60.9862 0.94043C53.8074 0.94043 47.9862 6.76162 47.9862 13.9404C47.9862 21.1192 53.8074 26.9404 60.9862 26.9404C68.165 26.9404 73.9862 21.1192 73.9862 13.9404C73.9862 6.76162 68.165 0.94043 60.9862 0.94043ZM46.6325 9.47686C46.5102 4.86727 42.5912 1.26405 37.9816 1.26405H27.2312C26.947 1.26405 26.7142 1.4969 26.7142 1.78105V26.0643C26.7142 26.3484 26.947 26.5813 27.2312 26.5813H31.6237C31.9079 26.5813 32.1407 26.3484 32.1407 26.0643V6.22489C32.1407 6.08282 32.2552 5.96836 32.4012 5.96836H37.1686C39.1617 5.96836 40.9021 7.472 41.0323 9.46107C41.1744 11.6396 39.4458 13.4511 37.2989 13.4511H36.9082C36.7306 13.4511 36.6043 13.6287 36.6635 13.7984L41.1507 26.2379C41.2257 26.4432 41.4191 26.5813 41.6362 26.5813H45.8708C46.23 26.5813 46.4786 26.2261 46.3562 25.8906L43.0175 16.6359C45.2631 15.0691 46.7114 12.4447 46.6325 9.48081V9.47686Z" fill="#0F1012"/>
</svg>
