<svg width="478" height="381" viewBox="0 0 478 381" fill="none" xmlns="http://www.w3.org/2000/svg">
    <path
        d="M354.146 331.311L297.431 185.08C292.249 171.714 279.564 163.414 264.334 163.414H264.31C249.068 163.425 236.382 171.743 231.219 185.127L152.582 392.281L152 392.084L230.637 184.93C235.893 171.316 248.801 162.848 264.31 162.836H264.334C279.836 162.836 292.739 171.281 298.013 184.884L354.728 331.115L354.146 331.311Z"
        fill="#048417" fill-opacity="0.3" />
    <path
        d="M224.081 173.014C227.325 164.604 233.04 157.811 240.419 153.219C247.254 148.974 255.445 146.646 264.273 146.64H264.304C273.12 146.64 281.304 148.951 288.139 153.185C295.531 157.765 301.251 164.552 304.508 172.957L372.057 347.116L371.184 347.41L303.635 173.251C297.475 157.367 282.406 147.507 264.304 147.507H264.273C246.158 147.518 231.089 157.401 224.948 173.303L141.373 392.379L140.5 392.084L224.075 173.009L224.081 173.014Z"
        fill="#048417" fill-opacity="0.3" />
    <path
        d="M217.531 161.092C221.295 151.348 227.919 143.44 236.531 138.091C244.511 133.135 254.045 130.45 264.248 130.438H264.285C274.475 130.438 283.997 133.118 291.977 138.051C300.601 143.388 307.237 151.29 311.014 161.023L389.397 363.116L388.234 363.509L309.85 161.416C302.712 143.013 285.253 131.587 264.285 131.587H264.248C243.26 131.599 225.808 143.053 218.695 161.474L131 388.084L129.836 387.692L217.531 161.081V161.092Z"
        fill="#048417" fill-opacity="0.3" />
    <path
        d="M210.981 149.176C215.259 138.103 222.8 129.081 232.643 122.976C241.769 117.315 252.64 114.259 264.223 114.253H264.266C275.831 114.253 286.69 117.297 295.816 122.935C305.672 129.029 313.224 138.04 317.521 149.113L406.738 379.139L405.284 379.63L316.066 149.604C307.956 128.688 288.108 115.697 264.273 115.697H264.229C240.376 115.715 220.527 128.729 212.442 149.673L120.955 387.575L119.5 387.084L210.987 149.182L210.981 149.176Z"
        fill="#048417" fill-opacity="0.3" />
    <path
        d="M204.432 137.254C209.224 124.847 217.681 114.709 228.756 107.847C239.027 101.482 251.242 98.0566 264.193 98.0508H264.243C277.182 98.0508 289.378 101.459 299.649 107.801C310.737 114.652 319.206 124.777 324.016 137.179L424.068 395.134L422.322 395.723L322.27 137.768C313.182 114.334 290.95 99.7836 264.243 99.7836H264.193C237.467 99.801 215.235 114.386 206.178 137.843L106.59 395.723L104.844 395.134L204.432 137.254Z"
        fill="#048417" fill-opacity="0.3" />
    <path
        d="M197.882 125.338C203.187 111.596 212.56 100.35 224.868 92.7256C236.284 85.6555 249.842 81.8605 264.168 81.8547H264.217C278.525 81.8547 292.064 85.6266 303.48 92.6736C315.8 100.281 325.186 111.516 330.516 125.251L441.402 411.14L439.365 411.827L328.479 125.939C318.413 99.9863 293.792 83.8706 264.217 83.8706H264.168C234.569 83.888 209.954 100.038 199.918 126.02L89.5463 411.821L87.5095 411.134L197.882 125.332V125.338Z"
        fill="#048417" fill-opacity="0.3" />
    <path
        d="M191.33 113.415C197.156 98.3388 207.439 85.9776 220.979 77.5963C233.54 69.8216 248.436 65.6627 264.136 65.6511H264.192C279.873 65.6511 294.75 69.7869 307.311 77.5386C320.863 85.9026 331.165 98.2521 337.016 113.322L458.729 427.139L456.402 427.924L334.688 114.108C323.643 85.6426 296.638 67.9616 264.198 67.9616H264.142C231.677 67.9847 204.666 85.7004 193.664 114.2L72.5077 427.924L70.1799 427.139L191.33 113.415Z"
        fill="#048417" fill-opacity="0.3" />
    <path
        d="M184.781 101.499C191.121 85.0886 202.32 71.6127 217.092 62.4747C230.805 53.9894 247.037 49.4666 264.112 49.4551H264.174C281.23 49.4551 297.444 53.9548 311.151 62.4111C325.935 71.5318 337.159 84.9904 343.517 101.395L476.065 443.145L473.446 444.029L340.898 102.279C328.882 71.295 299.487 52.0544 264.174 52.0544H264.112C228.774 52.0775 199.38 71.3585 187.4 102.383L55.465 444.029L52.8462 443.145L184.781 101.499Z"
        fill="#048417" fill-opacity="0.3" />
    <path
        d="M178.232 89.5827C185.085 71.8382 197.201 57.2532 213.204 47.3528C228.063 38.1628 245.632 33.2703 264.088 33.2588H264.156C282.586 33.2588 300.137 38.1281 314.99 47.2835C331.005 57.1608 343.146 71.7342 350.024 89.4672L493.406 459.151L490.496 460.133L347.114 90.4492C334.12 56.9471 302.335 36.1411 264.156 36.1411H264.088C225.877 36.1642 194.099 57.0164 181.148 90.5531L38.4217 460.133L35.512 459.151L178.232 89.5827Z"
        fill="#048417" fill-opacity="0.3" />
    <path
        d="M171.675 77.6615C179.042 58.5826 192.074 42.8829 209.31 32.2257C225.313 22.3311 244.227 17.0747 264.05 17.0574H264.124C283.923 17.0574 302.818 22.2906 318.815 32.1506C336.069 42.7847 349.12 58.4671 356.518 77.5402L510.734 475.152L507.534 476.232L353.317 78.6204C339.344 42.5998 305.177 20.2343 264.131 20.2343H264.056C222.979 20.2632 188.805 42.6749 174.882 78.7359L21.3777 476.232L18.177 475.158L171.675 77.6615Z"
        fill="#048417" fill-opacity="0.3" />
    <path
        d="M165.124 65.7443C173.005 45.3311 186.954 28.5223 205.421 17.1027C222.57 6.50331 242.821 0.877275 264.025 0.865723H264.105C285.278 0.865723 305.51 6.46288 322.653 17.0276C341.139 28.4183 355.106 45.2156 363.018 65.6172L528.068 491.163L524.576 492.341L359.526 66.7955C344.581 28.2624 308.017 4.33146 264.105 4.33146H264.025C220.075 4.36034 183.518 28.3432 168.622 66.9226L4.33333 492.336L0.835449 491.163L165.124 65.7443Z"
        fill="#048417" fill-opacity="0.3" />
</svg>