<svg width="514" height="1257" viewBox="0 0 514 1257" fill="none" xmlns="http://www.w3.org/2000/svg">
    <g opacity="0.7">
        <path
            d="M193.991 148.118C134.138 182.674 113.566 259.476 148.118 319.32C182.669 379.164 259.476 399.745 319.32 365.194C379.165 330.642 399.745 253.836 365.194 193.991C330.642 134.147 253.836 113.566 193.991 148.118ZM319.818 366.056C259.495 400.883 182.091 380.136 147.269 319.822C112.446 259.507 133.189 182.095 193.503 147.272C253.817 112.45 331.23 133.193 366.052 193.507C400.875 253.821 380.132 331.234 319.818 366.056Z"
            fill="url(#paint0_linear_0_1)" />
        <path
            d="M186.567 135.259C119.627 173.907 96.6076 259.818 135.255 326.757C173.903 393.697 259.814 416.717 326.754 378.069C393.693 339.422 416.713 253.511 378.065 186.571C339.418 119.631 253.507 96.6114 186.567 135.259ZM185.803 133.936C219.435 114.518 257.985 110.362 293.325 119.831C328.664 129.301 359.966 152.166 379.389 185.807C398.811 219.447 402.962 257.989 393.493 293.328C384.024 328.668 361.158 359.97 327.518 379.393C293.877 398.815 255.336 402.966 219.996 393.497C184.657 384.028 153.354 361.162 133.932 327.522C114.509 293.881 110.359 255.339 119.828 220C129.297 184.66 152.162 153.358 185.803 133.936Z"
            fill="url(#paint1_linear_0_1)" />
        <path
            d="M179.138 122.392C105.103 165.136 79.6438 260.151 122.388 334.186C165.132 408.221 260.147 433.68 334.182 390.936C408.217 348.192 433.676 253.177 390.932 179.142C348.188 105.107 253.173 79.6477 179.138 122.392ZM178.108 120.607C215.215 99.1835 257.875 94.3967 297.308 104.963C336.742 115.529 371.293 141.004 392.717 178.112C414.141 215.219 418.927 257.879 408.361 297.312C397.795 336.746 372.32 371.297 335.213 392.721C298.105 414.145 255.446 418.931 216.012 408.365C176.578 397.799 142.027 372.324 120.603 335.216C99.1796 298.109 94.3928 255.449 104.959 216.016C115.525 176.582 141.001 142.031 178.108 120.607Z"
            fill="url(#paint2_linear_0_1)" />
        <path
            d="M171.71 109.525C90.5794 156.365 62.6843 260.471 109.525 341.602C156.365 422.732 260.471 450.627 341.602 403.786C422.732 356.946 450.627 252.84 403.787 171.71C356.946 90.5793 252.84 62.6842 171.71 109.525ZM170.413 107.279C210.995 83.849 257.773 78.4264 301.293 90.0945C344.821 101.758 382.615 129.834 406.046 170.417C429.476 210.999 434.898 257.777 423.23 301.296C411.567 344.824 383.49 382.619 342.908 406.049C302.326 429.479 255.548 434.902 212.028 423.234C168.501 411.57 130.706 383.494 107.276 342.912C83.8456 302.329 78.4229 255.551 90.0911 212.032C101.754 168.504 129.831 130.709 170.413 107.279Z"
            fill="url(#paint3_linear_0_1)" />
        <path
            d="M164.286 96.6658C76.06 147.603 45.7255 260.813 96.6625 349.039C147.6 437.264 260.81 467.599 349.035 416.662C437.261 365.725 467.595 252.514 416.658 164.289C365.721 76.0633 252.511 45.7287 164.286 96.6658ZM162.713 93.9421C206.77 68.5056 257.658 62.452 305.275 75.2037C352.897 87.964 393.927 118.647 419.369 162.713C444.81 206.779 450.859 257.658 438.107 305.275C425.347 352.897 394.664 393.927 350.598 419.368C306.532 444.81 255.653 450.858 208.036 438.107C160.414 425.346 119.384 394.663 93.9425 350.598C68.501 306.532 62.4523 255.653 75.2041 208.035C87.9644 160.413 118.647 119.383 162.713 93.9421Z"
            fill="url(#paint4_linear_0_1)" />
    </g>
    <path d="M257 329L257 1235" stroke="url(#paint5_linear_0_1)" stroke-width="44" stroke-linecap="square" />
    <circle cx="257" cy="264" r="39" stroke="#048417" stroke-width="18" />
    <defs>
        <linearGradient id="paint0_linear_0_1" x1="193.503" y1="147.272" x2="319.818" y2="366.056"
            gradientUnits="userSpaceOnUse">
            <stop stop-color="#048417" />
            <stop offset="0.3" stop-color="#011E05" stop-opacity="0.7" />
            <stop offset="0.7" stop-color="#011E05" stop-opacity="0.7" />
            <stop offset="1" stop-color="#048417" />
        </linearGradient>
        <linearGradient id="paint1_linear_0_1" x1="185.803" y1="133.936" x2="327.518" y2="379.393"
            gradientUnits="userSpaceOnUse">
            <stop stop-color="#048417" />
            <stop offset="0.3" stop-color="#011E05" stop-opacity="0.7" />
            <stop offset="0.7" stop-color="#011E05" stop-opacity="0.7" />
            <stop offset="1" stop-color="#048417" />
        </linearGradient>
        <linearGradient id="paint2_linear_0_1" x1="178.108" y1="120.607" x2="335.213" y2="392.721"
            gradientUnits="userSpaceOnUse">
            <stop stop-color="#048417" />
            <stop offset="0.3" stop-color="#011E05" stop-opacity="0.7" />
            <stop offset="0.7" stop-color="#011E05" stop-opacity="0.7" />
            <stop offset="1" stop-color="#048417" />
        </linearGradient>
        <linearGradient id="paint3_linear_0_1" x1="170.413" y1="107.279" x2="342.908" y2="406.049"
            gradientUnits="userSpaceOnUse">
            <stop stop-color="#048417" />
            <stop offset="0.3" stop-color="#011E05" stop-opacity="0.7" />
            <stop offset="0.7" stop-color="#011E05" stop-opacity="0.7" />
            <stop offset="1" stop-color="#048417" />
        </linearGradient>
        <linearGradient id="paint4_linear_0_1" x1="162.713" y1="93.9421" x2="350.598" y2="419.368"
            gradientUnits="userSpaceOnUse">
            <stop stop-color="#048417" />
            <stop offset="0.3" stop-color="#011E05" stop-opacity="0.7" />
            <stop offset="0.7" stop-color="#011E05" stop-opacity="0.7" />
            <stop offset="1" stop-color="#048417" />
        </linearGradient>
        <linearGradient id="paint5_linear_0_1" x1="257.5" y1="329" x2="257.5" y2="1275.5"
            gradientUnits="userSpaceOnUse">
            <stop offset="0.318658" stop-color="#048417" />
            <stop offset="0.989885" stop-color="#048417" stop-opacity="0" />
        </linearGradient>
    </defs>
</svg>