<svg width="167" height="1179" viewBox="0 0 167 1179" fill="none" xmlns="http://www.w3.org/2000/svg">
    <g opacity="0.7">
        <path
            d="M6.99558 74.3864C-22.9309 91.6645 -33.2168 130.065 -15.9412 159.988C1.33442 189.91 39.7378 200.2 69.66 182.924C99.5823 165.649 109.872 127.245 92.5968 97.3232C75.3212 67.401 36.9178 57.1108 6.99558 74.3864ZM69.909 183.356C39.7477 200.769 1.04554 190.395 -16.3656 160.238C-33.7768 130.081 -23.4055 91.375 6.75157 73.9638C36.9086 56.5526 75.615 66.9239 93.0262 97.081C110.437 127.238 100.066 165.944 69.909 183.356Z"
            fill="url(#paint0_linear_0_1)" />
        <path
            d="M3.28342 67.9572C-30.1865 87.281 -41.6963 130.236 -22.3725 163.706C-3.04866 197.176 39.9068 208.686 73.3767 189.362C106.847 170.038 118.356 127.083 99.0326 93.6131C79.7088 60.1432 36.7533 48.6333 3.28342 67.9572ZM2.90138 67.2954C19.7174 57.5867 38.9924 55.5088 56.6622 60.2434C74.3319 64.978 89.9831 76.4107 99.6943 93.231C109.406 110.051 111.481 129.322 106.746 146.992C102.012 164.662 90.5791 180.313 73.7587 190.024C56.9384 199.735 37.6677 201.811 19.998 197.076C2.32823 192.341 -13.323 180.909 -23.0342 164.088C-32.7454 147.268 -34.8209 127.997 -30.0863 110.328C-25.3517 92.6579 -13.9189 77.0067 2.90138 67.2954Z"
            fill="url(#paint1_linear_0_1)" />
        <path
            d="M-0.43111 61.5238C-37.4486 82.8958 -50.1782 130.403 -28.8062 167.421C-7.4341 204.438 40.0735 217.168 77.091 195.796C114.109 174.424 126.838 126.916 105.466 89.8988C84.094 52.8813 36.5864 40.1517 -0.43111 61.5238ZM-0.946251 60.6315C17.6073 49.9196 38.9372 47.5262 58.654 52.8093C78.3709 58.0924 95.6464 70.8301 106.358 89.3837C117.07 107.937 119.464 129.267 114.18 148.984C108.897 168.701 96.1597 185.976 77.6061 196.688C59.0526 207.4 37.7227 209.794 18.0059 204.51C-1.71098 199.227 -18.9865 186.49 -29.6984 167.936C-40.4103 149.382 -42.8037 128.053 -37.5206 108.336C-32.2375 88.619 -19.4998 71.3434 -0.946251 60.6315Z"
            fill="url(#paint2_linear_0_1)" />
        <path
            d="M-4.14515 55.0899C-44.7103 78.5102 -58.6578 130.563 -35.2375 171.128C-11.8173 211.693 40.2357 225.641 80.8009 202.221C121.366 178.8 135.314 126.747 111.893 86.1823C88.473 45.6172 36.42 31.6696 -4.14515 55.0899ZM-4.79339 53.9671C15.4977 42.252 38.8867 39.5407 60.6464 45.3748C82.4103 51.2064 101.308 65.2447 113.023 85.5358C124.738 105.827 127.449 129.216 121.615 150.976C115.783 172.74 101.745 191.637 81.454 203.352C61.1629 215.067 37.7739 217.778 16.0142 211.944C-5.7497 206.113 -24.6471 192.074 -36.3621 171.783C-48.0772 151.492 -50.7885 128.103 -44.9545 106.343C-39.1228 84.5795 -25.0845 65.6822 -4.79339 53.9671Z"
            fill="url(#paint3_linear_0_1)" />
        <path
            d="M-7.8572 48.6607C-51.97 74.1292 -67.1373 130.734 -41.6687 174.847C-16.2002 218.96 40.4049 234.127 84.5176 208.659C128.63 183.19 143.798 126.585 118.329 82.4722C92.8607 38.3594 36.2556 23.1921 -7.8572 48.6607ZM-8.64347 47.2988C13.3852 34.5806 38.8291 31.5537 62.6376 37.9296C86.4487 44.3098 106.964 59.6512 119.684 81.6841C132.405 103.717 135.429 129.157 129.053 152.965C122.673 176.776 107.332 197.291 85.299 210.012C63.2661 222.733 37.8265 225.757 14.0179 219.381C-9.79316 213.001 -30.3081 197.659 -43.0288 175.627C-55.7495 153.594 -58.7738 128.154 -52.3979 104.345C-46.0178 80.5344 -30.6764 60.0195 -8.64347 47.2988Z"
            fill="url(#paint4_linear_0_1)" />
    </g>
    <path d="M36 157L36 1173" stroke="url(#paint5_linear_0_1)" stroke-width="12" stroke-linecap="square" />
    <circle cx="36" cy="127" r="21" stroke="#048417" stroke-width="8" />
    <defs>
        <linearGradient id="paint0_linear_0_1" x1="6.75158" y1="73.9638" x2="69.909" y2="183.356"
            gradientUnits="userSpaceOnUse">
            <stop stop-color="#048417" />
            <stop offset="0.3" stop-color="#011E05" stop-opacity="0.7" />
            <stop offset="0.7" stop-color="#011E05" stop-opacity="0.7" />
            <stop offset="1" stop-color="#048417" />
        </linearGradient>
        <linearGradient id="paint1_linear_0_1" x1="2.90138" y1="67.2954" x2="73.7587" y2="190.024"
            gradientUnits="userSpaceOnUse">
            <stop stop-color="#048417" />
            <stop offset="0.3" stop-color="#011E05" stop-opacity="0.7" />
            <stop offset="0.7" stop-color="#011E05" stop-opacity="0.7" />
            <stop offset="1" stop-color="#048417" />
        </linearGradient>
        <linearGradient id="paint2_linear_0_1" x1="-0.946244" y1="60.6315" x2="77.6061" y2="196.688"
            gradientUnits="userSpaceOnUse">
            <stop stop-color="#048417" />
            <stop offset="0.3" stop-color="#011E05" stop-opacity="0.7" />
            <stop offset="0.7" stop-color="#011E05" stop-opacity="0.7" />
            <stop offset="1" stop-color="#048417" />
        </linearGradient>
        <linearGradient id="paint3_linear_0_1" x1="-4.79338" y1="53.9671" x2="81.454" y2="203.352"
            gradientUnits="userSpaceOnUse">
            <stop stop-color="#048417" />
            <stop offset="0.3" stop-color="#011E05" stop-opacity="0.7" />
            <stop offset="0.7" stop-color="#011E05" stop-opacity="0.7" />
            <stop offset="1" stop-color="#048417" />
        </linearGradient>
        <linearGradient id="paint4_linear_0_1" x1="-8.64346" y1="47.2988" x2="85.299" y2="210.012"
            gradientUnits="userSpaceOnUse">
            <stop stop-color="#048417" />
            <stop offset="0.3" stop-color="#011E05" stop-opacity="0.7" />
            <stop offset="0.7" stop-color="#011E05" stop-opacity="0.7" />
            <stop offset="1" stop-color="#048417" />
        </linearGradient>
        <linearGradient id="paint5_linear_0_1" x1="36.5" y1="157" x2="36.4999" y2="1218.42"
            gradientUnits="userSpaceOnUse">
            <stop offset="0.318658" stop-color="#048417" />
            <stop offset="0.989885" stop-color="#048417" stop-opacity="0" />
        </linearGradient>
    </defs>
</svg>