<svg width="822" height="1130" viewBox="0 0 822 1130" fill="none" xmlns="http://www.w3.org/2000/svg">
<g opacity="0.3">
<path d="M118.794 325.871C-12.8826 401.894 -58.1405 570.858 17.8722 702.516C93.8849 834.174 262.86 879.451 394.518 803.438C526.175 727.425 571.452 558.451 495.439 426.793C419.427 295.135 250.452 249.858 118.794 325.871ZM395.613 805.335C262.903 881.955 92.6138 836.31 16.0046 703.619C-60.6045 570.929 -14.9706 400.62 117.72 324.011C250.411 247.402 420.72 293.036 497.329 425.727C573.938 558.418 528.304 728.726 395.613 805.335Z" fill="url(#paint0_linear_13_492)"/>
<path d="M102.462 297.582C-44.8058 382.607 -95.4493 571.611 -10.4244 718.878C74.6004 866.146 263.605 916.789 410.872 831.765C558.139 746.74 608.783 557.735 523.758 410.468C438.733 263.201 249.729 212.557 102.462 297.582ZM100.781 294.67C174.771 251.952 259.581 242.809 337.328 263.641C415.075 284.474 483.94 334.778 526.67 408.787C569.399 482.796 578.531 567.588 557.699 645.334C536.866 723.081 486.562 791.947 412.553 834.676C338.544 877.405 253.752 886.537 176.006 865.705C98.2588 844.873 29.3934 794.569 -13.336 720.559C-56.0653 646.55 -65.1972 561.759 -44.365 484.012C-23.5329 406.265 26.7712 337.4 100.781 294.67Z" fill="url(#paint1_linear_13_492)"/>
<path d="M86.1165 269.273C-76.7605 363.31 -132.771 572.343 -38.7337 735.22C55.3034 898.097 264.337 954.108 427.214 860.071C590.091 766.033 646.101 557 552.064 394.123C458.027 231.246 248.994 175.236 86.1165 269.273ZM83.8499 265.347C165.486 218.214 259.337 207.684 346.091 230.929C432.845 254.175 508.858 310.221 555.99 391.856C603.122 473.492 613.653 567.344 590.408 654.098C567.162 740.852 511.116 816.864 429.48 863.996C347.845 911.129 253.993 921.66 167.239 898.414C80.4851 875.168 4.47281 819.123 -42.6596 737.487C-89.792 655.851 -100.323 562 -77.0772 475.246C-53.8315 388.492 2.21419 312.479 83.8499 265.347Z" fill="url(#paint2_linear_13_492)"/>
<path d="M69.7748 240.966C-108.712 344.015 -170.081 573.048 -67.0317 751.535C36.0175 930.022 265.051 991.391 443.537 888.342C622.024 785.292 683.393 556.259 580.344 377.773C477.295 199.286 248.261 137.917 69.7748 240.966ZM66.9225 236.026C156.203 184.479 259.115 172.549 354.858 198.219C450.619 223.879 533.767 285.647 585.314 374.928C636.86 464.209 648.79 567.121 623.12 662.863C597.461 758.625 535.692 841.773 446.411 893.319C357.13 944.866 254.219 956.796 158.476 931.125C62.7148 905.466 -20.4336 843.698 -71.9799 754.417C-123.526 665.136 -135.456 562.224 -109.786 466.482C-84.127 370.72 -22.3583 287.572 66.9225 236.026Z" fill="url(#paint3_linear_13_492)"/>
<path d="M53.4417 212.677C-140.654 324.739 -207.391 573.801 -95.329 767.897C16.7325 961.993 265.795 1028.73 459.891 916.668C653.987 804.607 720.723 555.544 608.662 361.448C496.6 167.352 247.538 100.616 53.4417 212.677ZM49.9822 206.685C146.908 150.725 258.861 137.407 363.619 165.461C468.388 193.533 558.653 261.036 614.624 357.98C670.595 454.925 683.903 566.86 655.849 671.617C627.776 776.386 560.274 866.652 463.329 922.623C366.384 978.594 254.45 991.901 149.692 963.847C44.9235 935.774 -45.3421 868.272 -101.313 771.327C-157.284 674.382 -170.591 562.448 -142.538 457.69C-114.465 352.922 -46.9626 262.656 49.9822 206.685Z" fill="url(#paint4_linear_13_492)"/>
</g>
<defs>
<linearGradient id="paint0_linear_13_492" x1="117.72" y1="324.011" x2="395.613" y2="805.335" gradientUnits="userSpaceOnUse">
<stop stop-color="#048417"/>
<stop offset="0.3" stop-color="#011E05" stop-opacity="0.7"/>
<stop offset="0.7" stop-color="#011E05" stop-opacity="0.7"/>
<stop offset="1" stop-color="#048417"/>
</linearGradient>
<linearGradient id="paint1_linear_13_492" x1="100.781" y1="294.67" x2="412.553" y2="834.676" gradientUnits="userSpaceOnUse">
<stop stop-color="#048417"/>
<stop offset="0.3" stop-color="#011E05" stop-opacity="0.7"/>
<stop offset="0.7" stop-color="#011E05" stop-opacity="0.7"/>
<stop offset="1" stop-color="#048417"/>
</linearGradient>
<linearGradient id="paint2_linear_13_492" x1="83.85" y1="265.347" x2="429.48" y2="863.996" gradientUnits="userSpaceOnUse">
<stop stop-color="#048417"/>
<stop offset="0.3" stop-color="#011E05" stop-opacity="0.7"/>
<stop offset="0.7" stop-color="#011E05" stop-opacity="0.7"/>
<stop offset="1" stop-color="#048417"/>
</linearGradient>
<linearGradient id="paint3_linear_13_492" x1="66.9226" y1="236.026" x2="446.411" y2="893.319" gradientUnits="userSpaceOnUse">
<stop stop-color="#048417"/>
<stop offset="0.3" stop-color="#011E05" stop-opacity="0.7"/>
<stop offset="0.7" stop-color="#011E05" stop-opacity="0.7"/>
<stop offset="1" stop-color="#048417"/>
</linearGradient>
<linearGradient id="paint4_linear_13_492" x1="49.9822" y1="206.685" x2="463.329" y2="922.623" gradientUnits="userSpaceOnUse">
<stop stop-color="#048417"/>
<stop offset="0.3" stop-color="#011E05" stop-opacity="0.7"/>
<stop offset="0.7" stop-color="#011E05" stop-opacity="0.7"/>
<stop offset="1" stop-color="#048417"/>
</linearGradient>
</defs>
</svg>
