<svg width="736" height="460" viewBox="0 0 736 460" fill="none" xmlns="http://www.w3.org/2000/svg">
<mask id="mask0_14386_4168" style="mask-type:alpha" maskUnits="userSpaceOnUse" x="0" y="0" width="736" height="460">
<rect width="736" height="460" rx="36" fill="#7C7C7C"/>
</mask>
<g mask="url(#mask0_14386_4168)">
<rect x="978.326" y="-5.74998" width="186.947" height="1261.58" transform="rotate(45 978.326 -5.74998)" fill="#5F5F5F"/>
<rect x="865.24" y="-147.583" width="186.947" height="1261.58" transform="rotate(45 865.24 -147.583)" fill="#666666"/>
<rect x="746.408" y="-277.917" width="186.947" height="1261.58" transform="rotate(45 746.408 -277.917)" fill="#6D6D6D"/>
<rect x="625.656" y="-421.667" width="186.947" height="1261.58" transform="rotate(45 625.656 -421.667)" fill="#777777"/>
<rect x="492.707" y="-543.115" width="186.947" height="1261.58" transform="rotate(45 492.707 -543.115)" fill="#7E7E7E"/>
<path d="M445.806 124.583H290.191C274.968 124.583 262.582 136.969 262.582 152.193V307.807C262.582 323.031 274.968 335.417 290.191 335.417H445.806C461.03 335.417 473.415 323.031 473.415 307.807V152.193C473.415 136.969 461.03 124.583 445.806 124.583ZM290.191 134.623H445.806C455.494 134.623 463.376 142.505 463.376 152.193V184.418C427.956 185.66 394.853 200.013 369.695 225.171C357.905 236.961 348.494 250.499 341.685 265.2C321.981 248.484 293.456 247.412 272.622 261.986V152.193C272.622 142.505 280.503 134.623 290.191 134.623ZM272.622 307.807V274.985C290.685 257.449 319.543 257.467 337.582 275.043C331.847 290.452 328.844 306.928 328.844 323.871C328.844 324.396 328.925 324.901 329.075 325.377H290.191C280.503 325.377 272.622 317.495 272.622 307.807ZM445.806 325.377H338.653C338.803 324.901 338.884 324.396 338.884 323.871C338.884 289.248 352.348 256.716 376.794 232.27C400.056 209.008 430.638 195.701 463.376 194.464V307.807C463.376 317.495 455.494 325.377 445.806 325.377Z" fill="white" fill-opacity="0.6"/>
<path d="M320.894 206.745C335.251 206.745 346.931 195.066 346.931 180.709C346.931 166.352 335.251 154.672 320.894 154.672C306.537 154.672 294.857 166.352 294.857 180.709C294.857 195.066 306.537 206.745 320.894 206.745ZM320.894 164.712C329.715 164.712 336.891 171.888 336.891 180.709C336.891 189.53 329.715 196.706 320.894 196.706C312.073 196.706 304.897 189.53 304.897 180.709C304.897 171.888 312.073 164.712 320.894 164.712Z" fill="white" fill-opacity="0.6"/>
</g>
</svg>
