<svg width="19" height="19" viewBox="0 0 19 19" fill="none" xmlns="http://www.w3.org/2000/svg">
<g clip-path="url(#clip0_15332_2025)">
<path d="M2.04695 18.7862C1.38195 18.4379 1.00195 17.7064 1.00195 16.7786V3.20467C1.00037 1.43608 2.52037 0 4.39187 0H14.7485C16.6184 0 17.9975 1.43608 17.9975 3.20467V16.7817C17.9975 18.0373 17.5003 18.5598 17.1155 18.7609C16.7276 18.9636 15.9075 19.1963 14.7738 18.5028L14.7231 18.4696L14.6804 18.4347C14.4904 18.2796 13.8317 17.8315 13.3235 17.8315C13.1398 17.8315 12.8231 17.9898 12.4875 18.164C11.8145 18.5044 10.8915 18.9747 9.56779 18.9747C8.25837 18.9747 7.53004 18.5139 6.99329 18.1767C6.62595 17.9439 6.43912 17.8347 6.17154 17.8347C5.44954 17.8347 4.68954 18.3255 4.47895 18.4933L4.4362 18.5282L4.39029 18.5598C3.89945 18.8496 3.39912 19 2.93362 19C2.62471 19.0008 2.3201 18.9275 2.04537 18.7862H2.04695ZM4.49954 3.9995C4.23435 3.9995 3.98003 4.10484 3.79252 4.29236C3.60501 4.47987 3.49966 4.73419 3.49966 4.99937C3.49966 5.26456 3.60501 5.51888 3.79252 5.70639C3.98003 5.89391 4.23435 5.99925 4.49954 5.99925H14.4983C14.7635 5.99925 15.0178 5.89391 15.2053 5.70639C15.3928 5.51888 15.4982 5.26456 15.4982 4.99937C15.4982 4.73419 15.3928 4.47987 15.2053 4.29236C15.0178 4.10484 14.7635 3.9995 14.4983 3.9995H4.49954ZM4.49954 8.00058C4.23435 8.00058 3.98003 8.10593 3.79252 8.29344C3.60501 8.48095 3.49966 8.73528 3.49966 9.00046C3.49966 9.26564 3.60501 9.51996 3.79252 9.70748C3.98003 9.89499 4.23435 10.0003 4.49954 10.0003H14.4983C14.7635 10.0003 15.0178 9.89499 15.2053 9.70748C15.3928 9.51996 15.4982 9.26564 15.4982 9.00046C15.4982 8.73528 15.3928 8.48095 15.2053 8.29344C15.0178 8.10593 14.7635 8.00058 14.4983 8.00058H4.49954ZM4.49954 11.9985C4.23435 11.9985 3.98003 12.1038 3.79252 12.2914C3.60501 12.4789 3.49966 12.7332 3.49966 12.9984C3.49966 13.2636 3.60501 13.5179 3.79252 13.7054C3.98003 13.8929 4.23435 13.9983 4.49954 13.9983H9.4997C9.76489 13.9983 10.0192 13.8929 10.2067 13.7054C10.3942 13.5179 10.4996 13.2636 10.4996 12.9984C10.4996 12.7332 10.3942 12.4789 10.2067 12.2914C10.0192 12.1038 9.76489 11.9985 9.4997 11.9985H4.49954Z" fill="black" fill-opacity="0.7"/>
</g>
<defs>
<clipPath id="clip0_15332_2025">
<rect width="19" height="19" fill="white"/>
</clipPath>
</defs>
</svg>
