<svg width="30" height="31" viewBox="0 0 30 31" fill="none" xmlns="http://www.w3.org/2000/svg">
<g filter="url(#filter0_i_13_1067)">
<g clip-path="url(#clip0_13_1067)">
<rect y="0.0844727" width="30" height="30" rx="5" fill="black" fill-opacity="0.1"/>
<path d="M19.9336 21.3417H15.8757V17.1525H20.884V20.3912C20.884 20.914 20.4563 21.3417 19.9336 21.3417ZM15.8757 12.2536C15.702 12.2066 15.4151 12.131 15.2923 12.0167C15.2835 12.0084 15.2774 11.9984 15.2686 11.9897C15.2604 11.9984 15.2538 12.0084 15.245 12.0167C15.1222 12.131 15.0111 12.2066 14.8374 12.2536V16.1141H9.56592V12.7877C9.56592 12.2649 9.99358 11.8373 10.5164 11.8373H12.7231C12.4743 11.6977 12.242 11.5361 12.0477 11.3549C11.1651 10.5324 11.0057 9.34712 11.692 8.70691C11.9793 8.43936 12.3695 8.30957 12.791 8.30957C13.3759 8.30957 14.0211 8.55963 14.5341 9.03769C14.8322 9.31577 15.0867 9.67352 15.2686 10.0493C15.4511 9.67353 15.705 9.31576 16.0037 9.03769C16.5167 8.55963 17.1619 8.30957 17.7468 8.30957C18.1678 8.30957 18.5585 8.43937 18.8458 8.70691C19.5326 9.34712 19.3727 10.5324 18.4901 11.3549C18.2958 11.536 18.0634 11.6977 17.8147 11.8373H19.9335C20.4563 11.8373 20.884 12.2649 20.884 12.7877V16.1141H15.8757V12.2536ZM13.873 9.74701C13.5584 9.45455 13.1539 9.27952 12.791 9.27952C12.6825 9.27952 12.4815 9.29727 12.3535 9.41702C12.3242 9.44375 12.2353 9.52601 12.2353 9.73006C12.2353 9.95931 12.3597 10.3196 12.7088 10.6453C13.1354 11.0426 13.8396 11.3425 14.346 11.3425C14.5243 11.3425 14.5875 11.3035 14.5881 11.3029C14.6708 11.1374 14.4678 10.3011 13.873 9.74701ZM15.9636 11.3168C15.9636 11.3168 15.9641 11.3163 15.9646 11.3163C15.9765 11.3163 16.0453 11.3425 16.1918 11.3425C16.6982 11.3425 17.4024 11.0426 17.8291 10.6453C18.1781 10.3196 18.302 9.95957 18.302 9.73059C18.302 9.52653 18.2136 9.44402 18.1843 9.41704C18.0557 9.29727 17.8553 9.27953 17.7468 9.27953C17.3834 9.27953 16.9794 9.45455 16.6648 9.74702C16.0741 10.2975 15.8696 11.1256 15.9636 11.3168ZM14.8374 21.3417H10.5164C9.99358 21.3417 9.56592 20.914 9.56592 20.3913V17.1525H14.8374V21.3417Z" fill="#96EA63"/>
<g opacity="0.4" filter="url(#filter1_f_13_1067)">
<ellipse cx="15.0105" cy="30.7869" rx="19.032" ry="8.80591" fill="#96EA63"/>
</g>
</g>
</g>
<defs>
<filter id="filter0_i_13_1067" x="-2" y="-1.91553" width="34" height="34" filterUnits="userSpaceOnUse" color-interpolation-filters="sRGB">
<feFlood flood-opacity="0" result="BackgroundImageFix"/>
<feBlend mode="normal" in="SourceGraphic" in2="BackgroundImageFix" result="shape"/>
<feColorMatrix in="SourceAlpha" type="matrix" values="0 0 0 0 0 0 0 0 0 0 0 0 0 0 0 0 0 0 127 0" result="hardAlpha"/>
<feMorphology radius="32" operator="erode" in="SourceAlpha" result="effect1_innerShadow_13_1067"/>
<feOffset dy="-2"/>
<feGaussianBlur stdDeviation="1"/>
<feComposite in2="hardAlpha" operator="arithmetic" k2="-1" k3="1"/>
<feColorMatrix type="matrix" values="0 0 0 0 1 0 0 0 0 1 0 0 0 0 1 0 0 0 0.05 0"/>
<feBlend mode="normal" in2="shape" result="effect1_innerShadow_13_1067"/>
</filter>
<filter id="filter1_f_13_1067" x="-23.4863" y="2.51618" width="76.9935" height="56.5414" filterUnits="userSpaceOnUse" color-interpolation-filters="sRGB">
<feFlood flood-opacity="0" result="BackgroundImageFix"/>
<feBlend mode="normal" in="SourceGraphic" in2="BackgroundImageFix" result="shape"/>
<feGaussianBlur stdDeviation="9.73239" result="effect1_foregroundBlur_13_1067"/>
</filter>
<clipPath id="clip0_13_1067">
<rect y="0.0844727" width="30" height="30" rx="5" fill="white"/>
</clipPath>
</defs>
</svg>
