<svg width="268" height="95" viewBox="0 0 268 95" fill="none" xmlns="http://www.w3.org/2000/svg">
<path fill-rule="evenodd" clip-rule="evenodd" d="M62.1751 13.128C59.2591 5.04 50.9671 9.58443e-06 42.2071 1.41601C35.5711 2.48401 30.2071 7.40399 27.9151 13.716L0.123091 90.6C-0.356909 91.92 0.627086 93.324 2.03109 93.324H17.0671C17.9191 93.324 18.6871 92.784 18.9751 91.98L44.1151 22.428C44.4631 21.468 45.8191 21.468 46.1671 22.428L71.2591 91.98C71.5471 92.784 72.3151 93.324 73.1671 93.324H88.2631C89.6671 93.324 90.6511 91.92 90.1711 90.6L62.1631 13.116L62.1751 13.128ZM220.635 76.356C204.603 76.356 191.607 63.36 191.607 47.328C191.607 31.296 204.603 18.3 220.635 18.3C236.667 18.3 249.663 31.296 249.663 47.328C249.663 63.36 236.667 76.356 220.635 76.356ZM220.635 0C194.499 0 173.307 21.192 173.307 47.328C173.307 73.464 194.499 94.656 220.635 94.656C246.771 94.656 267.963 73.464 267.963 47.328C267.963 21.192 246.771 0 220.635 0ZM168.399 31.092C167.955 14.316 153.687 1.18801 136.911 1.18801H97.7911C96.7471 1.18801 95.9071 2.028 95.9071 3.072V91.452C95.9071 92.496 96.7471 93.336 97.7911 93.336H113.775C114.807 93.336 115.659 92.496 115.659 91.452V19.236C115.659 18.72 116.079 18.3 116.595 18.3H133.947C141.207 18.3 147.543 23.772 148.011 31.02C148.527 38.952 142.239 45.552 134.415 45.552H132.999C132.351 45.552 131.895 46.2 132.111 46.812L148.443 92.1C148.719 92.844 149.415 93.348 150.207 93.348H165.615C166.923 93.348 167.823 92.052 167.391 90.828L155.235 57.132C163.407 51.432 168.687 41.88 168.399 31.092Z" fill="#0F1012"/>
</svg>
