<svg width="173" height="107" viewBox="0 0 173 107" fill="none" xmlns="http://www.w3.org/2000/svg">
<path d="M115.87 65.6671V65.712C115.766 66.848 114.891 68.0251 113.273 68.9593L112.668 69.3106L86.6444 84.3365C83.4942 86.1526 78.7297 86.3469 76.0093 84.7774L49.216 69.3031L47.8483 68.5184C46.6151 67.8084 46.0098 66.8517 46.0098 65.8465C46.0098 64.6432 46.8917 63.369 48.6144 62.375L75.2507 47.0053C78.4009 45.1891 83.1579 44.9873 85.8858 46.5643L114.039 62.8159C115.347 63.5708 115.953 64.6021 115.87 65.6671Z" fill="white"/>
<path d="M113.276 68.9148L112.671 69.2661L86.6473 84.292C85.0106 85.2412 82.9366 85.7419 80.9411 85.7868C79.0951 85.8316 77.3201 85.4878 76.0122 84.733L49.2189 69.2586L47.8512 68.4739C46.6181 67.7639 46.0127 66.8072 46.0127 65.802V78.5858C46.0127 79.5873 46.6181 80.5365 47.8512 81.2502L76.0122 97.5093C77.3201 98.2641 79.0951 98.6079 80.9411 98.5631C82.9366 98.5182 85.0106 98.0175 86.6473 97.0683L113.276 81.6911C114.913 80.7495 115.791 79.5499 115.873 78.399V65.6675C115.769 66.8035 114.894 67.9806 113.276 68.9148Z" fill="#DAE0E7"/>
<path d="M80.6259 99.0746C78.7425 99.0746 77.0273 98.6785 75.7605 97.9498L47.5995 81.6907C46.2505 80.9134 45.5068 79.811 45.5068 78.5891V65.8053C45.5068 65.525 45.7348 65.2971 46.0151 65.2971C46.2953 65.2971 46.5233 65.525 46.5233 65.8053C46.5233 66.6536 47.0875 67.4458 48.1077 68.0362L49.4754 68.8209L76.2687 84.2953C77.4495 84.9754 79.1049 85.3267 80.9323 85.2818C82.9165 85.237 84.9083 84.7175 86.3956 83.8543L113.024 68.4771C114.422 67.67 115.278 66.6274 115.367 65.6222C115.394 65.3531 115.625 65.1513 115.898 65.1626C116.171 65.1738 116.384 65.398 116.384 65.6708V78.4023C116.283 79.8223 115.27 81.1339 113.533 82.1354L86.9075 97.5126C85.2521 98.4729 83.1408 99.026 80.9584 99.0746C80.8463 99.0746 80.7342 99.0746 80.6259 99.0746ZM46.5233 68.0997V78.5854C46.5233 79.4411 47.0726 80.2109 48.1077 80.8088L76.2687 97.0716C77.4495 97.7517 79.1012 98.103 80.9323 98.0581C82.9165 98.0133 84.9083 97.4939 86.3956 96.6307L113.024 81.2497C114.441 80.4351 115.293 79.3813 115.367 78.3611V67.8942C114.9 68.4248 114.284 68.9181 113.533 69.3516L112.927 69.7028L86.9038 84.7288C85.2484 85.6891 83.137 86.2422 80.9547 86.2908C78.9443 86.3356 77.0983 85.9395 75.7605 85.1697L47.6032 68.9144C47.181 68.6715 46.8222 68.3987 46.5233 68.0997Z" fill="#34393A"/>
<path d="M80.6292 86.3358C78.8057 86.3358 77.0606 85.9658 75.7564 85.2147L47.5954 68.9556C46.2427 68.1783 45.499 67.0722 45.499 65.8428C45.499 64.4078 46.5416 62.9804 48.354 61.934L74.9903 46.5643C78.275 44.666 83.275 44.4717 86.1337 46.1234L114.287 62.375C115.703 63.1934 116.466 64.3966 116.372 65.6821V65.7083C116.372 65.7232 116.372 65.7382 116.369 65.7531C116.245 67.1096 115.233 68.4025 113.521 69.3928L112.916 69.7441L86.8922 84.77C85.1135 85.8089 82.8153 86.3358 80.6292 86.3358ZM81.2683 46.0001C79.269 46.0001 77.154 46.4896 75.5023 47.4425L48.8659 62.8122C47.3749 63.6754 46.5155 64.7815 46.5155 65.8428C46.5155 66.6911 47.0797 67.4833 48.0999 68.0737L49.4676 68.8584L76.2609 84.3365C78.843 85.8275 83.3871 85.6295 86.3878 83.8956L113.013 68.5184C114.399 67.715 115.251 66.6836 115.356 65.6859V65.6672C115.356 65.6522 115.356 65.641 115.356 65.6298C115.427 64.7292 114.863 63.8884 113.775 63.2606L85.6217 47.009C84.467 46.3289 82.9087 46.0001 81.2683 46.0001Z" fill="#34393A"/>
<path d="M110.872 53.4665L110.312 53.7916L86.2276 67.7002C84.7104 68.5784 82.7934 69.0418 80.9436 69.0866C79.2322 69.1277 77.5917 68.8101 76.3809 68.1113L51.5831 53.7879L50.3163 53.0592C49.1728 52.4015 48.6123 51.5159 48.6123 50.5891V62.42C48.6123 63.3468 49.1728 64.2287 50.3163 64.8864L76.3809 79.9384C77.5917 80.6372 79.2322 80.9549 80.9436 80.9138C82.7934 80.8727 84.7104 80.4093 86.2276 79.5274L110.872 65.2937C112.389 64.423 113.197 63.3131 113.275 62.2481V50.4658C113.178 51.5121 112.371 52.5996 110.872 53.4665Z" fill="#4281FF"/>
<path d="M80.6517 81.4179C78.9029 81.4179 77.3073 81.048 76.1301 80.3716L50.0655 65.3195C48.8025 64.5946 48.1074 63.5632 48.1074 62.416V50.5851C48.1074 50.3048 48.3354 50.0769 48.6156 50.0769C48.8959 50.0769 49.1238 50.3048 49.1238 50.5851C49.1238 51.3586 49.6395 52.0798 50.5737 52.6142L51.8405 53.3429L76.6421 67.6663C77.7295 68.2941 79.2504 68.6117 80.9395 68.5744C82.7705 68.5333 84.6091 68.0549 85.9805 67.259L110.625 53.0253C111.907 52.2816 112.692 51.3325 112.778 50.4132C112.804 50.1442 113.035 49.9424 113.308 49.9536C113.581 49.9648 113.794 50.189 113.794 50.4618V62.2441C113.701 63.5744 112.755 64.8001 111.137 65.7306L86.4925 79.9643C84.9566 80.8537 82.9948 81.3694 80.9694 81.4179C80.8535 81.4179 80.7526 81.4179 80.6517 81.4179ZM49.1201 52.8011V62.416C49.1201 63.1933 49.6208 63.8958 50.57 64.4414L76.6346 79.4935C77.7183 80.1212 79.2467 80.4464 80.932 80.4015C82.7631 80.3604 84.6016 79.8821 85.973 79.0861L110.621 64.8524C111.922 64.1051 112.703 63.1409 112.77 62.2105V52.6254C112.344 53.0925 111.795 53.526 111.13 53.9109L110.569 54.236L86.4813 68.1446C84.9454 69.034 82.9835 69.5497 80.9582 69.5983C79.086 69.6431 77.3745 69.2731 76.1301 68.5557L50.0655 53.5036C49.7031 53.2869 49.3854 53.0552 49.1201 52.8011Z" fill="#34393A"/>
<path d="M115.87 43.1632V43.2081C115.766 44.3441 114.891 45.5212 113.273 46.4554L112.668 46.8067L86.6444 61.8326C83.4942 63.6487 78.7297 63.843 76.0093 62.2735L49.216 46.7992L47.8483 46.0145C46.6151 45.3044 46.0098 44.3478 46.0098 43.3426C46.0098 42.1393 46.8917 40.8651 48.6144 39.871L75.2507 24.5013C78.4009 22.6852 83.1579 22.4834 85.8858 24.0604L114.039 40.312C115.347 41.0706 115.953 42.102 115.87 43.1632Z" fill="white"/>
<path d="M113.276 46.4101L112.671 46.7614L86.6473 61.7873C85.0106 62.7365 82.9366 63.2372 80.9411 63.282C79.0951 63.3269 77.3201 62.9831 76.0122 62.2282L49.2189 46.7539L47.8512 45.9691C46.6181 45.2591 46.0127 44.3025 46.0127 43.2973V56.0811C46.0127 57.0826 46.6181 58.0317 47.8512 58.7455L76.0122 75.0046C77.3201 75.7594 79.0951 76.1032 80.9411 76.0584C82.9366 76.0135 85.0106 75.5128 86.6473 74.5636L113.276 59.1864C114.913 58.2447 115.791 57.0452 115.873 55.8943V43.1665C115.769 44.3025 114.894 45.4759 113.276 46.4101Z" fill="#DAE0E7"/>
<path d="M80.6259 76.5751C78.7425 76.5751 77.0273 76.179 75.7605 75.4503L47.5995 59.1912C46.2505 58.4139 45.5068 57.3115 45.5068 56.0896V43.3058C45.5068 43.0255 45.7348 42.7976 46.0151 42.7976C46.2953 42.7976 46.5233 43.0255 46.5233 43.3058C46.5233 44.1541 47.0875 44.9463 48.1077 45.5367L49.4754 46.3214L76.2687 61.7958C77.4495 62.4759 79.1049 62.8272 80.9323 62.7823C82.9165 62.7375 84.9083 62.218 86.3956 61.3548L113.024 45.9776C114.422 45.1705 115.278 44.1279 115.367 43.1227C115.394 42.8536 115.625 42.6518 115.898 42.663C116.171 42.6743 116.384 42.8985 116.384 43.1713V55.9028C116.283 57.3228 115.27 58.6344 113.533 59.6359L86.9075 75.0131C85.2521 75.9734 83.1408 76.5265 80.9584 76.5751C80.8463 76.5713 80.7342 76.5751 80.6259 76.5751ZM46.5233 45.6002V56.0859C46.5233 56.9416 47.0726 57.7114 48.1077 58.3093L76.2687 74.5721C77.4495 75.2522 79.1012 75.6035 80.9323 75.5586C82.9165 75.5138 84.9083 74.9944 86.3956 74.1312L113.024 58.7502C114.441 57.9356 115.293 56.8818 115.367 55.8616V45.3947C114.9 45.9253 114.284 46.4186 113.533 46.8521L112.927 47.2033L86.9038 62.2293C85.2484 63.1896 83.137 63.7427 80.9547 63.7913C78.9443 63.8398 77.0983 63.44 75.7605 62.6702L47.5995 46.4111C47.181 46.172 46.8222 45.8992 46.5233 45.6002Z" fill="#34393A"/>
<path d="M80.6292 63.8359C78.8057 63.8359 77.0606 63.466 75.7564 62.7149L47.5954 46.4558C46.2427 45.6785 45.499 44.5724 45.499 43.343C45.499 41.908 46.5416 40.4843 48.354 39.4342L74.9903 24.0645C78.275 22.1699 83.275 21.9719 86.1337 23.6236L114.287 39.8752C115.703 40.6936 116.466 41.8968 116.372 43.1823V43.2085C116.372 43.2234 116.372 43.2384 116.369 43.2533C116.242 44.6098 115.233 45.9027 113.521 46.893L112.916 47.2443L86.8922 62.2702C85.1135 63.3053 82.8153 63.8359 80.6292 63.8359ZM81.2683 23.5003C79.269 23.5003 77.154 23.9898 75.5023 24.9427L48.8659 40.3124C47.3749 41.1756 46.5155 42.2817 46.5155 43.343C46.5155 44.1913 47.0797 44.9835 48.0999 45.5739L49.4676 46.3586L76.2609 61.8367C78.843 63.3277 83.3871 63.1297 86.3878 61.3958L113.013 46.0186C114.399 45.2152 115.251 44.1838 115.356 43.1861V43.1674C115.356 43.1524 115.356 43.1412 115.356 43.13C115.427 42.2294 114.863 41.3886 113.775 40.7608L85.6217 24.5092C84.467 23.8291 82.9087 23.5003 81.2683 23.5003Z" fill="#34393A"/>
<path d="M110.87 30.9634L110.31 31.2885L86.2256 45.1971C84.7085 46.0753 82.7914 46.5387 80.9417 46.5835C79.2302 46.6246 77.5897 46.307 76.379 45.6082L51.5812 31.2848L50.3144 30.5561C49.1709 29.8984 48.6104 29.0128 48.6104 28.086V39.9169C48.6104 40.8437 49.1709 41.7256 50.3144 42.3833L76.379 57.4353C77.5897 58.1341 79.2302 58.4518 80.9417 58.4107C82.7914 58.3696 84.7085 57.9062 86.2256 57.0243L110.87 42.7906C112.387 41.9199 113.195 40.81 113.273 39.745V27.959C113.176 29.0128 112.369 30.1002 110.87 30.9634Z" fill="#4281FF"/>
<path d="M80.6535 58.9189C78.9047 58.9189 77.3053 58.549 76.1282 57.8726L50.0636 42.8205C48.8005 42.0918 48.1055 41.0605 48.1055 39.917V28.0861C48.1055 27.8058 48.3334 27.5779 48.6137 27.5779C48.8939 27.5779 49.1219 27.8058 49.1219 28.0861C49.1219 28.8596 49.6376 29.5808 50.5718 30.1152L51.8386 30.8439L76.6401 45.1673C77.7238 45.7951 79.2522 46.1164 80.9375 46.0753C82.7686 46.0342 84.6071 45.5559 85.9785 44.76L110.623 30.5262C111.905 29.7826 112.69 28.8334 112.776 27.9142C112.802 27.6451 113.033 27.4433 113.306 27.4545C113.579 27.4658 113.792 27.69 113.792 27.9628V39.7451C113.699 41.0754 112.753 42.3011 111.135 43.2316L86.4905 57.4653C84.9546 58.3547 82.9928 58.8741 80.9674 58.9189C80.8553 58.9189 80.7544 58.9189 80.6535 58.9189ZM49.1219 30.302V39.917C49.1219 40.6942 49.6226 41.3968 50.5718 41.9424L76.6364 56.9944C77.7201 57.6222 79.2485 57.9399 80.9338 57.9025C82.7648 57.8614 84.6034 57.3831 85.9748 56.5871L110.623 42.3534C111.924 41.606 112.705 40.6419 112.772 39.7114V30.1264C112.346 30.5935 111.797 31.027 111.131 31.4119L110.571 31.737L86.483 45.6456C84.9472 46.535 82.9853 47.0507 80.9599 47.0992C79.0878 47.1478 77.3763 46.7741 76.1319 46.0566L50.0673 31.0046C49.7048 30.7878 49.3872 30.5561 49.1219 30.302Z" fill="#34393A"/>
<path d="M115.872 20.6647V20.7095C115.768 21.8455 114.893 23.0226 113.275 23.9569L112.67 24.3081L86.6464 39.3341C83.4962 41.1502 78.7317 41.3445 76.0112 39.775L49.2179 24.3007L47.8503 23.5159C46.6171 22.8059 46.0117 21.8493 46.0117 20.8441C46.0117 19.6408 46.8936 18.3665 48.6163 17.3725L75.2527 2.00281C78.4028 0.186695 83.1599 -0.0150982 85.8878 1.56186L114.041 17.8135C115.349 18.5683 115.955 19.6034 115.872 20.6647Z" fill="white"/>
<path d="M113.28 23.9114L112.675 24.2627L86.6512 39.2886C85.0145 40.2377 82.9405 40.7385 80.945 40.7833C79.099 40.8282 77.324 40.4844 76.0161 39.7295L49.2228 24.2552L47.8551 23.4704C46.622 22.7604 46.0166 21.8038 46.0166 20.7986V33.5824C46.0166 34.5839 46.622 35.533 47.8551 36.2468L76.0161 52.5059C77.324 53.2607 79.099 53.6045 80.945 53.5597C82.9405 53.5148 85.0145 53.0141 86.6512 52.0649L113.28 36.6877C114.917 35.746 115.795 34.5465 115.877 33.3956V20.6641C115.773 21.8038 114.898 22.9772 113.28 23.9114Z" fill="#DAE0E7"/>
<path d="M80.6278 54.0721C78.7444 54.0721 77.0292 53.676 75.7624 52.9473L47.6014 36.6883C46.2524 35.911 45.5088 34.8086 45.5088 33.5867V20.8029C45.5088 20.5226 45.7367 20.2946 46.017 20.2946C46.2973 20.2946 46.5252 20.5226 46.5252 20.8029C46.5252 21.6511 47.0895 22.4433 48.1097 23.0338L49.4773 23.8185L76.2706 39.2928C77.4515 39.973 79.1069 40.328 80.9342 40.2794C82.9185 40.2345 84.9102 39.7151 86.3975 38.8519L113.026 23.4747C114.424 22.6676 115.28 21.625 115.369 20.6198C115.396 20.3507 115.627 20.1489 115.9 20.1601C116.173 20.1713 116.386 20.3955 116.386 20.6683V33.3998C116.285 34.8198 115.272 36.1315 113.535 37.1329L86.9095 52.5101C85.2541 53.4705 83.1427 54.0236 80.9604 54.0721C80.8483 54.0721 80.7362 54.0721 80.6278 54.0721ZM46.5252 23.0973V33.5829C46.5252 34.4387 47.0745 35.2085 48.1097 35.8064L76.2706 52.0654C77.4477 52.7455 79.1069 53.0968 80.9342 53.052C82.9185 53.0071 84.9102 52.4877 86.3975 51.6245L113.026 36.2473C114.443 35.4327 115.295 34.3789 115.369 33.3587V22.8918C114.902 23.4224 114.286 23.9157 113.535 24.3491L112.929 24.7004L86.9058 39.7263C85.2503 40.6867 83.139 41.2397 80.9566 41.2883C78.9462 41.3369 77.1002 40.9371 75.7624 40.1673L47.6014 23.9082C47.1829 23.669 46.8242 23.3962 46.5252 23.0973Z" fill="#34393A"/>
<path d="M80.6302 41.3338C78.8066 41.3338 77.0615 40.9638 75.7574 40.2127L47.5964 23.9537C46.2436 23.1764 45.5 22.0703 45.5 20.8408C45.5 19.4059 46.5426 17.9821 48.355 16.9321L74.9913 1.56237C78.276 -0.335951 83.2759 -0.530265 86.1346 1.12143L114.288 17.373C115.704 18.1914 116.467 19.3947 116.373 20.6802V20.7063C116.373 20.7213 116.373 20.7362 116.37 20.7512C116.243 22.1076 115.234 23.4006 113.522 24.3909L112.917 24.7421L86.8932 39.768C85.1145 40.8069 82.8126 41.3338 80.6302 41.3338ZM81.2692 1.00185C79.27 1.00185 77.155 1.49137 75.5033 2.44427L48.8669 17.814C47.3759 18.6772 46.5164 19.7833 46.5164 20.8446C46.5164 21.6928 47.0807 22.4851 48.1009 23.0755L49.4686 23.8602L76.2618 39.3383C78.844 40.8293 83.388 40.6313 86.3887 38.8974L113.014 23.5202C114.4 22.7168 115.252 21.6854 115.357 20.6876V20.6689C115.357 20.654 115.357 20.6428 115.357 20.6316C115.428 19.731 114.864 18.8902 113.776 18.2624L85.6227 2.0108C84.468 1.33069 82.9097 1.00185 81.2692 1.00185Z" fill="#34393A"/>
<path d="M104.5 20.6641V20.694C104.429 21.46 103.838 22.2522 102.751 22.8837L102.344 23.1192L84.7917 33.2535C82.6692 34.4792 79.4555 34.61 77.6169 33.5525L59.5455 23.1154L58.6225 22.5848C57.7892 22.1065 57.3818 21.46 57.3818 20.7836C57.3818 19.9727 57.976 19.1133 59.1381 18.4444L77.1012 8.07831C79.2238 6.85261 82.4337 6.71436 84.276 7.77936L103.267 18.7433C104.149 19.2515 104.556 19.9466 104.5 20.6641Z" fill="#4281FF"/>
<path d="M80.7414 34.783C79.4858 34.783 78.2825 34.5214 77.3632 33.9908L58.3688 23.0231C57.4047 22.4663 56.874 21.6703 56.874 20.781C56.874 19.7533 57.6064 18.7406 58.8845 18.0007L76.8513 7.6347C79.1532 6.30811 82.5276 6.17733 84.5343 7.33575L103.521 18.2997C104.534 18.8827 105.076 19.7496 105.012 20.6801V20.6913C105.012 20.7062 105.012 20.7212 105.009 20.7361C104.919 21.7077 104.209 22.6232 103.006 23.3183L102.598 23.5537L85.0462 33.6881C83.7981 34.4168 82.2324 34.783 80.7414 34.783ZM81.1636 7.5637C79.8445 7.5637 78.4507 7.88881 77.3595 8.5166L59.3964 18.8827C58.4435 19.4357 57.8942 20.127 57.8942 20.7847C57.8942 21.4387 58.4323 21.8871 58.8807 22.1449L59.8037 22.6756L77.8752 33.1126C79.5418 34.0767 82.5949 33.9385 84.5418 32.8137L102.501 22.4401C103.387 21.9282 103.932 21.2817 104 20.6614C104 20.6465 104 20.6278 104 20.6203C104.041 20.0784 103.693 19.5665 103.017 19.1779L84.0261 8.21391C83.26 7.78043 82.2398 7.5637 81.1636 7.5637Z" fill="#34393A"/>
<path d="M69.4922 18.6059L79.0473 30.1976L80.8934 29.1326L82.0144 28.4861L80.0339 26.3038L85.1272 23.3666L86.9097 23.9048L88.9014 24.5064L89.8357 23.9683L91.8909 22.7874L73.6326 17.7838L71.7941 17.2793L69.4922 18.6059ZM78.2626 21.3226L82.0331 22.4511L80.2319 23.4937L78.4495 24.5213L74.5407 20.2053L78.2626 21.3226Z" fill="white"/>
<path d="M81.3648 11.7524L82.725 12.5372L96.1815 20.3061L94.7241 21.1432L93.3714 21.9279L78.5547 13.3742L81.3648 11.7524Z" fill="white"/>
<path d="M120.401 99.5496C120.315 99.5496 120.229 99.5271 120.147 99.4823L98.7382 87.1208C98.4953 86.9788 98.4131 86.6686 98.5514 86.4257C98.6896 86.1828 99.0035 86.1006 99.2464 86.2389L120.655 98.6004C120.898 98.7424 120.98 99.0526 120.842 99.2955C120.748 99.4599 120.576 99.5496 120.401 99.5496Z" fill="#34393A"/>
<path d="M122.48 101.944C124.106 101.944 125.424 101.183 125.424 100.244C125.424 99.3052 124.106 98.5439 122.48 98.5439C120.853 98.5439 119.535 99.3052 119.535 100.244C119.535 101.183 120.853 101.944 122.48 101.944Z" fill="#DAE0E7"/>
<path d="M122.478 102.454C121.637 102.454 120.797 102.263 120.143 101.886C119.421 101.471 119.025 100.888 119.025 100.245C119.025 99.6025 119.421 99.0195 120.143 98.6047C121.451 97.8499 123.506 97.8499 124.814 98.6047C125.535 99.0195 125.931 99.6025 125.931 100.245C125.931 100.888 125.535 101.471 124.814 101.886C124.16 102.263 123.319 102.454 122.478 102.454ZM122.478 99.0531C121.813 99.0531 121.148 99.1951 120.651 99.4829C120.266 99.7071 120.042 99.9836 120.042 100.245C120.042 100.507 120.262 100.783 120.651 101.008C121.641 101.579 123.315 101.579 124.306 101.008C124.69 100.783 124.915 100.507 124.915 100.245C124.915 99.9836 124.694 99.7071 124.306 99.4829C123.809 99.1951 123.143 99.0531 122.478 99.0531Z" fill="#34393A"/>
<path d="M130.14 93.4173C128.989 94.0825 127.128 94.0825 125.977 93.4173C124.827 92.7521 124.827 91.6759 125.977 91.0145C127.128 90.3493 128.989 90.3493 130.14 91.0145C131.288 91.6797 131.288 92.7521 130.14 93.4173Z" fill="#DAE0E7"/>
<path d="M128.061 94.4268C127.22 94.4268 126.38 94.2362 125.726 93.8588C125.005 93.444 124.608 92.8611 124.608 92.2183C124.608 91.5756 125.005 90.9926 125.726 90.5779C127.034 89.823 129.089 89.823 130.397 90.5779C131.118 90.9926 131.514 91.5756 131.514 92.2183C131.514 92.8611 131.118 93.444 130.397 93.8588C129.739 94.2362 128.898 94.4268 128.061 94.4268ZM128.061 91.0263C127.396 91.0263 126.731 91.1683 126.234 91.456C125.849 91.6802 125.625 91.9568 125.625 92.2183C125.625 92.4799 125.845 92.7565 126.234 92.9807C127.224 93.5524 128.898 93.5524 129.889 92.9807C130.273 92.7565 130.498 92.4799 130.498 92.2183C130.498 91.9568 130.277 91.6802 129.889 91.456C129.392 91.1683 128.726 91.0263 128.061 91.0263Z" fill="#34393A"/>
<path d="M108.28 104.15C107.129 104.815 105.268 104.815 104.117 104.15C102.966 103.485 102.966 102.408 104.117 101.747C105.268 101.082 107.129 101.082 108.28 101.747C109.431 102.412 109.431 103.488 108.28 104.15Z" fill="#DAE0E7"/>
<path d="M106.199 105.159C105.358 105.159 104.517 104.968 103.863 104.591C103.142 104.176 102.746 103.593 102.746 102.95C102.746 102.308 103.142 101.725 103.863 101.31C105.175 100.555 107.227 100.555 108.535 101.31C109.256 101.725 109.652 102.308 109.652 102.95C109.652 103.593 109.256 104.176 108.535 104.591C107.881 104.968 107.04 105.159 106.199 105.159ZM106.199 101.758C105.534 101.758 104.869 101.9 104.372 102.188C103.987 102.412 103.763 102.689 103.763 102.95C103.763 103.212 103.983 103.488 104.372 103.713C105.362 104.284 107.036 104.284 108.026 103.713C108.411 103.488 108.635 103.212 108.635 102.95C108.635 102.689 108.415 102.412 108.026 102.188C107.533 101.904 106.864 101.758 106.199 101.758Z" fill="#34393A"/>
<path d="M125.136 92.5243C125.121 92.5243 125.106 92.5243 125.091 92.5243L116.224 91.7172C116.149 91.7097 116.078 91.6873 116.014 91.6499L103.451 84.3967C103.208 84.2547 103.126 83.9445 103.264 83.7016C103.406 83.4587 103.716 83.3765 103.959 83.5148L116.426 90.712L125.181 91.5079C125.461 91.5341 125.667 91.7807 125.641 92.061C125.618 92.3263 125.398 92.5243 125.136 92.5243Z" fill="#34393A"/>
<path d="M105.41 101.821C105.197 101.821 104.999 101.687 104.928 101.474L102.697 94.8593L94.0126 89.8444C93.7697 89.7024 93.6875 89.3922 93.8258 89.1494C93.9678 88.9065 94.2779 88.8242 94.5208 88.9625L103.373 94.0708C103.482 94.1343 103.56 94.2315 103.601 94.3473L105.892 101.145C105.982 101.41 105.84 101.698 105.574 101.787C105.518 101.81 105.466 101.821 105.41 101.821Z" fill="#34393A"/>
<path d="M41.493 99.5503C41.3174 99.5503 41.1455 99.4606 41.0521 99.2961C40.9101 99.0532 40.996 98.7431 41.2389 98.6011L62.6474 86.2396C62.8903 86.0976 63.2004 86.1835 63.3424 86.4264C63.4844 86.6693 63.3985 86.9795 63.1556 87.1215L41.7471 99.483C41.6649 99.5278 41.579 99.5503 41.493 99.5503Z" fill="#34393A"/>
<path d="M37.33 101.445C38.481 102.11 40.3419 102.11 41.4929 101.445C42.6438 100.78 42.6438 99.7038 41.4929 99.0423C40.3419 98.3772 38.481 98.3772 37.33 99.0423C36.1791 99.7075 36.1791 100.784 37.33 101.445Z" fill="#DAE0E7"/>
<path d="M39.4118 102.454C38.571 102.454 37.7303 102.263 37.0763 101.886C36.3551 101.471 35.959 100.888 35.959 100.245C35.959 99.6025 36.3551 99.0195 37.0763 98.6047C38.3842 97.8499 40.4395 97.8499 41.7474 98.6047C42.4686 99.0195 42.8647 99.6025 42.8647 100.245C42.8647 100.888 42.4686 101.471 41.7474 101.886C41.0897 102.263 40.2526 102.454 39.4118 102.454ZM39.4118 99.0531C38.7467 99.0531 38.0815 99.1951 37.5845 99.4829C37.1996 99.7071 36.9754 99.9836 36.9754 100.245C36.9754 100.507 37.1959 100.783 37.5845 101.008C38.5748 101.579 40.2489 101.579 41.2392 101.008C41.6241 100.783 41.8483 100.507 41.8483 100.245C41.8483 99.9836 41.6278 99.7071 41.2392 99.4829C40.7422 99.1951 40.077 99.0531 39.4118 99.0531Z" fill="#34393A"/>
<path d="M31.749 93.4178C32.8999 94.0829 34.7609 94.0829 35.9118 93.4178C37.0628 92.7526 37.0628 91.6764 35.9118 91.015C34.7609 90.3498 32.8999 90.3498 31.749 91.015C30.598 91.6801 30.598 92.7526 31.749 93.4178Z" fill="#DAE0E7"/>
<path d="M33.8337 94.4263C32.9929 94.4263 32.1521 94.2358 31.4982 93.8583C30.777 93.4435 30.3809 92.8606 30.3809 92.2179C30.3809 91.5751 30.777 90.9922 31.4982 90.5774C32.8061 89.8225 34.8614 89.8225 36.1693 90.5774C36.8905 90.9922 37.2866 91.5751 37.2866 92.2179C37.2866 92.8606 36.8905 93.4435 36.1693 93.8583C35.5153 94.2358 34.6745 94.4263 33.8337 94.4263ZM32.0064 92.9764C32.9967 93.5482 34.6708 93.5482 35.661 92.9764C36.0459 92.7522 36.2701 92.4757 36.2701 92.2141C36.2701 91.9525 36.0497 91.676 35.661 91.4518C34.6708 90.88 32.9967 90.88 32.0064 91.4518C31.6215 91.676 31.3973 91.9525 31.3973 92.2141C31.3973 92.4757 31.6215 92.756 32.0064 92.9764Z" fill="#34393A"/>
<path d="M53.6132 104.151C54.7642 104.816 56.6251 104.816 57.7761 104.151C58.927 103.486 58.927 102.409 57.7761 101.748C56.6251 101.083 54.7642 101.083 53.6132 101.748C52.4623 102.413 52.4623 103.489 53.6132 104.151Z" fill="#DAE0E7"/>
<path d="M55.6931 105.159C54.8523 105.159 54.0115 104.968 53.3576 104.591C52.6363 104.176 52.2402 103.593 52.2402 102.95C52.2402 102.308 52.6363 101.725 53.3576 101.31C54.6655 100.555 56.717 100.555 58.0286 101.31C58.7498 101.725 59.1459 102.308 59.1459 102.95C59.1459 103.593 58.7498 104.176 58.0286 104.591C57.3709 104.968 56.5301 105.159 55.6931 105.159ZM53.8658 103.713C54.856 104.284 56.5302 104.284 57.5204 103.713C57.9053 103.488 58.1295 103.212 58.1295 102.95C58.1295 102.689 57.9091 102.412 57.5204 102.188C56.5302 101.616 54.856 101.616 53.8658 102.188C53.4809 102.412 53.2566 102.689 53.2566 102.95C53.2566 103.212 53.4771 103.488 53.8658 103.713Z" fill="#34393A"/>
<path d="M36.7538 92.5253C36.4922 92.5253 36.2717 92.3273 36.2493 92.0619C36.2232 91.7817 36.4287 91.535 36.709 91.5089L45.4644 90.7129L57.9306 83.5157C58.1735 83.3775 58.4836 83.4597 58.6256 83.7026C58.7676 83.9455 58.6817 84.2556 58.4388 84.3976L45.8755 91.6509C45.8119 91.6883 45.7409 91.7107 45.6662 91.7182L36.7986 92.5253C36.7837 92.5253 36.7687 92.5253 36.7538 92.5253Z" fill="#34393A"/>
<path d="M56.4749 101.822C56.4226 101.822 56.3665 101.814 56.3142 101.795C56.0489 101.706 55.9069 101.418 55.9966 101.153L58.2873 94.3553C58.3284 94.2395 58.4069 94.1386 58.5153 94.0788L67.3641 88.9705C67.607 88.8285 67.9172 88.9145 68.0592 89.1574C68.2012 89.4003 68.1153 89.7104 67.8724 89.8524L59.1879 94.8673L56.957 101.482C56.886 101.687 56.6879 101.822 56.4749 101.822Z" fill="#34393A"/>
<path d="M56.9376 37.1111L51.5229 33.9871C50.6485 33.4826 49.9385 32.1298 49.9385 30.9639C49.9385 29.798 50.6485 29.2637 51.5229 29.7682L56.9376 32.8922C57.8121 33.3966 58.5221 34.7494 58.5221 35.9153C58.5221 37.0812 57.8121 37.6156 56.9376 37.1111Z" fill="#5E646B"/>
<path d="M56.9376 59.7297L51.5229 56.6057C50.6485 56.1012 49.9385 54.7485 49.9385 53.5826C49.9385 52.4167 50.6485 51.8823 51.5229 52.3868L56.9376 55.5108C57.8121 56.0153 58.5221 57.368 58.5221 58.5339C58.5221 59.6961 57.8121 60.2342 56.9376 59.7297Z" fill="#5E646B"/>
<path d="M57.5696 37.8095C57.2856 37.8095 56.9829 37.7236 56.6839 37.5517L51.2692 34.4276C50.2378 33.8335 49.4307 32.3126 49.4307 30.9636C49.4307 30.1639 49.7221 29.5361 50.2304 29.2446C50.6825 28.983 51.2281 29.0129 51.7737 29.3268L57.1884 32.4546C58.2198 33.0487 59.0269 34.5696 59.0269 35.9187C59.0269 36.7183 58.7355 37.3461 58.2273 37.6376C58.0255 37.7535 57.8012 37.8095 57.5696 37.8095ZM50.8992 30.0817C50.8432 30.0817 50.7909 30.0929 50.746 30.119C50.604 30.2013 50.4546 30.4628 50.4546 30.9598C50.4546 31.9464 51.0637 33.1272 51.7849 33.5457L57.1996 36.6698C57.3267 36.7408 57.5583 36.8491 57.7265 36.752C57.8685 36.6698 58.018 36.4082 58.018 35.9112C58.018 34.9246 57.4089 33.7438 56.6876 33.3253L51.2729 30.1975C51.1795 30.1527 51.0338 30.0817 50.8992 30.0817Z" fill="#34393A"/>
<path d="M57.5707 60.429C57.2867 60.429 56.9877 60.343 56.6888 60.1711L51.2741 57.0434C50.2427 56.4492 49.4355 54.9283 49.4355 53.5793C49.4355 52.7796 49.727 52.1518 50.2352 51.8603C50.6874 51.5988 51.233 51.6287 51.7786 51.9425L57.1933 55.0666C58.2246 55.6607 59.0318 57.1816 59.0318 58.5306C59.0318 59.3303 58.7403 59.9581 58.2321 60.2496C58.0266 60.3692 57.8024 60.429 57.5707 60.429ZM57.1933 59.2892C57.3203 59.364 57.5557 59.4686 57.7202 59.3714C57.8622 59.2892 58.0116 59.0276 58.0116 58.5306C58.0116 57.5441 57.4025 56.3633 56.6813 55.9447L51.2666 52.8207C51.1396 52.7497 50.9079 52.6413 50.7397 52.7385C50.5977 52.8207 50.4482 53.0823 50.4482 53.5793C50.4482 54.5658 51.0574 55.7467 51.7786 56.1652L57.1933 59.2892Z" fill="#34393A"/>
<path d="M110.649 33.3856C111.379 32.1203 111.379 30.7523 110.648 30.3303C109.917 29.9082 108.732 30.5919 108.002 31.8573C107.271 33.1226 107.271 34.4906 108.002 34.9126C108.733 35.3347 109.918 34.651 110.649 33.3856Z" fill="white"/>
<path d="M104.509 35.4253C104.509 36.6173 103.672 38.071 102.637 38.6651C101.602 39.263 100.765 38.7772 100.765 37.5852C100.765 36.3931 101.602 34.9395 102.637 34.3453C103.668 33.7474 104.509 34.2332 104.509 35.4253Z" fill="white"/>
<path d="M108.49 35.5075C108.232 35.5075 107.986 35.444 107.769 35.3169C107.265 35.0254 106.984 34.4499 106.984 33.6951C106.984 32.3311 107.911 30.728 109.092 30.0442C109.746 29.6668 110.381 29.6219 110.889 29.9134C111.394 30.2049 111.674 30.7803 111.674 31.5352C111.674 32.8991 110.747 34.5023 109.567 35.1861C109.197 35.3991 108.83 35.5075 108.49 35.5075ZM110.164 30.672C109.993 30.672 109.787 30.7355 109.567 30.8626C108.681 31.3745 107.93 32.6712 107.93 33.6951C107.93 34.0912 108.042 34.3827 108.24 34.4985C108.438 34.6144 108.748 34.5658 109.092 34.3677C109.978 33.8558 110.729 32.5591 110.729 31.5352C110.729 31.1391 110.617 30.8476 110.419 30.7318C110.344 30.6907 110.258 30.672 110.164 30.672Z" fill="#34393A"/>
<path d="M101.801 39.3976C101.543 39.3976 101.296 39.3341 101.08 39.207C100.575 38.9156 100.295 38.3401 100.295 37.5852C100.295 36.2213 101.222 34.6182 102.403 33.9343C103.053 33.5569 103.692 33.5121 104.2 33.8035C104.704 34.095 104.985 34.6705 104.985 35.4253C104.985 36.7893 104.058 38.3924 102.877 39.0762C102.503 39.2893 102.141 39.3976 101.801 39.3976ZM103.471 34.5621C103.299 34.5621 103.094 34.6256 102.873 34.7527C101.988 35.2646 101.237 36.5613 101.237 37.5852C101.237 37.9813 101.349 38.2728 101.547 38.3887C101.745 38.5008 102.055 38.4559 102.399 38.2579C103.284 37.7459 104.036 36.4492 104.036 35.4253C104.036 35.0292 103.923 34.7377 103.725 34.6219C103.654 34.5845 103.568 34.5621 103.471 34.5621Z" fill="#34393A"/>
<path d="M110.649 55.892C111.379 54.6266 111.379 53.2587 110.648 52.8366C109.917 52.4146 108.732 53.0982 108.002 54.3636C107.271 55.629 107.271 56.9969 108.002 57.419C108.733 57.841 109.918 57.1574 110.649 55.892Z" fill="white"/>
<path d="M104.509 57.9362C104.509 59.1283 103.672 60.5819 102.637 61.1761C101.602 61.774 100.765 61.2882 100.765 60.0961C100.765 58.904 101.602 57.4504 102.637 56.8562C103.668 56.2583 104.509 56.7404 104.509 57.9362Z" fill="white"/>
<path d="M108.49 58.0138C108.232 58.0138 107.986 57.9503 107.769 57.8232C107.265 57.5318 106.984 56.9563 106.984 56.2014C106.984 54.8375 107.911 53.2344 109.092 52.5505C109.746 52.1731 110.381 52.1283 110.889 52.4197C111.394 52.7112 111.674 53.2867 111.674 54.0415C111.674 55.4055 110.747 57.0086 109.567 57.6924C109.197 57.9054 108.83 58.0138 108.49 58.0138ZM110.164 53.1783C109.993 53.1783 109.787 53.2419 109.567 53.3689C108.681 53.8809 107.93 55.1775 107.93 56.2014C107.93 56.5976 108.042 56.889 108.24 57.0049C108.438 57.1207 108.748 57.0721 109.092 56.8741C109.978 56.3621 110.729 55.0654 110.729 54.0415C110.729 53.6454 110.617 53.354 110.419 53.2381C110.344 53.2007 110.258 53.1783 110.164 53.1783Z" fill="#34393A"/>
<path d="M101.801 61.9054C101.543 61.9054 101.296 61.8419 101.08 61.7148C100.575 61.4234 100.295 60.8479 100.295 60.093C100.295 58.7291 101.222 57.126 102.403 56.4421C103.056 56.0647 103.692 56.0199 104.2 56.3113C104.704 56.6028 104.985 57.1783 104.985 57.9331C104.985 59.2971 104.058 60.9002 102.877 61.5841C102.503 61.7971 102.141 61.9054 101.801 61.9054ZM103.471 57.0737C103.299 57.0737 103.094 57.1372 102.873 57.2642C101.988 57.7762 101.237 59.0729 101.237 60.0968C101.237 60.4929 101.349 60.7844 101.547 60.9002C101.745 61.0161 102.055 60.9675 102.399 60.7694C103.284 60.2575 104.036 58.9608 104.036 57.9369C104.036 57.5408 103.923 57.2493 103.725 57.1334C103.654 57.0923 103.568 57.0737 103.471 57.0737Z" fill="#34393A"/>
<path d="M157.703 84.4508L151.018 80.5915C150.97 80.5636 150.913 80.5558 150.859 80.5698C150.804 80.5837 150.758 80.6194 150.73 80.669L146.201 88.5628C146.162 88.6294 146.164 88.7116 146.204 88.7767C146.243 88.8402 146.311 88.879 146.384 88.879C146.387 88.879 146.39 88.879 146.392 88.879L150.921 88.7038C150.955 88.7023 150.989 88.693 151.018 88.6759L157.703 84.8166C157.768 84.7794 157.808 84.7096 157.808 84.6337C157.808 84.5578 157.768 84.488 157.703 84.4508Z" fill="#DAE0E7"/>
<path d="M172.816 75.7238L166.131 71.8644C166.083 71.8365 166.026 71.8288 165.972 71.8427C165.918 71.8567 165.871 71.8923 165.843 71.9419L161.314 79.8357C161.276 79.9024 161.277 79.9845 161.317 80.0496C161.356 80.1132 161.424 80.1519 161.497 80.1519C161.5 80.1519 161.503 80.1519 161.505 80.1519L166.034 79.9768C166.068 79.9752 166.102 79.966 166.131 79.9489L172.816 76.0896C172.881 76.0524 172.922 75.9826 172.922 75.9067C172.922 75.8307 172.881 75.761 172.816 75.7238Z" fill="#DAE0E7"/>
<path d="M142.587 75.7243L135.902 71.8649C135.854 71.837 135.797 71.8293 135.742 71.8432C135.688 71.8572 135.642 71.8928 135.614 71.9424L131.085 79.8362C131.046 79.9029 131.048 79.985 131.088 80.0501C131.127 80.1137 131.195 80.1524 131.268 80.1524C131.271 80.1524 131.272 80.1524 131.275 80.1524L135.804 79.9773C135.838 79.9757 135.873 79.9664 135.902 79.9494L142.587 76.09C142.652 76.0528 142.692 75.9831 142.692 75.9071C142.694 75.8312 142.654 75.7615 142.587 75.7243Z" fill="#DAE0E7"/>
<path d="M157.702 66.9992L151.017 63.1398C150.969 63.1119 150.911 63.1042 150.857 63.1181C150.803 63.1321 150.758 63.1677 150.73 63.2173L146.201 71.1112C146.162 71.1778 146.164 71.2599 146.204 71.325C146.243 71.3886 146.311 71.4258 146.384 71.4258C146.387 71.4258 146.39 71.4258 146.392 71.4258L150.921 71.2506C150.955 71.2491 150.989 71.2398 151.018 71.2227L157.703 67.3634C157.768 67.3262 157.808 67.2565 157.808 67.1805C157.807 67.1061 157.767 67.0364 157.702 66.9992Z" fill="#DAE0E7"/>
<path d="M131.269 79.9399L124.584 76.0805V68.3618L131.269 72.2212V79.9399Z" fill="#DAE0E7"/>
<path d="M161.494 79.9403L154.81 76.081V68.3623L161.494 72.2217V79.9403Z" fill="#DAE0E7"/>
<path d="M146.381 71.2157L139.696 67.3564V59.6377L146.381 63.497V71.2157Z" fill="#DAE0E7"/>
<path d="M146.381 88.6659L139.696 84.8066V77.0879L146.381 80.9472V88.6659Z" fill="#DAE0E7"/>
<path d="M146.383 88.6659L153.068 84.8066V77.0879L146.383 80.9472V88.6659Z" fill="#5E646B"/>
<path d="M146.383 71.2152L153.068 67.3559V59.6372L146.383 63.4966V71.2152Z" fill="#5E646B"/>
<path d="M161.497 79.9399L168.182 76.0805V68.3618L161.497 72.2212V79.9399Z" fill="#5E646B"/>
<path d="M131.27 79.9403L137.954 76.081V68.3623L131.27 72.2217V79.9403Z" fill="#5E646B"/>
<path d="M131.271 80.15C131.235 80.15 131.198 80.1407 131.165 80.1221L124.48 76.2628C124.415 76.2256 124.375 76.1558 124.375 76.0799V68.3612C124.375 68.2852 124.415 68.217 124.48 68.1783C124.545 68.1411 124.626 68.1411 124.691 68.1783L131.376 72.0376C131.441 72.0748 131.481 72.1446 131.481 72.2205V79.9392C131.481 80.0152 131.441 80.0834 131.376 80.1221C131.344 80.1407 131.306 80.15 131.271 80.15ZM124.797 75.959L131.06 79.575V72.343L124.797 68.727V75.959Z" fill="#34393A"/>
<path d="M161.497 80.1505C161.462 80.1505 161.424 80.1412 161.392 80.1226L154.707 76.2633C154.642 76.2261 154.602 76.1563 154.602 76.0804V68.3617C154.602 68.2857 154.642 68.2175 154.707 68.1788C154.772 68.1416 154.853 68.1416 154.918 68.1788L161.603 72.0381C161.668 72.0753 161.708 72.1451 161.708 72.221V79.9397C161.708 80.0157 161.668 80.0839 161.603 80.1226C161.57 80.1412 161.534 80.1505 161.497 80.1505ZM155.023 75.9595L161.286 79.5755V72.3435L155.023 68.7275V75.9595Z" fill="#34393A"/>
<path d="M146.383 71.4264C146.347 71.4264 146.31 71.4171 146.278 71.3985L139.593 67.5391C139.528 67.5019 139.487 67.4322 139.487 67.3563V59.6376C139.487 59.5616 139.528 59.4934 139.593 59.4547C139.658 59.4175 139.738 59.4175 139.803 59.4547L146.488 63.314C146.553 63.3512 146.594 63.421 146.594 63.4969V71.2156C146.594 71.2915 146.553 71.3597 146.488 71.3985C146.456 71.4171 146.419 71.4264 146.383 71.4264ZM139.909 67.2354L146.172 70.8514V63.6194L139.909 60.0033V67.2354Z" fill="#34393A"/>
<path d="M146.383 88.8771C146.347 88.8771 146.31 88.8678 146.278 88.8492L139.593 84.9898C139.528 84.9526 139.487 84.8829 139.487 84.8069V77.0882C139.487 77.0123 139.528 76.9441 139.593 76.9053C139.658 76.8681 139.738 76.8681 139.803 76.9053L146.488 80.7647C146.553 80.8019 146.594 80.8716 146.594 80.9476V88.6663C146.594 88.7422 146.553 88.8104 146.488 88.8492C146.456 88.8678 146.419 88.8771 146.383 88.8771ZM139.909 84.686L146.172 88.302V81.07L139.909 77.454V84.686Z" fill="#34393A"/>
<path d="M146.384 88.8771C146.348 88.8771 146.311 88.8678 146.278 88.8492C146.213 88.812 146.173 88.7422 146.173 88.6663V80.9476C146.173 80.8716 146.213 80.8034 146.278 80.7647L152.963 76.9053C153.028 76.8681 153.109 76.8681 153.174 76.9053C153.239 76.9425 153.279 77.0123 153.279 77.0882V84.8069C153.279 84.8829 153.239 84.9511 153.174 84.9898L146.489 88.8492C146.456 88.8678 146.419 88.8771 146.384 88.8771ZM146.594 81.07V88.302L152.858 84.686V77.454L146.594 81.07Z" fill="#34393A"/>
<path d="M146.384 71.4264C146.348 71.4264 146.311 71.4171 146.278 71.3985C146.213 71.3613 146.173 71.2915 146.173 71.2156V63.4969C146.173 63.421 146.213 63.3528 146.278 63.314L152.963 59.4547C153.028 59.4175 153.109 59.4175 153.174 59.4547C153.239 59.4919 153.279 59.5616 153.279 59.6376V67.3563C153.279 67.4322 153.239 67.5004 153.174 67.5391L146.489 71.3985C146.456 71.4171 146.419 71.4264 146.384 71.4264ZM146.594 63.6194V70.8514L152.858 67.2354V60.0033L146.594 63.6194Z" fill="#34393A"/>
<path d="M161.497 80.15C161.461 80.15 161.424 80.1407 161.392 80.1221C161.326 80.0849 161.286 80.0152 161.286 79.9392V72.2205C161.286 72.1446 161.326 72.0764 161.392 72.0376L168.076 68.1783C168.142 68.1411 168.222 68.1411 168.287 68.1783C168.352 68.2155 168.393 68.2852 168.393 68.3612V76.0799C168.393 76.1558 168.352 76.224 168.287 76.2628L161.602 80.1221C161.57 80.1407 161.534 80.15 161.497 80.15ZM161.708 72.343V79.575L167.971 75.959V68.727L161.708 72.343Z" fill="#34393A"/>
<path d="M131.27 80.15C131.235 80.15 131.198 80.1407 131.165 80.1221C131.1 80.0849 131.06 80.0152 131.06 79.9392V72.2205C131.06 72.1446 131.1 72.0764 131.165 72.0376L137.85 68.1783C137.915 68.1411 137.996 68.1411 138.061 68.1783C138.126 68.2155 138.166 68.2852 138.166 68.3612V76.0799C138.166 76.1558 138.126 76.224 138.061 76.2628L131.376 80.1221C131.343 80.1407 131.306 80.15 131.27 80.15ZM131.481 72.343V79.575L137.744 75.959V68.727L131.481 72.343Z" fill="#34393A"/>
<path d="M131.269 72.2216L124.584 68.3623L131.269 64.5029L137.954 68.3623L131.269 72.2216Z" fill="white"/>
<path d="M146.381 63.4956L139.696 59.6362L146.381 55.7769L153.066 59.6362L146.381 63.4956Z" fill="white"/>
<path d="M154.81 68.3623L161.494 64.5029L168.179 68.3623L161.494 72.2216L154.81 68.3623Z" fill="white"/>
<path d="M139.696 77.0883L146.381 73.229L153.066 77.0883L146.381 80.9477L139.696 77.0883Z" fill="white"/>
<path d="M131.271 72.4318C131.235 72.4318 131.198 72.4225 131.165 72.4039L124.48 68.5445C124.415 68.5073 124.375 68.4376 124.375 68.3617C124.375 68.2857 124.415 68.2175 124.48 68.1788L131.165 64.3194C131.23 64.2822 131.311 64.2822 131.376 64.3194L138.061 68.1788C138.126 68.216 138.166 68.2857 138.166 68.3617C138.166 68.4376 138.126 68.5058 138.061 68.5445L131.376 72.4039C131.344 72.4225 131.306 72.4318 131.271 72.4318ZM125.007 68.3617L131.271 71.9777L137.534 68.3617L131.271 64.7456L125.007 68.3617Z" fill="#34393A"/>
<path d="M146.383 63.7057C146.347 63.7057 146.31 63.6964 146.278 63.6778L139.593 59.8185C139.528 59.7813 139.487 59.7115 139.487 59.6356C139.487 59.5596 139.528 59.4914 139.593 59.4527L146.278 55.5933C146.343 55.5561 146.423 55.5561 146.488 55.5933L153.173 59.4527C153.238 59.4899 153.279 59.5596 153.279 59.6356C153.279 59.7115 153.238 59.7797 153.173 59.8185L146.488 63.6778C146.456 63.6964 146.419 63.7057 146.383 63.7057ZM140.12 59.6356L146.383 63.2516L152.646 59.6356L146.383 56.0196L140.12 59.6356Z" fill="#34393A"/>
<path d="M161.497 72.4318C161.462 72.4318 161.424 72.4225 161.392 72.4039L154.707 68.5445C154.642 68.5073 154.602 68.4376 154.602 68.3617C154.602 68.2857 154.642 68.2175 154.707 68.1788L161.392 64.3194C161.457 64.2822 161.538 64.2822 161.603 64.3194L168.288 68.1788C168.353 68.216 168.393 68.2857 168.393 68.3617C168.393 68.4376 168.353 68.5058 168.288 68.5445L161.603 72.4039C161.57 72.4225 161.534 72.4318 161.497 72.4318ZM155.234 68.3617L161.497 71.9777L167.761 68.3617L161.497 64.7456L155.234 68.3617Z" fill="#34393A"/>
<path d="M146.383 81.1583C146.347 81.1583 146.31 81.1491 146.278 81.1305L139.593 77.2711C139.528 77.2339 139.487 77.1641 139.487 77.0882C139.487 77.0123 139.528 76.9441 139.593 76.9053L146.278 73.046C146.343 73.0088 146.423 73.0088 146.488 73.046L153.173 76.9053C153.238 76.9425 153.279 77.0123 153.279 77.0882C153.279 77.1641 153.238 77.2324 153.173 77.2711L146.488 81.1305C146.456 81.1491 146.419 81.1583 146.383 81.1583ZM140.12 77.0882L146.383 80.7042L152.646 77.0882L146.383 73.4722L140.12 77.0882Z" fill="#34393A"/>
<path d="M137.951 68.5724C137.878 68.5724 137.806 68.5352 137.768 68.467C137.709 68.3662 137.744 68.2376 137.845 68.1787L142.932 65.2431C143.033 65.1858 143.162 65.2199 143.22 65.3206C143.279 65.4214 143.244 65.55 143.143 65.6089L138.056 68.5445C138.022 68.5631 137.986 68.5724 137.951 68.5724Z" fill="#34393A"/>
<path d="M139.697 77.299C139.661 77.299 139.626 77.2897 139.592 77.2711L134.505 74.334C134.404 74.2751 134.37 74.1465 134.427 74.0457C134.486 73.945 134.615 73.9109 134.715 73.9682L139.802 76.9054C139.903 76.9643 139.937 77.0929 139.88 77.1937C139.841 77.2619 139.77 77.299 139.697 77.299Z" fill="#34393A"/>
<path d="M153.066 77.2992C152.993 77.2992 152.922 77.2621 152.883 77.1939C152.824 77.0931 152.86 76.9645 152.96 76.9056L158.047 73.9684C158.148 73.9095 158.277 73.9452 158.336 74.0459C158.395 74.1467 158.359 74.2753 158.258 74.3342L153.171 77.2714C153.137 77.2899 153.102 77.2992 153.066 77.2992Z" fill="#34393A"/>
<path d="M154.814 68.5724C154.779 68.5724 154.743 68.5631 154.709 68.5445L149.622 65.6089C149.521 65.55 149.487 65.4214 149.544 65.3206C149.603 65.2199 149.732 65.1858 149.833 65.2431L154.92 68.1787C155.02 68.2376 155.054 68.3662 154.997 68.467C154.958 68.5352 154.887 68.5724 154.814 68.5724Z" fill="#34393A"/>
<path d="M132.289 66.8625C132.253 66.8625 132.217 66.8532 132.183 66.8346L131.162 66.2456C131.061 66.1867 131.027 66.0581 131.084 65.9573C131.143 65.8566 131.272 65.8225 131.373 65.8798L132.394 66.4688C132.495 66.5277 132.529 66.6564 132.472 66.7571C132.433 66.8238 132.362 66.8625 132.289 66.8625Z" fill="#34393A"/>
<path d="M162.645 66.8707C162.609 66.8707 162.574 66.8614 162.539 66.8428L161.506 66.2461C161.405 66.1872 161.371 66.0586 161.428 65.9578C161.487 65.8571 161.616 65.823 161.716 65.8803L162.75 66.4771C162.851 66.536 162.885 66.6646 162.828 66.7653C162.789 66.832 162.718 66.8707 162.645 66.8707Z" fill="#34393A"/>
<path d="M147.3 58.0097C147.264 58.0097 147.229 58.0003 147.195 57.9817L146.277 57.4517C146.176 57.3928 146.142 57.2641 146.2 57.1634C146.259 57.0626 146.387 57.0285 146.488 57.0859L147.406 57.616C147.506 57.6749 147.54 57.8035 147.483 57.9042C147.444 57.9724 147.373 58.0097 147.3 58.0097Z" fill="#34393A"/>
<path d="M147.44 75.6083C147.404 75.6083 147.368 75.599 147.334 75.5804L146.277 74.9697C146.176 74.9108 146.142 74.7822 146.2 74.6815C146.259 74.5807 146.387 74.5466 146.488 74.604L147.545 75.2146C147.646 75.2735 147.68 75.4022 147.623 75.5029C147.584 75.5711 147.512 75.6083 147.44 75.6083Z" fill="#34393A"/>
<path d="M22.5661 103.915L17.5288 101.007L12.4941 103.915L14.9323 105.323V106.824H17.5288L22.5661 103.915Z" fill="#DAE0E7"/>
<path d="M14.9299 101.622C14.8779 101.622 14.8234 101.609 14.7767 101.581L10.2743 98.9817C10.1808 98.9272 10.1211 98.8259 10.1211 98.7169C10.1211 98.6078 10.1782 98.5066 10.2743 98.452L14.7767 95.8529C14.8701 95.7984 14.987 95.7984 15.0831 95.8529L19.5854 98.452C19.6789 98.5066 19.7386 98.6078 19.7386 98.7169C19.7386 98.8259 19.6815 98.9272 19.5854 98.9817L15.0831 101.581C15.0363 101.607 14.9844 101.622 14.9299 101.622ZM11.0403 98.7169L14.9299 100.963L18.8195 98.7169L14.9299 96.4709L11.0403 98.7169Z" fill="#34393A"/>
<path d="M14.9311 106.514L10.4287 103.915V98.7163L14.9311 101.315V106.514Z" fill="#DAE0E7"/>
<path d="M14.9299 106.82C14.8779 106.82 14.8234 106.807 14.7767 106.778L10.2743 104.179C10.1808 104.124 10.1211 104.023 10.1211 103.914V98.7159C10.1211 98.6068 10.1782 98.5056 10.2743 98.4511C10.3678 98.3965 10.4846 98.3965 10.5807 98.4511L15.0831 101.05C15.1765 101.105 15.2363 101.206 15.2363 101.315V106.513C15.2363 106.622 15.1791 106.724 15.0831 106.778C15.0363 106.804 14.9844 106.82 14.9299 106.82ZM10.7339 103.738L14.6235 105.984V101.492L10.7339 99.2456V103.738Z" fill="#34393A"/>
<path d="M19.434 103.915L14.9316 106.514V101.315L19.434 98.7163V103.915Z" fill="#DAE0E7"/>
<path d="M14.9304 106.82C14.8785 106.82 14.824 106.807 14.7772 106.779C14.6838 106.724 14.624 106.623 14.624 106.514V101.316C14.624 101.206 14.6812 101.105 14.7772 101.051L19.2796 98.4515C19.3731 98.397 19.4899 98.397 19.586 98.4515C19.6795 98.5061 19.7392 98.6073 19.7392 98.7164V103.915C19.7392 104.024 19.6821 104.125 19.586 104.179L15.0836 106.779C15.0369 106.805 14.9849 106.82 14.9304 106.82ZM15.2368 101.492V105.984L19.1264 103.738V99.2461L15.2368 101.492Z" fill="#34393A"/>
<path d="M17.7869 81.7294C14.3039 81.7294 10.8197 80.9644 8.16872 79.4323C5.56817 77.9305 4.13574 75.9235 4.13574 73.7821C4.13574 71.6408 5.56817 69.6338 8.16872 68.1319C13.4729 65.07 22.1022 65.07 27.4063 68.1319C30.0068 69.6338 31.4393 71.6408 31.4393 73.7821C31.4393 75.9235 30.0068 77.9305 27.4063 79.4323C24.7531 80.9633 21.27 81.7294 17.7869 81.7294ZM17.7869 66.1664C14.3643 66.1664 10.9417 66.9179 8.33672 68.4231C5.84368 69.8623 4.47173 71.7651 4.47173 73.7821C4.47173 75.7992 5.8448 77.702 8.33672 79.1411C13.5479 82.1494 22.0271 82.1494 27.2383 79.1411C29.7313 77.702 31.1033 75.7992 31.1033 73.7821C31.1033 71.7651 29.7302 69.8623 27.2383 68.4231C24.6321 66.919 21.2084 66.1664 17.7869 66.1664Z" fill="#373A3A"/>
<path d="M1.77131 78.1968C1.72204 78.1968 1.67275 78.1755 1.64027 78.1329C0.34112 76.4989 -0.203179 74.6812 0.067852 72.8747C0.389281 70.7322 1.81611 68.7365 4.19491 67.1024C4.27106 67.0498 4.37634 67.0689 4.42898 67.1461C4.48162 67.2223 4.46146 67.3276 4.3853 67.3791C2.0849 68.9582 0.707346 70.8756 0.400477 72.924C0.144006 74.6353 0.663667 76.3645 1.90458 77.9235C1.96282 77.9963 1.9505 78.1016 1.87771 78.1598C1.84411 78.1856 1.80827 78.1968 1.77131 78.1968Z" fill="#373A3A"/>
<path d="M35.1483 75.6911C35.1326 75.6911 35.1158 75.6889 35.1001 75.6844C35.0116 75.6575 34.9601 75.5645 34.987 75.4749C35.9378 72.2954 34.1347 69.0284 30.1611 66.7348C29.9046 66.5869 29.637 66.4413 29.3659 66.3036C29.283 66.261 29.2506 66.1602 29.2931 66.0773C29.3357 65.9945 29.4365 65.962 29.5194 66.0045C29.7949 66.1457 30.067 66.2935 30.3291 66.4447C34.4461 68.8213 36.3074 72.2338 35.3084 75.5724C35.2871 75.6441 35.2211 75.6911 35.1483 75.6911Z" fill="#373A3A"/>
<path d="M17.7417 84.5956C15.9587 84.5956 14.1667 84.441 12.4319 84.1252C12.3412 84.1084 12.2807 84.0211 12.2964 83.9292C12.3121 83.8374 12.3995 83.7769 12.4924 83.7937C18.2849 84.851 24.7168 84.0804 29.2784 81.7834C29.3613 81.7419 29.4621 81.7755 29.5035 81.8584C29.5449 81.9413 29.5113 82.0421 29.4296 82.0835C26.175 83.7232 21.983 84.5956 17.7417 84.5956Z" fill="#373A3A"/>
<path d="M26.5911 64.1943V74.3625L17.7871 79.4437V69.2778L26.5911 64.1943ZM23.6221 72.7687C24.5886 71.567 24.9213 69.9487 24.3613 69.1546C23.8035 68.3617 22.5682 68.6921 21.6017 69.8938C20.6352 71.0955 20.3048 72.7139 20.8625 73.5079C21.4203 74.302 22.6567 73.9716 23.6221 72.7687Z" fill="#373A3A"/>
<path d="M26.5907 64.1945L17.7867 69.2791L8.98047 64.1945L17.7867 59.1099L26.5907 64.1945ZM20.1566 63.1384C20.2428 62.8662 19.8318 62.6277 19.3603 62.6781L14.9622 63.1462C14.4212 63.2044 14.214 63.5886 14.6027 63.8137L18.1877 65.8845C18.5763 66.1085 19.2438 65.9898 19.3435 65.6762L20.1566 63.1384Z" fill="white"/>
<path d="M24.3606 69.1545C24.9195 69.9475 24.588 71.5658 23.6215 72.7686C22.6561 73.9704 21.4196 74.3019 20.8619 73.5078C20.3041 72.7149 20.6345 71.0965 21.6011 69.8937C22.5676 68.6909 23.8029 68.3616 24.3606 69.1545Z" fill="#969A9E"/>
<path d="M19.3603 62.6789C19.8318 62.6274 20.2428 62.866 20.1566 63.1392L19.3435 65.6771C19.2438 65.9907 18.5774 66.1105 18.1877 65.8854L14.6027 63.8146C14.2141 63.5906 14.4213 63.2053 14.9622 63.1471L19.3603 62.6789Z" fill="#4281FF"/>
<path d="M17.7867 69.2793V79.4452L8.98047 74.3639V64.1958L17.7867 69.2793ZM14.9342 74.6271V70.6938L11.5273 68.726V72.6593L14.9342 74.6271Z" fill="#C2C7CC"/>
<path d="M14.9333 70.6938V74.6272L11.5264 72.6605L14.9333 70.6938Z" fill="#969A9E"/>
<path d="M14.9333 70.6937L11.5264 72.6604V68.7271L14.9333 70.6937Z" fill="#373A3A"/>
<path d="M17.7877 69.4479C17.7586 69.4479 17.7295 69.4401 17.7037 69.4255L8.89747 64.3409C8.84596 64.3106 8.81348 64.2558 8.81348 64.1953C8.81348 64.1348 8.84596 64.0799 8.89747 64.0497L17.7037 58.9651C17.7552 58.9348 17.8202 58.9348 17.8717 58.9651L26.6757 64.0497C26.7272 64.0799 26.7597 64.1348 26.7597 64.1953C26.7597 64.2558 26.7272 64.3106 26.6757 64.3409L17.8717 69.4255C17.846 69.4401 17.8168 69.4479 17.7877 69.4479ZM9.31746 64.1953L17.7877 69.085L26.2557 64.1953L17.7877 59.3055L9.31746 64.1953Z" fill="#373A3A"/>
<path d="M17.7881 79.6127C17.6952 79.6127 17.6201 79.5377 17.6201 79.4447V69.2788C17.6201 69.1859 17.6952 69.1108 17.7881 69.1108C17.8811 69.1108 17.9561 69.1859 17.9561 69.2788V79.4447C17.9561 79.5377 17.8811 79.6127 17.7881 79.6127Z" fill="#373A3A"/>
<path d="M17.7877 79.6127C17.7586 79.6127 17.7295 79.6049 17.7037 79.5903L8.89747 74.5091C8.84596 74.4788 8.81348 74.4239 8.81348 74.3635V64.1953C8.81348 64.1024 8.88851 64.0273 8.98147 64.0273C9.07443 64.0273 9.14946 64.1024 9.14946 64.1953V74.2671L17.7877 79.251L26.4237 74.2671V64.1953C26.4237 64.1024 26.4988 64.0273 26.5917 64.0273C26.6847 64.0273 26.7597 64.1024 26.7597 64.1953V74.3635C26.7597 74.4239 26.7272 74.4788 26.6757 74.5091L17.8717 79.5903C17.846 79.606 17.8168 79.6127 17.7877 79.6127Z" fill="#373A3A"/>
<path d="M21.7095 74.109C21.695 74.109 21.6793 74.109 21.6647 74.1078C21.2739 74.0955 20.9502 73.9219 20.7273 73.605C20.1203 72.7415 20.4473 71.0649 21.4732 69.7893C22.1116 68.9952 22.8967 68.5304 23.5642 68.5562C23.9551 68.5685 24.2787 68.7421 24.5005 69.0579C25.1086 69.9214 24.7805 71.5969 23.7546 72.8736C23.1319 73.6509 22.3703 74.109 21.7095 74.109ZM23.5194 68.8922C22.9672 68.8922 22.2874 69.3133 21.7353 70.0009C20.8136 71.1467 20.4854 72.6776 21.0028 73.4123C21.1641 73.6419 21.3903 73.7629 21.6759 73.7719C22.2348 73.7887 22.9303 73.3653 23.4936 72.6642C24.4154 71.5174 24.7446 69.9875 24.2272 69.2528C24.0659 69.0232 23.8397 68.9023 23.5552 68.8933C23.5418 68.8922 23.5306 68.8922 23.5194 68.8922Z" fill="#DAE0E5"/>
<path d="M14.9343 74.7954C14.9052 74.7954 14.8761 74.7876 14.8503 74.7731L11.4434 72.8053C11.3919 72.775 11.3594 72.7202 11.3594 72.6597V68.7264C11.3594 68.6659 11.3919 68.611 11.4434 68.5808C11.4949 68.5505 11.5598 68.5505 11.6114 68.5808L15.0183 70.5486C15.0698 70.5788 15.1023 70.6337 15.1023 70.6941V74.6275C15.1023 74.6879 15.0698 74.7428 15.0183 74.7731C14.9914 74.7876 14.9634 74.7954 14.9343 74.7954ZM11.6954 72.5634L14.7663 74.3363V70.7916L11.6954 69.0187V72.5634Z" fill="#373A3A"/>
<path d="M11.5273 72.8293C11.4691 72.8293 11.4131 72.7991 11.3817 72.7453C11.3358 72.6647 11.3627 72.5628 11.4433 72.5157L14.8503 70.5502C14.9309 70.5032 15.0328 70.5312 15.0798 70.6118C15.1258 70.6924 15.0989 70.7944 15.0182 70.8414L11.6113 72.8069C11.5844 72.8215 11.5564 72.8293 11.5273 72.8293Z" fill="#373A3A"/>
<path d="M18.6716 66.1683C18.4666 66.1683 18.2628 66.1213 18.1049 66.0306L14.5199 63.9598C14.306 63.8366 14.2029 63.6473 14.2444 63.4547C14.297 63.2071 14.5714 63.0201 14.9455 62.9798L19.3447 62.5117C19.7075 62.4725 20.0659 62.5845 20.235 62.7916C20.3325 62.9104 20.3616 63.0515 20.3179 63.1892L19.5048 65.7271C19.4555 65.8816 19.3178 66.0104 19.1184 66.0877C18.9796 66.1426 18.825 66.1683 18.6716 66.1683ZM14.9802 63.3147C14.7091 63.3438 14.586 63.4591 14.5725 63.5252C14.5591 63.5902 14.6565 63.6518 14.6879 63.6697L18.2729 65.7405C18.4633 65.8503 18.7668 65.8659 18.9952 65.7763C19.096 65.7371 19.1666 65.6811 19.1834 65.6263L19.9965 63.0884C20.001 63.0761 20.0088 63.0492 19.973 63.0056C19.8912 62.9059 19.6549 62.8163 19.3783 62.8465L14.9802 63.3147Z" fill="#4281FF"/>
<path d="M2.22786 79.6865C1.85939 79.6865 1.49092 79.6037 1.20421 79.4379C0.899581 79.2621 0.730469 79.0179 0.730469 78.7503C0.730469 78.4826 0.898461 78.2384 1.20421 78.0626C1.77875 77.7311 2.67808 77.7311 3.2515 78.0626C3.55725 78.2384 3.72524 78.4826 3.72524 78.7503C3.72524 79.0179 3.55725 79.2621 3.2515 79.4379C2.96479 79.6037 2.59632 79.6865 2.22786 79.6865ZM2.22786 78.1522C1.91539 78.1522 1.60404 78.2194 1.3722 78.3527C1.17845 78.4647 1.06646 78.6091 1.06646 78.7503C1.06646 78.8902 1.17733 79.0347 1.3722 79.1467C1.83587 79.4144 2.61984 79.4144 3.08351 79.1467C3.27726 79.0347 3.38925 78.8902 3.38925 78.7503C3.38925 78.6103 3.27838 78.4647 3.08351 78.3527C2.85168 78.2194 2.5392 78.1522 2.22786 78.1522Z" fill="#373A3A"/>
<path d="M30.3236 82.3452C29.9551 82.3452 29.5866 82.2624 29.2999 82.0966C28.9942 81.9208 28.8262 81.6766 28.8262 81.4089C28.8262 81.1413 28.9942 80.8971 29.2999 80.7213C29.8733 80.3898 30.7727 80.3898 31.3472 80.7213C31.6518 80.8971 31.8209 81.1413 31.8209 81.4089C31.8209 81.6766 31.653 81.9208 31.3472 82.0966C31.0605 82.2624 30.692 82.3452 30.3236 82.3452ZM30.3236 80.8098C30.0111 80.8098 29.6997 80.877 29.4679 81.0102C29.2742 81.1222 29.1622 81.2667 29.1622 81.4067C29.1622 81.5467 29.273 81.6923 29.4679 81.8043C29.9316 82.072 30.7155 82.072 31.1792 81.8043C31.373 81.6923 31.485 81.5478 31.485 81.4067C31.485 81.2656 31.3741 81.1222 31.1792 81.0102C30.9474 80.877 30.636 80.8098 30.3236 80.8098Z" fill="#373A3A"/>
<path d="M28.4134 66.604C28.0449 66.604 27.6765 66.5211 27.3898 66.3554C27.0851 66.1796 26.916 65.9354 26.916 65.6677C26.916 65.4001 27.084 65.1559 27.3898 64.9801C27.9632 64.6486 28.8636 64.6486 29.4371 64.9801C29.7428 65.1559 29.9108 65.4001 29.9108 65.6677C29.9108 65.9354 29.7428 66.1796 29.4371 66.3554C29.1503 66.5211 28.7819 66.604 28.4134 66.604ZM28.4134 65.0686C28.1009 65.0686 27.7896 65.1358 27.5578 65.269C27.364 65.381 27.252 65.5255 27.252 65.6666C27.252 65.8077 27.3629 65.9511 27.5578 66.0631C28.0214 66.3308 28.8054 66.3308 29.2691 66.0631C29.4628 65.9511 29.5748 65.8066 29.5748 65.6666C29.5748 65.5266 29.4639 65.381 29.2691 65.269C29.0372 65.1358 28.7259 65.0686 28.4134 65.0686Z" fill="#373A3A"/>
</svg>
