<svg width="229" height="169" viewBox="0 0 229 169" fill="none" xmlns="http://www.w3.org/2000/svg">
<g clip-path="url(#clip0_15708_207)">
<path d="M114.07 168.15C81.0898 168.15 48.1098 168.16 15.1198 168.15C7.11977 168.15 0.779774 162.28 0.0297736 154.43C-0.110226 152.99 0.229774 151.84 1.00977 150.69C7.18977 141.53 13.3398 132.34 19.5598 123.21C20.6398 121.62 21.1198 120.01 21.1198 118.09C21.0898 83.19 21.0998 48.3 21.0998 13.4C21.0998 11.4 21.0898 9.4 21.9598 7.53C24.2898 2.47 28.2298 0 33.8098 0C58.8798 0.02 83.9498 0 109.02 0C137.42 0 165.82 0 194.22 0C202.8 0 207.61 4.86 207.61 13.51C207.61 48.49 207.62 83.47 207.58 118.45C207.58 120.29 208.06 121.76 209.09 123.27C215.02 131.9 220.71 140.7 226.78 149.23C229.32 152.8 228.84 156.1 227.09 159.49C224.12 165.25 219.28 168.14 212.76 168.14C179.86 168.14 146.96 168.14 114.06 168.14L114.07 168.15ZM114.31 119.87C143.46 119.87 172.6 119.87 201.75 119.89C203.29 119.89 204.29 119.95 204.29 117.76C204.21 82.7 204.24 47.65 204.21 12.59C204.21 6.71 200.58 3.21 194.65 3.21C141.19 3.21 87.7198 3.21 34.2598 3.21C33.3498 3.21 32.4098 3.19 31.5298 3.39C26.9298 4.42 24.3598 7.79 24.3498 12.82C24.3298 47.46 24.3598 82.1 24.2698 116.74C24.2698 119.19 24.7598 119.94 27.3598 119.93C56.3398 119.83 85.3198 119.86 114.3 119.86L114.31 119.87ZM225.18 153.06C224.43 151.84 223.91 150.92 223.32 150.04C217.73 141.79 212.07 133.57 206.56 125.26C205.46 123.6 204.29 123.03 202.33 123.03C170.77 123.09 139.21 123.07 107.65 123.07C80.8398 123.07 54.0198 123.11 27.2098 123.01C24.5998 123 23.0398 123.68 21.5798 125.92C16.3998 133.86 10.9598 141.62 5.63977 149.46C4.91977 150.52 4.25977 151.63 3.36977 153.05H6.49977C33.1498 153.05 59.7898 153.07 86.4398 153.01C88.2498 153.01 89.6798 153.39 90.7898 154.85C91.5898 155.9 92.6098 156.31 94.0098 156.3C107.5 156.24 120.99 156.24 134.48 156.28C135.73 156.28 136.74 156.05 137.54 155.02C138.75 153.44 140.35 153.01 142.35 153.01C169.83 153.07 197.31 153.05 225.19 153.05L225.18 153.06ZM3.90977 156.38C5.20977 161.71 9.71977 164.92 15.7298 164.92C42.2098 164.92 68.6798 164.92 95.1598 164.92C134.12 164.92 173.09 164.91 212.05 164.94C217.11 164.94 221.12 163.13 223.78 158.74C225.1 156.56 224.96 156.38 222.37 156.37C195.89 156.37 169.42 156.37 142.94 156.34C141.5 156.34 140.35 156.61 139.5 157.85C138.64 159.11 137.42 159.58 135.86 159.57C121.46 159.53 107.05 159.54 92.6498 159.57C91.2098 159.57 89.9998 159.25 89.1798 158.04C88.2398 156.65 86.9698 156.33 85.3398 156.33C59.0298 156.38 32.7198 156.36 6.40977 156.36C5.58977 156.36 4.77977 156.36 3.90977 156.36V156.38Z" fill="#2E3233"/>
<path d="M114.309 119.87C85.3294 119.87 56.3494 119.83 27.3694 119.94C24.7694 119.94 24.2694 119.21 24.2794 116.75C24.3694 82.1098 24.3394 47.4698 24.3594 12.8298C24.3594 7.79979 26.9394 4.42979 31.5394 3.39979C32.4194 3.19979 33.3594 3.21979 34.2694 3.21979C87.7294 3.21979 141.199 3.21979 194.659 3.21979C200.599 3.21979 204.219 6.71979 204.219 12.5998C204.249 47.6598 204.219 82.7098 204.299 117.77C204.299 119.95 203.309 119.9 201.759 119.9C172.609 119.88 143.469 119.88 114.319 119.88L114.309 119.87Z" fill="#FAFAF9"/>
<path d="M225.179 153.06C197.299 153.06 169.819 153.08 142.339 153.02C140.339 153.02 138.739 153.45 137.529 155.03C136.739 156.06 135.729 156.29 134.469 156.29C120.979 156.26 107.489 156.25 93.9994 156.31C92.5994 156.31 91.5694 155.91 90.7794 154.86C89.6694 153.4 88.2394 153.02 86.4294 153.02C59.7794 153.07 33.1394 153.06 6.48937 153.06H3.35938C4.25937 151.64 4.90938 150.53 5.62938 149.47C10.9594 141.63 16.3994 133.87 21.5694 125.93C23.0294 123.69 24.5894 123.01 27.1994 123.02C54.0094 123.12 80.8294 123.08 107.639 123.08C139.199 123.08 170.759 123.1 202.319 123.04C204.279 123.04 205.449 123.61 206.549 125.27C212.059 133.58 217.719 141.79 223.309 150.05C223.899 150.92 224.419 151.85 225.169 153.07L225.179 153.06ZM114.469 143.97C92.8294 143.97 71.1894 143.97 49.5494 143.97C48.7994 143.97 48.0494 143.97 47.2994 144C46.4094 144.03 45.8494 144.59 45.7794 145.37C45.6894 146.32 46.3494 146.9 47.2594 147.07C47.8294 147.17 48.4194 147.11 48.9994 147.11C92.5294 147.11 136.059 147.11 179.589 147.11C180.089 147.11 180.589 147.13 181.089 147.1C182.059 147.05 182.669 146.51 182.709 145.55C182.749 144.54 182.099 144.05 181.139 144C180.389 143.96 179.639 143.97 178.889 143.97C157.419 143.97 135.939 143.97 114.469 143.97Z" fill="#FAFAF9"/>
<path d="M3.91016 156.38C4.78016 156.38 5.59016 156.38 6.41016 156.38C32.7202 156.38 59.0302 156.39 85.3401 156.35C86.9701 156.35 88.2402 156.67 89.1802 158.06C90.0002 159.27 91.2202 159.6 92.6502 159.59C107.05 159.56 121.46 159.56 135.86 159.59C137.42 159.59 138.64 159.13 139.5 157.87C140.35 156.62 141.5 156.36 142.94 156.36C169.42 156.39 195.89 156.38 222.37 156.39C224.96 156.39 225.1 156.58 223.78 158.76C221.12 163.15 217.12 164.96 212.05 164.96C173.09 164.93 134.12 164.94 95.1602 164.94C68.6802 164.94 42.2102 164.94 15.7302 164.94C9.71016 164.94 5.21016 161.72 3.91016 156.4V156.38Z" fill="#FAFAF9"/>
<path d="M114.47 143.97C135.94 143.97 157.42 143.97 178.89 143.97C179.64 143.97 180.39 143.96 181.14 144C182.1 144.05 182.75 144.54 182.71 145.55C182.67 146.51 182.07 147.04 181.09 147.1C180.59 147.13 180.09 147.11 179.59 147.11C136.06 147.11 92.5297 147.11 48.9997 147.11C48.4197 147.11 47.8197 147.17 47.2597 147.07C46.3497 146.91 45.6897 146.32 45.7797 145.37C45.8497 144.59 46.4197 144.03 47.2997 144C48.0497 143.98 48.7997 143.97 49.5497 143.97C71.1897 143.97 92.8297 143.97 114.47 143.97Z" fill="#2E3233"/>
<path d="M162.39 71.5299H151.32V57.0699H114.44V48.1899H128.82C130.19 48.1899 131.3 47.0799 131.3 45.7099V28.0899C131.3 26.7199 130.19 25.6099 128.82 25.6099H97.8C96.43 25.6099 95.32 26.7199 95.32 28.0899V45.7099C95.32 47.0799 96.43 48.1899 97.8 48.1899H112.93V57.0699H76.05V71.5299H64.98C63.61 71.5299 62.5 72.6399 62.5 74.0099V91.6299C62.5 92.9999 63.61 94.1099 64.98 94.1099H88.32C89.69 94.1099 90.8 92.9999 90.8 91.6299V74.0099C90.8 72.6399 89.69 71.5299 88.32 71.5299H77.55V58.5699H112.92V71.5299H101.91C100.54 71.5299 99.43 72.6399 99.43 74.0099V91.6299C99.43 92.9999 100.54 94.1099 101.91 94.1099H125.25C126.62 94.1099 127.73 92.9999 127.73 91.6299V74.0099C127.73 72.6399 126.62 71.5299 125.25 71.5299H114.42V58.5699H149.79V71.5299H139.02C137.65 71.5299 136.54 72.6399 136.54 74.0099V91.6299C136.54 92.9999 137.65 94.1099 139.02 94.1099H162.36C163.73 94.1099 164.84 92.9999 164.84 91.6299V74.0099C164.84 72.6399 163.73 71.5299 162.36 71.5299H162.39ZM96.83 45.7099V28.0899C96.83 27.5499 97.27 27.1199 97.8 27.1199H128.82C129.36 27.1199 129.79 27.5599 129.79 28.0899V45.7099C129.79 46.2499 129.35 46.6799 128.82 46.6799H97.8C97.26 46.6799 96.83 46.2399 96.83 45.7099ZM89.31 74.0099V91.6299C89.31 92.1699 88.87 92.5999 88.34 92.5999H65C64.46 92.5999 64.03 92.1599 64.03 91.6299V74.0099C64.03 73.4699 64.47 73.0399 65 73.0399H88.34C88.88 73.0399 89.31 73.4799 89.31 74.0099ZM126.25 74.0099V91.6299C126.25 92.1699 125.81 92.5999 125.28 92.5999H101.94C101.4 92.5999 100.97 92.1599 100.97 91.6299V74.0099C100.97 73.4699 101.41 73.0399 101.94 73.0399H125.28C125.82 73.0399 126.25 73.4799 126.25 74.0099ZM163.36 91.6299C163.36 92.1699 162.92 92.5999 162.39 92.5999H139.05C138.51 92.5999 138.08 92.1599 138.08 91.6299V74.0099C138.08 73.4699 138.52 73.0399 139.05 73.0399H162.39C162.93 73.0399 163.36 73.4799 163.36 74.0099V91.6299Z" fill="#4A9BFE"/>
</g>
<defs>
<clipPath id="clip0_15708_207">
<rect width="228.54" height="168.15" fill="white"/>
</clipPath>
</defs>
</svg>
