<svg width="1524" height="536" viewBox="0 0 1524 536" fill="none" xmlns="http://www.w3.org/2000/svg">
<path d="M13 474.5H1523.5" stroke="#303030"/>
<path d="M11 322H1521.5" stroke="#303030"/>
<path d="M11 413H1521.5" stroke="#303030"/>
<path d="M11 127H1521.5" stroke="#303030"/>
<path d="M0 163H1510.5" stroke="#303030"/>
<path d="M11 277H1521.5" stroke="#303030"/>
<path d="M11 84H1521.5" stroke="#303030"/>
<path d="M11 244H1521.5" stroke="#303030"/>
<path d="M11 47H1521.5" stroke="#303030"/>
<path d="M170 0V535" stroke="#313131"/>
<path d="M1392 0.5V535.5" stroke="#313131"/>
<mask id="path-12-outside-1_1017_168" maskUnits="userSpaceOnUse" x="169" y="35" width="1223" height="442" fill="black">
<rect fill="white" x="169" y="35" width="1223" height="442"/>
<path d="M170.56 48H319.8V83.56H214.8V127.8H309.16V163.36H214.8V208.44H322.88V244H170.56V48ZM463.991 161.68C463.991 151.787 461.285 144.04 455.871 138.44C450.645 132.84 443.458 130.04 434.311 130.04C423.671 130.227 415.271 134.053 409.111 141.52C402.951 148.987 399.871 158.413 399.871 169.8H388.951C388.951 152.253 391.471 137.787 396.511 126.4C401.738 114.827 409.018 106.24 418.351 100.64C427.871 94.8533 439.071 91.96 451.951 91.96C463.151 91.96 472.858 94.3867 481.071 99.24C489.471 103.907 495.911 110.533 500.391 119.12C504.871 127.707 507.111 137.88 507.111 149.64V244H463.991V161.68ZM356.751 93.64H399.871V244H356.751V93.64ZM630.289 48C655.863 48 675.649 53.9733 689.649 65.92C703.836 77.68 710.929 94.2933 710.929 115.76C710.929 138.347 703.836 155.987 689.649 168.68C675.649 181.187 655.863 187.44 630.289 187.44H589.409V244H545.169V48H630.289ZM630.289 151.6C642.423 151.6 651.849 148.8 658.569 143.2C665.476 137.413 668.929 128.733 668.929 117.16C668.929 105.96 665.476 97.56 658.569 91.96C651.849 86.36 642.423 83.56 630.289 83.56H589.409V151.6H630.289ZM624.969 170.92H668.089L715.689 244H665.569L624.969 170.92ZM845.227 156.64C845.04 149.733 843.547 143.853 840.747 139C838.133 133.96 834.307 130.04 829.267 127.24C824.227 124.44 818.44 123.04 811.907 123.04C804.627 123.04 798.28 124.907 792.867 128.64C787.453 132.373 783.253 137.507 780.267 144.04C777.28 150.573 775.787 158.133 775.787 166.72C775.787 176.427 777.467 184.733 780.827 191.64C784.187 198.547 788.947 203.867 795.107 207.6C801.267 211.333 808.36 213.2 816.387 213.2C830.947 213.2 843.64 207.787 854.467 196.96L877.147 219.36C869.68 227.76 860.44 234.2 849.427 238.68C838.6 243.16 826.373 245.4 812.747 245.4C796.693 245.4 782.787 242.227 771.027 235.88C759.267 229.533 750.12 220.667 743.587 209.28C737.24 197.707 734.067 184.36 734.067 169.24C734.067 153.747 737.333 140.307 743.867 128.92C750.4 117.347 759.453 108.387 771.027 102.04C782.787 95.6933 796.32 92.4267 811.627 92.24C829.36 92.24 843.827 95.9733 855.027 103.44C866.413 110.72 874.627 121.08 879.667 134.52C884.893 147.773 886.853 163.547 885.547 181.84H769.627V156.64H845.227ZM967.217 178.76C959.004 178.76 952.844 180.16 948.737 182.96C944.63 185.76 942.577 190.24 942.577 196.4C942.577 202.373 944.63 207.133 948.737 210.68C953.03 214.04 958.817 215.72 966.097 215.72C972.444 215.72 978.044 214.693 982.897 212.64C987.937 210.4 992.044 207.507 995.217 203.96C998.577 200.227 1000.63 195.933 1001.38 191.08L1007.82 215.16C1003.52 225.24 996.804 232.893 987.657 238.12C978.51 243.347 967.31 245.96 954.057 245.96C943.417 245.96 934.177 243.907 926.337 239.8C918.684 235.693 912.71 230.093 908.417 223C904.31 215.907 902.257 207.88 902.257 198.92C902.257 184.92 907.204 173.907 917.097 165.88C926.99 157.853 941.177 153.747 959.657 153.56H1005.58V178.76H967.217ZM1001.1 150.76C1001.1 142.547 998.39 136.107 992.977 131.44C987.75 126.773 980.004 124.44 969.737 124.44C963.017 124.44 955.83 125.653 948.177 128.08C940.524 130.32 932.777 133.587 924.937 137.88L911.497 109.88C918.964 105.96 926.244 102.693 933.337 100.08C940.43 97.4667 947.71 95.5067 955.177 94.2C962.644 92.7067 970.764 91.96 979.537 91.96C999.884 91.96 1015.56 96.72 1026.58 106.24C1037.59 115.76 1043.19 128.92 1043.38 145.72L1043.66 244H1001.38L1001.1 150.76ZM1181.33 143.48C1177.41 138.44 1172.56 134.52 1166.77 131.72C1160.99 128.92 1154.36 127.52 1146.89 127.52C1139.99 127.52 1133.83 129.293 1128.41 132.84C1123 136.2 1118.71 141.053 1115.53 147.4C1112.55 153.56 1111.05 160.84 1111.05 169.24C1111.05 177.453 1112.55 184.733 1115.53 191.08C1118.71 197.427 1123 202.373 1128.41 205.92C1133.83 209.28 1139.99 210.96 1146.89 210.96C1154.55 210.96 1161.36 209.56 1167.33 206.76C1173.31 203.773 1178.16 199.387 1181.89 193.6L1211.57 213.2C1205.23 223.467 1196.27 231.4 1184.69 237C1173.31 242.6 1160.05 245.4 1144.93 245.4C1129.63 245.4 1116.19 242.227 1104.61 235.88C1093.04 229.533 1083.99 220.667 1077.45 209.28C1071.11 197.707 1067.93 184.36 1067.93 169.24C1067.93 153.933 1071.11 140.493 1077.45 128.92C1083.99 117.347 1093.04 108.387 1104.61 102.04C1116.37 95.5067 1129.81 92.24 1144.93 92.24C1159.49 92.24 1172.37 94.9467 1183.57 100.36C1194.77 105.587 1203.73 113.053 1210.45 122.76L1181.33 143.48ZM1347.51 161.68C1347.51 151.787 1344.8 144.04 1339.39 138.44C1334.16 132.84 1326.97 130.04 1317.83 130.04C1307 130.227 1298.51 134.053 1292.35 141.52C1286.19 148.987 1283.11 158.413 1283.11 169.8H1272.47C1272.47 152.253 1274.99 137.787 1280.03 126.4C1285.07 114.827 1292.25 106.24 1301.59 100.64C1311.11 94.8533 1322.31 91.96 1335.19 91.96C1346.57 91.96 1356.37 94.3867 1364.59 99.24C1372.99 103.907 1379.43 110.533 1383.91 119.12C1388.39 127.707 1390.63 137.88 1390.63 149.64V244H1347.51V161.68ZM1239.99 36.24H1283.11V244H1239.99V36.24ZM170.56 278H210.88L317.56 421.92L306.08 425.84V278H347.8V474H307.76L201.08 330.36L212.84 326.44V474H170.56V278ZM488.664 386.64C488.477 379.733 486.984 373.853 484.184 369C481.571 363.96 477.744 360.04 472.704 357.24C467.664 354.44 461.877 353.04 455.344 353.04C448.064 353.04 441.717 354.907 436.304 358.64C430.891 362.373 426.691 367.507 423.704 374.04C420.717 380.573 419.224 388.133 419.224 396.72C419.224 406.427 420.904 414.733 424.264 421.64C427.624 428.547 432.384 433.867 438.544 437.6C444.704 441.333 451.797 443.2 459.824 443.2C474.384 443.2 487.077 437.787 497.904 426.96L520.584 449.36C513.117 457.76 503.877 464.2 492.864 468.68C482.037 473.16 469.811 475.4 456.184 475.4C440.131 475.4 426.224 472.227 414.464 465.88C402.704 459.533 393.557 450.667 387.024 439.28C380.677 427.707 377.504 414.36 377.504 399.24C377.504 383.747 380.771 370.307 387.304 358.92C393.837 347.347 402.891 338.387 414.464 332.04C426.224 325.693 439.757 322.427 455.064 322.24C472.797 322.24 487.264 325.973 498.464 333.44C509.851 340.72 518.064 351.08 523.104 364.52C528.331 377.773 530.291 393.547 528.984 411.84H413.064V386.64H488.664ZM607.014 422.76C607.014 429.48 608.321 434.24 610.934 437.04C613.548 439.653 617.094 440.867 621.574 440.68C624.374 440.68 627.454 440.213 630.814 439.28C634.174 438.347 637.814 436.947 641.734 435.08L650.694 465.32C645.094 468.68 638.934 471.293 632.214 473.16C625.494 475.027 618.588 475.96 611.494 475.96C602.534 475.96 594.414 474.28 587.134 470.92C580.041 467.56 574.441 462.427 570.334 455.52C566.228 448.613 564.174 440.027 564.174 429.76V288.64H607.014V422.76ZM543.174 330.08H647.894V358.92H543.174V330.08ZM655.113 323.64H699.073L732.673 432.84L765.153 323.64H807.433L840.473 432.84L873.513 323.64H916.073L861.193 474H818.073L785.873 372.64L753.393 474H710.273L655.113 323.64ZM998.19 322.24C1014.24 322.24 1028.34 325.413 1040.47 331.76C1052.6 338.107 1062.03 347.067 1068.75 358.64C1075.47 370.027 1078.83 383.373 1078.83 398.68C1078.83 413.987 1075.47 427.427 1068.75 439C1062.03 450.573 1052.6 459.533 1040.47 465.88C1028.34 472.227 1014.24 475.4 998.19 475.4C982.136 475.4 967.95 472.227 955.63 465.88C943.496 459.533 934.07 450.573 927.35 439C920.63 427.427 917.27 413.987 917.27 398.68C917.27 383.373 920.63 370.027 927.35 358.64C934.07 347.067 943.496 338.107 955.63 331.76C967.95 325.413 982.136 322.24 998.19 322.24ZM998.19 356.68C990.723 356.68 984.096 358.453 978.31 362C972.71 365.547 968.323 370.587 965.15 377.12C961.976 383.467 960.39 390.84 960.39 399.24C960.39 407.64 961.976 415.107 965.15 421.64C968.323 427.987 972.71 433.027 978.31 436.76C984.096 440.307 990.723 442.08 998.19 442.08C1005.66 442.08 1012.19 440.307 1017.79 436.76C1023.39 433.027 1027.78 427.987 1030.95 421.64C1034.12 415.107 1035.71 407.64 1035.71 399.24C1035.71 390.84 1034.12 383.467 1030.95 377.12C1027.78 370.587 1023.39 365.547 1017.79 362C1012.19 358.453 1005.66 356.68 998.19 356.68ZM1200.3 360.88C1190.22 359.947 1181.35 361.16 1173.7 364.52C1166.23 367.88 1160.44 372.733 1156.34 379.08C1152.42 385.427 1150.46 392.987 1150.46 401.76L1139.54 399.8C1139.54 383.373 1141.96 369.373 1146.82 357.8C1151.86 346.227 1158.95 337.36 1168.1 331.2C1177.24 325.04 1187.98 321.96 1200.3 321.96V360.88ZM1107.34 323.64H1150.46V474H1107.34V323.64ZM1225.22 266.24H1268.34V474H1225.22V266.24ZM1323.5 323.64H1372.5L1265.82 435.36V384.68L1323.5 323.64ZM1313.7 376.56L1375.02 474H1324.06L1282.06 402.32L1313.7 376.56Z"/>
</mask>
<path d="M170.56 48H319.8V83.56H214.8V127.8H309.16V163.36H214.8V208.44H322.88V244H170.56V48ZM463.991 161.68C463.991 151.787 461.285 144.04 455.871 138.44C450.645 132.84 443.458 130.04 434.311 130.04C423.671 130.227 415.271 134.053 409.111 141.52C402.951 148.987 399.871 158.413 399.871 169.8H388.951C388.951 152.253 391.471 137.787 396.511 126.4C401.738 114.827 409.018 106.24 418.351 100.64C427.871 94.8533 439.071 91.96 451.951 91.96C463.151 91.96 472.858 94.3867 481.071 99.24C489.471 103.907 495.911 110.533 500.391 119.12C504.871 127.707 507.111 137.88 507.111 149.64V244H463.991V161.68ZM356.751 93.64H399.871V244H356.751V93.64ZM630.289 48C655.863 48 675.649 53.9733 689.649 65.92C703.836 77.68 710.929 94.2933 710.929 115.76C710.929 138.347 703.836 155.987 689.649 168.68C675.649 181.187 655.863 187.44 630.289 187.44H589.409V244H545.169V48H630.289ZM630.289 151.6C642.423 151.6 651.849 148.8 658.569 143.2C665.476 137.413 668.929 128.733 668.929 117.16C668.929 105.96 665.476 97.56 658.569 91.96C651.849 86.36 642.423 83.56 630.289 83.56H589.409V151.6H630.289ZM624.969 170.92H668.089L715.689 244H665.569L624.969 170.92ZM845.227 156.64C845.04 149.733 843.547 143.853 840.747 139C838.133 133.96 834.307 130.04 829.267 127.24C824.227 124.44 818.44 123.04 811.907 123.04C804.627 123.04 798.28 124.907 792.867 128.64C787.453 132.373 783.253 137.507 780.267 144.04C777.28 150.573 775.787 158.133 775.787 166.72C775.787 176.427 777.467 184.733 780.827 191.64C784.187 198.547 788.947 203.867 795.107 207.6C801.267 211.333 808.36 213.2 816.387 213.2C830.947 213.2 843.64 207.787 854.467 196.96L877.147 219.36C869.68 227.76 860.44 234.2 849.427 238.68C838.6 243.16 826.373 245.4 812.747 245.4C796.693 245.4 782.787 242.227 771.027 235.88C759.267 229.533 750.12 220.667 743.587 209.28C737.24 197.707 734.067 184.36 734.067 169.24C734.067 153.747 737.333 140.307 743.867 128.92C750.4 117.347 759.453 108.387 771.027 102.04C782.787 95.6933 796.32 92.4267 811.627 92.24C829.36 92.24 843.827 95.9733 855.027 103.44C866.413 110.72 874.627 121.08 879.667 134.52C884.893 147.773 886.853 163.547 885.547 181.84H769.627V156.64H845.227ZM967.217 178.76C959.004 178.76 952.844 180.16 948.737 182.96C944.63 185.76 942.577 190.24 942.577 196.4C942.577 202.373 944.63 207.133 948.737 210.68C953.03 214.04 958.817 215.72 966.097 215.72C972.444 215.72 978.044 214.693 982.897 212.64C987.937 210.4 992.044 207.507 995.217 203.96C998.577 200.227 1000.63 195.933 1001.38 191.08L1007.82 215.16C1003.52 225.24 996.804 232.893 987.657 238.12C978.51 243.347 967.31 245.96 954.057 245.96C943.417 245.96 934.177 243.907 926.337 239.8C918.684 235.693 912.71 230.093 908.417 223C904.31 215.907 902.257 207.88 902.257 198.92C902.257 184.92 907.204 173.907 917.097 165.88C926.99 157.853 941.177 153.747 959.657 153.56H1005.58V178.76H967.217ZM1001.1 150.76C1001.1 142.547 998.39 136.107 992.977 131.44C987.75 126.773 980.004 124.44 969.737 124.44C963.017 124.44 955.83 125.653 948.177 128.08C940.524 130.32 932.777 133.587 924.937 137.88L911.497 109.88C918.964 105.96 926.244 102.693 933.337 100.08C940.43 97.4667 947.71 95.5067 955.177 94.2C962.644 92.7067 970.764 91.96 979.537 91.96C999.884 91.96 1015.56 96.72 1026.58 106.24C1037.59 115.76 1043.19 128.92 1043.38 145.72L1043.66 244H1001.38L1001.1 150.76ZM1181.33 143.48C1177.41 138.44 1172.56 134.52 1166.77 131.72C1160.99 128.92 1154.36 127.52 1146.89 127.52C1139.99 127.52 1133.83 129.293 1128.41 132.84C1123 136.2 1118.71 141.053 1115.53 147.4C1112.55 153.56 1111.05 160.84 1111.05 169.24C1111.05 177.453 1112.55 184.733 1115.53 191.08C1118.71 197.427 1123 202.373 1128.41 205.92C1133.83 209.28 1139.99 210.96 1146.89 210.96C1154.55 210.96 1161.36 209.56 1167.33 206.76C1173.31 203.773 1178.16 199.387 1181.89 193.6L1211.57 213.2C1205.23 223.467 1196.27 231.4 1184.69 237C1173.31 242.6 1160.05 245.4 1144.93 245.4C1129.63 245.4 1116.19 242.227 1104.61 235.88C1093.04 229.533 1083.99 220.667 1077.45 209.28C1071.11 197.707 1067.93 184.36 1067.93 169.24C1067.93 153.933 1071.11 140.493 1077.45 128.92C1083.99 117.347 1093.04 108.387 1104.61 102.04C1116.37 95.5067 1129.81 92.24 1144.93 92.24C1159.49 92.24 1172.37 94.9467 1183.57 100.36C1194.77 105.587 1203.73 113.053 1210.45 122.76L1181.33 143.48ZM1347.51 161.68C1347.51 151.787 1344.8 144.04 1339.39 138.44C1334.16 132.84 1326.97 130.04 1317.83 130.04C1307 130.227 1298.51 134.053 1292.35 141.52C1286.19 148.987 1283.11 158.413 1283.11 169.8H1272.47C1272.47 152.253 1274.99 137.787 1280.03 126.4C1285.07 114.827 1292.25 106.24 1301.59 100.64C1311.11 94.8533 1322.31 91.96 1335.19 91.96C1346.57 91.96 1356.37 94.3867 1364.59 99.24C1372.99 103.907 1379.43 110.533 1383.91 119.12C1388.39 127.707 1390.63 137.88 1390.63 149.64V244H1347.51V161.68ZM1239.99 36.24H1283.11V244H1239.99V36.24ZM170.56 278H210.88L317.56 421.92L306.08 425.84V278H347.8V474H307.76L201.08 330.36L212.84 326.44V474H170.56V278ZM488.664 386.64C488.477 379.733 486.984 373.853 484.184 369C481.571 363.96 477.744 360.04 472.704 357.24C467.664 354.44 461.877 353.04 455.344 353.04C448.064 353.04 441.717 354.907 436.304 358.64C430.891 362.373 426.691 367.507 423.704 374.04C420.717 380.573 419.224 388.133 419.224 396.72C419.224 406.427 420.904 414.733 424.264 421.64C427.624 428.547 432.384 433.867 438.544 437.6C444.704 441.333 451.797 443.2 459.824 443.2C474.384 443.2 487.077 437.787 497.904 426.96L520.584 449.36C513.117 457.76 503.877 464.2 492.864 468.68C482.037 473.16 469.811 475.4 456.184 475.4C440.131 475.4 426.224 472.227 414.464 465.88C402.704 459.533 393.557 450.667 387.024 439.28C380.677 427.707 377.504 414.36 377.504 399.24C377.504 383.747 380.771 370.307 387.304 358.92C393.837 347.347 402.891 338.387 414.464 332.04C426.224 325.693 439.757 322.427 455.064 322.24C472.797 322.24 487.264 325.973 498.464 333.44C509.851 340.72 518.064 351.08 523.104 364.52C528.331 377.773 530.291 393.547 528.984 411.84H413.064V386.64H488.664ZM607.014 422.76C607.014 429.48 608.321 434.24 610.934 437.04C613.548 439.653 617.094 440.867 621.574 440.68C624.374 440.68 627.454 440.213 630.814 439.28C634.174 438.347 637.814 436.947 641.734 435.08L650.694 465.32C645.094 468.68 638.934 471.293 632.214 473.16C625.494 475.027 618.588 475.96 611.494 475.96C602.534 475.96 594.414 474.28 587.134 470.92C580.041 467.56 574.441 462.427 570.334 455.52C566.228 448.613 564.174 440.027 564.174 429.76V288.64H607.014V422.76ZM543.174 330.08H647.894V358.92H543.174V330.08ZM655.113 323.64H699.073L732.673 432.84L765.153 323.64H807.433L840.473 432.84L873.513 323.64H916.073L861.193 474H818.073L785.873 372.64L753.393 474H710.273L655.113 323.64ZM998.19 322.24C1014.24 322.24 1028.34 325.413 1040.47 331.76C1052.6 338.107 1062.03 347.067 1068.75 358.64C1075.47 370.027 1078.83 383.373 1078.83 398.68C1078.83 413.987 1075.47 427.427 1068.75 439C1062.03 450.573 1052.6 459.533 1040.47 465.88C1028.34 472.227 1014.24 475.4 998.19 475.4C982.136 475.4 967.95 472.227 955.63 465.88C943.496 459.533 934.07 450.573 927.35 439C920.63 427.427 917.27 413.987 917.27 398.68C917.27 383.373 920.63 370.027 927.35 358.64C934.07 347.067 943.496 338.107 955.63 331.76C967.95 325.413 982.136 322.24 998.19 322.24ZM998.19 356.68C990.723 356.68 984.096 358.453 978.31 362C972.71 365.547 968.323 370.587 965.15 377.12C961.976 383.467 960.39 390.84 960.39 399.24C960.39 407.64 961.976 415.107 965.15 421.64C968.323 427.987 972.71 433.027 978.31 436.76C984.096 440.307 990.723 442.08 998.19 442.08C1005.66 442.08 1012.19 440.307 1017.79 436.76C1023.39 433.027 1027.78 427.987 1030.95 421.64C1034.12 415.107 1035.71 407.64 1035.71 399.24C1035.71 390.84 1034.12 383.467 1030.95 377.12C1027.78 370.587 1023.39 365.547 1017.79 362C1012.19 358.453 1005.66 356.68 998.19 356.68ZM1200.3 360.88C1190.22 359.947 1181.35 361.16 1173.7 364.52C1166.23 367.88 1160.44 372.733 1156.34 379.08C1152.42 385.427 1150.46 392.987 1150.46 401.76L1139.54 399.8C1139.54 383.373 1141.96 369.373 1146.82 357.8C1151.86 346.227 1158.95 337.36 1168.1 331.2C1177.24 325.04 1187.98 321.96 1200.3 321.96V360.88ZM1107.34 323.64H1150.46V474H1107.34V323.64ZM1225.22 266.24H1268.34V474H1225.22V266.24ZM1323.5 323.64H1372.5L1265.82 435.36V384.68L1323.5 323.64ZM1313.7 376.56L1375.02 474H1324.06L1282.06 402.32L1313.7 376.56Z" fill="#252525"/>
<path d="M170.56 48V47H169.56V48H170.56ZM319.8 48H320.8V47H319.8V48ZM319.8 83.56V84.56H320.8V83.56H319.8ZM214.8 83.56V82.56H213.8V83.56H214.8ZM214.8 127.8H213.8V128.8H214.8V127.8ZM309.16 127.8H310.16V126.8H309.16V127.8ZM309.16 163.36V164.36H310.16V163.36H309.16ZM214.8 163.36V162.36H213.8V163.36H214.8ZM214.8 208.44H213.8V209.44H214.8V208.44ZM322.88 208.44H323.88V207.44H322.88V208.44ZM322.88 244V245H323.88V244H322.88ZM170.56 244H169.56V245H170.56V244ZM170.56 49H319.8V47H170.56V49ZM318.8 48V83.56H320.8V48H318.8ZM319.8 82.56H214.8V84.56H319.8V82.56ZM213.8 83.56V127.8H215.8V83.56H213.8ZM214.8 128.8H309.16V126.8H214.8V128.8ZM308.16 127.8V163.36H310.16V127.8H308.16ZM309.16 162.36H214.8V164.36H309.16V162.36ZM213.8 163.36V208.44H215.8V163.36H213.8ZM214.8 209.44H322.88V207.44H214.8V209.44ZM321.88 208.44V244H323.88V208.44H321.88ZM322.88 243H170.56V245H322.88V243ZM171.56 244V48H169.56V244H171.56ZM455.871 138.44L455.14 139.122L455.146 139.129L455.152 139.135L455.871 138.44ZM434.311 130.04V129.04H434.302L434.294 129.04L434.311 130.04ZM409.111 141.52L408.34 140.884V140.884L409.111 141.52ZM399.871 169.8V170.8H400.871V169.8H399.871ZM388.951 169.8H387.951V170.8H388.951V169.8ZM396.511 126.4L395.6 125.988L395.597 125.995L396.511 126.4ZM418.351 100.64L418.866 101.497L418.871 101.495L418.351 100.64ZM481.071 99.24L480.563 100.101L480.574 100.108L480.586 100.114L481.071 99.24ZM507.111 244V245H508.111V244H507.111ZM463.991 244H462.991V245H463.991V244ZM356.751 93.64V92.64H355.751V93.64H356.751ZM399.871 93.64H400.871V92.64H399.871V93.64ZM399.871 244V245H400.871V244H399.871ZM356.751 244H355.751V245H356.751V244ZM464.991 161.68C464.991 151.601 462.229 143.578 456.59 137.745L455.152 139.135C460.34 144.502 462.991 151.973 462.991 161.68H464.991ZM456.602 137.758C451.15 131.916 443.677 129.04 434.311 129.04V131.04C443.239 131.04 450.139 133.764 455.14 139.122L456.602 137.758ZM434.294 129.04C423.394 129.231 414.706 133.167 408.34 140.884L409.883 142.156C415.837 134.939 423.948 131.222 434.329 131.04L434.294 129.04ZM408.34 140.884C402.007 148.56 398.871 158.224 398.871 169.8H400.871C400.871 158.603 403.896 149.413 409.883 142.156L408.34 140.884ZM399.871 168.8H388.951V170.8H399.871V168.8ZM389.951 169.8C389.951 152.34 392.46 138.023 397.426 126.805L395.597 125.995C390.482 137.55 387.951 152.167 387.951 169.8H389.951ZM397.423 126.812C402.58 115.392 409.735 106.976 418.866 101.497L417.837 99.7825C408.301 105.504 400.896 114.261 395.6 125.988L397.423 126.812ZM418.871 101.495C428.211 95.8171 439.225 92.96 451.951 92.96V90.96C438.917 90.96 427.531 93.8896 417.832 99.7855L418.871 101.495ZM451.951 92.96C463.004 92.96 472.528 95.3534 480.563 100.101L481.58 98.3791C473.188 93.4199 463.299 90.96 451.951 90.96V92.96ZM480.586 100.114C488.813 104.685 495.114 111.168 499.505 119.583L501.278 118.657C496.708 109.899 490.129 103.128 481.557 98.3658L480.586 100.114ZM499.505 119.583C503.896 127.999 506.111 138.007 506.111 149.64H508.111C508.111 137.753 505.847 127.414 501.278 118.657L499.505 119.583ZM506.111 149.64V244H508.111V149.64H506.111ZM507.111 243H463.991V245H507.111V243ZM464.991 244V161.68H462.991V244H464.991ZM356.751 94.64H399.871V92.64H356.751V94.64ZM398.871 93.64V244H400.871V93.64H398.871ZM399.871 243H356.751V245H399.871V243ZM357.751 244V93.64H355.751V244H357.751ZM689.649 65.92L689 66.6807L689.006 66.6853L689.011 66.6899L689.649 65.92ZM689.649 168.68L690.316 169.426L690.316 169.425L689.649 168.68ZM589.409 187.44V186.44H588.409V187.44H589.409ZM589.409 244V245H590.409V244H589.409ZM545.169 244H544.169V245H545.169V244ZM545.169 48V47H544.169V48H545.169ZM658.569 143.2L659.21 143.968L659.212 143.967L658.569 143.2ZM658.569 91.96L657.929 92.7283L657.94 92.7367L658.569 91.96ZM589.409 83.56V82.56H588.409V83.56H589.409ZM589.409 151.6H588.409V152.6H589.409V151.6ZM624.969 170.92V169.92H623.27L624.095 171.406L624.969 170.92ZM668.089 170.92L668.927 170.374L668.631 169.92H668.089V170.92ZM715.689 244V245H717.534L716.527 243.454L715.689 244ZM665.569 244L664.695 244.486L664.981 245H665.569V244ZM630.289 49C655.717 49 675.241 54.9393 689 66.6807L690.299 65.1593C676.058 53.0073 656.008 47 630.289 47V49ZM689.011 66.6899C702.93 78.2275 709.929 94.5363 709.929 115.76H711.929C711.929 94.0504 704.742 77.1325 690.288 65.1501L689.011 66.6899ZM709.929 115.76C709.929 138.12 702.918 155.467 688.983 167.935L690.316 169.425C704.755 156.507 711.929 138.573 711.929 115.76H709.929ZM688.983 167.934C675.224 180.226 655.707 186.44 630.289 186.44V188.44C656.019 188.44 676.075 182.147 690.316 169.426L688.983 167.934ZM630.289 186.44H589.409V188.44H630.289V186.44ZM588.409 187.44V244H590.409V187.44H588.409ZM589.409 243H545.169V245H589.409V243ZM546.169 244V48H544.169V244H546.169ZM545.169 49H630.289V47H545.169V49ZM630.289 152.6C642.567 152.6 652.251 149.767 659.21 143.968L657.929 142.432C651.448 147.833 642.279 150.6 630.289 150.6V152.6ZM659.212 143.967C666.406 137.938 669.929 128.938 669.929 117.16H667.929C667.929 128.528 664.546 136.888 657.927 142.433L659.212 143.967ZM669.929 117.16C669.929 105.744 666.399 97.0211 659.199 91.1832L657.94 92.7367C664.553 98.0989 667.929 106.176 667.929 117.16H669.929ZM659.21 91.1918C652.251 85.3931 642.567 82.56 630.289 82.56V84.56C642.279 84.56 651.448 87.3269 657.929 92.7282L659.21 91.1918ZM630.289 82.56H589.409V84.56H630.289V82.56ZM588.409 83.56V151.6H590.409V83.56H588.409ZM589.409 152.6H630.289V150.6H589.409V152.6ZM624.969 171.92H668.089V169.92H624.969V171.92ZM667.251 171.466L714.851 244.546L716.527 243.454L668.927 170.374L667.251 171.466ZM715.689 243H665.569V245H715.689V243ZM666.444 243.514L625.844 170.434L624.095 171.406L664.695 244.486L666.444 243.514ZM845.227 156.64V157.64H846.254L846.226 156.613L845.227 156.64ZM840.747 139L839.859 139.46L839.869 139.48L839.88 139.5L840.747 139ZM829.267 127.24L829.752 126.366L829.267 127.24ZM792.867 128.64L792.299 127.817L792.867 128.64ZM795.107 207.6L794.588 208.455L795.107 207.6ZM854.467 196.96L855.169 196.249L854.462 195.55L853.759 196.253L854.467 196.96ZM877.147 219.36L877.894 220.024L878.524 219.315L877.849 218.649L877.147 219.36ZM849.427 238.68L849.05 237.754L849.044 237.756L849.427 238.68ZM771.027 235.88L771.502 235L771.027 235.88ZM743.587 209.28L742.71 209.761L742.714 209.769L742.719 209.778L743.587 209.28ZM743.867 128.92L744.734 129.418L744.737 129.412L743.867 128.92ZM771.027 102.04L770.552 101.16L770.546 101.163L771.027 102.04ZM811.627 92.24V91.2399L811.614 91.2401L811.627 92.24ZM855.027 103.44L854.472 104.272L854.48 104.277L854.488 104.283L855.027 103.44ZM879.667 134.52L878.73 134.871L878.733 134.879L878.736 134.887L879.667 134.52ZM885.547 181.84V182.84H886.478L886.544 181.911L885.547 181.84ZM769.627 181.84H768.627V182.84H769.627V181.84ZM769.627 156.64V155.64H768.627V156.64H769.627ZM846.226 156.613C846.036 149.578 844.513 143.527 841.613 138.5L839.88 139.5C842.58 144.179 844.044 149.888 844.227 156.667L846.226 156.613ZM841.634 138.54C838.929 133.322 834.961 129.26 829.752 126.366L828.781 128.114C833.652 130.82 837.337 134.598 839.859 139.46L841.634 138.54ZM829.752 126.366C824.545 123.473 818.587 122.04 811.907 122.04V124.04C818.293 124.04 823.908 125.407 828.781 128.114L829.752 126.366ZM811.907 122.04C804.446 122.04 797.897 123.956 792.299 127.817L793.434 129.463C798.663 125.857 804.807 124.04 811.907 124.04V122.04ZM792.299 127.817C786.723 131.662 782.412 136.942 779.357 143.624L781.176 144.456C784.095 138.071 788.183 133.085 793.434 129.463L792.299 127.817ZM779.357 143.624C776.3 150.311 774.787 158.017 774.787 166.72H776.787C776.787 158.249 778.26 150.836 781.176 144.456L779.357 143.624ZM774.787 166.72C774.787 176.539 776.486 185.003 779.927 192.077L781.726 191.203C778.447 184.463 776.787 176.314 776.787 166.72H774.787ZM779.927 192.077C783.366 199.145 788.253 204.615 794.588 208.455L795.625 206.745C789.64 203.118 785.008 197.948 781.726 191.203L779.927 192.077ZM794.588 208.455C800.922 212.294 808.199 214.2 816.387 214.2V212.2C808.521 212.2 801.611 210.373 795.625 206.745L794.588 208.455ZM816.387 214.2C831.227 214.2 844.17 208.671 855.174 197.667L853.759 196.253C843.11 206.903 830.667 212.2 816.387 212.2V214.2ZM853.764 197.671L876.444 220.071L877.849 218.649L855.169 196.249L853.764 197.671ZM876.399 218.696C869.04 226.974 859.93 233.328 849.05 237.754L849.803 239.606C860.95 235.072 870.32 228.546 877.894 220.024L876.399 218.696ZM849.044 237.756C838.357 242.178 826.263 244.4 812.747 244.4V246.4C826.483 246.4 838.843 244.142 849.809 239.604L849.044 237.756ZM812.747 244.4C796.826 244.4 783.089 241.253 771.502 235L770.552 236.76C782.484 243.2 796.561 246.4 812.747 246.4V244.4ZM771.502 235C759.902 228.74 750.893 220.004 744.454 208.782L742.719 209.778C749.347 221.329 758.631 230.327 770.552 236.76L771.502 235ZM744.463 208.799C738.209 197.393 735.067 184.217 735.067 169.24H733.067C733.067 184.503 736.271 198.02 742.71 209.761L744.463 208.799ZM735.067 169.24C735.067 153.89 738.302 140.628 744.734 129.418L742.999 128.422C736.364 139.986 733.067 153.604 733.067 169.24H735.067ZM744.737 129.412C751.18 117.999 760.099 109.173 771.507 102.917L770.546 101.163C758.808 107.6 749.62 116.694 742.996 128.428L744.737 129.412ZM771.502 102.92C783.1 96.6607 796.47 93.4249 811.639 93.2399L811.614 91.2401C796.17 91.4284 782.473 94.726 770.552 101.16L771.502 102.92ZM811.627 93.24C829.224 93.24 843.481 96.9447 854.472 104.272L855.581 102.608C844.172 95.0019 829.496 91.24 811.627 91.24V93.24ZM854.488 104.283C865.681 111.439 873.761 121.62 878.73 134.871L880.603 134.169C875.492 120.54 867.146 110.001 855.565 102.597L854.488 104.283ZM878.736 134.887C883.895 147.967 885.848 163.583 884.549 181.769L886.544 181.911C887.858 163.51 885.892 147.58 880.597 134.153L878.736 134.887ZM885.547 180.84H769.627V182.84H885.547V180.84ZM770.627 181.84V156.64H768.627V181.84H770.627ZM769.627 157.64H845.227V155.64H769.627V157.64ZM948.737 210.68L948.083 211.437L948.102 211.453L948.121 211.467L948.737 210.68ZM982.897 212.64L983.286 213.561L983.295 213.557L983.303 213.554L982.897 212.64ZM995.217 203.96L994.474 203.291L994.472 203.293L995.217 203.96ZM1001.38 191.08L1002.34 190.822L1000.39 190.928L1001.38 191.08ZM1007.82 215.16L1008.74 215.552L1008.87 215.235L1008.78 214.902L1007.82 215.16ZM987.657 238.12L987.161 237.252L987.657 238.12ZM926.337 239.8L925.864 240.681L925.873 240.686L926.337 239.8ZM908.417 223L907.551 223.501L907.556 223.509L907.561 223.518L908.417 223ZM917.097 165.88L917.727 166.657L917.097 165.88ZM959.657 153.56V152.56L959.647 152.56L959.657 153.56ZM1005.58 153.56H1006.58V152.56H1005.58V153.56ZM1005.58 178.76V179.76H1006.58V178.76H1005.58ZM1001.1 150.76H1000.1V150.763L1001.1 150.76ZM992.977 131.44L992.311 132.186L992.317 132.192L992.324 132.197L992.977 131.44ZM948.177 128.08L948.458 129.04L948.469 129.037L948.479 129.033L948.177 128.08ZM924.937 137.88L924.035 138.313L924.492 139.264L925.417 138.757L924.937 137.88ZM911.497 109.88L911.032 108.995L910.178 109.443L910.595 110.313L911.497 109.88ZM933.337 100.08L932.991 99.1417L933.337 100.08ZM955.177 94.2L955.349 95.185L955.361 95.1829L955.373 95.1806L955.177 94.2ZM1026.58 106.24L1025.92 106.997L1026.58 106.24ZM1043.38 145.72L1044.38 145.717L1044.38 145.709L1043.38 145.72ZM1043.66 244V245H1044.66L1044.66 243.997L1043.66 244ZM1001.38 244L1000.38 244.003L1000.38 245H1001.38V244ZM967.217 177.76C958.921 177.76 952.523 179.168 948.174 182.134L949.3 183.786C953.164 181.152 959.086 179.76 967.217 179.76V177.76ZM948.174 182.134C943.727 185.165 941.577 189.999 941.577 196.4H943.577C943.577 190.481 945.533 186.355 949.3 183.786L948.174 182.134ZM941.577 196.4C941.577 202.631 943.733 207.68 948.083 211.437L949.391 209.923C945.528 206.587 943.577 202.116 943.577 196.4H941.577ZM948.121 211.467C952.641 215.005 958.668 216.72 966.097 216.72V214.72C958.966 214.72 953.42 213.075 949.353 209.892L948.121 211.467ZM966.097 216.72C972.551 216.72 978.287 215.676 983.286 213.561L982.507 211.719C977.8 213.711 972.336 214.72 966.097 214.72V216.72ZM983.303 213.554C988.452 211.265 992.681 208.294 995.962 204.627L994.472 203.293C991.406 206.719 987.422 209.535 982.491 211.726L983.303 213.554ZM995.96 204.629C999.447 200.754 1001.59 196.282 1002.37 191.232L1000.39 190.928C999.672 195.584 997.706 199.699 994.474 203.291L995.96 204.629ZM1000.41 191.338L1006.85 215.418L1008.78 214.902L1002.34 190.822L1000.41 191.338ZM1006.9 214.768C1002.69 224.656 996.11 232.138 987.161 237.252L988.153 238.988C997.497 233.649 1004.36 225.824 1008.74 215.552L1006.9 214.768ZM987.161 237.252C978.199 242.372 967.18 244.96 954.057 244.96V246.96C967.44 246.96 978.821 244.321 988.153 238.988L987.161 237.252ZM954.057 244.96C943.546 244.96 934.471 242.932 926.801 238.914L925.873 240.686C933.882 244.881 943.288 246.96 954.057 246.96V244.96ZM926.81 238.919C919.306 234.893 913.469 229.415 909.272 222.482L907.561 223.518C911.952 230.772 918.061 236.494 925.864 240.681L926.81 238.919ZM909.282 222.499C905.272 215.572 903.257 207.721 903.257 198.92H901.257C901.257 208.039 903.349 216.241 907.551 223.501L909.282 222.499ZM903.257 198.92C903.257 185.187 908.093 174.473 917.727 166.657L916.467 165.103C906.314 173.34 901.257 184.653 901.257 198.92H903.257ZM917.727 166.657C927.381 158.824 941.314 154.745 959.667 154.56L959.647 152.56C941.04 152.748 926.599 156.883 916.467 165.103L917.727 166.657ZM959.657 154.56H1005.58V152.56H959.657V154.56ZM1004.58 153.56V178.76H1006.58V153.56H1004.58ZM1005.58 177.76H967.217V179.76H1005.58V177.76ZM1002.1 150.76C1002.1 142.304 999.298 135.569 993.63 130.683L992.324 132.197C997.483 136.645 1000.1 142.789 1000.1 150.76H1002.1ZM993.643 130.694C988.164 125.802 980.137 123.44 969.737 123.44V125.44C979.87 125.44 987.337 127.745 992.311 132.186L993.643 130.694ZM969.737 123.44C962.897 123.44 955.607 124.675 947.875 127.127L948.479 129.033C956.053 126.632 963.137 125.44 969.737 125.44V123.44ZM947.896 127.12C940.166 129.383 932.352 132.679 924.457 137.003L925.417 138.757C933.201 134.494 940.881 131.257 948.458 129.04L947.896 127.12ZM925.838 137.447L912.398 109.447L910.595 110.313L924.035 138.313L925.838 137.447ZM911.962 110.765C919.394 106.863 926.634 103.615 933.683 101.018L932.991 99.1417C925.853 101.772 918.533 105.057 911.032 108.995L911.962 110.765ZM933.683 101.018C940.719 98.4258 947.941 96.4814 955.349 95.185L955.005 93.215C947.479 94.5319 940.141 96.5075 932.991 99.1417L933.683 101.018ZM955.373 95.1806C962.766 93.7019 970.82 92.96 979.537 92.96V90.96C970.707 90.96 962.521 91.7114 954.981 93.2194L955.373 95.1806ZM979.537 92.96C999.738 92.96 1015.15 97.6862 1025.92 106.997L1027.23 105.483C1015.97 95.7538 1000.03 90.96 979.537 90.96V92.96ZM1025.92 106.997C1036.69 116.299 1042.19 129.169 1042.38 145.731L1044.38 145.709C1044.19 128.671 1038.5 115.221 1027.23 105.483L1025.92 106.997ZM1042.38 145.723L1042.66 244.003L1044.66 243.997L1044.38 145.717L1042.38 145.723ZM1043.66 243H1001.38V245H1043.66V243ZM1002.38 243.997L1002.1 150.757L1000.1 150.763L1000.38 244.003L1002.38 243.997ZM1181.33 143.48L1180.54 144.094L1181.13 144.85L1181.91 144.295L1181.33 143.48ZM1166.77 131.72L1167.21 130.82L1166.77 131.72ZM1128.41 132.84L1128.94 133.69L1128.95 133.683L1128.96 133.676L1128.41 132.84ZM1115.53 147.4L1114.64 146.953L1114.63 146.964L1115.53 147.4ZM1115.53 191.08L1114.63 191.506L1114.63 191.517L1114.64 191.527L1115.53 191.08ZM1128.41 205.92L1127.87 206.756L1127.88 206.763L1127.89 206.77L1128.41 205.92ZM1167.33 206.76L1167.76 207.665L1167.77 207.66L1167.78 207.654L1167.33 206.76ZM1181.89 193.6L1182.44 192.766L1181.6 192.209L1181.05 193.058L1181.89 193.6ZM1211.57 213.2L1212.42 213.726L1212.93 212.9L1212.12 212.366L1211.57 213.2ZM1184.69 237L1184.26 236.1L1184.25 236.103L1184.69 237ZM1104.61 235.88L1105.09 235.003L1104.61 235.88ZM1077.45 209.28L1076.58 209.761L1076.58 209.769L1076.59 209.778L1077.45 209.28ZM1077.45 128.92L1076.58 128.428L1076.58 128.439L1077.45 128.92ZM1104.61 102.04L1105.09 102.917L1105.1 102.914L1104.61 102.04ZM1183.57 100.36L1183.14 101.26L1183.15 101.266L1183.57 100.36ZM1210.45 122.76L1211.03 123.575L1211.84 123.002L1211.28 122.191L1210.45 122.76ZM1182.12 142.866C1178.11 137.704 1173.13 133.686 1167.21 130.82L1166.34 132.62C1171.99 135.354 1176.72 139.176 1180.54 144.094L1182.12 142.866ZM1167.21 130.82C1161.27 127.944 1154.49 126.52 1146.89 126.52V128.52C1154.23 128.52 1160.71 129.896 1166.34 132.62L1167.21 130.82ZM1146.89 126.52C1139.81 126.52 1133.45 128.343 1127.87 132.004L1128.96 133.676C1134.2 130.244 1140.17 128.52 1146.89 128.52V126.52ZM1127.89 131.99C1122.3 135.459 1117.89 140.46 1114.64 146.953L1116.43 147.847C1119.53 141.647 1123.7 136.941 1128.94 133.69L1127.89 131.99ZM1114.63 146.964C1111.57 153.287 1110.05 160.723 1110.05 169.24H1112.05C1112.05 160.957 1113.53 153.833 1116.43 147.836L1114.63 146.964ZM1110.05 169.24C1110.05 177.576 1111.57 185.005 1114.63 191.506L1116.44 190.654C1113.52 184.462 1112.05 177.331 1112.05 169.24H1110.05ZM1114.64 191.527C1117.88 198.016 1122.29 203.104 1127.87 206.756L1128.96 205.084C1123.71 201.643 1119.53 196.837 1116.43 190.633L1114.64 191.527ZM1127.89 206.77C1133.47 210.236 1139.82 211.96 1146.89 211.96V209.96C1140.16 209.96 1134.18 208.324 1128.94 205.07L1127.89 206.77ZM1146.89 211.96C1154.67 211.96 1161.63 210.537 1167.76 207.665L1166.91 205.855C1161.09 208.583 1154.42 209.96 1146.89 209.96V211.96ZM1167.78 207.654C1173.92 204.585 1178.91 200.074 1182.73 194.142L1181.05 193.058C1177.41 198.699 1172.69 202.962 1166.89 205.866L1167.78 207.654ZM1181.34 194.434L1211.02 214.034L1212.12 212.366L1182.44 192.766L1181.34 194.434ZM1210.72 212.674C1204.48 222.768 1195.67 230.577 1184.26 236.1L1185.13 237.9C1196.86 232.223 1205.97 224.165 1212.42 213.726L1210.72 212.674ZM1184.25 236.103C1173.03 241.623 1159.93 244.4 1144.93 244.4V246.4C1160.18 246.4 1173.59 243.577 1185.14 237.897L1184.25 236.103ZM1144.93 244.4C1129.77 244.4 1116.5 241.257 1105.09 235.003L1104.13 236.757C1115.88 243.196 1129.49 246.4 1144.93 246.4V244.4ZM1105.09 235.003C1093.68 228.744 1084.76 220.009 1078.32 208.782L1076.59 209.778C1083.21 221.325 1092.4 230.322 1104.13 236.757L1105.09 235.003ZM1078.33 208.799C1072.08 197.393 1068.93 184.217 1068.93 169.24H1066.93C1066.93 184.503 1070.14 198.02 1076.58 209.761L1078.33 208.799ZM1068.93 169.24C1068.93 154.074 1072.08 140.805 1078.33 129.401L1076.58 128.439C1070.14 140.182 1066.93 153.792 1066.93 169.24H1068.93ZM1078.32 129.412C1084.77 117.999 1093.69 109.173 1105.09 102.917L1104.13 101.163C1092.4 107.6 1083.21 116.694 1076.58 128.428L1078.32 129.412ZM1105.1 102.914C1116.69 96.4732 1129.96 93.24 1144.93 93.24V91.24C1129.67 91.24 1116.05 94.5401 1104.13 101.166L1105.1 102.914ZM1144.93 93.24C1159.37 93.24 1172.1 95.9229 1183.14 101.26L1184.01 99.4596C1172.65 93.9704 1159.62 91.24 1144.93 91.24V93.24ZM1183.15 101.266C1194.2 106.422 1203.02 113.775 1209.63 123.329L1211.28 122.191C1204.45 112.331 1195.35 104.752 1184 99.4538L1183.15 101.266ZM1209.87 121.945L1180.75 142.665L1181.91 144.295L1211.03 123.575L1209.87 121.945ZM1339.39 138.44L1338.66 139.122L1338.66 139.129L1338.67 139.135L1339.39 138.44ZM1317.83 130.04V129.04H1317.82L1317.81 129.04L1317.83 130.04ZM1292.35 141.52L1291.58 140.884V140.884L1292.35 141.52ZM1283.11 169.8V170.8H1284.11V169.8H1283.11ZM1272.47 169.8H1271.47V170.8H1272.47V169.8ZM1280.03 126.4L1280.94 126.805L1280.94 126.799L1280.03 126.4ZM1301.59 100.64L1302.1 101.497L1302.11 101.495L1301.59 100.64ZM1364.59 99.24L1364.08 100.101L1364.09 100.108L1364.1 100.114L1364.59 99.24ZM1383.91 119.12L1384.79 118.657L1383.91 119.12ZM1390.63 244V245H1391.63V244H1390.63ZM1347.51 244H1346.51V245H1347.51V244ZM1239.99 36.24V35.24H1238.99V36.24H1239.99ZM1283.11 36.24H1284.11V35.24H1283.11V36.24ZM1283.11 244V245H1284.11V244H1283.11ZM1239.99 244H1238.99V245H1239.99V244ZM1348.51 161.68C1348.51 151.601 1345.74 143.578 1340.11 137.745L1338.67 139.135C1343.86 144.502 1346.51 151.973 1346.51 161.68H1348.51ZM1340.12 137.758C1334.67 131.916 1327.19 129.04 1317.83 129.04V131.04C1326.76 131.04 1333.66 133.764 1338.66 139.122L1340.12 137.758ZM1317.81 129.04C1306.73 129.231 1297.95 133.163 1291.58 140.884L1293.12 142.156C1299.07 134.944 1307.27 131.222 1317.84 131.04L1317.81 129.04ZM1291.58 140.884C1285.24 148.56 1282.11 158.224 1282.11 169.8H1284.11C1284.11 158.603 1287.13 149.413 1293.12 142.156L1291.58 140.884ZM1283.11 168.8H1272.47V170.8H1283.11V168.8ZM1273.47 169.8C1273.47 152.34 1275.98 138.023 1280.94 126.805L1279.11 125.995C1274 137.55 1271.47 152.167 1271.47 169.8H1273.47ZM1280.94 126.799C1285.91 115.385 1292.97 106.974 1302.1 101.497L1301.07 99.7825C1291.53 105.506 1284.22 114.268 1279.11 126.001L1280.94 126.799ZM1302.11 101.495C1311.45 95.8171 1322.46 92.96 1335.19 92.96V90.96C1322.15 90.96 1310.77 93.8896 1301.07 99.7855L1302.11 101.495ZM1335.19 92.96C1346.43 92.96 1356.05 95.3548 1364.08 100.101L1365.1 98.3791C1356.7 93.4185 1346.72 90.96 1335.19 90.96V92.96ZM1364.1 100.114C1372.33 104.685 1378.63 111.168 1383.02 119.583L1384.79 118.657C1380.22 109.899 1373.65 103.128 1365.07 98.3658L1364.1 100.114ZM1383.02 119.583C1387.41 127.999 1389.63 138.007 1389.63 149.64H1391.63C1391.63 137.753 1389.36 127.414 1384.79 118.657L1383.02 119.583ZM1389.63 149.64V244H1391.63V149.64H1389.63ZM1390.63 243H1347.51V245H1390.63V243ZM1348.51 244V161.68H1346.51V244H1348.51ZM1239.99 37.24H1283.11V35.24H1239.99V37.24ZM1282.11 36.24V244H1284.11V36.24H1282.11ZM1283.11 243H1239.99V245H1283.11V243ZM1240.99 244V36.24H1238.99V244H1240.99ZM170.56 278V277H169.56V278H170.56ZM210.88 278L211.683 277.404L211.384 277H210.88V278ZM317.56 421.92L317.883 422.866L319.178 422.424L318.363 421.325L317.56 421.92ZM306.08 425.84H305.08V427.238L306.403 426.786L306.08 425.84ZM306.08 278V277H305.08V278H306.08ZM347.8 278H348.8V277H347.8V278ZM347.8 474V475H348.8V474H347.8ZM307.76 474L306.957 474.596L307.257 475H307.76V474ZM201.08 330.36L200.764 329.411L199.454 329.848L200.277 330.956L201.08 330.36ZM212.84 326.44H213.84V325.053L212.524 325.491L212.84 326.44ZM212.84 474V475H213.84V474H212.84ZM170.56 474H169.56V475H170.56V474ZM170.56 279H210.88V277H170.56V279ZM210.077 278.595L316.757 422.516L318.363 421.325L211.683 277.404L210.077 278.595ZM317.237 420.974L305.757 424.894L306.403 426.786L317.883 422.866L317.237 420.974ZM307.08 425.84V278H305.08V425.84H307.08ZM306.08 279H347.8V277H306.08V279ZM346.8 278V474H348.8V278H346.8ZM347.8 473H307.76V475H347.8V473ZM308.563 473.404L201.883 329.764L200.277 330.956L306.957 474.596L308.563 473.404ZM201.396 331.309L213.156 327.389L212.524 325.491L200.764 329.411L201.396 331.309ZM211.84 326.44V474H213.84V326.44H211.84ZM212.84 473H170.56V475H212.84V473ZM171.56 474V278H169.56V474H171.56ZM488.664 386.64V387.64H489.691L489.664 386.613L488.664 386.64ZM484.184 369L483.296 369.46L483.307 369.48L483.318 369.5L484.184 369ZM472.704 357.24L473.19 356.366L472.704 357.24ZM436.304 358.64L435.736 357.817L436.304 358.64ZM438.544 437.6L438.026 438.455L438.544 437.6ZM497.904 426.96L498.607 426.249L497.9 425.55L497.197 426.253L497.904 426.96ZM520.584 449.36L521.331 450.024L521.962 449.315L521.287 448.648L520.584 449.36ZM492.864 468.68L492.487 467.754L492.482 467.756L492.864 468.68ZM414.464 465.88L414.939 465L414.464 465.88ZM387.024 439.28L386.147 439.761L386.152 439.769L386.157 439.778L387.024 439.28ZM387.304 358.92L388.171 359.418L388.175 359.412L387.304 358.92ZM414.464 332.04L413.989 331.16L413.983 331.163L414.464 332.04ZM455.064 322.24V321.24L455.052 321.24L455.064 322.24ZM498.464 333.44L497.909 334.272L497.917 334.277L497.925 334.283L498.464 333.44ZM523.104 364.52L522.168 364.871L522.171 364.879L522.174 364.887L523.104 364.52ZM528.984 411.84V412.84H529.915L529.982 411.911L528.984 411.84ZM413.064 411.84H412.064V412.84H413.064V411.84ZM413.064 386.64V385.64H412.064V386.64H413.064ZM489.664 386.613C489.474 379.578 487.951 373.527 485.05 368.5L483.318 369.5C486.018 374.179 487.481 379.888 487.664 386.667L489.664 386.613ZM485.072 368.54C482.367 363.322 478.399 359.26 473.19 356.366L472.218 358.114C477.089 360.82 480.775 364.598 483.296 369.46L485.072 368.54ZM473.19 356.366C467.982 353.473 462.024 352.04 455.344 352.04V354.04C461.73 354.04 467.346 355.407 472.218 358.114L473.19 356.366ZM455.344 352.04C447.884 352.04 441.334 353.956 435.736 357.817L436.872 359.463C442.1 355.857 448.244 354.04 455.344 354.04V352.04ZM435.736 357.817C430.161 361.662 425.849 366.942 422.795 373.624L424.614 374.456C427.532 368.071 431.621 363.085 436.872 359.463L435.736 357.817ZM422.795 373.624C419.738 380.311 418.224 388.017 418.224 396.72H420.224C420.224 388.249 421.697 380.836 424.614 374.456L422.795 373.624ZM418.224 396.72C418.224 406.539 419.923 415.003 423.365 422.077L425.163 421.203C421.885 414.463 420.224 406.314 420.224 396.72H418.224ZM423.365 422.077C426.803 429.145 431.69 434.615 438.026 438.455L439.062 436.745C433.078 433.118 428.445 427.948 425.163 421.203L423.365 422.077ZM438.026 438.455C444.359 442.294 451.636 444.2 459.824 444.2V442.2C451.959 442.2 445.049 440.373 439.062 436.745L438.026 438.455ZM459.824 444.2C474.664 444.2 487.608 438.671 498.611 427.667L497.197 426.253C486.547 436.903 474.104 442.2 459.824 442.2V444.2ZM497.201 427.671L519.881 450.071L521.287 448.648L498.607 426.249L497.201 427.671ZM519.837 448.696C512.478 456.974 503.367 463.328 492.487 467.754L493.241 469.606C504.388 465.072 513.757 458.546 521.331 450.024L519.837 448.696ZM492.482 467.756C481.794 472.178 469.701 474.4 456.184 474.4V476.4C469.921 476.4 482.28 474.142 493.246 469.604L492.482 467.756ZM456.184 474.4C440.263 474.4 426.526 471.254 414.939 465L413.989 466.76C425.922 473.2 439.998 476.4 456.184 476.4V474.4ZM414.939 465C403.34 458.74 394.33 450.004 387.891 438.782L386.157 439.778C392.784 451.329 402.068 460.327 413.989 466.76L414.939 465ZM387.901 438.799C381.646 427.393 378.504 414.217 378.504 399.24H376.504C376.504 414.503 379.709 428.02 386.147 439.761L387.901 438.799ZM378.504 399.24C378.504 383.89 381.74 370.628 388.171 359.418L386.437 358.422C379.802 369.986 376.504 383.604 376.504 399.24H378.504ZM388.175 359.412C394.617 347.999 403.536 339.173 414.945 332.917L413.983 331.163C402.245 337.6 393.057 346.694 386.433 358.428L388.175 359.412ZM414.939 332.92C426.537 326.661 439.908 323.425 455.076 323.24L455.052 321.24C439.607 321.428 425.911 324.726 413.989 331.16L414.939 332.92ZM455.064 323.24C472.662 323.24 486.918 326.945 497.909 334.272L499.019 332.608C487.61 325.002 472.933 321.24 455.064 321.24V323.24ZM497.925 334.283C509.118 341.439 517.199 351.62 522.168 364.871L524.04 364.169C518.93 350.54 510.583 340.001 499.003 332.597L497.925 334.283ZM522.174 364.887C527.332 377.967 529.286 393.583 527.987 411.769L529.982 411.911C531.296 393.51 529.329 377.58 524.034 364.153L522.174 364.887ZM528.984 410.84H413.064V412.84H528.984V410.84ZM414.064 411.84V386.64H412.064V411.84H414.064ZM413.064 387.64H488.664V385.64H413.064V387.64ZM610.934 437.04L610.203 437.722L610.215 437.735L610.227 437.747L610.934 437.04ZM621.574 440.68V439.68H621.554L621.533 439.681L621.574 440.68ZM630.814 439.28L631.082 440.244L630.814 439.28ZM641.734 435.08L642.693 434.796L642.361 433.674L641.304 434.177L641.734 435.08ZM650.694 465.32L651.209 466.177L651.873 465.779L651.653 465.036L650.694 465.32ZM632.214 473.16L632.482 474.124L632.214 473.16ZM587.134 470.92L586.706 471.824L586.715 471.828L587.134 470.92ZM570.334 455.52L569.475 456.031L570.334 455.52ZM564.174 288.64V287.64H563.174V288.64H564.174ZM607.014 288.64H608.014V287.64H607.014V288.64ZM543.174 330.08V329.08H542.174V330.08H543.174ZM647.894 330.08H648.894V329.08H647.894V330.08ZM647.894 358.92V359.92H648.894V358.92H647.894ZM543.174 358.92H542.174V359.92H543.174V358.92ZM606.014 422.76C606.014 429.558 607.327 434.64 610.203 437.722L611.665 436.358C609.316 433.84 608.014 429.402 608.014 422.76H606.014ZM610.227 437.747C613.08 440.6 616.921 441.875 621.616 441.679L621.533 439.681C617.268 439.859 614.016 438.707 611.641 436.333L610.227 437.747ZM621.574 441.68C624.484 441.68 627.655 441.195 631.082 440.244L630.547 438.316C627.254 439.231 624.265 439.68 621.574 439.68V441.68ZM631.082 440.244C634.509 439.291 638.204 437.869 642.164 435.983L641.304 434.177C637.425 436.025 633.839 437.402 630.547 438.316L631.082 440.244ZM640.776 435.364L649.736 465.604L651.653 465.036L642.693 434.796L640.776 435.364ZM650.18 464.462C644.662 467.773 638.586 470.352 631.947 472.196L632.482 474.124C639.283 472.234 645.527 469.587 651.209 466.177L650.18 464.462ZM631.947 472.196C625.315 474.039 618.499 474.96 611.494 474.96V476.96C618.677 476.96 625.673 476.015 632.482 474.124L631.947 472.196ZM611.494 474.96C602.662 474.96 594.687 473.305 587.553 470.012L586.715 471.828C594.141 475.255 602.407 476.96 611.494 476.96V474.96ZM587.562 470.016C580.653 466.743 575.202 461.749 571.194 455.009L569.475 456.031C573.681 463.104 579.429 468.377 586.706 471.824L587.562 470.016ZM571.194 455.009C567.201 448.294 565.174 439.896 565.174 429.76H563.174C563.174 440.157 565.254 448.932 569.475 456.031L571.194 455.009ZM565.174 429.76V288.64H563.174V429.76H565.174ZM564.174 289.64H607.014V287.64H564.174V289.64ZM606.014 288.64V422.76H608.014V288.64H606.014ZM543.174 331.08H647.894V329.08H543.174V331.08ZM646.894 330.08V358.92H648.894V330.08H646.894ZM647.894 357.92H543.174V359.92H647.894V357.92ZM544.174 358.92V330.08H542.174V358.92H544.174ZM655.113 323.64V322.64H653.681L654.174 323.984L655.113 323.64ZM699.073 323.64L700.029 323.346L699.812 322.64H699.073V323.64ZM732.673 432.84L731.717 433.134L732.689 436.293L733.632 433.125L732.673 432.84ZM765.153 323.64V322.64H764.407L764.195 323.355L765.153 323.64ZM807.433 323.64L808.39 323.35L808.175 322.64H807.433V323.64ZM840.473 432.84L839.516 433.13L840.473 436.293L841.43 433.13L840.473 432.84ZM873.513 323.64V322.64H872.771L872.556 323.35L873.513 323.64ZM916.073 323.64L917.013 323.983L917.503 322.64H916.073V323.64ZM861.193 474V475H861.893L862.133 474.343L861.193 474ZM818.073 474L817.12 474.303L817.342 475H818.073V474ZM785.873 372.64L786.826 372.337L785.877 369.35L784.921 372.335L785.873 372.64ZM753.393 474V475H754.123L754.345 474.305L753.393 474ZM710.273 474L709.334 474.344L709.575 475H710.273V474ZM655.113 324.64H699.073V322.64H655.113V324.64ZM698.117 323.934L731.717 433.134L733.629 432.546L700.029 323.346L698.117 323.934ZM733.632 433.125L766.112 323.925L764.195 323.355L731.715 432.555L733.632 433.125ZM765.153 324.64H807.433V322.64H765.153V324.64ZM806.476 323.93L839.516 433.13L841.43 432.55L808.39 323.35L806.476 323.93ZM841.43 433.13L874.47 323.93L872.556 323.35L839.516 432.55L841.43 433.13ZM873.513 324.64H916.073V322.64H873.513V324.64ZM915.134 323.297L860.254 473.657L862.133 474.343L917.013 323.983L915.134 323.297ZM861.193 473H818.073V475H861.193V473ZM819.026 473.697L786.826 372.337L784.92 372.943L817.12 474.303L819.026 473.697ZM784.921 372.335L752.441 473.695L754.345 474.305L786.825 372.945L784.921 372.335ZM753.393 473H710.273V475H753.393V473ZM711.212 473.656L656.052 323.296L654.174 323.984L709.334 474.344L711.212 473.656ZM1040.47 331.76L1040.01 332.646L1040.47 331.76ZM1068.75 358.64L1067.88 359.142L1067.89 359.148L1068.75 358.64ZM1068.75 439L1067.88 438.498L1068.75 439ZM1040.47 465.88L1040.01 464.994L1040.47 465.88ZM955.63 465.88L955.166 466.766L955.172 466.769L955.63 465.88ZM927.35 439L926.485 439.502L927.35 439ZM927.35 358.64L928.211 359.148L928.214 359.142L927.35 358.64ZM955.63 331.76L955.172 330.871L955.166 330.874L955.63 331.76ZM978.31 362L977.787 361.147L977.781 361.151L977.775 361.155L978.31 362ZM965.15 377.12L966.044 377.567L966.049 377.557L965.15 377.12ZM965.15 421.64L964.25 422.077L964.255 422.087L965.15 421.64ZM978.31 436.76L977.755 437.592L977.771 437.603L977.787 437.613L978.31 436.76ZM1017.79 436.76L1018.32 437.605L1018.33 437.599L1018.34 437.592L1017.79 436.76ZM1030.95 421.64L1031.84 422.087L1031.85 422.077L1030.95 421.64ZM1030.95 377.12L1030.05 377.557L1030.06 377.567L1030.95 377.12ZM1017.79 362L1017.25 362.845L1017.79 362ZM998.19 323.24C1014.11 323.24 1028.04 326.386 1040.01 332.646L1040.93 330.874C1028.63 324.44 1014.38 321.24 998.19 321.24V323.24ZM1040.01 332.646C1051.98 338.907 1061.26 347.736 1067.88 359.142L1069.61 358.138C1062.8 346.397 1053.23 337.306 1040.93 330.874L1040.01 332.646ZM1067.89 359.148C1074.5 370.358 1077.83 383.524 1077.83 398.68H1079.83C1079.83 383.223 1076.44 369.695 1069.61 358.132L1067.89 359.148ZM1077.83 398.68C1077.83 413.836 1074.5 427.098 1067.88 438.498L1069.61 439.502C1076.44 427.755 1079.83 414.137 1079.83 398.68H1077.83ZM1067.88 438.498C1061.26 449.904 1051.98 458.733 1040.01 464.994L1040.93 466.766C1053.23 460.334 1062.8 451.243 1069.61 439.502L1067.88 438.498ZM1040.01 464.994C1028.04 471.254 1014.11 474.4 998.19 474.4V476.4C1014.38 476.4 1028.63 473.199 1040.93 466.766L1040.01 464.994ZM998.19 474.4C982.27 474.4 968.245 471.254 956.088 464.991L955.172 466.769C967.654 473.199 982.002 476.4 998.19 476.4V474.4ZM956.093 464.994C944.123 458.733 934.837 449.904 928.214 438.498L926.485 439.502C933.302 451.243 942.87 460.334 955.166 466.766L956.093 464.994ZM928.214 438.498C921.595 427.098 918.27 413.836 918.27 398.68H916.27C916.27 414.137 919.664 427.755 926.485 439.502L928.214 438.498ZM918.27 398.68C918.27 383.524 921.595 370.358 928.211 359.148L926.488 358.132C919.664 369.695 916.27 383.223 916.27 398.68H918.27ZM928.214 359.142C934.837 347.736 944.123 338.907 956.093 332.646L955.166 330.874C942.87 337.306 933.302 346.397 926.485 358.138L928.214 359.142ZM956.088 332.649C968.245 326.386 982.27 323.24 998.19 323.24V321.24C982.002 321.24 967.654 324.441 955.172 330.871L956.088 332.649ZM998.19 355.68C990.558 355.68 983.747 357.495 977.787 361.147L978.832 362.853C984.446 359.412 990.888 357.68 998.19 357.68V355.68ZM977.775 361.155C972.003 364.811 967.497 369.999 964.25 376.683L966.049 377.557C969.149 371.174 973.417 366.283 978.845 362.845L977.775 361.155ZM964.255 376.673C961.001 383.182 959.39 390.713 959.39 399.24H961.39C961.39 390.967 962.952 383.752 966.044 377.567L964.255 376.673ZM959.39 399.24C959.39 407.768 961.001 415.388 964.25 422.077L966.049 421.203C962.952 414.826 961.39 407.512 961.39 399.24H959.39ZM964.255 422.087C967.502 428.581 972.002 433.757 977.755 437.592L978.864 435.928C973.417 432.296 969.144 427.393 966.044 421.193L964.255 422.087ZM977.787 437.613C983.747 441.265 990.558 443.08 998.19 443.08V441.08C990.888 441.08 984.446 439.348 978.832 435.907L977.787 437.613ZM998.19 443.08C1005.82 443.08 1012.55 441.265 1018.32 437.605L1017.25 435.915C1011.83 439.348 1005.49 441.08 998.19 441.08V443.08ZM1018.34 437.592C1024.1 433.757 1028.6 428.581 1031.84 422.087L1030.06 421.193C1026.96 427.393 1022.68 432.296 1017.23 435.928L1018.34 437.592ZM1031.85 422.077C1035.1 415.388 1036.71 407.768 1036.71 399.24H1034.71C1034.71 407.512 1033.15 414.826 1030.05 421.203L1031.85 422.077ZM1036.71 399.24C1036.71 390.713 1035.1 383.182 1031.84 376.673L1030.06 377.567C1033.15 383.752 1034.71 390.967 1034.71 399.24H1036.71ZM1031.85 376.683C1028.6 369.999 1024.1 364.811 1018.32 361.155L1017.25 362.845C1022.68 366.283 1026.95 371.174 1030.05 377.557L1031.85 376.683ZM1018.32 361.155C1012.55 357.495 1005.82 355.68 998.19 355.68V357.68C1005.49 357.68 1011.83 359.412 1017.25 362.845L1018.32 361.155ZM1200.3 360.88L1200.2 361.876L1201.3 361.977V360.88H1200.3ZM1173.7 364.52L1173.3 363.604L1173.29 363.608L1173.7 364.52ZM1156.34 379.08L1155.5 378.537L1155.49 378.546L1155.49 378.555L1156.34 379.08ZM1150.46 401.76L1150.28 402.744L1151.46 402.955V401.76H1150.46ZM1139.54 399.8H1138.54V400.636L1139.36 400.784L1139.54 399.8ZM1146.82 357.8L1145.9 357.401L1145.9 357.413L1146.82 357.8ZM1168.1 331.2L1167.54 330.371L1168.1 331.2ZM1200.3 321.96H1201.3V320.96H1200.3V321.96ZM1107.34 323.64V322.64H1106.34V323.64H1107.34ZM1150.46 323.64H1151.46V322.64H1150.46V323.64ZM1150.46 474V475H1151.46V474H1150.46ZM1107.34 474H1106.34V475H1107.34V474ZM1200.39 359.884C1190.18 358.939 1181.13 360.163 1173.3 363.604L1174.1 365.436C1181.57 362.157 1190.26 360.955 1200.2 361.876L1200.39 359.884ZM1173.29 363.608C1165.66 367.04 1159.72 372.015 1155.5 378.537L1157.18 379.623C1161.17 373.452 1166.8 368.72 1174.11 365.432L1173.29 363.608ZM1155.49 378.555C1151.45 385.085 1149.46 392.834 1149.46 401.76H1151.46C1151.46 393.139 1153.38 385.768 1157.19 379.605L1155.49 378.555ZM1150.63 400.776L1139.71 398.816L1139.36 400.784L1150.28 402.744L1150.63 400.776ZM1140.54 399.8C1140.54 383.467 1142.95 369.606 1147.74 358.187L1145.9 357.413C1140.98 369.141 1138.54 383.28 1138.54 399.8H1140.54ZM1147.73 358.199C1152.71 346.775 1159.69 338.068 1168.66 332.029L1167.54 330.371C1158.21 336.652 1151.01 345.679 1145.9 357.401L1147.73 358.199ZM1168.66 332.029C1177.62 325.993 1188.15 322.96 1200.3 322.96V320.96C1187.8 320.96 1176.87 324.087 1167.54 330.371L1168.66 332.029ZM1199.3 321.96V360.88H1201.3V321.96H1199.3ZM1107.34 324.64H1150.46V322.64H1107.34V324.64ZM1149.46 323.64V474H1151.46V323.64H1149.46ZM1150.46 473H1107.34V475H1150.46V473ZM1108.34 474V323.64H1106.34V474H1108.34ZM1225.22 266.24V265.24H1224.22V266.24H1225.22ZM1268.34 266.24H1269.34V265.24H1268.34V266.24ZM1268.34 474V475H1269.34V474H1268.34ZM1225.22 474H1224.22V475H1225.22V474ZM1323.5 323.64V322.64H1323.07L1322.77 322.953L1323.5 323.64ZM1372.5 323.64L1373.22 324.331L1374.84 322.64H1372.5V323.64ZM1265.82 435.36H1264.82V437.855L1266.54 436.051L1265.82 435.36ZM1265.82 384.68L1265.09 383.993L1264.82 384.282V384.68H1265.82ZM1313.7 376.56L1314.55 376.027L1313.95 375.071L1313.07 375.785L1313.7 376.56ZM1375.02 474V475H1376.83L1375.87 473.467L1375.02 474ZM1324.06 474L1323.2 474.506L1323.49 475H1324.06V474ZM1282.06 402.32L1281.43 401.545L1280.77 402.086L1281.2 402.826L1282.06 402.32ZM1225.22 267.24H1268.34V265.24H1225.22V267.24ZM1267.34 266.24V474H1269.34V266.24H1267.34ZM1268.34 473H1225.22V475H1268.34V473ZM1226.22 474V266.24H1224.22V474H1226.22ZM1323.5 324.64H1372.5V322.64H1323.5V324.64ZM1371.78 322.949L1265.1 434.669L1266.54 436.051L1373.22 324.331L1371.78 322.949ZM1266.82 435.36V384.68H1264.82V435.36H1266.82ZM1266.55 385.367L1324.23 324.327L1322.77 322.953L1265.09 383.993L1266.55 385.367ZM1312.86 377.093L1374.18 474.533L1375.87 473.467L1314.55 376.027L1312.86 377.093ZM1375.02 473H1324.06V475H1375.02V473ZM1324.92 473.494L1282.92 401.814L1281.2 402.826L1323.2 474.506L1324.92 473.494ZM1282.69 403.095L1314.33 377.335L1313.07 375.785L1281.43 401.545L1282.69 403.095Z" fill="#454444" mask="url(#path-12-outside-1_1017_168)"/>
</svg>
