<svg width="30" height="31" viewBox="0 0 30 31" fill="none" xmlns="http://www.w3.org/2000/svg">
<g filter="url(#filter0_i_13_1061)">
<g clip-path="url(#clip0_13_1061)">
<rect y="0.0844727" width="30" height="30" rx="5" fill="black" fill-opacity="0.1"/>
<path d="M10.9746 15.8298C10.9764 15.864 10.9711 15.8981 10.9592 15.9301C10.9473 15.9622 10.929 15.9915 10.9054 16.0162C10.8818 16.041 10.8535 16.0607 10.822 16.0742C10.7906 16.0876 10.7568 16.0945 10.7226 16.0945H7.94235C7.82857 16.0946 7.71807 16.0563 7.62884 15.9857C7.5396 15.9151 7.47686 15.8164 7.45083 15.7057C7.43463 15.6299 7.43537 15.5514 7.45302 15.4759C7.47067 15.4004 7.50478 15.3297 7.55292 15.269C7.99769 14.6791 8.58781 14.2147 9.26567 13.9211C8.96807 13.6497 8.73981 13.311 8.60003 12.9333C8.46024 12.5556 8.41299 12.1499 8.46224 11.7502C8.51148 11.3505 8.65579 10.9684 8.88307 10.636C9.11035 10.3035 9.41399 10.0303 9.76855 9.83932C10.1231 9.64833 10.5183 9.54507 10.921 9.53821C11.3236 9.53134 11.7221 9.62106 12.083 9.79986C12.4438 9.97866 12.7566 10.2413 12.9951 10.5658C13.2336 10.8904 13.3908 11.2673 13.4537 11.6651C13.4618 11.7186 13.4522 11.7733 13.4264 11.8209C13.4005 11.8684 13.3599 11.9062 13.3106 11.9285C12.6114 12.2518 12.0192 12.7683 11.604 13.4171C11.1887 14.066 10.9677 14.82 10.9671 15.5903C10.9671 15.671 10.9671 15.7504 10.9746 15.8298ZM22.4434 15.2683C21.9997 14.6792 21.4109 14.215 20.7344 13.9211C21.032 13.6497 21.2603 13.311 21.4001 12.9333C21.5399 12.5556 21.5871 12.1499 21.5379 11.7502C21.4886 11.3505 21.3443 10.9684 21.117 10.636C20.8898 10.3035 20.5861 10.0303 20.2316 9.83932C19.877 9.64833 19.4818 9.54507 19.0791 9.53821C18.6765 9.53134 18.278 9.62106 17.9171 9.79986C17.5563 9.97866 17.2435 10.2413 17.005 10.5658C16.7665 10.8904 16.6093 11.2673 16.5464 11.6651C16.5383 11.7186 16.5479 11.7733 16.5737 11.8209C16.5996 11.8684 16.6402 11.9062 16.6895 11.9285C17.3887 12.2518 17.9809 12.7683 18.3961 13.4171C18.8114 14.066 19.0324 14.82 19.033 15.5903C19.033 15.671 19.033 15.7504 19.0255 15.8298C19.0238 15.864 19.029 15.8981 19.0409 15.9301C19.0528 15.9622 19.0711 15.9915 19.0947 16.0162C19.1183 16.041 19.1466 16.0607 19.1781 16.0742C19.2095 16.0876 19.2433 16.0945 19.2775 16.0945H22.0578C22.1715 16.0946 22.282 16.0563 22.3713 15.9857C22.4605 15.9151 22.5232 15.8164 22.5493 15.7057C22.5656 15.6297 22.5648 15.5511 22.5471 15.4755C22.5293 15.3998 22.495 15.3291 22.4466 15.2683H22.4434ZM16.8351 17.9893C17.337 17.6049 17.7059 17.0729 17.8898 16.468C18.0738 15.8631 18.0636 15.2158 17.8606 14.617C17.6577 14.0182 17.2722 13.4981 16.7584 13.1297C16.2445 12.7613 15.6282 12.5632 14.996 12.5632C14.3637 12.5632 13.7474 12.7613 13.2335 13.1297C12.7197 13.4981 12.3342 14.0182 12.1313 14.617C11.9283 15.2158 11.9181 15.8631 12.1021 16.468C12.286 17.0729 12.6549 17.6049 13.1569 17.9893C12.2662 18.3753 11.5224 19.0362 11.0345 19.8754C10.9903 19.952 10.967 20.039 10.967 20.1275C10.967 20.216 10.9903 20.3029 11.0345 20.3796C11.0788 20.4562 11.1425 20.5198 11.2191 20.5641C11.2958 20.6083 11.3827 20.6316 11.4712 20.6316H18.5289C18.6174 20.6316 18.7044 20.6083 18.781 20.5641C18.8577 20.5198 18.9213 20.4562 18.9656 20.3796C19.0098 20.3029 19.0331 20.216 19.0331 20.1275C19.0331 20.039 19.0098 19.952 18.9656 19.8754C18.4766 19.0356 17.7315 18.3747 16.8395 17.9893H16.8351Z" fill="#96EA63"/>
<g opacity="0.4" filter="url(#filter1_f_13_1061)">
<ellipse cx="15.0105" cy="30.7869" rx="19.032" ry="8.80591" fill="#96EA63"/>
</g>
</g>
</g>
<defs>
<filter id="filter0_i_13_1061" x="-2" y="-1.91553" width="34" height="34" filterUnits="userSpaceOnUse" color-interpolation-filters="sRGB">
<feFlood flood-opacity="0" result="BackgroundImageFix"/>
<feBlend mode="normal" in="SourceGraphic" in2="BackgroundImageFix" result="shape"/>
<feColorMatrix in="SourceAlpha" type="matrix" values="0 0 0 0 0 0 0 0 0 0 0 0 0 0 0 0 0 0 127 0" result="hardAlpha"/>
<feMorphology radius="32" operator="erode" in="SourceAlpha" result="effect1_innerShadow_13_1061"/>
<feOffset dy="-2"/>
<feGaussianBlur stdDeviation="1"/>
<feComposite in2="hardAlpha" operator="arithmetic" k2="-1" k3="1"/>
<feColorMatrix type="matrix" values="0 0 0 0 1 0 0 0 0 1 0 0 0 0 1 0 0 0 0.05 0"/>
<feBlend mode="normal" in2="shape" result="effect1_innerShadow_13_1061"/>
</filter>
<filter id="filter1_f_13_1061" x="-23.4863" y="2.51618" width="76.9935" height="56.5414" filterUnits="userSpaceOnUse" color-interpolation-filters="sRGB">
<feFlood flood-opacity="0" result="BackgroundImageFix"/>
<feBlend mode="normal" in="SourceGraphic" in2="BackgroundImageFix" result="shape"/>
<feGaussianBlur stdDeviation="9.73239" result="effect1_foregroundBlur_13_1061"/>
</filter>
<clipPath id="clip0_13_1061">
<rect y="0.0844727" width="30" height="30" rx="5" fill="white"/>
</clipPath>
</defs>
</svg>
