<svg width="190" height="221" viewBox="0 0 190 221" fill="none" xmlns="http://www.w3.org/2000/svg">
<g filter="url(#filter0_i_13_682)">
<g clip-path="url(#clip0_13_682)">
<rect y="0.0844727" width="80" height="80" rx="13.3333" fill="black" fill-opacity="0.1"/>
<path d="M60.8568 34.6558L42.9921 24.1249C41.0905 23.0042 38.9098 23.0042 37.0082 24.1249L19.1435 34.6558C18.6704 34.9341 18.4001 35.4115 18.4001 35.9671C18.4001 36.5226 18.6704 36.9996 19.1435 37.2784L37.0082 47.8092C38.9098 48.9299 41.0905 48.9299 42.9921 47.8092L60.8568 37.2784C61.3299 36.9996 61.6001 36.5226 61.6001 35.9671C61.6001 35.4115 61.3299 34.9341 60.8568 34.6558ZM18.4001 44.2018C18.4001 44.7573 18.6704 45.2348 19.1435 45.5131L37.0082 56.0439C38.9098 57.1646 41.0905 57.1646 42.9921 56.0439L60.8568 45.5131C61.3299 45.2348 61.6001 44.7573 61.6001 44.2018V38.097C61.5353 38.1436 61.468 38.1872 61.3987 38.2282L43.5336 48.7591C41.2975 50.0775 38.7028 50.0775 36.4667 48.7591L18.6016 38.2282C18.5323 38.1872 18.465 38.1436 18.4001 38.097V44.2018Z" fill="#96EA63"/>
<g opacity="0.4" filter="url(#filter1_f_13_682)">
<ellipse cx="40.0278" cy="81.9575" rx="50.752" ry="23.4824" fill="#00FF0D"/>
</g>
</g>
</g>
<path d="M20.636 98.0845L19.988 96.2605H16.292L15.644 98.0845H14.528L17.552 89.7685H18.752L21.764 98.0845H20.636ZM16.604 95.3965H19.676L18.14 91.1005L16.604 95.3965ZM24.4089 94.6525V98.0845H23.3169V89.7685H26.0169C26.9529 89.7685 27.6649 89.9965 28.1529 90.4525C28.6489 90.9085 28.8969 91.4685 28.8969 92.1325C28.8969 92.7885 28.7169 93.3365 28.3569 93.7765C27.9969 94.2165 27.4569 94.4925 26.7369 94.6045L29.0289 98.0845H27.6609L25.4769 94.6525H24.4089ZM24.4089 90.6445V93.7885H26.0169C26.6169 93.7885 27.0609 93.6525 27.3489 93.3805C27.6449 93.1005 27.7929 92.7125 27.7929 92.2165C27.7929 91.1685 27.2009 90.6445 26.0169 90.6445H24.4089ZM36.8791 96.2965C37.4631 95.6965 37.7551 94.9045 37.7551 93.9205C37.7551 92.9365 37.4631 92.1485 36.8791 91.5565C36.2951 90.9565 35.5471 90.6565 34.6351 90.6565C33.7311 90.6565 32.9831 90.9565 32.3911 91.5565C31.8071 92.1485 31.5151 92.9365 31.5151 93.9205C31.5151 94.9045 31.8111 95.6965 32.4031 96.2965C32.9951 96.8965 33.7431 97.1965 34.6471 97.1965C35.5511 97.1965 36.2951 96.8965 36.8791 96.2965ZM34.6471 98.1685C33.4551 98.1685 32.4511 97.7685 31.6351 96.9685C30.8191 96.1605 30.4111 95.1445 30.4111 93.9205C30.4111 92.6885 30.8191 91.6765 31.6351 90.8845C32.4511 90.0845 33.4551 89.6845 34.6471 89.6845C35.8391 89.6845 36.8391 90.0845 37.6471 90.8845C38.4631 91.6765 38.8711 92.6885 38.8711 93.9205C38.8711 95.1525 38.4631 96.1685 37.6471 96.9685C36.8391 97.7685 35.8391 98.1685 34.6471 98.1685ZM46.7675 89.7685C47.7035 89.7685 48.4155 89.9965 48.9035 90.4525C49.3995 90.9085 49.6475 91.4925 49.6475 92.2045C49.6475 92.9165 49.4075 93.5045 48.9275 93.9685C48.4555 94.4245 47.7355 94.6525 46.7675 94.6525H45.1595V98.0845H44.0675V89.7685H46.7675ZM45.1595 93.7885H46.7675C47.3675 93.7885 47.8115 93.6525 48.0995 93.3805C48.3955 93.1005 48.5435 92.7125 48.5435 92.2165C48.5435 91.1685 47.9515 90.6445 46.7675 90.6445H45.1595V93.7885ZM53.933 97.2925C54.549 97.2925 55.081 97.0725 55.529 96.6325C55.985 96.1845 56.213 95.5685 56.213 94.7845C56.213 94.0005 55.997 93.3885 55.565 92.9485C55.133 92.5085 54.605 92.2885 53.981 92.2885C53.365 92.2885 52.849 92.5085 52.433 92.9485C52.017 93.3885 51.809 94.0045 51.809 94.7965C51.809 95.5805 52.009 96.1925 52.409 96.6325C52.809 97.0725 53.317 97.2925 53.933 97.2925ZM51.593 97.2565C50.993 96.6325 50.693 95.8125 50.693 94.7965C50.693 93.7805 51.009 92.9605 51.641 92.3365C52.273 91.7045 53.065 91.3885 54.017 91.3885C54.969 91.3885 55.761 91.7045 56.393 92.3365C57.025 92.9605 57.341 93.7805 57.341 94.7965C57.341 95.8045 57.009 96.6245 56.345 97.2565C55.689 97.8805 54.885 98.1925 53.933 98.1925C52.981 98.1925 52.201 97.8805 51.593 97.2565ZM63.303 96.5845C63.743 96.1365 63.963 95.5405 63.963 94.7965C63.963 94.0525 63.743 93.4565 63.303 93.0085C62.871 92.5605 62.347 92.3365 61.731 92.3365C61.123 92.3365 60.599 92.5525 60.159 92.9845C59.727 93.4165 59.511 94.0045 59.511 94.7485C59.511 95.4925 59.731 96.0965 60.171 96.5605C60.611 97.0245 61.135 97.2565 61.743 97.2565C62.351 97.2565 62.871 97.0325 63.303 96.5845ZM61.539 98.1925C60.643 98.1925 59.895 97.8725 59.295 97.2325C58.695 96.5845 58.395 95.7605 58.395 94.7605C58.395 93.7525 58.691 92.9405 59.283 92.3245C59.883 91.7005 60.635 91.3885 61.539 91.3885C62.099 91.3885 62.587 91.5205 63.003 91.7845C63.427 92.0485 63.747 92.3925 63.963 92.8165V89.2045H65.067V98.0845H63.963V96.7405C63.747 97.1725 63.427 97.5245 63.003 97.7965C62.587 98.0605 62.099 98.1925 61.539 98.1925Z" fill="#D3D3D6"/>
<g filter="url(#filter2_i_13_682)">
<g clip-path="url(#clip1_13_682)">
<rect x="110" y="0.0844727" width="80" height="80" rx="13.3333" fill="black" fill-opacity="0.1"/>
<path d="M167.083 46.6868V27.7523C167.083 25.237 165.476 25.5863 165.476 25.5863H136.76C134.105 25.5863 134.454 27.1934 134.454 27.1934V46.8265L127.468 50.7392V52.9051H173.162V50.5994L167.083 46.6868ZM165.476 48.3636H167.922V48.8527H165.476V48.3636ZM168.551 49.1322V49.6213H166.105V49.1322H168.551ZM162.891 47.5951H165.337V48.0842H162.891V47.5951ZM162.751 49.1322H165.197V49.6213H162.751L162.751 49.1322ZM162.262 48.8527V48.3636H164.708V48.8527H162.262ZM159.887 47.5951H162.332V48.0842H159.887V47.5951ZM159.398 49.1322H161.843V49.6213H159.398V49.1322ZM159.118 48.8527V48.3636H161.633V48.8527H159.118ZM156.743 47.5951H159.188V48.0842H156.743V47.5951ZM155.974 48.3636H158.42V48.8527H155.974L155.974 48.3636ZM158.559 49.1322V49.6213H156.114V49.1322H158.559ZM153.389 47.5951H155.834V48.0842H153.389V47.5951ZM152.83 48.3636H155.275V48.8527H152.83L152.83 48.3636ZM155.275 49.1322V49.6213H152.83V49.1322H155.275ZM150.385 47.5951H152.83V48.0842H150.385V47.5951ZM149.686 48.8527V48.3636H152.131V48.8527H149.686ZM151.922 49.1322V49.6213H149.476V49.1322H151.922ZM147.31 47.5951H149.756V48.0842H147.31V47.5951ZM146.542 48.8527V48.3636H148.987V48.8527H146.542ZM148.568 49.1322V49.6213H146.123V49.1322H148.568ZM144.306 47.5951H146.751V48.0842H144.306V47.5951ZM143.398 48.8527V48.3636H145.843V48.8527H143.398ZM145.284 49.1322V49.6213H142.839V49.1322H145.284ZM141.232 47.5951H143.677V48.0842H141.232V47.5951ZM137.109 48.8527V48.3636H139.555V48.8527H137.109ZM138.647 49.1322V49.6213H136.201V49.1322H138.647H138.647ZM139.485 49.1322H141.93V49.6213H139.485V49.1322H139.485ZM140.254 48.8527V48.3636H142.699V48.8527H140.254H140.254ZM138.227 47.5951H140.673V48.0842H138.227V47.5951ZM135.223 47.5951H137.668V48.0842H135.223V47.5951H135.223ZM133.895 48.3636H136.341V48.8527H133.895V48.3636H133.895ZM132.847 49.1322H135.293V49.6213H132.847L132.847 49.1322ZM153.738 52.3462H147.73V51.4379L153.738 51.5077V52.3462H153.738ZM127.817 50.8091L128.725 50.2501H172.393L173.092 50.8091H127.817Z" fill="#96EA63"/>
<path d="M154.247 35.702V34.6264C154.213 34.1049 153.773 33.7134 153.231 33.7134H152.216V33.6482C152.182 32.7686 151.437 32.0842 150.523 32.0842C149.576 32.0842 148.831 32.8013 148.831 33.7139H147.748C147.207 33.7469 146.8 34.1702 146.8 34.6917V36.3213H147.545C148.087 36.3543 148.493 36.7776 148.493 37.2991C148.493 37.8532 148.053 38.2769 147.477 38.2769H146.8V39.9712C146.834 40.4927 147.274 40.8842 147.816 40.8842H153.299C153.84 40.8512 154.246 40.4279 154.246 39.9064V38.8961C155.025 38.7332 155.6 38.0813 155.6 37.299C155.6 36.5167 155.025 35.8649 154.247 35.702ZM153.908 38.2772H153.57V39.939C153.536 40.1019 153.4 40.2324 153.231 40.2324H147.782C147.613 40.1994 147.477 40.0695 147.477 39.9064V38.9286H147.545C148.459 38.8956 149.17 38.179 149.17 37.299C149.17 36.386 148.425 35.6693 147.477 35.6693V34.659C147.511 34.4961 147.646 34.3656 147.816 34.3656H149.508V33.6486C149.542 33.1271 149.982 32.7356 150.523 32.7356C151.099 32.7356 151.539 33.1594 151.539 33.7134V34.3653H153.265C153.434 34.3983 153.57 34.5282 153.57 34.6912V36.3213H153.976C154.517 36.3543 154.923 36.7776 154.923 37.2991C154.923 37.8531 154.483 38.2772 153.908 38.2772Z" fill="black"/>
<g opacity="0.4" filter="url(#filter3_f_13_682)">
<ellipse cx="150.028" cy="81.9575" rx="50.752" ry="23.4824" fill="#00FF0D"/>
</g>
</g>
</g>
<path d="M131.636 98.0845L130.988 96.2605H127.292L126.644 98.0845H125.528L128.552 89.7685H129.752L132.764 98.0845H131.636ZM127.604 95.3965H130.676L129.14 91.1005L127.604 95.3965ZM135.409 94.6525V98.0845H134.317V89.7685H137.017C137.953 89.7685 138.665 89.9965 139.153 90.4525C139.649 90.9085 139.897 91.4685 139.897 92.1325C139.897 92.7885 139.717 93.3365 139.357 93.7765C138.997 94.2165 138.457 94.4925 137.737 94.6045L140.029 98.0845H138.661L136.477 94.6525H135.409ZM135.409 90.6445V93.7885H137.017C137.617 93.7885 138.061 93.6525 138.349 93.3805C138.645 93.1005 138.793 92.7125 138.793 92.2165C138.793 91.1685 138.201 90.6445 137.017 90.6445H135.409ZM147.879 96.2965C148.463 95.6965 148.755 94.9045 148.755 93.9205C148.755 92.9365 148.463 92.1485 147.879 91.5565C147.295 90.9565 146.547 90.6565 145.635 90.6565C144.731 90.6565 143.983 90.9565 143.391 91.5565C142.807 92.1485 142.515 92.9365 142.515 93.9205C142.515 94.9045 142.811 95.6965 143.403 96.2965C143.995 96.8965 144.743 97.1965 145.647 97.1965C146.551 97.1965 147.295 96.8965 147.879 96.2965ZM145.647 98.1685C144.455 98.1685 143.451 97.7685 142.635 96.9685C141.819 96.1605 141.411 95.1445 141.411 93.9205C141.411 92.6885 141.819 91.6765 142.635 90.8845C143.451 90.0845 144.455 89.6845 145.647 89.6845C146.839 89.6845 147.839 90.0845 148.647 90.8845C149.463 91.6765 149.871 92.6885 149.871 93.9205C149.871 95.1525 149.463 96.1685 148.647 96.9685C147.839 97.7685 146.839 98.1685 145.647 98.1685ZM155.067 89.7685H156.159V97.2445H159.075V98.0845H155.067V89.7685ZM161.412 90.2245C161.268 90.3685 161.092 90.4405 160.884 90.4405C160.676 90.4405 160.5 90.3685 160.356 90.2245C160.22 90.0805 160.152 89.9045 160.152 89.6965C160.152 89.4885 160.224 89.3125 160.368 89.1685C160.512 89.0245 160.684 88.9525 160.884 88.9525C161.092 88.9525 161.268 89.0245 161.412 89.1685C161.556 89.3125 161.628 89.4885 161.628 89.6965C161.628 89.9045 161.556 90.0805 161.412 90.2245ZM160.332 98.0845V91.4965H161.424V98.0845H160.332ZM165.507 97.1965H166.407V98.0845H165.303C164.159 98.0845 163.587 97.5205 163.587 96.3925V92.3845H162.735V91.4965H163.587V89.8645H164.691V91.4965H166.395V92.3845H164.691V96.3925C164.691 96.6885 164.751 96.8965 164.871 97.0165C164.991 97.1365 165.203 97.1965 165.507 97.1965ZM170.492 98.1925C169.548 98.1925 168.78 97.8805 168.188 97.2565C167.596 96.6325 167.3 95.8085 167.3 94.7845C167.3 93.7605 167.6 92.9405 168.2 92.3245C168.8 91.7005 169.576 91.3885 170.528 91.3885C171.488 91.3885 172.256 91.6845 172.832 92.2765C173.416 92.8605 173.708 93.6085 173.708 94.5205C173.708 94.7525 173.692 94.9685 173.66 95.1685H168.416C168.448 95.8245 168.652 96.3445 169.028 96.7285C169.412 97.1045 169.9 97.2925 170.492 97.2925C170.94 97.2925 171.316 97.1925 171.62 96.9925C171.932 96.7925 172.16 96.5285 172.304 96.2005H173.48C173.272 96.7765 172.912 97.2525 172.4 97.6285C171.896 98.0045 171.26 98.1925 170.492 98.1925ZM172.568 94.3765C172.56 93.7445 172.36 93.2405 171.968 92.8645C171.576 92.4805 171.088 92.2885 170.504 92.2885C169.928 92.2885 169.448 92.4765 169.064 92.8525C168.68 93.2205 168.468 93.7285 168.428 94.3765H172.568Z" fill="#D3D3D6"/>
<g filter="url(#filter4_i_13_682)">
<g clip-path="url(#clip2_13_682)">
<rect y="120.084" width="80" height="80" rx="13.3333" fill="black" fill-opacity="0.1"/>
<path d="M18 162.453L41.5112 175.168V180.733L18 168.019V162.457V162.453Z" fill="#96EA63"/>
<path d="M20.0168 165.395L35.0939 173.587V174.197L20.0168 166.001V165.395ZM20.0168 167.148L35.0939 175.34V175.95L20.0168 167.758V167.148ZM36.5974 174.347L38.8565 175.605V177.956L36.5974 176.702V174.347Z" fill="black"/>
<path d="M61.8544 164.152L41.5266 175.168V180.733L61.8544 169.718V164.152Z" fill="#96EA63"/>
<path d="M61.2803 164.157L41.5117 174.752L18.7168 162.459L38.373 152.005L61.2803 164.157Z" fill="#96EA63" stroke="black" stroke-width="0.676953"/>
<path d="M18 156.361L41.5112 169.075V174.64L18 161.926V156.364V156.361Z" fill="#96EA63"/>
<path d="M20.0168 159.302L35.0939 167.495V168.105L20.0168 159.908V159.302ZM20.0168 161.055L35.0939 169.248V169.857L20.0168 161.665V161.055ZM36.5974 168.254L38.8565 169.512V171.863L36.5974 170.609V168.254Z" fill="black"/>
<path d="M61.8544 158.06L41.5266 169.075V174.64L61.8544 163.625V158.06Z" fill="#96EA63"/>
<path d="M61.2803 158.065L41.5117 168.659L18.7168 156.366L38.373 145.912L61.2803 158.065Z" fill="#96EA63" stroke="black" stroke-width="0.676953"/>
<path d="M18 150.268L41.5112 162.983V168.548L18 155.833V150.272V150.268Z" fill="#96EA63"/>
<path d="M20.0168 153.21L35.0939 161.402V162.012L20.0168 153.816V153.21ZM20.0168 154.963L35.0939 163.155V163.765L20.0168 155.572V154.963ZM36.5974 162.162L38.8565 163.42V165.771L36.5974 164.517V162.162Z" fill="black"/>
<path d="M61.8544 151.967L41.5266 162.982V168.548L61.8544 157.532V151.967Z" fill="#96EA63"/>
<path d="M61.6396 151.97L41.5117 162.759L18.3574 150.272L38.374 139.628L61.6396 151.97Z" fill="#96EA63" stroke="black" stroke-width="0.338476"/>
<g opacity="0.4" filter="url(#filter5_f_13_682)">
<ellipse cx="40.0278" cy="201.958" rx="50.752" ry="23.4824" fill="#00FF0D"/>
</g>
</g>
</g>
<path d="M14.136 218.084L13.488 216.26H9.792L9.144 218.084H8.028L11.052 209.768H12.252L15.264 218.084H14.136ZM10.104 215.396H13.176L11.64 211.1L10.104 215.396ZM17.9089 214.652V218.084H16.8169V209.768H19.5169C20.4529 209.768 21.1649 209.996 21.6529 210.452C22.1489 210.908 22.3969 211.468 22.3969 212.132C22.3969 212.788 22.2169 213.336 21.8569 213.776C21.4969 214.216 20.9569 214.492 20.2369 214.604L22.5289 218.084H21.1609L18.9769 214.652H17.9089ZM17.9089 210.644V213.788H19.5169C20.1169 213.788 20.5609 213.652 20.8489 213.38C21.1449 213.1 21.2929 212.712 21.2929 212.216C21.2929 211.168 20.7009 210.644 19.5169 210.644H17.9089ZM30.3791 216.296C30.9631 215.696 31.2551 214.904 31.2551 213.92C31.2551 212.936 30.9631 212.148 30.3791 211.556C29.7951 210.956 29.0471 210.656 28.1351 210.656C27.2311 210.656 26.4831 210.956 25.8911 211.556C25.3071 212.148 25.0151 212.936 25.0151 213.92C25.0151 214.904 25.3111 215.696 25.9031 216.296C26.4951 216.896 27.2431 217.196 28.1471 217.196C29.0511 217.196 29.7951 216.896 30.3791 216.296ZM28.1471 218.168C26.9551 218.168 25.9511 217.768 25.1351 216.968C24.3191 216.16 23.9111 215.144 23.9111 213.92C23.9111 212.688 24.3191 211.676 25.1351 210.884C25.9511 210.084 26.9551 209.684 28.1471 209.684C29.3391 209.684 30.3391 210.084 31.1471 210.884C31.9631 211.676 32.3711 212.688 32.3711 213.92C32.3711 215.152 31.9631 216.168 31.1471 216.968C30.3391 217.768 29.3391 218.168 28.1471 218.168ZM41.3715 218.156C40.1795 218.156 39.1755 217.756 38.3595 216.956C37.5435 216.156 37.1355 215.144 37.1355 213.92C37.1355 212.688 37.5435 211.676 38.3595 210.884C39.1755 210.084 40.1795 209.684 41.3715 209.684C42.2355 209.684 43.0035 209.888 43.6755 210.296C44.3555 210.704 44.8555 211.292 45.1755 212.06H43.8555C43.3595 211.124 42.5315 210.656 41.3715 210.656C40.4675 210.656 39.7195 210.956 39.1275 211.556C38.5435 212.148 38.2515 212.936 38.2515 213.92C38.2515 214.904 38.5435 215.696 39.1275 216.296C39.7195 216.896 40.4675 217.196 41.3715 217.196C41.9235 217.196 42.4155 217.076 42.8475 216.836C43.2795 216.588 43.6155 216.236 43.8555 215.78H45.1755C44.8555 216.548 44.3555 217.136 43.6755 217.544C43.0035 217.952 42.2355 218.156 41.3715 218.156ZM47.0156 218.084V209.204H48.1076V218.084H47.0156ZM51.1102 210.224C50.9662 210.368 50.7902 210.44 50.5822 210.44C50.3742 210.44 50.1982 210.368 50.0542 210.224C49.9182 210.08 49.8502 209.904 49.8502 209.696C49.8502 209.488 49.9222 209.312 50.0662 209.168C50.2102 209.024 50.3822 208.952 50.5822 208.952C50.7902 208.952 50.9662 209.024 51.1102 209.168C51.2542 209.312 51.3262 209.488 51.3262 209.696C51.3262 209.904 51.2542 210.08 51.1102 210.224ZM50.0302 218.084V211.496H51.1222V218.084H50.0302ZM55.8047 218.192C54.8607 218.192 54.0927 217.88 53.5007 217.256C52.9087 216.632 52.6127 215.808 52.6127 214.784C52.6127 213.76 52.9127 212.94 53.5127 212.324C54.1127 211.7 54.8887 211.388 55.8407 211.388C56.8007 211.388 57.5687 211.684 58.1447 212.276C58.7287 212.86 59.0207 213.608 59.0207 214.52C59.0207 214.752 59.0047 214.968 58.9727 215.168H53.7287C53.7607 215.824 53.9647 216.344 54.3407 216.728C54.7247 217.104 55.2127 217.292 55.8047 217.292C56.2527 217.292 56.6287 217.192 56.9327 216.992C57.2447 216.792 57.4727 216.528 57.6167 216.2H58.7927C58.5847 216.776 58.2247 217.252 57.7127 217.628C57.2087 218.004 56.5727 218.192 55.8047 218.192ZM57.8807 214.376C57.8727 213.744 57.6727 213.24 57.2807 212.864C56.8887 212.48 56.4007 212.288 55.8167 212.288C55.2407 212.288 54.7607 212.476 54.3767 212.852C53.9927 213.22 53.7807 213.728 53.7407 214.376H57.8807ZM61.5926 211.496V212.564C62.0406 211.78 62.7566 211.388 63.7406 211.388C64.4686 211.388 65.0766 211.632 65.5646 212.12C66.0526 212.6 66.2966 213.288 66.2966 214.184V218.084H65.2166V214.364C65.2166 213.7 65.0566 213.196 64.7366 212.852C64.4166 212.508 63.9726 212.336 63.4046 212.336C62.8446 212.336 62.4006 212.508 62.0726 212.852C61.7526 213.196 61.5926 213.7 61.5926 214.364V218.084H60.5006V211.496H61.5926ZM70.3158 217.196H71.2158V218.084H70.1118C68.9678 218.084 68.3958 217.52 68.3958 216.392V212.384H67.5438V211.496H68.3958V209.864H69.4998V211.496H71.2038V212.384H69.4998V216.392C69.4998 216.688 69.5598 216.896 69.6798 217.016C69.7998 217.136 70.0118 217.196 70.3158 217.196Z" fill="#D3D3D6"/>
<g filter="url(#filter6_i_13_682)">
<g clip-path="url(#clip3_13_682)">
<rect x="110" y="120.084" width="80" height="80" rx="13.3333" fill="black" fill-opacity="0.1"/>
<g clip-path="url(#clip4_13_682)">
<path d="M139 139.751H140.037C140.271 139.752 140.497 139.833 140.676 139.983C140.856 140.132 140.977 140.339 141.02 140.569L143.647 154.569C143.674 154.713 143.669 154.861 143.632 155.003C143.595 155.145 143.528 155.277 143.434 155.389C143.341 155.502 143.224 155.593 143.091 155.656C142.958 155.718 142.814 155.751 142.667 155.751H140.75C140.505 155.753 140.267 155.665 140.083 155.503C139.899 155.342 139.78 155.118 139.75 154.874L138 140.874C137.983 140.743 137.992 140.609 138.027 140.481C138.062 140.353 138.122 140.234 138.204 140.129C138.285 140.025 138.387 139.938 138.503 139.873C138.618 139.808 138.746 139.767 138.877 139.751H139ZM160.667 139.751H159.627C159.394 139.751 159.167 139.833 158.987 139.982C158.808 140.131 158.686 140.339 158.643 140.569L156.02 154.569C155.993 154.713 155.999 154.861 156.035 155.003C156.072 155.145 156.14 155.277 156.233 155.389C156.327 155.502 156.444 155.593 156.576 155.656C156.709 155.718 156.854 155.751 157 155.751H158.914C159.16 155.753 159.397 155.665 159.581 155.503C159.766 155.342 159.884 155.118 159.914 154.874L161.667 140.874C161.684 140.743 161.675 140.609 161.64 140.48C161.605 140.352 161.544 140.232 161.462 140.128C161.38 140.023 161.278 139.936 161.162 139.872C161.046 139.807 160.918 139.766 160.786 139.751H160.666H160.667Z" fill="#96EA63"/>
<path d="M137.948 173.085H138.281L138.773 173.768L138.668 174.085H137.613L137.948 173.085ZM135.053 173.085H134.721L134.228 173.768L134.333 174.085H135.388L135.053 173.085Z" fill="#175AA7"/>
<path d="M134 173.085H139L138 176.085H135L134 173.085ZM161 173.085H166L165 176.085H162L161 173.085Z" fill="#96EA63"/>
<path d="M132 164.085H168C168.531 164.085 169.04 164.295 169.415 164.671C169.79 165.046 170 165.554 170 166.085V172.085C170 172.615 169.79 173.124 169.415 173.499C169.04 173.874 168.531 174.085 168 174.085H132C131.47 174.085 130.961 173.874 130.586 173.499C130.211 173.124 130 172.615 130 172.085V166.085C130 165.554 130.211 165.046 130.586 164.671C130.961 164.295 131.47 164.085 132 164.085Z" fill="#96EA63"/>
<path d="M135.747 163.752H169.713L162.877 153.989C162.599 153.606 162.234 153.294 161.812 153.079C161.39 152.864 160.924 152.752 160.45 152.752H139.507C139.034 152.752 138.567 152.864 138.145 153.079C137.723 153.294 137.358 153.606 137.08 153.989L135.747 155.829L130.2 163.752H135.747Z" fill="#96EA63"/>
<path d="M156.84 170.835H159.34V168.335H156.84V170.835ZM161.84 170.835H164.34V168.335H161.84V170.835ZM138 169.085H139V170.085H138V169.085ZM141 169.085H142V170.085H141V169.085ZM135 169.085H136V170.085H135V169.085ZM144 169.085H145V170.085H144V169.085Z" fill="black"/>
</g>
<g opacity="0.4" filter="url(#filter7_f_13_682)">
<ellipse cx="150.028" cy="201.958" rx="50.752" ry="23.4824" fill="#00FF0D"/>
</g>
</g>
</g>
<path d="M130.636 218.084L129.988 216.26H126.292L125.644 218.084H124.528L127.552 209.768H128.752L131.764 218.084H130.636ZM126.604 215.396H129.676L128.14 211.1L126.604 215.396ZM134.409 214.652V218.084H133.317V209.768H136.017C136.953 209.768 137.665 209.996 138.153 210.452C138.649 210.908 138.897 211.468 138.897 212.132C138.897 212.788 138.717 213.336 138.357 213.776C137.997 214.216 137.457 214.492 136.737 214.604L139.029 218.084H137.661L135.477 214.652H134.409ZM134.409 210.644V213.788H136.017C136.617 213.788 137.061 213.652 137.349 213.38C137.645 213.1 137.793 212.712 137.793 212.216C137.793 211.168 137.201 210.644 136.017 210.644H134.409ZM146.879 216.296C147.463 215.696 147.755 214.904 147.755 213.92C147.755 212.936 147.463 212.148 146.879 211.556C146.295 210.956 145.547 210.656 144.635 210.656C143.731 210.656 142.983 210.956 142.391 211.556C141.807 212.148 141.515 212.936 141.515 213.92C141.515 214.904 141.811 215.696 142.403 216.296C142.995 216.896 143.743 217.196 144.647 217.196C145.551 217.196 146.295 216.896 146.879 216.296ZM144.647 218.168C143.455 218.168 142.451 217.768 141.635 216.968C140.819 216.16 140.411 215.144 140.411 213.92C140.411 212.688 140.819 211.676 141.635 210.884C142.451 210.084 143.455 209.684 144.647 209.684C145.839 209.684 146.839 210.084 147.647 210.884C148.463 211.676 148.871 212.688 148.871 213.92C148.871 215.152 148.463 216.168 147.647 216.968C146.839 217.768 145.839 218.168 144.647 218.168ZM154.067 209.768H155.159V217.244H158.075V218.084H154.067V209.768ZM160.412 210.224C160.268 210.368 160.092 210.44 159.884 210.44C159.676 210.44 159.5 210.368 159.356 210.224C159.22 210.08 159.152 209.904 159.152 209.696C159.152 209.488 159.224 209.312 159.368 209.168C159.512 209.024 159.684 208.952 159.884 208.952C160.092 208.952 160.268 209.024 160.412 209.168C160.556 209.312 160.628 209.488 160.628 209.696C160.628 209.904 160.556 210.08 160.412 210.224ZM159.332 218.084V211.496H160.424V218.084H159.332ZM163.439 211.496V212.564C163.887 211.78 164.603 211.388 165.587 211.388C166.315 211.388 166.923 211.632 167.411 212.12C167.899 212.6 168.143 213.288 168.143 214.184V218.084H167.063V214.364C167.063 213.7 166.903 213.196 166.583 212.852C166.263 212.508 165.819 212.336 165.251 212.336C164.691 212.336 164.247 212.508 163.919 212.852C163.599 213.196 163.439 213.7 163.439 214.364V218.084H162.347V211.496H163.439ZM171.094 218.084H170.002V209.204H171.094V214.412L173.614 211.496H175.15L172.042 214.772L175.15 218.084H173.674L171.094 215.192V218.084Z" fill="#D3D3D6"/>
<defs>
<filter id="filter0_i_13_682" x="-5.33333" y="-5.24886" width="90.6667" height="90.6667" filterUnits="userSpaceOnUse" color-interpolation-filters="sRGB">
<feFlood flood-opacity="0" result="BackgroundImageFix"/>
<feBlend mode="normal" in="SourceGraphic" in2="BackgroundImageFix" result="shape"/>
<feColorMatrix in="SourceAlpha" type="matrix" values="0 0 0 0 0 0 0 0 0 0 0 0 0 0 0 0 0 0 127 0" result="hardAlpha"/>
<feMorphology radius="85.3333" operator="erode" in="SourceAlpha" result="effect1_innerShadow_13_682"/>
<feOffset dy="-5.33333"/>
<feGaussianBlur stdDeviation="2.66667"/>
<feComposite in2="hardAlpha" operator="arithmetic" k2="-1" k3="1"/>
<feColorMatrix type="matrix" values="0 0 0 0 1 0 0 0 0 1 0 0 0 0 1 0 0 0 0.05 0"/>
<feBlend mode="normal" in2="shape" result="effect1_innerShadow_13_682"/>
</filter>
<filter id="filter1_f_13_682" x="-62.6302" y="6.56902" width="205.316" height="150.777" filterUnits="userSpaceOnUse" color-interpolation-filters="sRGB">
<feFlood flood-opacity="0" result="BackgroundImageFix"/>
<feBlend mode="normal" in="SourceGraphic" in2="BackgroundImageFix" result="shape"/>
<feGaussianBlur stdDeviation="25.953" result="effect1_foregroundBlur_13_682"/>
</filter>
<filter id="filter2_i_13_682" x="104.667" y="-5.24886" width="90.6667" height="90.6667" filterUnits="userSpaceOnUse" color-interpolation-filters="sRGB">
<feFlood flood-opacity="0" result="BackgroundImageFix"/>
<feBlend mode="normal" in="SourceGraphic" in2="BackgroundImageFix" result="shape"/>
<feColorMatrix in="SourceAlpha" type="matrix" values="0 0 0 0 0 0 0 0 0 0 0 0 0 0 0 0 0 0 127 0" result="hardAlpha"/>
<feMorphology radius="85.3333" operator="erode" in="SourceAlpha" result="effect1_innerShadow_13_682"/>
<feOffset dy="-5.33333"/>
<feGaussianBlur stdDeviation="2.66667"/>
<feComposite in2="hardAlpha" operator="arithmetic" k2="-1" k3="1"/>
<feColorMatrix type="matrix" values="0 0 0 0 1 0 0 0 0 1 0 0 0 0 1 0 0 0 0.05 0"/>
<feBlend mode="normal" in2="shape" result="effect1_innerShadow_13_682"/>
</filter>
<filter id="filter3_f_13_682" x="47.3698" y="6.56902" width="205.316" height="150.777" filterUnits="userSpaceOnUse" color-interpolation-filters="sRGB">
<feFlood flood-opacity="0" result="BackgroundImageFix"/>
<feBlend mode="normal" in="SourceGraphic" in2="BackgroundImageFix" result="shape"/>
<feGaussianBlur stdDeviation="25.953" result="effect1_foregroundBlur_13_682"/>
</filter>
<filter id="filter4_i_13_682" x="-5.33333" y="114.751" width="90.6667" height="90.6667" filterUnits="userSpaceOnUse" color-interpolation-filters="sRGB">
<feFlood flood-opacity="0" result="BackgroundImageFix"/>
<feBlend mode="normal" in="SourceGraphic" in2="BackgroundImageFix" result="shape"/>
<feColorMatrix in="SourceAlpha" type="matrix" values="0 0 0 0 0 0 0 0 0 0 0 0 0 0 0 0 0 0 127 0" result="hardAlpha"/>
<feMorphology radius="85.3333" operator="erode" in="SourceAlpha" result="effect1_innerShadow_13_682"/>
<feOffset dy="-5.33333"/>
<feGaussianBlur stdDeviation="2.66667"/>
<feComposite in2="hardAlpha" operator="arithmetic" k2="-1" k3="1"/>
<feColorMatrix type="matrix" values="0 0 0 0 1 0 0 0 0 1 0 0 0 0 1 0 0 0 0.05 0"/>
<feBlend mode="normal" in2="shape" result="effect1_innerShadow_13_682"/>
</filter>
<filter id="filter5_f_13_682" x="-62.6302" y="126.569" width="205.316" height="150.777" filterUnits="userSpaceOnUse" color-interpolation-filters="sRGB">
<feFlood flood-opacity="0" result="BackgroundImageFix"/>
<feBlend mode="normal" in="SourceGraphic" in2="BackgroundImageFix" result="shape"/>
<feGaussianBlur stdDeviation="25.953" result="effect1_foregroundBlur_13_682"/>
</filter>
<filter id="filter6_i_13_682" x="104.667" y="114.751" width="90.6667" height="90.6667" filterUnits="userSpaceOnUse" color-interpolation-filters="sRGB">
<feFlood flood-opacity="0" result="BackgroundImageFix"/>
<feBlend mode="normal" in="SourceGraphic" in2="BackgroundImageFix" result="shape"/>
<feColorMatrix in="SourceAlpha" type="matrix" values="0 0 0 0 0 0 0 0 0 0 0 0 0 0 0 0 0 0 127 0" result="hardAlpha"/>
<feMorphology radius="85.3333" operator="erode" in="SourceAlpha" result="effect1_innerShadow_13_682"/>
<feOffset dy="-5.33333"/>
<feGaussianBlur stdDeviation="2.66667"/>
<feComposite in2="hardAlpha" operator="arithmetic" k2="-1" k3="1"/>
<feColorMatrix type="matrix" values="0 0 0 0 1 0 0 0 0 1 0 0 0 0 1 0 0 0 0.05 0"/>
<feBlend mode="normal" in2="shape" result="effect1_innerShadow_13_682"/>
</filter>
<filter id="filter7_f_13_682" x="47.3698" y="126.569" width="205.316" height="150.777" filterUnits="userSpaceOnUse" color-interpolation-filters="sRGB">
<feFlood flood-opacity="0" result="BackgroundImageFix"/>
<feBlend mode="normal" in="SourceGraphic" in2="BackgroundImageFix" result="shape"/>
<feGaussianBlur stdDeviation="25.953" result="effect1_foregroundBlur_13_682"/>
</filter>
<clipPath id="clip0_13_682">
<rect y="0.0844727" width="80" height="80" rx="13.3333" fill="white"/>
</clipPath>
<clipPath id="clip1_13_682">
<rect x="110" y="0.0844727" width="80" height="80" rx="13.3333" fill="white"/>
</clipPath>
<clipPath id="clip2_13_682">
<rect y="120.084" width="80" height="80" rx="13.3333" fill="white"/>
</clipPath>
<clipPath id="clip3_13_682">
<rect x="110" y="120.084" width="80" height="80" rx="13.3333" fill="white"/>
</clipPath>
<clipPath id="clip4_13_682">
<rect width="40" height="40" fill="white" transform="translate(130 140.085)"/>
</clipPath>
</defs>
</svg>
