<svg width="84" height="84" viewBox="0 0 84 84" fill="none" xmlns="http://www.w3.org/2000/svg">
<path d="M31.5 54.0498H52.5C58.6025 54.0498 63.5496 58.9972 63.5498 65.0996V70.3496C63.5498 71.7918 63.0133 73.1792 62.0498 74.2432L61.8516 74.4512C60.7638 75.5389 59.2883 76.1504 57.75 76.1504H26.25C24.8079 76.1503 23.4213 75.6128 22.3574 74.6494L22.1494 74.4512C21.0617 73.3635 20.4502 71.8879 20.4502 70.3496V65.0996C20.4504 58.9972 25.3976 54.0499 31.5 54.0498ZM38.8506 11H44.1006C51.3633 11.0002 57.25 16.8877 57.25 24.1504V31.5C57.25 38.7627 51.3633 44.6502 44.1006 44.6504H38.8506C31.5877 44.6504 25.7002 38.7629 25.7002 31.5V24.1504C25.7002 16.8875 31.5877 11 38.8506 11Z" stroke="black"/>
<path d="M15.75 51.9498H21.9531C17.8929 54.9033 15.25 59.6923 15.25 65.1002V70.3502C15.25 70.8934 15.2911 71.4274 15.3672 71.9498H11.5498C10.0118 71.9498 8.53685 71.339 7.44922 70.2516C6.36151 69.1639 5.75 67.6883 5.75 66.15V61.9498C5.75011 56.4269 10.2271 51.9498 15.75 51.9498ZM68.7754 51.9498C71.1312 51.9499 73.3967 52.8272 75.1348 54.401L75.4746 54.7252C77.2515 56.5021 78.25 58.9125 78.25 61.4254V65.1002C78.25 66.5422 77.7132 67.9289 76.75 68.9928L76.5508 69.2008C75.4631 70.2885 73.9884 70.9 72.4502 70.9H68.7354C68.7443 70.7179 68.749 70.5345 68.749 70.3502V65.1002C68.749 59.6923 66.1058 54.9033 62.0439 51.9498H68.7754ZM22.8223 14.2155C21.3456 16.5787 20.5 19.3049 20.5 22.2096V33.4401C20.5 37.2829 21.9771 40.8112 24.4385 43.6002H24.1504C16.8875 43.6002 11 37.7127 11 30.4498V27.3004C11 20.4857 16.1832 14.8812 22.8223 14.2155ZM60.0869 14.152C67.2405 14.2783 73 20.1167 73 27.3004V30.4498C73 37.7127 67.1125 43.6002 59.8496 43.6002H58.5107C60.9723 40.8111 62.4502 37.2831 62.4502 33.4401V22.2096C62.4502 19.2793 61.5886 16.5301 60.0869 14.152Z" fill="#D9F2FF" stroke="black"/>
</svg>
