<svg width="78" height="78" viewBox="0 0 78 78" fill="none" xmlns="http://www.w3.org/2000/svg">
<circle cx="39" cy="39" r="38.5" stroke="black"/>
<path d="M52.0074 14.2367C53.5432 13.1398 55.6692 14.0775 55.9338 15.9034L55.9534 16.0829L56.3479 21.3165C56.421 22.2858 56.8932 23.178 57.6468 23.7829L57.801 23.9003L62.0484 26.9387C63.618 28.0615 63.3668 30.4382 61.6583 31.2338L61.4885 31.3064L56.7909 33.1064C55.8595 33.4634 55.1281 34.1997 54.7745 35.1257L54.7086 35.3127L53.1776 40.122C52.6002 41.9361 50.3071 42.4477 49.0099 41.1144L48.8875 40.9795L45.4271 36.8905C44.8088 36.16 43.92 35.7175 42.9703 35.6591L42.7796 35.6518L37.423 35.6158C35.5189 35.6027 34.3496 33.5632 35.2386 31.9286L35.3311 31.7724L38.042 27.5152C38.5778 26.6737 38.7277 25.6467 38.4604 24.6921L38.4013 24.5027L36.7727 19.7429C36.1481 17.917 37.7349 16.1278 39.5875 16.4734L39.7677 16.5146L44.8213 17.8277C45.7621 18.0722 46.7597 17.9142 47.5759 17.3968L47.7369 17.2878L52.0074 14.2367Z" fill="#D8F3FE" stroke="black"/>
</svg>
