<svg width="244" height="183" viewBox="0 0 244 183" fill="none" xmlns="http://www.w3.org/2000/svg">
<g filter="url(#filter0_i_13_1041)">
<g clip-path="url(#clip0_13_1041)">
<rect y="0.0844727" width="244" height="162" rx="14" fill="black" fill-opacity="0.1"/>
<g opacity="0.4" filter="url(#filter1_f_13_1041)">
<ellipse cx="122.085" cy="216.797" rx="154.793" ry="71.6214" fill="#00FF0D"/>
</g>
</g>
</g>
<path d="M17.66 20.3845H18.94C19.8133 20.3845 20.48 20.1445 20.94 19.6645C21.4 19.1845 21.63 18.5145 21.63 17.6545C21.63 16.7945 21.4 16.1245 20.94 15.6445C20.48 15.1645 19.8133 14.9245 18.94 14.9245H17.66V20.3845ZM18.94 14.1545C20.06 14.1545 20.9433 14.4678 21.59 15.0945C22.2367 15.7211 22.56 16.5745 22.56 17.6545C22.56 18.7345 22.2367 19.5778 21.59 20.1845C20.9433 20.7845 20.06 21.0845 18.94 21.0845H16.75V14.1545H18.94ZM27.5429 19.8345C27.9096 19.4611 28.0929 18.9645 28.0929 18.3445C28.0929 17.7245 27.9096 17.2278 27.5429 16.8545C27.1829 16.4811 26.7462 16.2945 26.2329 16.2945C25.7262 16.2945 25.2896 16.4745 24.9229 16.8345C24.5629 17.1945 24.3829 17.6845 24.3829 18.3045C24.3829 18.9245 24.5662 19.4278 24.9329 19.8145C25.2996 20.2011 25.7362 20.3945 26.2429 20.3945C26.7496 20.3945 27.1829 20.2078 27.5429 19.8345ZM26.0729 21.1745C25.3262 21.1745 24.7029 20.9078 24.2029 20.3745C23.7029 19.8345 23.4529 19.1478 23.4529 18.3145C23.4529 17.4745 23.6996 16.7978 24.1929 16.2845C24.6929 15.7645 25.3196 15.5045 26.0729 15.5045C26.5396 15.5045 26.9462 15.6145 27.2929 15.8345C27.6462 16.0545 27.9129 16.3411 28.0929 16.6945V15.5945H29.0129V21.0845H28.0929V19.9645C27.9129 20.3245 27.6462 20.6178 27.2929 20.8445C26.9462 21.0645 26.5396 21.1745 26.0729 21.1745ZM30.4121 17.1445C30.4121 16.6845 30.6021 16.2978 30.9821 15.9845C31.3688 15.6645 31.8654 15.5045 32.4721 15.5045C33.0854 15.5045 33.5654 15.6611 33.9121 15.9745C34.2588 16.2811 34.4488 16.7045 34.4821 17.2445H33.5421C33.5288 16.9378 33.4254 16.6911 33.2321 16.5045C33.0388 16.3178 32.7688 16.2245 32.4221 16.2245C32.0821 16.2245 31.8121 16.3078 31.6121 16.4745C31.4188 16.6345 31.3221 16.8445 31.3221 17.1045C31.3221 17.3578 31.4321 17.5545 31.6521 17.6945C31.8788 17.8345 32.1488 17.9378 32.4621 18.0045C32.7821 18.0645 33.0988 18.1378 33.4121 18.2245C33.7321 18.3045 34.0021 18.4611 34.2221 18.6945C34.4488 18.9211 34.5621 19.2478 34.5621 19.6745C34.5621 20.0945 34.3688 20.4511 33.9821 20.7445C33.6021 21.0311 33.1054 21.1745 32.4921 21.1745C31.8788 21.1745 31.3854 21.0211 31.0121 20.7145C30.6454 20.4078 30.4454 19.9845 30.4121 19.4445H31.3521C31.3654 19.7511 31.4721 19.9978 31.6721 20.1845C31.8788 20.3645 32.1588 20.4545 32.5121 20.4545C32.8721 20.4545 33.1521 20.3778 33.3521 20.2245C33.5588 20.0711 33.6621 19.8778 33.6621 19.6445C33.6621 19.4045 33.5821 19.2145 33.4221 19.0745C33.2621 18.9345 33.0621 18.8378 32.8221 18.7845C32.5821 18.7311 32.3188 18.6678 32.0321 18.5945C31.7521 18.5211 31.4921 18.4445 31.2521 18.3645C31.0121 18.2778 30.8121 18.1311 30.6521 17.9245C30.4921 17.7178 30.4121 17.4578 30.4121 17.1445ZM36.8858 13.6845V16.4845C37.2591 15.8311 37.8558 15.5045 38.6758 15.5045C39.2824 15.5045 39.7891 15.7078 40.1958 16.1145C40.6024 16.5145 40.8058 17.0878 40.8058 17.8345V21.0845H39.9058V17.9845C39.9058 17.4311 39.7724 17.0111 39.5058 16.7245C39.2391 16.4378 38.8691 16.2945 38.3958 16.2945C37.9291 16.2945 37.5591 16.4378 37.2858 16.7245C37.0191 17.0111 36.8858 17.4311 36.8858 17.9845V21.0845H35.9758V13.6845H36.8858ZM45.1151 20.3945C45.6284 20.3945 46.0651 20.2045 46.4251 19.8245C46.7917 19.4378 46.9751 18.9345 46.9751 18.3145C46.9751 17.6878 46.7917 17.1945 46.4251 16.8345C46.0651 16.4745 45.6284 16.2945 45.1151 16.2945C44.6084 16.2945 44.1717 16.4811 43.8051 16.8545C43.4451 17.2278 43.2651 17.7245 43.2651 18.3445C43.2651 18.9578 43.4451 19.4545 43.8051 19.8345C44.1717 20.2078 44.6084 20.3945 45.1151 20.3945ZM45.2951 15.5045C46.0484 15.5045 46.6717 15.7645 47.1651 16.2845C47.6651 16.7978 47.9151 17.4745 47.9151 18.3145C47.9151 19.1478 47.6651 19.8345 47.1651 20.3745C46.6651 20.9078 46.0417 21.1745 45.2951 21.1745C44.8284 21.1745 44.4184 21.0645 44.0651 20.8445C43.7184 20.6178 43.4517 20.3245 43.2651 19.9645V21.0845H42.3551V13.6845H43.2651V16.6945C43.4517 16.3411 43.7184 16.0545 44.0651 15.8345C44.4184 15.6145 44.8284 15.5045 45.2951 15.5045ZM51.4943 20.4245C52.0076 20.4245 52.451 20.2411 52.8243 19.8745C53.2043 19.5011 53.3943 18.9878 53.3943 18.3345C53.3943 17.6811 53.2143 17.1711 52.8543 16.8045C52.4943 16.4378 52.0543 16.2545 51.5343 16.2545C51.021 16.2545 50.591 16.4378 50.2443 16.8045C49.8976 17.1711 49.7243 17.6845 49.7243 18.3445C49.7243 18.9978 49.891 19.5078 50.2243 19.8745C50.5576 20.2411 50.981 20.4245 51.4943 20.4245ZM49.5443 20.3945C49.0443 19.8745 48.7943 19.1911 48.7943 18.3445C48.7943 17.4978 49.0576 16.8145 49.5843 16.2945C50.111 15.7678 50.771 15.5045 51.5643 15.5045C52.3576 15.5045 53.0176 15.7678 53.5443 16.2945C54.071 16.8145 54.3343 17.4978 54.3343 18.3445C54.3343 19.1845 54.0576 19.8678 53.5043 20.3945C52.9576 20.9145 52.2876 21.1745 51.4943 21.1745C50.701 21.1745 50.051 20.9145 49.5443 20.3945ZM59.3027 19.8345C59.6693 19.4611 59.8527 18.9645 59.8527 18.3445C59.8527 17.7245 59.6693 17.2278 59.3027 16.8545C58.9427 16.4811 58.506 16.2945 57.9927 16.2945C57.486 16.2945 57.0493 16.4745 56.6827 16.8345C56.3227 17.1945 56.1427 17.6845 56.1427 18.3045C56.1427 18.9245 56.326 19.4278 56.6927 19.8145C57.0593 20.2011 57.496 20.3945 58.0027 20.3945C58.5093 20.3945 58.9427 20.2078 59.3027 19.8345ZM57.8327 21.1745C57.086 21.1745 56.4627 20.9078 55.9627 20.3745C55.4627 19.8345 55.2127 19.1478 55.2127 18.3145C55.2127 17.4745 55.4593 16.7978 55.9527 16.2845C56.4527 15.7645 57.0793 15.5045 57.8327 15.5045C58.2993 15.5045 58.706 15.6145 59.0527 15.8345C59.406 16.0545 59.6727 16.3411 59.8527 16.6945V15.5945H60.7727V21.0845H59.8527V19.9645C59.6727 20.3245 59.406 20.6178 59.0527 20.8445C58.706 21.0645 58.2993 21.1745 57.8327 21.1745ZM63.2819 15.5945V16.5245C63.6085 15.8445 64.1652 15.5045 64.9519 15.5045V16.4545H64.7119C64.2452 16.4545 63.8885 16.5778 63.6419 16.8245C63.4019 17.0645 63.2819 17.4845 63.2819 18.0845V21.0845H62.3719V15.5945H63.2819ZM69.8835 19.8345C70.2502 19.4611 70.4335 18.9645 70.4335 18.3445C70.4335 17.7245 70.2502 17.2278 69.8835 16.8545C69.5235 16.4811 69.0868 16.2945 68.5735 16.2945C68.0668 16.2945 67.6302 16.4745 67.2635 16.8345C66.9035 17.1945 66.7235 17.6845 66.7235 18.3045C66.7235 18.9245 66.9068 19.4278 67.2735 19.8145C67.6402 20.2011 68.0768 20.3945 68.5835 20.3945C69.0902 20.3945 69.5235 20.2078 69.8835 19.8345ZM68.4135 21.1745C67.6668 21.1745 67.0435 20.9078 66.5435 20.3745C66.0435 19.8345 65.7935 19.1478 65.7935 18.3145C65.7935 17.4745 66.0402 16.7978 66.5335 16.2845C67.0335 15.7645 67.6602 15.5045 68.4135 15.5045C68.8802 15.5045 69.2868 15.6145 69.6335 15.8345C69.9868 16.0545 70.2535 16.3411 70.4335 16.6945V13.6845H71.3535V21.0845H70.4335V19.9645C70.2535 20.3245 69.9868 20.6178 69.6335 20.8445C69.2868 21.0645 68.8802 21.1745 68.4135 21.1745Z" fill="#048417"/>
<path d="M20.424 49.0845L19.992 47.8685H17.528L17.096 49.0845H16.352L18.368 43.5405H19.168L21.176 49.0845H20.424ZM17.736 47.2925H19.784L18.76 44.4285L17.736 47.2925ZM22.2112 49.0845V43.1645H22.9392V49.0845H22.2112ZM24.2209 49.0845V43.1645H24.9489V49.0845H24.2209ZM32.3651 43.5405H33.0931V49.0845H32.3651L29.4371 44.6845V49.0845H28.7091V43.5405H29.4371L32.3651 47.9405V43.5405ZM36.247 48.5565C36.6577 48.5565 37.0123 48.4098 37.311 48.1165C37.615 47.8178 37.767 47.4071 37.767 46.8845C37.767 46.3618 37.623 45.9538 37.335 45.6605C37.047 45.3671 36.695 45.2205 36.279 45.2205C35.8683 45.2205 35.5243 45.3671 35.247 45.6605C34.9697 45.9538 34.831 46.3645 34.831 46.8925C34.831 47.4151 34.9643 47.8231 35.231 48.1165C35.4977 48.4098 35.8363 48.5565 36.247 48.5565ZM34.687 48.5325C34.287 48.1165 34.087 47.5698 34.087 46.8925C34.087 46.2151 34.2977 45.6685 34.719 45.2525C35.1403 44.8311 35.6683 44.6205 36.303 44.6205C36.9377 44.6205 37.4657 44.8311 37.887 45.2525C38.3083 45.6685 38.519 46.2151 38.519 46.8925C38.519 47.5645 38.2977 48.1111 37.855 48.5325C37.4177 48.9485 36.8817 49.1565 36.247 49.1565C35.6123 49.1565 35.0923 48.9485 34.687 48.5325ZM42.4937 48.0845C42.787 47.7858 42.9337 47.3885 42.9337 46.8925C42.9337 46.3965 42.787 45.9991 42.4937 45.7005C42.2057 45.4018 41.8564 45.2525 41.4457 45.2525C41.0404 45.2525 40.691 45.3965 40.3977 45.6845C40.1097 45.9725 39.9657 46.3645 39.9657 46.8605C39.9657 47.3565 40.1124 47.7591 40.4057 48.0685C40.699 48.3778 41.0484 48.5325 41.4537 48.5325C41.859 48.5325 42.2057 48.3831 42.4937 48.0845ZM41.3177 49.1565C40.7204 49.1565 40.2217 48.9431 39.8217 48.5165C39.4217 48.0845 39.2217 47.5351 39.2217 46.8685C39.2217 46.1965 39.419 45.6551 39.8137 45.2445C40.2137 44.8285 40.715 44.6205 41.3177 44.6205C41.691 44.6205 42.0164 44.7085 42.2937 44.8845C42.5764 45.0605 42.7897 45.2898 42.9337 45.5725V43.1645H43.6697V49.0845H42.9337V48.1885C42.7897 48.4765 42.5764 48.7111 42.2937 48.8925C42.0164 49.0685 41.691 49.1565 41.3177 49.1565ZM46.7891 49.1565C46.1597 49.1565 45.6477 48.9485 45.2531 48.5325C44.8584 48.1165 44.6611 47.5671 44.6611 46.8845C44.6611 46.2018 44.8611 45.6551 45.2611 45.2445C45.6611 44.8285 46.1784 44.6205 46.8131 44.6205C47.4531 44.6205 47.9651 44.8178 48.3491 45.2125C48.7384 45.6018 48.9331 46.1005 48.9331 46.7085C48.9331 46.8631 48.9224 47.0071 48.9011 47.1405H45.4051C45.4264 47.5778 45.5624 47.9245 45.8131 48.1805C46.0691 48.4311 46.3944 48.5565 46.7891 48.5565C47.0877 48.5565 47.3384 48.4898 47.5411 48.3565C47.7491 48.2231 47.9011 48.0471 47.9971 47.8285H48.7811C48.6424 48.2125 48.4024 48.5298 48.0611 48.7805C47.7251 49.0311 47.3011 49.1565 46.7891 49.1565ZM48.1731 46.6125C48.1677 46.1911 48.0344 45.8551 47.7731 45.6045C47.5117 45.3485 47.1864 45.2205 46.7971 45.2205C46.4131 45.2205 46.0931 45.3458 45.8371 45.5965C45.5811 45.8418 45.4397 46.1805 45.4131 46.6125H48.1731ZM49.7597 45.9325C49.7597 45.5645 49.9117 45.2551 50.2157 45.0045C50.525 44.7485 50.9224 44.6205 51.4077 44.6205C51.8984 44.6205 52.2824 44.7458 52.5597 44.9965C52.837 45.2418 52.989 45.5805 53.0157 46.0125H52.2637C52.253 45.7671 52.1704 45.5698 52.0157 45.4205C51.861 45.2711 51.645 45.1965 51.3677 45.1965C51.0957 45.1965 50.8797 45.2631 50.7197 45.3965C50.565 45.5245 50.4877 45.6925 50.4877 45.9005C50.4877 46.1031 50.5757 46.2605 50.7517 46.3725C50.933 46.4845 51.149 46.5671 51.3997 46.6205C51.6557 46.6685 51.909 46.7271 52.1597 46.7965C52.4157 46.8605 52.6317 46.9858 52.8077 47.1725C52.989 47.3538 53.0797 47.6151 53.0797 47.9565C53.0797 48.2925 52.925 48.5778 52.6157 48.8125C52.3117 49.0418 51.9144 49.1565 51.4237 49.1565C50.933 49.1565 50.5384 49.0338 50.2397 48.7885C49.9464 48.5431 49.7864 48.2045 49.7597 47.7725H50.5117C50.5224 48.0178 50.6077 48.2151 50.7677 48.3645C50.933 48.5085 51.157 48.5805 51.4397 48.5805C51.7277 48.5805 51.9517 48.5191 52.1117 48.3965C52.277 48.2738 52.3597 48.1191 52.3597 47.9325C52.3597 47.7405 52.2957 47.5885 52.1677 47.4765C52.0397 47.3645 51.8797 47.2871 51.6877 47.2445C51.4957 47.2018 51.285 47.1511 51.0557 47.0925C50.8317 47.0338 50.6237 46.9725 50.4317 46.9085C50.2397 46.8391 50.0797 46.7218 49.9517 46.5565C49.8237 46.3911 49.7597 46.1831 49.7597 45.9325Z" fill="white"/>
<circle cx="222" cy="18.0845" r="6" fill="#048417"/>
<line x1="16" y1="31.5845" x2="228" y2="31.5845" stroke="#384E41"/>
<rect x="161" y="40.0845" width="67" height="14" rx="4" fill="#26381B"/>
<path d="M169.424 49.0845L168.992 47.8685H166.528L166.096 49.0845H165.352L167.368 43.5405H168.168L170.176 49.0845H169.424ZM166.736 47.2925H168.784L167.76 44.4285L166.736 47.2925ZM174.115 48.0845C174.409 47.7858 174.555 47.3885 174.555 46.8925C174.555 46.3965 174.409 45.9991 174.115 45.7005C173.827 45.4018 173.478 45.2525 173.067 45.2525C172.662 45.2525 172.313 45.3965 172.019 45.6845C171.731 45.9725 171.587 46.3645 171.587 46.8605C171.587 47.3565 171.734 47.7591 172.027 48.0685C172.321 48.3778 172.67 48.5325 173.075 48.5325C173.481 48.5325 173.827 48.3831 174.115 48.0845ZM172.939 49.1565C172.342 49.1565 171.843 48.9431 171.443 48.5165C171.043 48.0845 170.843 47.5351 170.843 46.8685C170.843 46.1965 171.041 45.6551 171.435 45.2445C171.835 44.8285 172.337 44.6205 172.939 44.6205C173.313 44.6205 173.638 44.7085 173.915 44.8845C174.198 45.0605 174.411 45.2898 174.555 45.5725V43.1645H175.291V49.0845H174.555V48.1885C174.411 48.4765 174.198 48.7111 173.915 48.8925C173.638 49.0685 173.313 49.1565 172.939 49.1565ZM179.475 48.0845C179.768 47.7858 179.915 47.3885 179.915 46.8925C179.915 46.3965 179.768 45.9991 179.475 45.7005C179.187 45.4018 178.837 45.2525 178.427 45.2525C178.021 45.2525 177.672 45.3965 177.379 45.6845C177.091 45.9725 176.947 46.3645 176.947 46.8605C176.947 47.3565 177.093 47.7591 177.387 48.0685C177.68 48.3778 178.029 48.5325 178.435 48.5325C178.84 48.5325 179.187 48.3831 179.475 48.0845ZM178.299 49.1565C177.701 49.1565 177.203 48.9431 176.803 48.5165C176.403 48.0845 176.203 47.5351 176.203 46.8685C176.203 46.1965 176.4 45.6551 176.795 45.2445C177.195 44.8285 177.696 44.6205 178.299 44.6205C178.672 44.6205 178.997 44.7085 179.275 44.8845C179.557 45.0605 179.771 45.2898 179.915 45.5725V43.1645H180.651V49.0845H179.915V48.1885C179.771 48.4765 179.557 48.7111 179.275 48.8925C178.997 49.0685 178.672 49.1565 178.299 49.1565ZM187.904 43.5405H188.632V49.0845H187.904L184.976 44.6845V49.0845H184.248V43.5405H184.976L187.904 47.9405V43.5405ZM191.674 49.1565C191.045 49.1565 190.533 48.9485 190.138 48.5325C189.744 48.1165 189.546 47.5671 189.546 46.8845C189.546 46.2018 189.746 45.6551 190.146 45.2445C190.546 44.8285 191.064 44.6205 191.698 44.6205C192.338 44.6205 192.85 44.8178 193.234 45.2125C193.624 45.6018 193.818 46.1005 193.818 46.7085C193.818 46.8631 193.808 47.0071 193.786 47.1405H190.29C190.312 47.5778 190.448 47.9245 190.698 48.1805C190.954 48.4311 191.28 48.5565 191.674 48.5565C191.973 48.5565 192.224 48.4898 192.426 48.3565C192.634 48.2231 192.786 48.0471 192.882 47.8285H193.666C193.528 48.2125 193.288 48.5298 192.946 48.7805C192.61 49.0311 192.186 49.1565 191.674 49.1565ZM193.058 46.6125C193.053 46.1911 192.92 45.8551 192.658 45.6045C192.397 45.3485 192.072 45.2205 191.682 45.2205C191.298 45.2205 190.978 45.3458 190.722 45.5965C190.466 45.8418 190.325 46.1805 190.298 46.6125H193.058ZM199.757 44.6925H200.493L199.109 49.0845H198.357L197.365 45.5965L196.373 49.0845H195.613L194.221 44.6925H194.973L195.989 48.3565L197.021 44.6925H197.773L198.749 48.3645L199.757 44.6925ZM207.24 43.5405H207.968V49.0845H207.24L204.312 44.6845V49.0845H203.584V43.5405H204.312L207.24 47.9405V43.5405ZM211.042 48.5565C211.453 48.5565 211.808 48.4098 212.106 48.1165C212.41 47.8178 212.562 47.4071 212.562 46.8845C212.562 46.3618 212.418 45.9538 212.13 45.6605C211.842 45.3671 211.49 45.2205 211.074 45.2205C210.664 45.2205 210.32 45.3671 210.042 45.6605C209.765 45.9538 209.626 46.3645 209.626 46.8925C209.626 47.4151 209.76 47.8231 210.026 48.1165C210.293 48.4098 210.632 48.5565 211.042 48.5565ZM209.482 48.5325C209.082 48.1165 208.882 47.5698 208.882 46.8925C208.882 46.2151 209.093 45.6685 209.514 45.2525C209.936 44.8311 210.464 44.6205 211.098 44.6205C211.733 44.6205 212.261 44.8311 212.682 45.2525C213.104 45.6685 213.314 46.2151 213.314 46.8925C213.314 47.5645 213.093 48.1111 212.65 48.5325C212.213 48.9485 211.677 49.1565 211.042 49.1565C210.408 49.1565 209.888 48.9485 209.482 48.5325ZM217.209 48.0845C217.502 47.7858 217.649 47.3885 217.649 46.8925C217.649 46.3965 217.502 45.9991 217.209 45.7005C216.921 45.4018 216.572 45.2525 216.161 45.2525C215.756 45.2525 215.406 45.3965 215.113 45.6845C214.825 45.9725 214.681 46.3645 214.681 46.8605C214.681 47.3565 214.828 47.7591 215.121 48.0685C215.414 48.3778 215.764 48.5325 216.169 48.5325C216.574 48.5325 216.921 48.3831 217.209 48.0845ZM216.033 49.1565C215.436 49.1565 214.937 48.9431 214.537 48.5165C214.137 48.0845 213.937 47.5351 213.937 46.8685C213.937 46.1965 214.134 45.6551 214.529 45.2445C214.929 44.8285 215.43 44.6205 216.033 44.6205C216.406 44.6205 216.732 44.7085 217.009 44.8845C217.292 45.0605 217.505 45.2898 217.649 45.5725V43.1645H218.385V49.0845H217.649V48.1885C217.505 48.4765 217.292 48.7111 217.009 48.8925C216.732 49.0685 216.406 49.1565 216.033 49.1565ZM221.424 49.1565C220.795 49.1565 220.283 48.9485 219.888 48.5325C219.494 48.1165 219.296 47.5671 219.296 46.8845C219.296 46.2018 219.496 45.6551 219.896 45.2445C220.296 44.8285 220.814 44.6205 221.448 44.6205C222.088 44.6205 222.6 44.8178 222.984 45.2125C223.374 45.6018 223.568 46.1005 223.568 46.7085C223.568 46.8631 223.558 47.0071 223.536 47.1405H220.04C220.062 47.5778 220.198 47.9245 220.448 48.1805C220.704 48.4311 221.03 48.5565 221.424 48.5565C221.723 48.5565 221.974 48.4898 222.176 48.3565C222.384 48.2231 222.536 48.0471 222.632 47.8285H223.416C223.278 48.2125 223.038 48.5298 222.696 48.7805C222.36 49.0311 221.936 49.1565 221.424 49.1565ZM222.808 46.6125C222.803 46.1911 222.67 45.8551 222.408 45.6045C222.147 45.3485 221.822 45.2205 221.432 45.2205C221.048 45.2205 220.728 45.3458 220.472 45.5965C220.216 45.8418 220.075 46.1805 220.048 46.6125H222.808Z" fill="#96EA63"/>
<rect x="16" y="66.0845" width="66" height="29" rx="2" fill="#334935"/>
<rect x="16" y="102.084" width="66" height="29" rx="2" fill="#334935"/>
<rect x="89" y="66.0845" width="66" height="29" rx="2" fill="#334935"/>
<rect x="89" y="102.084" width="66" height="29" rx="2" fill="#334935"/>
<rect x="162" y="66.0845" width="66" height="29" rx="2" fill="#334935"/>
<rect x="162" y="102.084" width="66" height="29" rx="2" fill="#334935"/>
<path d="M80.136 180.084L79.488 178.26H75.792L75.144 180.084H74.028L77.052 171.768H78.252L81.264 180.084H80.136ZM76.104 177.396H79.176L77.64 173.1L76.104 177.396ZM83.9089 176.652V180.084H82.8169V171.768H85.5169C86.4529 171.768 87.1649 171.996 87.6529 172.452C88.1489 172.908 88.3969 173.468 88.3969 174.132C88.3969 174.788 88.2169 175.336 87.8569 175.776C87.4969 176.216 86.9569 176.492 86.2369 176.604L88.5289 180.084H87.1609L84.9769 176.652H83.9089ZM83.9089 172.644V175.788H85.5169C86.1169 175.788 86.5609 175.652 86.8489 175.38C87.1449 175.1 87.2929 174.712 87.2929 174.216C87.2929 173.168 86.7009 172.644 85.5169 172.644H83.9089ZM96.3791 178.296C96.9631 177.696 97.2551 176.904 97.2551 175.92C97.2551 174.936 96.9631 174.148 96.3791 173.556C95.7951 172.956 95.0471 172.656 94.1351 172.656C93.2311 172.656 92.4831 172.956 91.8911 173.556C91.3071 174.148 91.0151 174.936 91.0151 175.92C91.0151 176.904 91.3111 177.696 91.9031 178.296C92.4951 178.896 93.2431 179.196 94.1471 179.196C95.0511 179.196 95.7951 178.896 96.3791 178.296ZM94.1471 180.168C92.9551 180.168 91.9511 179.768 91.1351 178.968C90.3191 178.16 89.9111 177.144 89.9111 175.92C89.9111 174.688 90.3191 173.676 91.1351 172.884C91.9511 172.084 92.9551 171.684 94.1471 171.684C95.3391 171.684 96.3391 172.084 97.1471 172.884C97.9631 173.676 98.3711 174.688 98.3711 175.92C98.3711 177.152 97.9631 178.168 97.1471 178.968C96.3391 179.768 95.3391 180.168 94.1471 180.168ZM104.659 179.244H106.195C107.243 179.244 108.043 178.956 108.595 178.38C109.147 177.804 109.423 177 109.423 175.968C109.423 174.936 109.147 174.132 108.595 173.556C108.043 172.98 107.243 172.692 106.195 172.692H104.659V179.244ZM106.195 171.768C107.539 171.768 108.599 172.144 109.375 172.896C110.151 173.648 110.539 174.672 110.539 175.968C110.539 177.264 110.151 178.276 109.375 179.004C108.599 179.724 107.539 180.084 106.195 180.084H103.567V171.768H106.195ZM116.519 178.584C116.959 178.136 117.179 177.54 117.179 176.796C117.179 176.052 116.959 175.456 116.519 175.008C116.087 174.56 115.563 174.336 114.947 174.336C114.339 174.336 113.815 174.552 113.375 174.984C112.943 175.416 112.727 176.004 112.727 176.748C112.727 177.492 112.947 178.096 113.387 178.56C113.827 179.024 114.351 179.256 114.959 179.256C115.567 179.256 116.087 179.032 116.519 178.584ZM114.755 180.192C113.859 180.192 113.111 179.872 112.511 179.232C111.911 178.584 111.611 177.76 111.611 176.76C111.611 175.752 111.907 174.94 112.499 174.324C113.099 173.7 113.851 173.388 114.755 173.388C115.315 173.388 115.803 173.52 116.219 173.784C116.643 174.048 116.963 174.392 117.179 174.816V173.496H118.283V180.084H117.179V178.74C116.963 179.172 116.643 179.524 116.219 179.796C115.803 180.06 115.315 180.192 114.755 180.192ZM119.962 175.356C119.962 174.804 120.19 174.34 120.646 173.964C121.11 173.58 121.706 173.388 122.434 173.388C123.17 173.388 123.746 173.576 124.162 173.952C124.578 174.32 124.806 174.828 124.846 175.476H123.718C123.702 175.108 123.578 174.812 123.346 174.588C123.114 174.364 122.79 174.252 122.374 174.252C121.966 174.252 121.642 174.352 121.402 174.552C121.17 174.744 121.054 174.996 121.054 175.308C121.054 175.612 121.186 175.848 121.45 176.016C121.722 176.184 122.046 176.308 122.422 176.388C122.806 176.46 123.186 176.548 123.562 176.652C123.946 176.748 124.27 176.936 124.534 177.216C124.806 177.488 124.942 177.88 124.942 178.392C124.942 178.896 124.71 179.324 124.246 179.676C123.79 180.02 123.194 180.192 122.458 180.192C121.722 180.192 121.13 180.008 120.682 179.64C120.242 179.272 120.002 178.764 119.962 178.116H121.09C121.106 178.484 121.234 178.78 121.474 179.004C121.722 179.22 122.058 179.328 122.482 179.328C122.914 179.328 123.25 179.236 123.49 179.052C123.738 178.868 123.862 178.636 123.862 178.356C123.862 178.068 123.766 177.84 123.574 177.672C123.382 177.504 123.142 177.388 122.854 177.324C122.566 177.26 122.25 177.184 121.906 177.096C121.57 177.008 121.258 176.916 120.97 176.82C120.682 176.716 120.442 176.54 120.25 176.292C120.058 176.044 119.962 175.732 119.962 175.356ZM127.73 171.204V174.564C128.178 173.78 128.894 173.388 129.878 173.388C130.606 173.388 131.214 173.632 131.702 174.12C132.19 174.6 132.434 175.288 132.434 176.184V180.084H131.354V176.364C131.354 175.7 131.194 175.196 130.874 174.852C130.554 174.508 130.11 174.336 129.542 174.336C128.982 174.336 128.538 174.508 128.21 174.852C127.89 175.196 127.73 175.7 127.73 176.364V180.084H126.638V171.204H127.73ZM137.606 179.256C138.222 179.256 138.746 179.028 139.178 178.572C139.618 178.108 139.838 177.504 139.838 176.76C139.838 176.008 139.618 175.416 139.178 174.984C138.746 174.552 138.222 174.336 137.606 174.336C136.998 174.336 136.474 174.56 136.034 175.008C135.602 175.456 135.386 176.052 135.386 176.796C135.386 177.532 135.602 178.128 136.034 178.584C136.474 179.032 136.998 179.256 137.606 179.256ZM137.822 173.388C138.726 173.388 139.474 173.7 140.066 174.324C140.666 174.94 140.966 175.752 140.966 176.76C140.966 177.76 140.666 178.584 140.066 179.232C139.466 179.872 138.718 180.192 137.822 180.192C137.262 180.192 136.77 180.06 136.346 179.796C135.93 179.524 135.61 179.172 135.386 178.74V180.084H134.294V171.204H135.386V174.816C135.61 174.392 135.93 174.048 136.346 173.784C136.77 173.52 137.262 173.388 137.822 173.388ZM145.261 179.292C145.877 179.292 146.409 179.072 146.857 178.632C147.313 178.184 147.541 177.568 147.541 176.784C147.541 176 147.325 175.388 146.893 174.948C146.461 174.508 145.933 174.288 145.309 174.288C144.693 174.288 144.177 174.508 143.761 174.948C143.345 175.388 143.137 176.004 143.137 176.796C143.137 177.58 143.337 178.192 143.737 178.632C144.137 179.072 144.645 179.292 145.261 179.292ZM142.921 179.256C142.321 178.632 142.021 177.812 142.021 176.796C142.021 175.78 142.337 174.96 142.969 174.336C143.601 173.704 144.393 173.388 145.345 173.388C146.297 173.388 147.089 173.704 147.721 174.336C148.353 174.96 148.669 175.78 148.669 176.796C148.669 177.804 148.337 178.624 147.673 179.256C147.017 179.88 146.213 180.192 145.261 180.192C144.309 180.192 143.529 179.88 142.921 179.256ZM154.631 178.584C155.071 178.136 155.291 177.54 155.291 176.796C155.291 176.052 155.071 175.456 154.631 175.008C154.199 174.56 153.675 174.336 153.059 174.336C152.451 174.336 151.927 174.552 151.487 174.984C151.055 175.416 150.839 176.004 150.839 176.748C150.839 177.492 151.059 178.096 151.499 178.56C151.939 179.024 152.463 179.256 153.071 179.256C153.679 179.256 154.199 179.032 154.631 178.584ZM152.867 180.192C151.971 180.192 151.223 179.872 150.623 179.232C150.023 178.584 149.723 177.76 149.723 176.76C149.723 175.752 150.019 174.94 150.611 174.324C151.211 173.7 151.963 173.388 152.867 173.388C153.427 173.388 153.915 173.52 154.331 173.784C154.755 174.048 155.075 174.392 155.291 174.816V173.496H156.395V180.084H155.291V178.74C155.075 179.172 154.755 179.524 154.331 179.796C153.915 180.06 153.427 180.192 152.867 180.192ZM159.406 173.496V174.612C159.798 173.796 160.466 173.388 161.41 173.388V174.528H161.122C160.562 174.528 160.134 174.676 159.838 174.972C159.55 175.26 159.406 175.764 159.406 176.484V180.084H158.314V173.496H159.406ZM167.328 178.584C167.768 178.136 167.988 177.54 167.988 176.796C167.988 176.052 167.768 175.456 167.328 175.008C166.896 174.56 166.372 174.336 165.756 174.336C165.148 174.336 164.624 174.552 164.184 174.984C163.752 175.416 163.536 176.004 163.536 176.748C163.536 177.492 163.756 178.096 164.196 178.56C164.636 179.024 165.16 179.256 165.768 179.256C166.376 179.256 166.896 179.032 167.328 178.584ZM165.564 180.192C164.668 180.192 163.92 179.872 163.32 179.232C162.72 178.584 162.42 177.76 162.42 176.76C162.42 175.752 162.716 174.94 163.308 174.324C163.908 173.7 164.66 173.388 165.564 173.388C166.124 173.388 166.612 173.52 167.028 173.784C167.452 174.048 167.772 174.392 167.988 174.816V171.204H169.092V180.084H167.988V178.74C167.772 179.172 167.452 179.524 167.028 179.796C166.612 180.06 166.124 180.192 165.564 180.192Z" fill="#D3D3D6"/>
<defs>
<filter id="filter0_i_13_1041" x="-16.2667" y="-16.1822" width="276.533" height="194.533" filterUnits="userSpaceOnUse" color-interpolation-filters="sRGB">
<feFlood flood-opacity="0" result="BackgroundImageFix"/>
<feBlend mode="normal" in="SourceGraphic" in2="BackgroundImageFix" result="shape"/>
<feColorMatrix in="SourceAlpha" type="matrix" values="0 0 0 0 0 0 0 0 0 0 0 0 0 0 0 0 0 0 127 0" result="hardAlpha"/>
<feMorphology radius="260.267" operator="erode" in="SourceAlpha" result="effect1_innerShadow_13_1041"/>
<feOffset dy="-16.2667"/>
<feGaussianBlur stdDeviation="8.13333"/>
<feComposite in2="hardAlpha" operator="arithmetic" k2="-1" k3="1"/>
<feColorMatrix type="matrix" values="0 0 0 0 1 0 0 0 0 1 0 0 0 0 1 0 0 0 0.05 0"/>
<feBlend mode="normal" in2="shape" result="effect1_innerShadow_13_1041"/>
</filter>
<filter id="filter1_f_13_1041" x="-191.022" y="-13.1378" width="626.214" height="459.87" filterUnits="userSpaceOnUse" color-interpolation-filters="sRGB">
<feFlood flood-opacity="0" result="BackgroundImageFix"/>
<feBlend mode="normal" in="SourceGraphic" in2="BackgroundImageFix" result="shape"/>
<feGaussianBlur stdDeviation="79.1568" result="effect1_foregroundBlur_13_1041"/>
</filter>
<clipPath id="clip0_13_1041">
<rect y="0.0844727" width="244" height="162" rx="14" fill="white"/>
</clipPath>
</defs>
</svg>
