<svg width="150" height="197" viewBox="0 0 150 197" fill="none" xmlns="http://www.w3.org/2000/svg">
<path d="M18.2885 28.7523L11.6193 34.6919C-8.39005 52.5108 25.1715 99.3677 49.4833 85.2886L57.013 80.4489" stroke="#549EE1"/>
<path d="M17.7893 29.5297C22.4577 25.5464 28.9464 24.6343 35.7184 26.4636C42.4891 28.2926 49.4975 32.8553 55.1144 39.7381C60.7313 46.6209 63.8669 54.4882 64.4147 61.6271C64.9625 68.7674 62.9235 75.1319 58.2553 79.1154C53.5869 83.0989 47.0977 84.0115 40.3255 82.1821C33.5548 80.3532 26.5464 75.7904 20.9295 68.9076C15.3126 62.0248 12.177 54.1575 11.6292 47.0186C11.0813 39.8782 13.1209 33.5132 17.7893 29.5297Z" stroke="#549EE1"/>
<path d="M23.7909 35.417C27.1916 32.5152 31.9405 31.8539 36.925 33.2171C41.9076 34.5799 47.0788 37.9585 51.2337 43.0497C55.3885 48.1409 57.7136 53.9481 58.1329 59.2047C58.5523 64.4632 57.066 69.1223 53.6653 72.0241C50.2646 74.9258 45.5165 75.5865 40.532 74.2233C35.5492 72.8606 30.3775 69.4827 26.2226 64.3914C22.0676 59.3 19.7432 53.4925 19.324 48.2358C18.9047 42.9773 20.3903 38.3187 23.7909 35.417Z" stroke="#549EE1"/>
<path d="M79.657 161.895L91.5709 168.963C127.313 190.167 177.992 116.033 145.479 86.4641L134.718 77.547" stroke="#26B3BC"/>
<path d="M80.8872 162.495C72.6996 157.399 68.0929 147.978 67.3222 136.788C66.5516 125.6 69.6243 112.687 76.7486 100.719C83.873 88.7515 93.679 80.0299 103.752 75.5911C113.827 71.1518 124.126 71.0093 132.314 76.1054C140.502 81.2017 145.108 90.6223 145.879 101.812C146.65 113 143.577 125.913 136.453 137.881C129.328 149.849 119.522 158.57 109.449 163.009C99.3743 167.449 89.0747 167.591 80.8872 162.495Z" stroke="#26B3BC"/>
<path d="M86.3576 150.491C80.3661 146.761 76.9966 139.837 76.4525 131.577C75.9086 123.318 78.1977 113.769 83.4742 104.905C88.7506 96.0418 95.9939 89.5776 103.418 86.2784C110.844 82.9786 118.407 82.8587 124.399 86.588C130.39 90.3175 133.76 97.2419 134.304 105.502C134.848 113.761 132.56 123.31 127.283 132.173C122.007 141.037 114.762 147.501 107.338 150.801C99.9122 154.1 92.3494 154.22 86.3576 150.491Z" stroke="#26B3BC"/>
<path d="M37.9258 115.492L37.9854 115.585L38.0791 115.645L43.0479 118.807L38.0791 121.969L37.9854 122.029L37.9258 122.123L34.7637 127.091L31.6016 122.123L31.542 122.029L31.4482 121.969L26.4795 118.807L31.4482 115.645L31.542 115.585L31.6016 115.492L34.7637 110.523L37.9258 115.492Z" stroke="#26B3BC"/>
<path d="M104.9 46.9972L104.96 47.0909L105.054 47.1505L109.188 49.7813L105.054 52.4132L104.96 52.4727L104.9 52.5665L102.269 56.7003L99.6377 52.5665L99.5781 52.4727L99.4844 52.4132L95.3496 49.7813L99.4844 47.1505L99.5781 47.0909L99.6377 46.9972L102.269 42.8624L104.9 46.9972Z" stroke="#549EE1"/>
<path d="M54.9473 5.49371L55.0068 5.58746L55.1006 5.64703L59.2344 8.27789L55.1006 10.9097L55.0068 10.9693L54.9473 11.063L52.3154 15.1968L49.6846 11.063L49.625 10.9693L49.5312 10.9097L45.3965 8.27789L49.5312 5.64703L49.625 5.58746L49.6846 5.49371L52.3154 1.35895L54.9473 5.49371Z" stroke="#26B3BC"/>
</svg>
