<svg width="96" height="108" viewBox="0 0 96 108" fill="none" xmlns="http://www.w3.org/2000/svg">
<path d="M14.4149 107.301L5.125 101.875V87.8164L14.4149 93.2424V107.301Z" fill="#A8A8A8" stroke="#22252B" stroke-miterlimit="10" stroke-linejoin="round"/>
<path d="M9.7292 95.8726L0.521484 90.5288L12.6066 59.3706L21.8143 64.7144L9.7292 95.8726Z" fill="#4281FF" stroke="#22252B" stroke-miterlimit="10" stroke-linejoin="round"/>
<path d="M21.8146 64.7148L34.0642 81.8971L29.3781 84.5279V98.5861L14.4156 107.301V93.2423L9.72949 95.8731L21.8146 64.7148Z" fill="white" stroke="#22252B" stroke-miterlimit="10" stroke-linejoin="round"/>
<path d="M44.7528 89.7062L35.4629 84.3624V54.2729L44.7528 59.6167V89.7062Z" fill="#A8A8A8" stroke="#22252B" stroke-miterlimit="10" stroke-linejoin="round"/>
<path d="M40.1493 62.2471L30.8594 56.9034L42.9445 25.7451L52.1522 31.0889L40.1493 62.2471Z" fill="#4281FF" stroke="#22252B" stroke-miterlimit="10" stroke-linejoin="round"/>
<path d="M52.1523 31.0889L64.4019 48.2711L59.7158 50.9841V81.0736L44.7533 89.7058V59.6163L40.1494 62.2471L52.1523 31.0889Z" fill="white" stroke="#22252B" stroke-miterlimit="10" stroke-linejoin="round"/>
<path d="M75.0868 72.1957L65.7969 66.8519V29.5278L75.0868 34.8716V72.1957Z" fill="#A8A8A8" stroke="#22252B" stroke-miterlimit="10" stroke-linejoin="round"/>
<path d="M70.4011 37.5842L61.1934 32.1582L73.2785 1L82.4862 6.34376L70.4011 37.5842Z" fill="#4281FF" stroke="#22252B" stroke-miterlimit="10" stroke-linejoin="round"/>
<path d="M82.4865 6.34375L94.736 23.526L90.05 26.239V63.5631L75.0874 72.1953V34.8712L70.4014 37.5842L82.4865 6.34375Z" fill="white" stroke="#22252B" stroke-miterlimit="10" stroke-linejoin="round"/>
</svg>
