<svg width="215" height="50" viewBox="0 0 215 50" fill="none" xmlns="http://www.w3.org/2000/svg">
<mask id="mask0_207_43" style="mask-type:luminance" maskUnits="userSpaceOnUse" x="0" y="0" width="215" height="50">
<path d="M214.314 0H0.5V50H214.314V0Z" fill="white"/>
</mask>
<g mask="url(#mask0_207_43)">
<path d="M39.1921 3.42287C39.1921 12.1637 39.1921 29.6454 39.1921 29.6454C39.1921 29.6454 39.131 38.3862 38.7642 39.6697C38.4586 40.8922 37.7862 41.6258 37.175 42.1759C36.197 42.9705 34.8522 43.2761 33.6297 43.0928C31.0625 42.726 29.2287 40.0976 27.7006 38.1417C24.6443 34.1686 20.7935 26.7114 20.7935 26.7114C20.7935 26.7114 18.9597 22.2492 15.598 24.083C12.8473 25.55 14.3755 28.7896 14.3755 28.7896C14.3755 28.7896 18.6541 37.5305 21.5881 41.4424C25.9891 47.3715 32.4072 51.9559 39.3755 49.0219C43.3485 47.3715 45.9768 43.5206 45.9768 38.3251C45.9768 34.9632 46.0991 22.7382 46.0991 16.9925C46.0991 12.4693 46.0991 7.9461 46.0991 3.42287C46.1602 -1.03923 39.1921 -1.03923 39.1921 3.42287Z" fill="white"/>
<path d="M7.40709 46.5767C7.40709 37.8359 7.40709 20.3542 7.40709 20.3542C7.40709 20.3542 7.46821 11.6134 7.83496 10.3298C8.14059 9.1073 8.81296 8.37381 9.4242 7.82369C10.4022 7.02906 11.7469 6.72344 12.9694 6.90681C15.5366 7.27356 17.3704 9.90192 18.8985 11.8579C21.9548 15.831 25.8056 23.2882 25.8056 23.2882C25.8056 23.2882 27.6394 27.7504 31.0012 25.9166C33.7519 24.4496 32.2237 21.21 32.2237 21.21C32.2237 21.21 27.945 12.4692 25.011 8.55719C20.61 2.62809 14.1919 -1.95626 7.22371 0.97772C3.25061 2.62809 0.622249 6.47894 0.622249 11.6745C0.622249 15.0975 0.5 27.2614 0.5 33.007C0.5 37.5303 0.5 42.0535 0.5 46.5767C0.5 51.0389 7.40709 51.0389 7.40709 46.5767Z" fill="white"/>
<path d="M75.8054 0.427856H80.2064V23.9609H77.5169V24.022L65.1698 8.12956V23.9609H60.7688V0.488981H64.3752L75.8666 15.0366V0.427856H75.8054Z" fill="white"/>
<path d="M109.424 12.3472C109.362 18.3985 105.634 24.511 97.3819 24.511C89.1302 24.511 85.2793 18.5819 85.2793 12.4083C85.2793 6.23471 89.2524 0 97.3819 0C105.512 0 109.485 6.17359 109.424 12.3472ZM89.6192 12.4694C89.7414 16.3202 91.8197 20.4767 97.3208 20.4767C102.822 20.4767 104.961 16.3202 105.023 12.4694C105.084 8.49632 102.883 4.09535 97.3208 4.09535C91.7585 4.09535 89.558 8.49632 89.6192 12.4694Z" fill="white"/>
<path d="M127.211 0.488892V19.8654H139.253V23.9608H122.749V0.488892H127.211Z" fill="white"/>
<path d="M144.081 23.9608V0.488892H148.483V23.9608H144.081Z" fill="white"/>
<path d="M174.766 6.96811L167.126 17.1147H166.27L158.812 6.90699V23.9608H154.412V0.488892H159.485L166.82 10.5745L174.155 0.488892H179.229V23.9608H174.827L174.766 6.96811Z" fill="white"/>
<path d="M185.096 23.9608V0.488892H189.497V23.9608H185.096Z" fill="white"/>
<path d="M202.455 4.52313H194.998V0.488892H214.314V4.52313H206.856V23.9608H202.455V4.52313Z" fill="white"/>
<path d="M75.8055 49.6947V40.0982H62.3581V49.6947H60.7078V28.5455H62.3581V38.57H75.8055V28.5455H77.4559V49.6947H75.8055Z" fill="white"/>
<path d="M103.067 39.12C103.067 44.6823 99.5219 50.0002 92.4315 50.0002C85.341 50.0002 81.7958 44.6823 81.7958 39.0588C81.7958 33.4353 85.341 28.1787 92.4315 28.1787C99.5219 28.1787 103.128 33.4353 103.067 39.12ZM83.385 39.12C83.385 43.8877 86.4413 48.5332 92.4315 48.5332C98.4216 48.5332 101.539 43.8877 101.539 39.12C101.539 34.3522 98.5439 29.7068 92.4315 29.7068C86.319 29.7068 83.3239 34.1077 83.385 39.12Z" fill="white"/>
<path d="M109.18 28.5455V48.1054H121.099V49.6335H107.59V28.5455H109.18Z" fill="white"/>
<path d="M142.493 38.8757C142.615 44.2547 139.191 49.6947 131.795 49.6947H124.583V28.5455H131.734C138.886 28.5455 142.37 33.68 142.493 38.8757ZM126.233 30.0737V48.1054H131.734C138.03 48.1054 140.903 43.3989 140.841 38.8757C140.781 34.4747 137.846 30.0737 131.734 30.0737H126.233Z" fill="white"/>
<path d="M147.139 49.6947V28.5455H148.728V49.6947H147.139Z" fill="white"/>
<path d="M154.656 28.5455L168.838 46.0273V28.5455H170.426V49.6947H169.815L155.574 32.2742V49.6947H153.923V28.5455H154.656Z" fill="white"/>
<path d="M192.431 32.4579C190.598 30.6241 188.03 29.7684 185.646 29.7684C179.473 29.7684 176.295 34.2916 176.355 39.1816C176.355 44.1326 179.534 48.4725 185.646 48.4725C187.908 48.4725 190.231 47.6779 192.065 46.0275V40.0985H184.73V38.6926H193.654V46.5776C191.454 48.7781 188.825 50.0006 185.708 50.0006C178.495 50.0006 174.828 44.9884 174.828 39.2428C174.828 32.6413 179.29 28.3014 185.708 28.3014C188.459 28.3014 191.27 29.3405 193.409 31.4799L192.431 32.4579Z" fill="white"/>
<path d="M212.297 32.6407C210.769 30.1957 208.262 29.829 205.879 29.7679C203.434 29.7679 199.461 30.6847 199.461 34.0466C199.461 36.7361 202.334 37.3474 205.94 38.0197C210.035 38.8144 214.252 39.5479 214.252 44.071C214.252 48.8387 209.424 50.0001 205.879 50.0001C202.579 50.0001 198.85 48.6554 197.199 45.4157L198.666 44.6822C199.95 47.2495 203.25 48.5331 205.879 48.5331C208.507 48.5331 212.602 47.7996 212.602 44.071C212.602 40.8925 209.119 40.2201 205.695 39.5477C201.845 38.8144 197.871 38.0197 197.871 34.1077C197.749 29.6456 202.456 28.2397 205.879 28.2397C208.874 28.2397 211.502 28.7287 213.581 31.8461L212.297 32.6407Z" fill="white"/>
</g>
</svg>
