<svg width="176" height="50" viewBox="0 0 176 50" fill="none" xmlns="http://www.w3.org/2000/svg">
<mask id="mask0_207_20" style="mask-type:luminance" maskUnits="userSpaceOnUse" x="0" y="0" width="176" height="50">
<path d="M175.569 0H0V50H175.569V0Z" fill="white"/>
</mask>
<g mask="url(#mask0_207_20)">
<path fill-rule="evenodd" clip-rule="evenodd" d="M70.467 3.67726C70.2561 3.48891 70.0876 3.25765 69.9731 2.99897C69.8587 2.74027 69.8009 2.46012 69.8036 2.17726C69.7961 1.88684 69.8515 1.59825 69.9659 1.33126C70.0805 1.06428 70.2515 0.825233 70.467 0.63053C70.9429 0.234906 71.5422 0.0183105 72.1611 0.0183105C72.7798 0.0183105 73.3791 0.234906 73.855 0.63053C74.069 0.826241 74.2386 1.06558 74.3522 1.3324C74.4658 1.59923 74.5209 1.88733 74.5138 2.17726C74.5147 2.46073 74.4551 2.74113 74.339 2.99979C74.223 3.25843 74.0531 3.48938 73.8409 3.67726C73.3663 4.07547 72.7665 4.29373 72.147 4.29373C71.5275 4.29373 70.9277 4.07547 70.453 3.67726H70.467ZM74.1447 5.63988V18.5885H70.1773V5.63988H74.1447ZM64.14 3.31745C65.39 3.96536 66.4268 4.9599 67.1259 6.18194C67.8466 7.48494 68.2108 8.95493 68.182 10.4436C68.2081 11.9276 67.844 13.3923 67.1259 14.6912C66.4279 15.921 65.3872 16.9211 64.1306 17.5698C62.7394 18.2708 61.1976 18.6207 59.64 18.5885H53.5325V2.29409H59.64C61.2015 2.25783 62.7477 2.60945 64.14 3.31745ZM62.8876 13.925C63.7256 13.1025 64.1431 11.9421 64.14 10.4436C64.1369 8.94519 63.7194 7.77695 62.8876 6.93895C62.0497 6.10094 60.8813 5.6835 59.383 5.68662H57.5138V15.1539H59.383C60.8845 15.1539 62.0527 14.7443 62.8876 13.925ZM76.953 16.6072C77.5016 17.3071 78.2209 17.8541 79.0419 18.196C79.9975 18.5941 81.0256 18.7883 82.0605 18.7661C83.009 18.784 83.9515 18.6108 84.8316 18.2566C85.5619 17.9687 86.1977 17.4833 86.668 16.8548C87.0913 16.2641 87.314 15.5535 87.3036 14.8268C87.329 14.0496 87.0791 13.2882 86.5979 12.6773C86.1709 12.165 85.6234 11.7668 85.0044 11.5184C84.2418 11.2252 83.4615 10.9802 82.668 10.7847C82.0348 10.6651 81.4161 10.4787 80.8222 10.2287C80.6493 10.1672 80.4995 10.0539 80.3933 9.9042C80.2872 9.75452 80.2297 9.57575 80.2287 9.39223C80.2247 9.24906 80.2568 9.10719 80.3222 8.97976C80.3875 8.85233 80.484 8.74345 80.6026 8.66326C80.9216 8.46645 81.2938 8.3734 81.668 8.3969C82.1377 8.37411 82.6011 8.51261 82.9811 8.78943C83.1454 8.91977 83.282 9.08152 83.3831 9.26525C83.4843 9.44897 83.5477 9.651 83.57 9.85951H87.2381C87.1452 8.62 86.5656 7.46758 85.6259 6.65391C84.6913 5.85016 83.4111 5.4483 81.7848 5.4483C80.8043 5.42301 79.8295 5.60618 78.9251 5.98569C78.1943 6.28687 77.565 6.7912 77.1119 7.43895C76.7115 8.03369 76.5013 8.73605 76.5091 9.45297C76.468 10.2127 76.7075 10.9611 77.182 11.5558C77.612 12.0613 78.1613 12.4516 78.7802 12.6913C79.543 12.9716 80.3236 13.201 81.1166 13.3782C81.7552 13.5213 82.3805 13.7182 82.9858 13.9669C83.1565 14.0273 83.3041 14.1394 83.4079 14.2878C83.5118 14.4361 83.5668 14.613 83.5652 14.7941C83.5663 14.943 83.5301 15.09 83.46 15.2214C83.3898 15.3528 83.2877 15.4646 83.1633 15.5464C82.819 15.7586 82.4176 15.8597 82.0138 15.8361C81.5241 15.8518 81.0429 15.7055 80.6447 15.4203C80.4676 15.2939 80.3201 15.1307 80.212 14.9421C80.104 14.7533 80.0379 14.5435 80.0184 14.3268H76.0933C76.1486 15.1551 76.4477 15.9486 76.953 16.6072ZM94.6166 6.00905C95.3526 5.62376 96.174 5.43086 97.0044 5.4483C98.0297 5.43569 99.0369 5.71793 99.9063 6.26138C100.797 6.83272 101.509 7.64215 101.962 8.59784C102.456 9.70019 102.712 10.8945 102.712 12.1025C102.712 13.3105 102.456 14.5048 101.962 15.6072C101.505 16.5605 100.794 17.3691 99.9063 17.9436C99.0387 18.4921 98.0308 18.7778 97.0044 18.7661C96.1776 18.7822 95.36 18.591 94.6259 18.21C93.973 17.8765 93.414 17.385 92.9998 16.7801V24.7614H89.0325V5.63988H92.9998V7.47166C93.4054 6.8544 93.9619 6.35094 94.6166 6.00905ZM97.855 9.74737C97.5907 9.47204 97.2715 9.2553 96.9181 9.1112C96.5647 8.96711 96.185 8.89887 95.8036 8.91093C95.4269 8.90487 95.0534 8.97831 94.7072 9.12648C94.3609 9.27463 94.0498 9.49416 93.7941 9.77073C93.2244 10.4116 92.929 11.2507 92.9718 12.1072C92.929 12.9637 93.2244 13.8027 93.7941 14.4436C94.0538 14.7165 94.3663 14.9337 94.7126 15.0822C95.0587 15.2307 95.4315 15.3072 95.8082 15.3072C96.185 15.3072 96.5576 15.2307 96.9038 15.0822C97.2501 14.9337 97.5625 14.7165 97.8222 14.4436C98.1098 14.1244 98.3316 13.7518 98.4751 13.3469C98.6187 12.942 98.6811 12.5128 98.6587 12.0838C98.7097 11.2323 98.4205 10.3953 97.855 9.75672V9.74737ZM108.191 13.0651H117.173C117.219 12.679 117.242 12.2904 117.243 11.9016C117.269 10.7124 116.986 9.53673 116.42 8.49034C115.891 7.53516 115.098 6.75305 114.135 6.23801C113.106 5.69775 111.957 5.42612 110.794 5.44829C109.593 5.41727 108.404 5.69566 107.341 6.2567C106.359 6.79287 105.557 7.60523 105.032 8.59315C104.466 9.68116 104.183 10.8947 104.21 12.1212C104.18 13.3496 104.468 14.565 105.046 15.6493C105.58 16.64 106.392 17.4523 107.383 17.9857C108.426 18.5405 109.594 18.8204 110.776 18.7987C111.756 18.814 112.729 18.6162 113.626 18.2193C114.436 17.8618 115.154 17.3246 115.725 16.6486C116.297 15.9726 116.707 15.1754 116.925 14.3175H112.719C112.548 14.7153 112.257 15.05 111.887 15.2751C111.517 15.5004 111.086 15.605 110.654 15.5744C110.031 15.5907 109.426 15.3607 108.972 14.9343C108.478 14.4366 108.198 13.766 108.191 13.0651ZM113.019 9.96947C113.139 10.2501 113.195 10.5543 113.182 10.8595H108.215C108.283 10.2242 108.586 9.63737 109.065 9.21465C109.535 8.82006 110.134 8.61216 110.747 8.63054C111.382 8.60822 112.003 8.825 112.486 9.23801C112.716 9.4388 112.898 9.68879 113.019 9.96947ZM124.808 6.11651C125.516 5.70106 126.324 5.48772 127.145 5.49969V9.7053H126.056C125.261 9.6448 124.47 9.87016 123.827 10.3408C123.332 10.7707 123.084 11.5137 123.084 12.5838V18.5885H119.117V5.63987H123.084V7.78473C123.519 7.10043 124.11 6.52879 124.808 6.11651ZM128.962 16.6072C129.513 17.305 130.232 17.8516 131.051 18.196C132.008 18.5964 133.038 18.7921 134.075 18.7707C135.025 18.7883 135.968 18.6151 136.85 18.2614C137.58 17.9739 138.214 17.4883 138.682 16.8596C139.107 16.2693 139.33 15.5586 139.322 14.8315C139.347 14.0536 139.094 13.2922 138.612 12.6819C138.186 12.1709 137.64 11.7728 137.023 11.5231C136.261 11.2295 135.48 10.9844 134.687 10.7894C134.054 10.6691 133.435 10.4827 132.841 10.2333C132.669 10.1711 132.52 10.0574 132.415 9.90783C132.31 9.75822 132.253 9.57986 132.252 9.39688C132.247 9.25409 132.278 9.11234 132.343 8.98487C132.407 8.8574 132.503 8.74836 132.621 8.66793C132.942 8.47047 133.316 8.3774 133.691 8.40156C134.16 8.3787 134.621 8.51727 135 8.79409C135.165 8.92419 135.302 9.0858 135.404 9.26952C135.506 9.45323 135.57 9.65537 135.593 9.86418H139.261C139.215 9.24781 139.047 8.6467 138.768 8.09565C138.488 7.54459 138.101 7.05455 137.631 6.6539C136.696 5.85016 135.416 5.4483 133.79 5.4483C132.812 5.42476 131.841 5.60788 130.939 5.98568C130.209 6.2858 129.581 6.79045 129.131 7.43895C128.723 8.03615 128.508 8.74386 128.514 9.46698C128.477 10.2226 128.718 10.9654 129.191 11.5558C129.622 12.0625 130.173 12.4529 130.794 12.6913C131.557 12.9718 132.337 13.2013 133.131 13.3782C133.769 13.5218 134.394 13.7187 135 13.9669C135.171 14.0273 135.318 14.1394 135.422 14.2878C135.526 14.4361 135.581 14.613 135.579 14.7941C135.581 14.9436 135.544 15.0911 135.473 15.2228C135.402 15.3543 135.299 15.4657 135.173 15.5464C134.828 15.7586 134.427 15.8597 134.023 15.8361C133.534 15.8511 133.053 15.705 132.654 15.4203C132.478 15.2932 132.331 15.1298 132.223 14.9414C132.115 14.7528 132.048 14.5432 132.028 14.3268H128.107C128.161 15.1546 128.459 15.948 128.962 16.6072ZM141.812 3.67726C141.598 3.49063 141.426 3.26013 141.308 3.00136C141.191 2.74258 141.13 2.46155 141.13 2.17726C141.123 1.88684 141.179 1.59825 141.293 1.33126C141.408 1.06428 141.579 0.825233 141.794 0.63053C142.271 0.234906 142.869 0.0183105 143.489 0.0183105C144.107 0.0183105 144.707 0.234906 145.182 0.63053C145.4 0.824531 145.572 1.06311 145.69 1.33002C145.807 1.59693 145.865 1.8859 145.86 2.17726C145.865 2.46281 145.808 2.74616 145.696 3.00816C145.582 3.27016 145.412 3.50472 145.201 3.69595C144.726 4.09415 144.126 4.31243 143.507 4.31243C142.887 4.31243 142.287 4.09415 141.812 3.69595V3.67726ZM145.49 5.63988V18.5885H141.518V5.63988H145.49ZM148.215 15.6258C148.773 16.6171 149.603 17.4279 150.607 17.9623C151.662 18.5108 152.839 18.7871 154.028 18.7661C155.225 18.7826 156.408 18.5033 157.472 17.9529C158.489 17.4204 159.335 16.6103 159.911 15.6165C160.494 14.5361 160.798 13.3277 160.798 12.1002C160.798 10.8726 160.494 9.66422 159.911 8.5838C159.346 7.59123 158.51 6.78062 157.5 6.24736C156.433 5.7125 155.257 5.434 154.062 5.434C152.869 5.434 151.693 5.7125 150.626 6.24736C149.616 6.78062 148.779 7.59123 148.215 8.5838C147.64 9.66829 147.339 10.8772 147.339 12.1048C147.339 13.3324 147.64 14.5414 148.215 15.6258ZM156.771 12.1118C156.828 12.984 156.539 13.8434 155.966 14.5044C155.723 14.7744 155.423 14.9898 155.09 15.1364C154.757 15.2829 154.397 15.3573 154.033 15.3548C153.675 15.3626 153.321 15.2918 152.993 15.1472C152.666 15.0026 152.375 14.788 152.14 14.5183C151.596 13.8445 151.325 12.9902 151.383 12.1259C151.323 11.2568 151.597 10.3976 152.15 9.72398C152.396 9.46234 152.694 9.25388 153.023 9.11141C153.354 8.96893 153.71 8.89544 154.069 8.89544C154.429 8.89544 154.786 8.96893 155.115 9.11141C155.446 9.25388 155.744 9.46234 155.99 9.72398C156.548 10.3901 156.828 11.2452 156.771 12.1118ZM174.21 6.97166C175.116 7.95763 175.569 9.30811 175.569 11.0231V18.5885H171.621V11.5558C171.666 10.8212 171.425 10.0976 170.948 9.53708C170.458 9.07541 169.811 8.81829 169.137 8.81829C168.465 8.81829 167.816 9.07541 167.326 9.53708C166.85 10.0976 166.608 10.8212 166.654 11.5558V18.5885H162.687V5.63988H166.654V7.35483C167.072 6.77186 167.632 6.30537 168.28 5.99969C168.994 5.65893 169.779 5.48781 170.569 5.49969C171.247 5.46845 171.922 5.5838 172.551 5.83784C173.179 6.0919 173.746 6.47865 174.21 6.97166ZM56.3502 28.4015C55.1215 29.0905 54.1123 30.1126 53.439 31.3501V31.3736C52.7508 32.7021 52.3915 34.1764 52.3915 35.6726C52.3915 37.1689 52.7508 38.6432 53.439 39.9716C54.1158 41.2029 55.1244 42.2197 56.3502 42.9062C57.6461 43.6235 59.1077 43.9876 60.5886 43.9623C62.3656 44.0118 64.1102 43.4785 65.5559 42.4436C66.9363 41.4207 67.9138 39.9455 68.3176 38.2754H63.953C63.6545 38.9244 63.1656 39.4671 62.5512 39.8315C61.9369 40.1919 61.2352 40.3762 60.5231 40.3642C59.9644 40.384 59.408 40.2798 58.8943 40.0593C58.3804 39.8387 57.9218 39.5072 57.5512 39.0885C56.8141 38.104 56.4156 36.9072 56.4156 35.6772C56.4156 34.4473 56.8141 33.2505 57.5512 32.2661C57.9218 31.8473 58.3804 31.5158 58.8943 31.2953C59.408 31.0747 59.9644 30.9705 60.5231 30.9904C61.2352 30.9783 61.9369 31.1626 62.5512 31.523C63.1656 31.8875 63.6545 32.4301 63.953 33.0791H68.3176C67.9166 31.3976 66.9395 29.9097 65.5559 28.8736C64.1122 27.8339 62.367 27.2971 60.5886 27.3455C59.1077 27.3201 57.6461 27.6843 56.3502 28.4015ZM70.4858 33.8175C70.9369 32.8603 71.6498 32.0503 72.5419 31.481C73.4098 30.9382 74.4154 30.656 75.439 30.6679C76.275 30.6503 77.1022 30.8414 77.8456 31.224C78.4948 31.5629 79.043 32.0675 79.4344 32.6866V30.8548H83.4016V43.8035H79.4484V41.9904C79.0443 42.6072 78.4894 43.1105 77.8362 43.453C77.0943 43.8351 76.2688 44.0262 75.4344 44.009C74.4156 44.0186 73.4158 43.7329 72.5559 43.1866C71.6672 42.6135 70.9554 41.8044 70.4998 40.8501C70.0058 39.7478 69.7504 38.5535 69.7504 37.3455C69.7504 36.1375 70.0058 34.9432 70.4998 33.8408L70.4858 33.8175ZM78.6073 35.0044C78.3529 34.7275 78.0427 34.5076 77.6972 34.3594C77.3516 34.2112 76.9786 34.138 76.6026 34.1446C76.2272 34.1379 75.8547 34.2097 75.5086 34.3553C75.1626 34.501 74.8508 34.7172 74.5933 34.9904C74.3087 35.3062 74.0895 35.6753 73.9483 36.0764C73.8072 36.4773 73.7469 36.9023 73.7708 37.3268C73.7326 38.1826 74.0273 39.0201 74.5933 39.6633C74.8513 39.9364 75.1625 40.1539 75.5076 40.3025C75.8527 40.4512 76.2245 40.5279 76.6002 40.5279C76.9761 40.5279 77.3479 40.4512 77.6929 40.3025C78.038 40.1539 78.3491 39.9364 78.6073 39.6633C79.1381 39.0003 79.4273 38.1762 79.4273 37.3268C79.4273 36.4775 79.1381 35.6535 78.6073 34.9904V35.0044ZM93.5465 30.6866C92.715 30.6678 91.892 30.859 91.154 31.2428C90.5044 31.5865 89.9529 32.0898 89.5512 32.7053V30.8736H85.5838V49.9904H89.5512V42.009C89.9604 42.6155 90.5145 43.1103 91.1633 43.4483C91.899 43.8293 92.7181 44.0204 93.5465 44.0044C94.5713 44.0154 95.5774 43.7298 96.4437 43.1819C97.3323 42.6087 98.0443 41.7998 98.4998 40.8455C98.9938 39.7432 99.2491 38.5489 99.2491 37.3408C99.2491 36.1329 98.9938 34.9385 98.4998 33.8361C98.0486 32.8789 97.3358 32.0689 96.4437 31.4997C95.5758 30.9568 94.5702 30.6747 93.5465 30.6866ZM93.4652 34.3436C93.8152 34.4893 94.1309 34.7064 94.3923 34.981L94.4016 34.9904C94.684 35.3064 94.9011 35.675 95.0406 36.0751C95.1802 36.4754 95.2394 36.8992 95.2147 37.3221C95.2537 38.1805 94.9531 39.0198 94.3783 39.6586C94.1218 39.9371 93.8094 40.1585 93.4615 40.3082C93.1137 40.4579 92.7383 40.5328 92.3595 40.5278C91.9837 40.5343 91.6106 40.4611 91.2651 40.3129C90.9195 40.1647 90.6093 39.9448 90.355 39.6679C89.8241 39.0048 89.5348 38.1808 89.5348 37.3315C89.5348 36.4821 89.8241 35.658 90.355 34.995C90.6093 34.7182 90.9195 34.4983 91.2651 34.3501C91.6106 34.2019 91.9837 34.1286 92.3595 34.1353C92.7386 34.1271 93.1152 34.198 93.4652 34.3436ZM101.411 28.911C101.198 28.7205 101.028 28.4862 100.913 28.2241C100.799 27.9619 100.742 27.6782 100.747 27.3922C100.74 27.1018 100.795 26.8132 100.91 26.5462C101.024 26.2793 101.195 26.0403 101.411 25.8455C101.887 25.4498 102.486 25.2333 103.105 25.2333C103.724 25.2333 104.323 25.4498 104.799 25.8455C105.013 26.0412 105.182 26.2805 105.296 26.5473C105.41 26.8141 105.465 27.1023 105.458 27.3922C105.463 27.6778 105.407 27.9611 105.293 28.2232C105.18 28.4851 105.011 28.7197 104.799 28.911C104.324 29.3091 103.725 29.5273 103.105 29.5273C102.485 29.5273 101.886 29.3091 101.411 28.911ZM105.089 30.8736V43.8221H101.121V30.8736H105.089ZM115.43 43.8221V40.4576L114.018 40.4716C113.686 40.5046 113.353 40.413 113.084 40.2147C112.983 40.1025 112.906 39.9707 112.859 39.8276C112.812 39.6844 112.794 39.533 112.808 39.3829V34.1819H115.406V30.911H112.808V27.7521H108.841V30.911H107.261V34.1819H108.841V39.3221C108.841 40.914 109.243 42.0621 110.046 42.7661C110.85 43.4701 111.972 43.8221 113.411 43.8221H115.43ZM117.346 33.8175C117.796 32.8608 118.507 32.051 119.397 31.481C120.268 30.9437 121.275 30.6665 122.299 30.6819C123.133 30.6637 123.959 30.8548 124.701 31.238C125.352 31.5755 125.902 32.0804 126.294 32.7007V30.8689H130.261V43.8175H126.294V41.9904C125.89 42.6085 125.333 43.1121 124.677 43.453C123.936 43.8361 123.11 44.0273 122.276 44.009C121.257 44.0175 120.257 43.7319 119.397 43.1866C118.51 42.613 117.8 41.8041 117.346 40.8501C116.849 39.7486 116.592 38.554 116.592 37.3455C116.592 36.1371 116.849 34.9423 117.346 33.8408V33.8175ZM125.467 35.0044C125.206 34.7366 124.894 34.5239 124.549 34.3786C124.204 34.2333 123.834 34.1585 123.46 34.1585C123.086 34.1585 122.716 34.2333 122.371 34.3786C122.026 34.5239 121.714 34.7366 121.453 35.0044C121.168 35.3197 120.948 35.6886 120.807 36.0898C120.666 36.491 120.606 36.9162 120.631 37.3408C120.588 38.1973 120.883 39.0364 121.453 39.6772C121.711 39.9504 122.022 40.1679 122.367 40.3165C122.712 40.4653 123.084 40.5419 123.46 40.5419C123.836 40.5419 124.208 40.4653 124.553 40.3165C124.898 40.1679 125.209 39.9504 125.467 39.6772C125.998 39.0143 126.287 38.1901 126.287 37.3408C126.287 36.4915 125.998 35.6673 125.467 35.0044ZM136.874 43.8221V26.6493H132.906V43.8221H136.874Z" fill="white"/>
<path d="M44.1404 20.448C43.8978 20.0087 43.5418 19.6424 43.1094 19.3877C42.6771 19.1328 42.1843 18.9988 41.6824 18.9994H38.2151L40.6124 15.0741C40.8789 14.6477 41.0258 14.1573 41.0378 13.6545C41.0497 13.1517 40.9262 12.6549 40.6801 12.2162C40.434 11.7776 40.0744 11.4132 39.6392 11.1613C39.2037 10.9094 38.7087 10.7792 38.2058 10.7844H34.2292L36.8179 6.5461C37.0858 6.11953 37.2337 5.62868 37.2462 5.12515C37.2589 4.62163 37.1355 4.12401 36.8893 3.68463C36.643 3.24524 36.283 2.88028 35.8469 2.62814C35.411 2.37599 34.915 2.24596 34.4114 2.25171H14.9861C14.5033 2.25378 14.029 2.37886 13.6079 2.61514C13.1869 2.85143 12.8329 3.19114 12.5796 3.60218L0.430087 23.5181C0.163361 23.943 0.0155238 24.4316 0.00199628 24.9331C-0.0115313 25.4347 0.109746 25.9306 0.353179 26.3692C0.596611 26.8078 0.95328 27.1731 1.38599 27.427C1.8187 27.6809 2.31159 27.814 2.81327 27.8124H6.78989L4.21513 32.0508C3.94731 32.4773 3.79934 32.9683 3.78678 33.4717C3.77423 33.9752 3.89755 34.4729 4.14378 34.9123C4.39002 35.3516 4.75007 35.7166 5.1861 35.9687C5.62213 36.2209 6.11803 36.3509 6.62167 36.3452H10.089L7.69177 40.2704C7.42517 40.6969 7.27821 41.1873 7.26628 41.6901C7.25436 42.1928 7.37792 42.6897 7.624 43.1283C7.87009 43.567 8.22964 43.9313 8.66496 44.1833C9.1003 44.4352 9.59538 44.5653 10.0983 44.5601H29.5236C30.0065 44.559 30.4812 44.4342 30.9025 44.1979C31.3236 43.9615 31.6775 43.6213 31.9301 43.2097L44.103 23.2938C44.3626 22.8659 44.503 22.3765 44.5096 21.8759C44.5162 21.3755 44.3887 20.8824 44.1404 20.448ZM38.2198 13.6162L34.9487 19.0041H29.2058L32.5049 13.6115L38.2198 13.6162ZM17.0096 25.0041H11.8039L18.7805 13.6022H29.2199L25.9207 18.9994H22.2525C21.7703 19.0013 21.2965 19.1265 20.8762 19.3627C20.456 19.5991 20.1029 19.9388 19.8507 20.3498L17.0096 25.0041ZM22.2525 21.8031H24.2058L22.2572 24.9901H20.2993L22.2525 21.8031ZM22.2525 27.8078C22.7321 27.8062 23.2033 27.6831 23.6225 27.4502C24.0415 27.2174 24.395 26.8823 24.6497 26.476L27.4908 21.8031H33.1871L26.0515 33.5322H15.103L18.5983 27.8172L22.2525 27.8078ZM2.81327 25.0041L14.9861 5.06013L34.4254 5.08817L30.9442 10.7891H18.7946C18.3076 10.7863 17.8282 10.9091 17.4025 11.1456C16.9768 11.3822 16.6194 11.7245 16.3647 12.1396L8.51886 24.9901L2.81327 25.0041ZM6.60299 33.5322L10.0936 27.8312H15.2899L11.8039 33.5415L6.60299 33.5322ZM29.5329 41.7658L10.0936 41.7377L13.3647 36.3545H26.0376C26.5197 36.3522 26.9932 36.2269 27.4135 35.9905C27.8337 35.7542 28.1868 35.4148 28.4394 35.0041L36.4861 21.8358H41.6964L29.5329 41.7658Z" fill="white"/>
</g>
</svg>
