<svg width="294" height="50" viewBox="0 0 294 50" fill="none" xmlns="http://www.w3.org/2000/svg">
<path d="M96.1111 9.81116L100.556 38.3612H100.65L117.067 9.81116H123.178L116.111 43.0112H111.878L118.667 13.95H118.572L101.667 43.0112H97.4333L93.1111 13.95H93.0167L87.2222 43.0112H82.9889L89.9444 9.81116H96.1111Z" fill="white"/>
<path d="M125.634 22.7779C126.253 21.8218 127.051 20.9938 127.984 20.339C128.944 19.6749 130.014 19.1859 131.145 18.8946C132.346 18.5825 133.582 18.4275 134.823 18.4335C135.94 18.4273 137.055 18.5202 138.156 18.7112C139.132 18.8705 140.073 19.2015 140.934 19.689C141.729 20.1383 142.395 20.785 142.867 21.5668C143.377 22.4821 143.627 23.5196 143.589 24.5668C143.581 25.3144 143.496 26.0591 143.334 26.789C143.161 27.5779 143 28.3001 142.845 28.9501L141.306 35.5057C141.217 36.0057 141.084 36.5612 140.911 37.1723C140.749 37.7474 140.663 38.3414 140.656 38.939C140.612 39.3537 140.73 39.7694 140.984 40.1001C141.093 40.2103 141.224 40.2964 141.368 40.3528C141.513 40.4093 141.668 40.4348 141.823 40.4279C142.037 40.4225 142.249 40.3831 142.45 40.3112L143.078 40.1001L142.473 43.0279C142.086 43.1757 141.689 43.2927 141.284 43.3779C140.88 43.4776 140.466 43.5316 140.05 43.539C139.601 43.5716 139.15 43.5098 138.726 43.3577C138.302 43.2056 137.915 42.9664 137.589 42.6557C137.3 42.3225 137.091 41.9274 136.978 41.5007C136.865 41.074 136.852 40.6272 136.939 40.1946L136.845 40.1001C136.031 41.1942 134.96 42.0717 133.728 42.6557C132.169 43.3056 130.488 43.6071 128.8 43.539C127.836 43.548 126.874 43.4322 125.939 43.1946C125.089 42.9854 124.298 42.5829 123.628 42.0183C122.958 41.4536 122.428 40.7421 122.078 39.939C121.675 38.9433 121.485 37.8738 121.523 36.8001C121.523 35.0335 121.9 33.6501 122.634 32.6612C123.392 31.6608 124.4 30.8772 125.556 30.389C126.797 29.8598 128.106 29.5082 129.445 29.3446C130.871 29.1557 132.25 29.0001 133.584 28.8779C134.639 28.7835 135.545 28.6835 136.306 28.5723C136.96 28.4899 137.595 28.3023 138.189 28.0168C138.669 27.7958 139.06 27.4201 139.3 26.9501C139.561 26.348 139.68 25.6944 139.65 25.039C139.677 24.4755 139.513 23.9194 139.184 23.4612C138.877 23.0562 138.479 22.7289 138.023 22.5057C137.532 22.2653 137.007 22.1005 136.467 22.0168C135.916 21.9279 135.359 21.8814 134.8 21.8779C134.053 21.8768 133.309 21.955 132.578 22.1112C131.881 22.2546 131.212 22.5137 130.6 22.8779C130.02 23.2261 129.515 23.6848 129.111 24.2279C128.693 24.821 128.426 25.5077 128.334 26.2279H124.384C124.541 24.9998 124.968 23.8216 125.634 22.7779ZM126.745 39.2612C127.642 39.8256 128.685 40.117 129.745 40.1001C132.878 40.1001 135.126 39.0464 136.489 36.939C137.129 36.0657 137.579 35.0685 137.811 34.0112C138.045 32.9557 138.3 31.8668 138.584 30.7557H138.489C137.853 31.1886 137.131 31.4803 136.373 31.6112C135.472 31.7902 134.564 31.9237 133.65 32.0112C132.689 32.1001 131.723 32.2168 130.745 32.3557C129.845 32.4757 128.963 32.7032 128.117 33.0335C127.385 33.3146 126.731 33.7681 126.211 34.3557C125.678 35.0378 125.399 35.8845 125.423 36.7501C125.4 37.2467 125.512 37.74 125.746 38.1788C125.979 38.6175 126.326 38.9856 126.75 39.2446L126.745 39.2612Z" fill="white"/>
<path d="M149.328 34.2721C149.314 35.1292 149.488 35.9789 149.839 36.761C150.161 37.4626 150.637 38.0819 151.233 38.5721C151.83 39.0573 152.507 39.4334 153.233 39.6833C153.981 39.9457 154.769 40.0791 155.561 40.0777C157.104 40.1387 158.629 39.7236 159.928 38.8888C161.116 38.0419 162.012 36.8458 162.489 35.4666H166.439C166.164 36.7189 165.659 37.9094 164.95 38.9777C164.295 39.9624 163.46 40.8144 162.489 41.4888C161.509 42.1651 160.424 42.6756 159.278 42.9999C158.07 43.3468 156.818 43.5189 155.561 43.511C153.864 43.567 152.174 43.2582 150.606 42.6055C149.396 42.0802 148.323 41.286 147.467 40.2833C146.71 39.3708 146.156 38.3087 145.839 37.1666C145.539 36.0997 145.384 34.9972 145.378 33.8888C145.353 31.7474 145.691 29.6173 146.378 27.5888C146.973 25.8046 147.886 24.1427 149.072 22.6833C150.151 21.3592 151.5 20.2797 153.028 19.5166C154.492 18.7826 156.107 18.402 157.745 18.4055C161.278 18.4055 163.859 19.3314 165.489 21.1833C167.119 23.0351 167.932 25.6536 167.928 29.0388C167.931 29.6306 167.885 30.2215 167.789 30.8055C167.696 31.3647 167.619 31.8147 167.556 32.1555H149.445C149.357 32.8575 149.318 33.5647 149.328 34.2721ZM163.811 26.1999C163.657 25.4155 163.341 24.6718 162.883 24.0166C162.422 23.3723 161.815 22.8468 161.111 22.4833C160.254 22.0797 159.313 21.8891 158.367 21.9277C157.309 21.9158 156.259 22.1043 155.272 22.4833C154.39 22.8018 153.573 23.278 152.861 23.8888C152.177 24.5128 151.598 25.2424 151.145 26.0499C150.676 26.8812 150.304 27.7627 150.033 28.6777H163.983C164.042 27.8478 163.984 27.0138 163.811 26.1999Z" fill="white"/>
<path d="M180.556 9.81116L173.6 43.0112H169.711L176.639 9.81116H180.556Z" fill="white"/>
<path d="M194.389 22.95C193.335 22.232 192.081 21.8646 190.806 21.9C190.2 21.9031 189.594 21.9495 188.995 22.0389C188.418 22.1169 187.856 22.2818 187.328 22.5278C186.869 22.7464 186.464 23.0654 186.145 23.4611C185.818 23.8953 185.654 24.4296 185.678 24.9722C185.672 25.5054 185.871 26.0205 186.234 26.4111C186.647 26.8604 187.133 27.2361 187.673 27.5222C188.33 27.8897 189.013 28.209 189.717 28.4778C190.478 28.7722 191.245 29.0722 192.023 29.3833C192.8 29.6944 193.611 30.0944 194.367 30.4944C195.093 30.8735 195.773 31.3339 196.395 31.8667C196.98 32.3786 197.467 32.9922 197.834 33.6778C198.218 34.434 198.409 35.274 198.389 36.1222C198.425 37.3218 198.118 38.5068 197.506 39.5389C196.932 40.4696 196.153 41.2564 195.228 41.8389C194.264 42.444 193.202 42.8764 192.089 43.1167C190.938 43.3803 189.76 43.5126 188.578 43.5111C187.282 43.5231 185.989 43.3909 184.723 43.1167C183.625 42.8944 182.585 42.4481 181.667 41.8055C180.795 41.159 180.099 40.303 179.645 39.3167C179.111 38.0916 178.857 36.7632 178.9 35.4278H182.789C182.706 36.1916 182.845 36.9632 183.189 37.65C183.502 38.2405 183.966 38.7372 184.534 39.0889C185.149 39.4614 185.827 39.721 186.534 39.8555C187.322 40.0137 188.124 40.0919 188.928 40.0889C189.584 40.0885 190.239 40.0271 190.884 39.9056C191.502 39.791 192.098 39.5791 192.65 39.2778C193.158 38.9988 193.595 38.6073 193.928 38.1333C194.268 37.6271 194.439 37.0261 194.417 36.4167C194.427 35.8612 194.229 35.3221 193.861 34.9056C193.443 34.4598 192.955 34.0846 192.417 33.7944C191.769 33.4226 191.093 33.1031 190.395 32.8389C189.634 32.5444 188.867 32.2278 188.095 31.8833C187.323 31.5389 186.506 31.2333 185.745 30.8611C185.011 30.5078 184.324 30.0636 183.7 29.5389C183.107 29.0423 182.616 28.4346 182.256 27.75C181.88 27.0163 181.69 26.202 181.7 25.3778C181.681 24.334 181.946 23.3047 182.467 22.4C182.972 21.5381 183.663 20.7998 184.489 20.2389C185.377 19.6355 186.356 19.1796 187.389 18.8889C188.454 18.5802 189.558 18.4249 190.667 18.4278C191.779 18.4253 192.887 18.5578 193.967 18.8222C195.011 19.0634 195.997 19.5049 196.873 20.1222C197.739 20.7403 198.449 21.5528 198.945 22.4944C199.5 23.5952 199.772 24.8176 199.734 26.05H195.784C195.851 25.4557 195.757 24.8543 195.511 24.3089C195.266 23.7635 194.878 23.2941 194.389 22.95Z" fill="white"/>
<path d="M216.706 18.9721L215.961 22.461H211.172L208.195 36.5944C208.167 36.8721 208.133 37.1499 208.106 37.3888C208.071 37.6503 208.055 37.9139 208.056 38.1777C208.031 38.439 208.087 38.7015 208.216 38.93C208.345 39.1585 208.541 39.3419 208.778 39.4555C209.299 39.6984 209.87 39.8182 210.445 39.8055C210.835 39.8068 211.224 39.7677 211.606 39.6888C211.982 39.6101 212.353 39.508 212.717 39.3832L212.022 43.011L210.628 43.1777C210.161 43.2221 209.695 43.2444 209.233 43.2444C208.532 43.2469 207.832 43.193 207.139 43.0832C206.539 42.9911 205.962 42.7856 205.439 42.4777C204.961 42.184 204.562 41.7777 204.278 41.2944C203.963 40.7081 203.812 40.0481 203.839 39.3832C203.838 39.058 203.86 38.7331 203.906 38.411C203.956 38.0999 204.006 37.761 204.067 37.3888L207.222 22.461H203.172L203.917 18.9721H207.967L209.445 11.8555H213.4L211.911 18.9721H216.706Z" fill="white"/>
<path d="M224.795 18.9722L223.633 24.1333H223.728C224.617 22.5372 225.828 21.143 227.283 20.0388C228.785 18.9375 230.611 18.3668 232.472 18.4166C232.705 18.4176 232.937 18.4008 233.167 18.3666C233.401 18.3372 233.639 18.3542 233.867 18.4166L232.933 22.6444C232.734 22.6091 232.531 22.5942 232.328 22.6H231.772C231.278 22.6 230.872 22.6 230.561 22.6C230.168 22.63 229.779 22.7008 229.4 22.8111C228.339 23.0758 227.348 23.5666 226.495 24.25C225.625 24.9459 224.874 25.7791 224.272 26.7166C223.72 27.5566 223.3 28.4767 223.028 29.4444C222.724 30.4851 222.476 31.4555 222.283 32.3555L220 43.0111H216.111L221.111 18.9722H224.795Z" fill="white"/>
<path d="M232.778 27.8557C233.347 26.0896 234.246 24.4475 235.428 23.0168C236.592 21.6238 238.034 20.4885 239.661 19.6835C241.418 18.8225 243.355 18.3921 245.311 18.4279C248.567 18.4279 251.046 19.2723 252.75 20.9612C254.454 22.6501 255.306 25.1224 255.306 28.3779C255.316 30.2983 255.025 32.2085 254.444 34.039C253.878 35.8053 252.987 37.4502 251.817 38.889C250.674 40.2949 249.247 41.4424 247.628 42.2557C245.879 43.1171 243.949 43.5476 242 43.5112C240.559 43.5358 239.126 43.2869 237.778 42.7779C236.587 42.3331 235.506 41.6355 234.61 40.733C233.714 39.8305 233.025 38.7447 232.589 37.5501C232.116 36.2624 231.881 34.8996 231.894 33.5279C231.882 31.602 232.18 29.6866 232.778 27.8557ZM237.494 38.2724C238.606 39.4798 240.25 40.0835 242.428 40.0835C243.789 40.1132 245.127 39.7255 246.261 38.9724C247.362 38.2258 248.306 37.2708 249.039 36.1612C249.801 35.0243 250.382 33.7762 250.761 32.4612C251.133 31.2397 251.329 29.9714 251.344 28.6946C251.347 27.7981 251.221 26.9058 250.972 26.0446C250.744 25.2525 250.35 24.5178 249.817 23.889C249.27 23.2711 248.595 22.7801 247.839 22.4501C246.951 22.0643 245.99 21.8748 245.022 21.8946C243.61 21.8633 242.221 22.2498 241.028 23.0057C239.887 23.7411 238.906 24.6991 238.144 25.8224C237.362 26.9649 236.773 28.2279 236.4 29.5612C236.036 30.8257 235.849 32.1344 235.844 33.4501C235.748 35.2097 236.338 36.9382 237.489 38.2724H237.494Z" fill="white"/>
<path d="M265.395 18.9723L264.506 22.55L264.6 22.6445C265.599 21.3624 266.86 20.3092 268.3 19.5556C269.74 18.7958 271.345 18.4045 272.972 18.4167C274.333 18.38 275.678 18.7162 276.861 19.3889C277.432 19.7628 277.918 20.2529 278.287 20.8273C278.655 21.4017 278.898 22.0474 279 22.7222C279.942 21.4099 281.176 20.3352 282.606 19.5834C284.025 18.8076 285.616 18.4007 287.234 18.4C288.063 18.3995 288.89 18.5002 289.695 18.7C290.463 18.8843 291.193 19.198 291.856 19.6278C292.49 20.0494 293.009 20.6221 293.367 21.2945C293.76 22.0717 293.951 22.9352 293.922 23.8056C293.913 24.6181 293.835 25.4285 293.689 26.2278C293.534 27.1278 293.378 27.8945 293.222 28.6L290.222 43.0111H286.272L289.606 27.7611C289.7 27.3889 289.784 26.9445 289.861 26.4334C289.932 26.0109 289.971 25.5838 289.978 25.1556C289.987 24.7152 289.898 24.2784 289.718 23.8767C289.537 23.475 289.269 23.1186 288.934 22.8334C288.207 22.201 287.268 21.8674 286.306 21.9C285.739 21.9071 285.177 22.0008 284.639 22.1778C284.061 22.3638 283.503 22.6057 282.972 22.9C282.443 23.1977 281.946 23.5496 281.489 23.95C281.044 24.3261 280.638 24.7468 280.278 25.2056C279.628 25.914 279.138 26.7531 278.839 27.6667C278.519 28.6285 278.253 29.6079 278.045 30.6L275.389 43.0111H271.439L274.322 29.2945C274.539 28.3667 274.717 27.5 274.878 26.6889C274.985 26.1518 275.056 25.6079 275.089 25.0611C275.113 24.6356 275.049 24.2097 274.901 23.8101C274.753 23.4105 274.524 23.0458 274.228 22.7389C273.889 22.4421 273.494 22.2152 273.067 22.0712C272.64 21.9272 272.189 21.8691 271.739 21.9C270.597 21.9158 269.48 22.2381 268.506 22.8334C267.495 23.4036 266.585 24.1355 265.811 25C265.063 25.6751 264.475 26.5082 264.089 27.4389C263.735 28.4166 263.455 29.4194 263.25 30.4389L260.556 43.0111H256.667L261.734 18.9723H265.395Z" fill="white"/>
<path d="M11.7944 0L0 50H16.6444L28.4333 0H11.7944Z" fill="white"/>
<path d="M33.028 0L21.2335 50H37.878L49.6724 0H33.028Z" fill="white"/>
<path d="M54.2612 0L42.4668 50H59.1112L70.9057 0H54.2612Z" fill="white"/>
</svg>
